<?xml version="1.0" encoding="UTF-8" standalone="no"?>
<svg
   width="412"
   height="275"
   viewBox="0 0 412 275"
   version="1.1"
   id="svg94"
   xmlns="http://www.w3.org/2000/svg"
   xmlns:svg="http://www.w3.org/2000/svg">
  <defs
     id="defs98" />
  <!-- Heart 1 - Large baby pink -->
  <g
     id="g10"
     transform="translate(-70,-55)">
    <path
       d="m 100,120 c 0,0 -30,-20 -30,-40 0,-15 8,-22 16,-22 7,0 12,4 14,10 2,-6 7,-10 14,-10 8,0 16,7 16,22 0,20 -30,40 -30,40 z"
       fill="#ffffff"
       id="path2" />
    <path
       d="m 100,115 c 0,0 -27,-18 -27,-35 0,-13 6,-19 13,-19 6,0 11,4 14,9 3,-5 8,-9 14,-9 7,0 13,6 13,19 0,17 -27,35 -27,35 z"
       fill="none"
       stroke="#8b6f47"
       stroke-width="4"
       id="path4" />
    <path
       d="m 100,112 c 0,0 -24,-16 -24,-32 0,-11 5,-16 11,-16 5,0 10,3 13,7 3,-4 8,-7 13,-7 6,0 11,5 11,16 0,16 -24,32 -24,32 z"
       fill="#ffd4e5"
       id="path6" />
    <ellipse
       cx="92"
       cy="75"
       rx="8"
       ry="5"
       fill="#ffffff"
       opacity="0.5"
       id="ellipse8" />
  </g>
  <!-- Heart 2 - Medium peach -->
  <g
     id="g20"
     transform="translate(-70,-55)">
    <path
       d="m 220,100 c 0,0 -20,-13 -20,-27 0,-10 5,-15 11,-15 5,0 8,3 9,7 1,-4 4,-7 9,-7 6,0 11,5 11,15 0,14 -20,27 -20,27 z"
       fill="#ffffff"
       id="path12" />
    <path
       d="m 220,96 c 0,0 -18,-11 -18,-23 0,-9 4,-13 9,-13 4,0 7,3 9,6 2,-3 5,-6 9,-6 5,0 9,4 9,13 0,12 -18,23 -18,23 z"
       fill="none"
       stroke="#8b6f47"
       stroke-width="3"
       id="path14" />
    <path
       d="m 220,94 c 0,0 -16,-10 -16,-21 0,-8 3,-11 7,-11 4,0 7,2 9,5 2,-3 5,-5 9,-5 4,0 7,3 7,11 0,11 -16,21 -16,21 z"
       fill="#ffdab9"
       id="path16" />
    <ellipse
       cx="214"
       cy="70"
       rx="6"
       ry="4"
       fill="#ffffff"
       opacity="0.5"
       id="ellipse18" />
  </g>
  <!-- Heart 3 - Small baby pink -->
  <g
     id="g28"
     transform="translate(-70,-55)">
    <path
       d="m 320,80 c 0,0 -12,-8 -12,-16 0,-6 3,-9 7,-9 3,0 5,2 5,4 0,-2 2,-4 5,-4 4,0 7,3 7,9 0,8 -12,16 -12,16 z"
       fill="#ffffff"
       id="path22" />
    <path
       d="m 320,77 c 0,0 -10,-7 -10,-13 0,-5 2,-7 5,-7 2,0 4,2 5,3 1,-1 3,-3 5,-3 3,0 5,2 5,7 0,6 -10,13 -10,13 z"
       fill="none"
       stroke="#8b6f47"
       stroke-width="2.5"
       id="path24" />
    <path
       d="m 320,75 c 0,0 -8,-6 -8,-11 0,-4 1,-6 3,-6 2,0 4,1 5,3 1,-2 3,-3 5,-3 2,0 3,2 3,6 0,5 -8,11 -8,11 z"
       fill="#ffd4e5"
       id="path26" />
  </g>
  <!-- Heart 4 - Large peach -->
  <g
     id="g38"
     transform="translate(-70,-55)">
    <path
       d="m 450,120 c 0,0 -30,-20 -30,-40 0,-15 8,-22 16,-22 7,0 12,4 14,10 2,-6 7,-10 14,-10 8,0 16,7 16,22 0,20 -30,40 -30,40 z"
       fill="#ffffff"
       id="path30" />
    <path
       d="m 450,115 c 0,0 -27,-18 -27,-35 0,-13 6,-19 13,-19 6,0 11,4 14,9 3,-5 8,-9 14,-9 7,0 13,6 13,19 0,17 -27,35 -27,35 z"
       fill="none"
       stroke="#8b6f47"
       stroke-width="4"
       id="path32" />
    <path
       d="m 450,112 c 0,0 -24,-16 -24,-32 0,-11 5,-16 11,-16 5,0 10,3 13,7 3,-4 8,-7 13,-7 6,0 11,5 11,16 0,16 -24,32 -24,32 z"
       fill="#ffdab9"
       id="path34" />
    <ellipse
       cx="442"
       cy="75"
       rx="8"
       ry="5"
       fill="#ffffff"
       opacity="0.5"
       id="ellipse36" />
  </g>
  <!-- Heart 5 - Tiny baby pink -->
  <g
     id="g46"
     transform="translate(-70,-55)">
    <path
       d="m 100,230 c 0,0 -8,-5 -8,-10 0,-3 2,-5 4,-5 1,0 2,1 4,2 2,-1 3,-2 4,-2 2,0 4,2 4,5 0,5 -8,10 -8,10 z"
       fill="#ffffff"
       id="path40" />
    <path
       d="m 100,228 c 0,0 -6,-4 -6,-8 0,-2 1,-4 2,-4 1,0 2,1 4,2 2,-1 3,-2 4,-2 1,0 2,2 2,4 0,4 -6,8 -6,8 z"
       fill="none"
       stroke="#8b6f47"
       stroke-width="2"
       id="path42" />
    <path
       d="m 100,226 c 0,0 -5,-3 -5,-6 0,-2 1,-3 2,-3 1,0 2,1 3,2 1,-1 2,-2 3,-2 1,0 2,1 2,3 0,3 -5,6 -5,6 z"
       fill="#ffd4e5"
       id="path44" />
  </g>
  <!-- Heart 6 - Medium-small peach -->
  <g
     id="g56"
     transform="translate(-70,-55)">
    <path
       d="m 200,250 c 0,0 -15,-12 -15,-23 0,-7 4,-11 9,-11 4,0 7,2 6,5 -1,-3 2,-5 6,-5 5,0 9,4 9,11 0,11 -15,23 -15,23 z"
       fill="#ffffff"
       id="path48" />
    <path
       d="m 200,247 c 0,0 -13,-11 -13,-20 0,-6 3,-9 7,-9 3,0 6,2 6,4 0,-2 3,-4 6,-4 4,0 7,3 7,9 0,9 -13,20 -13,20 z"
       fill="none"
       stroke="#8b6f47"
       stroke-width="3"
       id="path50" />
    <path
       d="m 200,245 c 0,0 -11,-10 -11,-18 0,-5 2,-8 5,-8 3,0 5,2 6,4 1,-2 3,-4 6,-4 3,0 5,3 5,8 0,8 -11,18 -11,18 z"
       fill="#ffdab9"
       id="path52" />
    <ellipse
       cx="195"
       cy="225"
       rx="5"
       ry="3"
       fill="#ffffff"
       opacity="0.5"
       id="ellipse54" />
  </g>
  <!-- Heart 7 - Medium baby pink -->
  <g
     id="g66"
     transform="translate(-70,-55)">
    <path
       d="m 330,220 c 0,0 -20,-13 -20,-27 0,-10 5,-15 11,-15 5,0 8,3 9,7 1,-4 4,-7 9,-7 6,0 11,5 11,15 0,14 -20,27 -20,27 z"
       fill="#ffffff"
       id="path58" />
    <path
       d="m 330,216 c 0,0 -18,-11 -18,-23 0,-9 4,-13 9,-13 4,0 7,3 9,6 2,-3 5,-6 9,-6 5,0 9,4 9,13 0,12 -18,23 -18,23 z"
       fill="none"
       stroke="#8b6f47"
       stroke-width="3"
       id="path60" />
    <path
       d="m 330,214 c 0,0 -16,-10 -16,-21 0,-8 3,-11 7,-11 4,0 7,2 9,5 2,-3 5,-5 9,-5 4,0 7,3 7,11 0,11 -16,21 -16,21 z"
       fill="#ffd4e5"
       id="path62" />
    <ellipse
       cx="324"
       cy="190"
       rx="6"
       ry="4"
       fill="#ffffff"
       opacity="0.5"
       id="ellipse64" />
  </g>
  <!-- Heart 8 - Small peach -->
  <g
     id="g74"
     transform="translate(-70,-55)">
    <path
       d="m 470,240 c 0,0 -12,-8 -12,-16 0,-6 3,-9 7,-9 3,0 5,2 5,4 0,-2 2,-4 5,-4 4,0 7,3 7,9 0,8 -12,16 -12,16 z"
       fill="#ffffff"
       id="path68" />
    <path
       d="m 470,237 c 0,0 -10,-7 -10,-13 0,-5 2,-7 5,-7 2,0 4,2 5,3 1,-1 3,-3 5,-3 3,0 5,2 5,7 0,6 -10,13 -10,13 z"
       fill="none"
       stroke="#8b6f47"
       stroke-width="2.5"
       id="path70" />
    <path
       d="m 470,235 c 0,0 -8,-6 -8,-11 0,-4 1,-6 3,-6 2,0 4,1 5,3 1,-2 3,-3 5,-3 2,0 3,2 3,6 0,5 -8,11 -8,11 z"
       fill="#ffdab9"
       id="path72" />
  </g>
  <!-- Heart 9 - Tiny peach -->
  <g
     id="g82"
     transform="translate(-70,-55)">
    <path
       d="m 150,330 c 0,0 -8,-5 -8,-10 0,-3 2,-5 4,-5 1,0 2,1 4,2 2,-1 3,-2 4,-2 2,0 4,2 4,5 0,5 -8,10 -8,10 z"
       fill="#ffffff"
       id="path76" />
    <path
       d="m 150,328 c 0,0 -6,-4 -6,-8 0,-2 1,-4 2,-4 1,0 2,1 4,2 2,-1 3,-2 4,-2 1,0 2,2 2,4 0,4 -6,8 -6,8 z"
       fill="none"
       stroke="#8b6f47"
       stroke-width="2"
       id="path78" />
    <path
       d="m 150,326 c 0,0 -5,-3 -5,-6 0,-2 1,-3 2,-3 1,0 2,1 3,2 1,-1 2,-2 3,-2 1,0 2,1 2,3 0,3 -5,6 -5,6 z"
       fill="#ffdab9"
       id="path80" />
  </g>
  <!-- Heart 10 - Medium-large baby pink -->
  <g
     id="g92"
     transform="translate(-70,-55)">
    <path
       d="m 380,330 c 0,0 -25,-17 -25,-37 0,-13 7,-20 16,-20 7,0 12,4 9,9 -3,-5 2,-9 9,-9 9,0 16,7 16,20 0,20 -25,37 -25,37 z"
       fill="#ffffff"
       id="path84" />
    <path
       d="m 380,325 c 0,0 -22,-15 -22,-32 0,-12 6,-18 13,-18 6,0 11,4 9,8 -2,-4 3,-8 9,-8 7,0 13,6 13,18 0,17 -22,32 -22,32 z"
       fill="none"
       stroke="#8b6f47"
       stroke-width="4"
       id="path86" />
    <path
       d="m 380,322 c 0,0 -19,-14 -19,-29 0,-10 5,-16 11,-16 5,0 9,3 8,7 -1,-4 3,-7 8,-7 6,0 11,6 11,16 0,15 -19,29 -19,29 z"
       fill="#ffd4e5"
       id="path88" />
    <ellipse
       cx="373"
       cy="288"
       rx="7"
       ry="5"
       fill="#ffffff"
       opacity="0.5"
       id="ellipse90" />
  </g>
</svg>
