<?xml version="1.0" encoding="UTF-8"?>
<svg version="1.1" xmlns="http://www.w3.org/2000/svg" width="512" height="512">
<path d="M0 0 C0.6712793 0.18191895 1.34255859 0.36383789 2.03417969 0.55126953 C20.5605649 5.72110121 37.39306673 15.63495364 52 28 C52.8353125 28.69996094 53.670625 29.39992187 54.53125 30.12109375 C63.18605895 37.61391446 69.94114032 46.23178018 76.3125 55.6875 C76.72113281 56.29287598 77.12976563 56.89825195 77.55078125 57.52197266 C85 68.82750983 85 68.82750983 85 73 C85.66 73 86.32 73 87 73 C87.268125 72.12472656 87.53625 71.24945313 87.8125 70.34765625 C93.64533942 53.90442144 107.6423174 37.9005838 121 27 C122.40378906 25.83984375 122.40378906 25.83984375 123.8359375 24.65625 C147.51659644 5.51002638 176.32630125 -4.44594576 206.75 -4.3125 C207.41019135 -4.31067719 208.07038269 -4.30885437 208.75057983 -4.30697632 C218.87758992 -4.25995374 228.19313219 -3.6580363 238 -1 C238.67208496 -0.83371094 239.34416992 -0.66742188 240.03662109 -0.49609375 C272.8850401 7.63135013 302.32385964 30.29153473 320 59 C336.29776851 86.47480684 342.45290518 116.59003836 342.375 148.3125 C342.37368576 149.62651291 342.37368576 149.62651291 342.37234497 150.96707153 C342.1850358 208.00174312 318.64008696 260.85742847 282 304 C281.3709375 304.74636719 280.741875 305.49273437 280.09375 306.26171875 C278.42462292 308.20247265 276.7196314 310.10389987 275 312 C274.28585937 312.80566406 273.57171875 313.61132812 272.8359375 314.44140625 C260.50002129 328.17131918 247.61987904 341.6954951 233 353 C231.09989185 354.59910092 229.20430355 356.20358296 227.3125 357.8125 C192.21650328 387.01416906 151.83398319 408.30769018 111.2724762 428.80053711 C107.71412221 430.59838111 104.18819059 432.43456359 100.6953125 434.35693359 C99.99100098 434.73432175 99.28668945 435.1117099 98.56103516 435.50053406 C97.23584225 436.21097881 95.919397 436.93812468 94.61474609 437.68562317 C89.56254971 440.35143881 85.51179169 440.40016249 80 439 C77.29067497 438.01414229 74.80523817 436.76001649 72.2734375 435.38671875 C71.57165375 435.02118896 70.86987 434.65565918 70.14682007 434.27905273 C67.88211594 433.0954323 65.62870666 431.89190774 63.375 430.6875 C61.79919192 429.85847034 60.22268774 429.03076254 58.64550781 428.2043457 C55.51928498 426.56393558 52.39714812 424.91614333 49.27832031 423.26171875 C45.66456678 421.3469464 42.03669734 419.46164247 38.3984375 417.59375 C13.37511314 404.74165594 -11.58049187 391.09532769 -34 374 C-34.93199219 373.3090625 -35.86398438 372.618125 -36.82421875 371.90625 C-47.36774394 364.07785483 -57.86904024 356.18277738 -67.5234375 347.265625 C-68.89233295 346.01332317 -70.2694282 344.76921271 -71.6784668 343.56225586 C-77.24264884 338.79508043 -82.45136492 333.70183423 -87.6184082 328.51196289 C-89.06025221 327.06475615 -90.50737116 325.62297974 -91.95507812 324.18164062 C-128.66743472 287.50111658 -156.44428531 241.04190061 -167 190 C-167.17644043 189.1951416 -167.35288086 188.3902832 -167.53466797 187.56103516 C-176.46076855 145.47831912 -170.70762103 94.84593251 -147.671875 58.17578125 C-145.54187867 55.02919576 -143.33049693 52.00046341 -141 49 C-140.25878906 48.03835937 -139.51757812 47.07671875 -138.75390625 46.0859375 C-119.968413 22.44942433 -95.03835674 6.74764165 -66 -1 C-64.99042236 -1.27118652 -64.99042236 -1.27118652 -63.96044922 -1.54785156 C-43.4389504 -6.76245823 -20.2831782 -5.6434906 0 0 Z " fill="#F34234" transform="translate(170,38)"/>
<path d="M0 0 C0.6712793 0.18191895 1.34255859 0.36383789 2.03417969 0.55126953 C20.5605649 5.72110121 37.39306673 15.63495364 52 28 C52.8353125 28.69996094 53.670625 29.39992187 54.53125 30.12109375 C63.18605895 37.61391446 69.94114032 46.23178018 76.3125 55.6875 C76.72113281 56.29287598 77.12976563 56.89825195 77.55078125 57.52197266 C85 68.82750983 85 68.82750983 85 73 C85.66 73 86.32 73 87 73 C87.268125 72.12472656 87.53625 71.24945313 87.8125 70.34765625 C93.64533942 53.90442144 107.6423174 37.9005838 121 27 C122.40378906 25.83984375 122.40378906 25.83984375 123.8359375 24.65625 C147.51659644 5.51002638 176.32630125 -4.44594576 206.75 -4.3125 C207.41019135 -4.31067719 208.07038269 -4.30885437 208.75057983 -4.30697632 C218.87758992 -4.25995374 228.19313219 -3.6580363 238 -1 C238.67208496 -0.83371094 239.34416992 -0.66742188 240.03662109 -0.49609375 C272.8850401 7.63135013 302.32385964 30.29153473 320 59 C336.29776851 86.47480684 342.45290518 116.59003836 342.375 148.3125 C342.37368576 149.62651291 342.37368576 149.62651291 342.37234497 150.96707153 C342.1850358 208.00174312 318.64008696 260.85742847 282 304 C281.3709375 304.74636719 280.741875 305.49273437 280.09375 306.26171875 C278.42462292 308.20247265 276.7196314 310.10389987 275 312 C274.28585937 312.80566406 273.57171875 313.61132812 272.8359375 314.44140625 C260.50002129 328.17131918 247.61987904 341.6954951 233 353 C231.09989185 354.59910092 229.20430355 356.20358296 227.3125 357.8125 C192.21650328 387.01416906 151.83398319 408.30769018 111.2724762 428.80053711 C107.71412221 430.59838111 104.18819059 432.43456359 100.6953125 434.35693359 C99.99100098 434.73432175 99.28668945 435.1117099 98.56103516 435.50053406 C97.23584225 436.21097881 95.919397 436.93812468 94.61474609 437.68562317 C89.56254971 440.35143881 85.51179169 440.40016249 80 439 C77.29067497 438.01414229 74.80523817 436.76001649 72.2734375 435.38671875 C71.57165375 435.02118896 70.86987 434.65565918 70.14682007 434.27905273 C67.88211594 433.0954323 65.62870666 431.89190774 63.375 430.6875 C61.79919192 429.85847034 60.22268774 429.03076254 58.64550781 428.2043457 C55.51928498 426.56393558 52.39714812 424.91614333 49.27832031 423.26171875 C45.66456678 421.3469464 42.03669734 419.46164247 38.3984375 417.59375 C13.37511314 404.74165594 -11.58049187 391.09532769 -34 374 C-34.93199219 373.3090625 -35.86398438 372.618125 -36.82421875 371.90625 C-47.36774394 364.07785483 -57.86904024 356.18277738 -67.5234375 347.265625 C-68.89233295 346.01332317 -70.2694282 344.76921271 -71.6784668 343.56225586 C-77.24264884 338.79508043 -82.45136492 333.70183423 -87.6184082 328.51196289 C-89.06025221 327.06475615 -90.50737116 325.62297974 -91.95507812 324.18164062 C-128.66743472 287.50111658 -156.44428531 241.04190061 -167 190 C-167.17644043 189.1951416 -167.35288086 188.3902832 -167.53466797 187.56103516 C-176.46076855 145.47831912 -170.70762103 94.84593251 -147.671875 58.17578125 C-145.54187867 55.02919576 -143.33049693 52.00046341 -141 49 C-140.25878906 48.03835937 -139.51757812 47.07671875 -138.75390625 46.0859375 C-119.968413 22.44942433 -95.03835674 6.74764165 -66 -1 C-64.99042236 -1.27118652 -64.99042236 -1.27118652 -63.96044922 -1.54785156 C-43.4389504 -6.76245823 -20.2831782 -5.6434906 0 0 Z M-108 40 C-108.84046875 40.72058594 -109.6809375 41.44117187 -110.546875 42.18359375 C-128.80530264 58.14588579 -140.56833315 77.68898212 -147 101 C-147.39638672 102.24523437 -147.39638672 102.24523437 -147.80078125 103.515625 C-157.15530966 134.02577919 -155.3832239 170.72619934 -146 201 C-145.71995117 201.9060498 -145.43990234 202.81209961 -145.15136719 203.74560547 C-135.04981451 235.97511804 -119.73201324 264.13244272 -98.36083984 290.33056641 C-97.07017218 291.91391507 -95.79440073 293.50937232 -94.51953125 295.10546875 C-87.67417261 303.49459164 -80.06671967 311.1447772 -72.4375 318.8125 C-71.64143341 319.61646713 -71.64143341 319.61646713 -70.82928467 320.43667603 C-63.8875176 327.43161464 -56.72829048 333.86525403 -49 340 C-47.9723462 340.86326474 -46.9489423 341.73167022 -45.93359375 342.609375 C-19.16476135 365.56605756 11.73794598 383.49910562 42.84814453 399.81689453 C45.82841303 401.38088357 48.80211951 402.95673086 51.77294922 404.53857422 C55.96800685 406.77140642 60.17212234 408.98632288 64.38235474 411.19039917 C66.0358254 412.05910944 67.68648658 412.93318961 69.334198 413.81277466 C71.64989664 415.04701625 73.97556218 416.26008229 76.3046875 417.46875 C76.99416977 417.84188828 77.68365204 418.21502655 78.39402771 418.59947205 C82.753456 420.82695137 85.32280781 421.50558988 90 420 C93.00118581 418.71123696 95.88742671 417.24308545 98.78125 415.73046875 C99.62350632 415.29821487 100.46576263 414.865961 101.33354187 414.42060852 C104.06018209 413.0180799 106.78027227 411.60338028 109.5 410.1875 C111.37652795 409.21709777 113.2532375 408.2470466 115.13012695 407.27734375 C141.14444455 393.81047867 167.20930692 380.18841052 191 363 C191.77504883 362.44135254 192.55009766 361.88270508 193.34863281 361.30712891 C202.79335568 354.47640381 212.1155401 347.55243753 221 340 C222.05050271 339.13507825 223.10130212 338.27051678 224.15234375 337.40625 C232.64494047 330.32668499 240.54409605 322.66956843 248.375 314.875 C248.88501556 314.37016083 249.39503113 313.86532166 249.92050171 313.34518433 C256.74250709 306.57784399 263.02228121 299.53380913 269 292 C270.01190789 290.77946078 271.02704838 289.56158674 272.046875 288.34765625 C280.2405676 278.45330209 287.2576635 267.92483257 294 257 C294.42410156 256.31856934 294.84820312 255.63713867 295.28515625 254.93505859 C322.76958225 210.27286635 332.09894698 155.47202987 320.40039062 104.38134766 C319.21538661 99.80527631 317.7095296 95.41016684 316 91 C315.62101562 89.96746094 315.24203125 88.93492188 314.8515625 87.87109375 C303.90919785 59.70735655 281.70443386 35.37763502 254 23 C238.81266106 16.9773899 223.75126556 12.58245996 207.3125 12.6875 C206.36479736 12.69313965 205.41709473 12.6987793 204.44067383 12.70458984 C177.39686244 13.16423224 152.57969593 23.69872953 132 41 C131.12988281 41.70640625 130.25976562 42.4128125 129.36328125 43.140625 C111.78650638 58.04087371 100.81920341 78.93020865 94.30859375 100.71484375 C92.96568438 104.08614756 91.83967865 105.78167138 89 108 C86 108.5 86 108.5 83 108 C78.77523474 104.81103626 77.76808951 100.82012161 76.375 95.9375 C71.49117967 80.24798654 63.59699657 66.50620752 53 54 C52.33355469 53.18273437 51.66710937 52.36546875 50.98046875 51.5234375 C31.98136514 29.00311509 2.87330362 16.02266466 -26 13 C-55.64462065 10.58728324 -85.68181296 20.30078388 -108 40 Z " fill="#010000" transform="translate(170,38)"/>
<path d="M0 0 C19.52077289 4.21471233 36.86343089 11.81170216 52 25 C52.84304688 25.721875 53.68609375 26.44375 54.5546875 27.1875 C72.75421988 43.11900555 84.66509816 62.70044577 91 86 C91.23630127 86.81106201 91.47260254 87.62212402 91.71606445 88.45776367 C103.36480118 129.22292755 96.59788653 171.11258374 82 210 C81.53207031 211.25006836 81.53207031 211.25006836 81.0546875 212.52539062 C72.26051965 235.43543071 57.79831523 256.40634161 42.36083984 275.33056641 C41.07017218 276.91391507 39.79440073 278.50937232 38.51953125 280.10546875 C31.67417261 288.49459164 24.06671967 296.1447772 16.4375 303.8125 C15.64143341 304.61646713 15.64143341 304.61646713 14.82928467 305.43667603 C7.8875176 312.43161464 0.72829048 318.86525403 -7 325 C-8.0276538 325.86326474 -9.0510577 326.73167022 -10.06640625 327.609375 C-37.88002313 351.46205427 -69.96290407 369.64984081 -102.31784058 386.50419617 C-106.78705744 388.83428157 -111.24056963 391.19124301 -115.68205261 393.57376099 C-118.52202553 395.09469782 -121.36885368 396.60247443 -124.21713257 398.10778809 C-125.56172115 398.82193613 -126.90344545 399.54150593 -128.24209595 400.26672363 C-130.09646025 401.2699048 -131.96049607 402.25226168 -133.828125 403.23046875 C-135.4044873 404.07194458 -135.4044873 404.07194458 -137.01269531 404.93041992 C-141.31706565 406.47156461 -143.9410647 405.88562418 -148.10110474 404.09623718 C-150.63660907 402.8913523 -153.1291826 401.6207428 -155.62109375 400.328125 C-156.54967194 399.8540773 -157.47825012 399.3800296 -158.43496704 398.89161682 C-161.4405219 397.35339291 -164.43930032 395.80250535 -167.4375 394.25 C-169.49987924 393.18831868 -171.56229793 392.12671399 -173.62475586 391.06518555 C-186.44107811 384.45006947 -199.18672739 377.74873789 -211.60839844 370.41210938 C-214.09776332 368.94227613 -216.59920397 367.49445755 -219.1015625 366.046875 C-231.1866221 358.99043602 -242.65107817 351.1814414 -254 343 C-253.34 342.67 -252.68 342.34 -252 342 C-250.18608698 342.6264545 -248.39945066 343.33171238 -246.625 344.0625 C-239.26811668 346.88903883 -231.69563332 348.54905841 -224 350.1875 C-222.25710693 350.56177124 -222.25710693 350.56177124 -220.47900391 350.94360352 C-206.36534513 353.88221584 -192.76004307 355.41355332 -178.375 355.375 C-177.16861877 355.37368576 -177.16861877 355.37368576 -175.93786621 355.37234497 C-146.12998398 355.2660826 -117.56810786 349.41416396 -90 338 C-88.64068359 337.43925781 -88.64068359 337.43925781 -87.25390625 336.8671875 C-84.46064848 335.65124881 -81.73195535 334.34868682 -79 333 C-77.98147949 332.49774902 -77.98147949 332.49774902 -76.94238281 331.98535156 C-65.30141007 326.19230855 -54.41364055 319.79318037 -44 312 C-43.36030273 311.52256348 -42.72060547 311.04512695 -42.06152344 310.55322266 C-25.42784362 297.96726653 -10.07256343 283.05053601 2 266 C2.41507812 265.41863281 2.83015625 264.83726562 3.2578125 264.23828125 C20.83080716 239.38812623 33.42036566 211.46884891 40.25 181.8125 C40.40130371 181.16112061 40.55260742 180.50974121 40.70849609 179.83862305 C43.77417214 165.60314767 44.3220296 151.52481307 44.26074219 137.01855469 C44.25001549 134.00435275 44.26070289 130.99074656 44.2734375 127.9765625 C44.28651674 112.52125637 43.13232723 97.95071204 39.1875 82.9375 C38.92251709 81.90874756 38.65753418 80.87999512 38.38452148 79.82006836 C36.26948373 71.74360483 33.92208632 63.82670908 31 56 C30.7623291 55.35611328 30.5246582 54.71222656 30.27978516 54.04882812 C23.37324678 35.57816288 13.4552839 18.98082816 2 3 C1.01 1.515 1.01 1.515 0 0 Z " fill="#C71E1D" transform="translate(398,53)"/>
<path d="M0 0 C2.27937001 2.43132801 2.80814513 3.49858847 3.25 6.8125 C2.875 10 2.875 10 0.82104492 12.6796875 C-2.78561245 15.52030005 -5.25824622 15.58012553 -9.63671875 15.3125 C-11.12352026 15.2690992 -12.6103374 15.22623153 -14.09716797 15.18383789 C-14.86816833 15.15274933 -15.6391687 15.12166077 -16.43353271 15.08963013 C-40.0767202 14.19884785 -58.4833086 18.25098485 -77.125 34 C-77.77726562 34.49628906 -78.42953125 34.99257812 -79.1015625 35.50390625 C-93.20038233 46.70994034 -100.8067226 64.26390417 -105.0078125 81.328125 C-106.42141974 84.70891994 -108.04937394 86.05871279 -111.125 88 C-115.37145609 88.07449923 -117.345257 87.67977595 -120.5625 84.875 C-123.10255247 80.20130346 -122.49282726 75.81475209 -121.05859375 70.8359375 C-120.57486401 69.34402189 -120.07550533 67.85710397 -119.5625 66.375 C-119.15813721 65.19248657 -119.15813721 65.19248657 -118.74560547 63.98608398 C-109.74629249 38.5654773 -90.96274565 17.62465037 -66.84375 5.71484375 C-49.52927991 -2.44189489 -17.96613318 -11.49832524 0 0 Z " fill="#050101" transform="translate(160.125,72)"/>
<path d="M0 0 C3.58516411 3.93493622 4.81108649 7.60817019 5.15234375 12.83203125 C4.89251551 16.52958696 3.46479387 18.29473844 1 21 C-12.80978325 32.96261479 -28.46020804 33.25060905 -46 32 C-55.11617856 30.39875506 -63.39689213 26.14357405 -69.5 19.125 C-71.45398769 15.05419231 -72 12.54943031 -72 8 C-67.8904113 -0.56164312 -60.51554695 -4.54613829 -52.0625 -8.01953125 C-35.058131 -13.46353204 -14.20953567 -10.90308602 0 0 Z " fill="#BA193A" transform="translate(396,266)"/>
<path d="M0 0 C9.01857815 6.68144662 9.01857815 6.68144662 11 12 C10.81078071 17.86579796 9.9500878 21.45739903 6 26 C-7.0502617 36.69650708 -22.8559299 36.95210263 -39 36 C-42.88407878 35.39048547 -46.36054172 34.4708337 -50 33 C-51.5778125 32.38125 -51.5778125 32.38125 -53.1875 31.75 C-58.27062082 28.58716927 -63.85686082 24.79973231 -66 19 C-66.3227086 13.08367561 -64.89602075 8.51118192 -61 4 C-45.77049276 -10.19113174 -17.4690159 -9.33500537 0 0 Z " fill="#B9193A" transform="translate(177,262)"/>
<path d="M0 0 C6.63599475 3.14162542 11.83518493 8.34600185 14.8359375 15.078125 C16.88804663 22.36914802 16.4957343 29.2912206 12.875 35.9375 C12.38773437 36.6903125 11.90046875 37.443125 11.3984375 38.21875 C10.22036173 40.47081018 10.22036173 40.47081018 11.25 43.02734375 C12.19871429 44.85658349 13.15915233 46.67974862 14.125 48.5 C16.6298385 54.43930778 16.52939525 61.082434 14.65625 67.1875 C11.37806229 74.45267276 6.1944607 79.96738367 -1.0625 83.375 C-7.32352275 85.39952233 -16.63860663 85.81749461 -22.828125 83.60546875 C-24.5 82.4375 -24.5 82.4375 -26.5 79.4375 C-27.17251885 72.3760521 -27.17251885 72.3760521 -24.91015625 69.21875 C-21.70494613 66.84990751 -19.51534857 66.93827933 -15.5625 66.875 C-10.24531477 66.7783239 -6.3997998 66.3372998 -2.5 62.4375 C-1.99538159 57.5230604 -1.99538159 57.5230604 -4.08984375 53.234375 C-7.29543601 50.84446829 -9.4122431 51.00426103 -13.375 51 C-21.2809324 50.62117407 -21.2809324 50.62117407 -24.375 48.375 C-27.34944027 44.26327375 -27.29335186 42.43561672 -26.5 37.4375 C-24.29259319 34.46891843 -23.01402627 33.60884209 -19.5 32.4375 C-16.17902727 32.16788495 -12.85840436 31.99250564 -9.53125 31.81640625 C-6.32734527 31.64538444 -6.32734527 31.64538444 -3.5 29.4375 C-2.78020043 26.46232844 -2.28795321 24.41204529 -2.5 21.4375 C-4.34420303 18.9573649 -5.76282327 17.80608837 -8.5 16.4375 C-12.03834282 16.23796939 -15.57489289 16.11894896 -19.1171875 16.01171875 C-22.99789655 15.35298407 -24.21655954 14.59402063 -26.5 11.4375 C-27.29190864 6.44847559 -27.30380719 4.60667409 -24.4375 0.4375 C-17.89237751 -4.14874972 -7.10668125 -2.50695811 0 0 Z " fill="#040101" transform="translate(274.5,248.5625)"/>
<path d="M0 0 C2.88381579 2.58803981 3.8491179 4.19529549 4.5625 8 C3.79019049 12.11898408 2.16344162 13.25862378 -1 16 C-3.85539442 17.77327333 -6.81198784 19.30092598 -9.8125 20.8125 C-10.99489258 21.42254883 -10.99489258 21.42254883 -12.20117188 22.04492188 C-14.12976398 23.03843902 -16.06429656 24.02041028 -18 25 C-17.16021606 25.42297363 -17.16021606 25.42297363 -16.3034668 25.85449219 C-13.75956722 27.14292997 -11.22358436 28.44625122 -8.6875 29.75 C-7.80642578 30.1934375 -6.92535156 30.636875 -6.01757812 31.09375 C-5.17001953 31.53203125 -4.32246094 31.9703125 -3.44921875 32.421875 C-2.66893311 32.81987305 -1.88864746 33.21787109 -1.0847168 33.62792969 C1.27480695 35.18086603 2.56308249 36.57259155 4 39 C3.93172242 42.82354429 3.50774917 45.2079113 1.4375 48.4375 C-1.99087534 50.6351765 -5.08236329 50.57095888 -9 50 C-12.16184305 48.82991417 -15.01529845 47.23385414 -17.9375 45.5625 C-19.60130811 44.64537168 -21.26537661 43.72871561 -22.9296875 42.8125 C-23.76725586 42.34457031 -24.60482422 41.87664062 -25.46777344 41.39453125 C-27.94038859 40.03282881 -30.43381189 38.72586068 -32.9453125 37.4375 C-33.72269775 37.03716553 -34.50008301 36.63683105 -35.30102539 36.22436523 C-36.77988805 35.46457819 -38.26077394 34.70871308 -39.74389648 33.95727539 C-43.06934945 32.22487314 -44.88097855 31.17853217 -47 28 C-47.5 24.625 -47.5 24.625 -47 21 C-42.84749468 16.98411908 -38.35067549 14.34998819 -33.22265625 11.7578125 C-32.49308212 11.3851828 -31.763508 11.0125531 -31.01182556 10.62863159 C-29.47853455 9.84974652 -27.9430563 9.07515356 -26.40551758 8.3046875 C-24.06310873 7.12530649 -21.73599163 5.91886569 -19.40820312 4.7109375 C-17.90971156 3.95402935 -16.41038894 3.19876375 -14.91015625 2.4453125 C-14.22139908 2.08398224 -13.53264191 1.72265198 -12.82301331 1.35037231 C-8.19620054 -0.92021508 -5.15653839 -1.39128867 0 0 Z " fill="#030000" transform="translate(363,197)"/>
<path d="M0 0 C3.07726485 1.22864602 5.9240883 2.82073279 8.8125 4.4375 C10.49593216 5.35446339 12.17952964 6.27112333 13.86328125 7.1875 C14.7135791 7.65542969 15.56387695 8.12335938 16.43994141 8.60546875 C18.91780658 9.95522708 21.41176504 11.26623995 23.91796875 12.5625 C24.68971436 12.96283447 25.46145996 13.36316895 26.2565918 13.77563477 C27.72138936 14.53425612 29.18763926 15.2900816 30.65551758 16.04272461 C33.86770225 17.72387898 36.67071787 19.19634597 39 22 C39.5 25.375 39.5 25.375 39 29 C35.36024805 33.37142786 31.31347978 35.72424827 26.3203125 38.20703125 C25.22382889 38.76241829 25.22382889 38.76241829 24.10519409 39.32902527 C22.56631226 40.1045192 21.02484131 40.87489444 19.48095703 41.64038086 C17.130376 42.80982537 14.79375268 44.00432055 12.45703125 45.20117188 C10.95390275 45.95467849 9.45002013 46.70668302 7.9453125 47.45703125 C7.25341827 47.81320023 6.56152405 48.1693692 5.84866333 48.53633118 C1.41582672 50.7006475 -1.96213625 51.51003005 -7 51 C-10.27522945 48.84524379 -10.90229594 47.3358577 -12 43.5625 C-12 39.02448268 -11.18495504 38.18495504 -8 35 C-5.02160714 33.1658953 -1.91385486 31.67302873 1.25 30.1875 C2.51070312 29.57745117 2.51070312 29.57745117 3.796875 28.95507812 C5.85954837 27.95890064 7.92697313 26.97439908 10 26 C9.40461426 25.68248779 8.80922852 25.36497559 8.19580078 25.0378418 C5.50135313 23.59538364 2.81317651 22.14160912 0.125 20.6875 C-0.81214844 20.18798828 -1.74929687 19.68847656 -2.71484375 19.17382812 C-3.61074219 18.68720703 -4.50664062 18.20058594 -5.4296875 17.69921875 C-6.67081299 17.03152466 -6.67081299 17.03152466 -7.93701172 16.3503418 C-10 15 -10 15 -12 12 C-12.50835292 8.1026276 -12.32962183 6.49443274 -10.125 3.1875 C-6.79058655 -0.24498443 -4.72971886 -0.46919674 0 0 Z " fill="#030100" transform="translate(157,196)"/>
<path d="M0 0 C3.27155869 2.36665948 4.70646942 3.89926032 5.75 7.8125 C4.59272799 12.73090604 1.53518303 15.52005421 -2 19 C-2.598125 19.6084375 -3.19625 20.216875 -3.8125 20.84375 C-6.59666231 23.47876076 -8.31072032 24.86214406 -12.125 25.625 C-15.90190508 24.80393368 -17.51360797 23.99829627 -20 21 C-21.2213599 17.69272207 -21.15433996 15.32751041 -20 12 C-14.52363774 5.15900675 -9.3395391 -0.94978364 0 0 Z " fill="#030001" transform="translate(140,265)"/>
<path d="M0 0 C5.30256055 1.07848689 8.00012818 3.93920151 11.6875 7.75 C12.22117187 8.26304687 12.75484375 8.77609375 13.3046875 9.3046875 C15.81347166 11.92686304 16.68304752 13.72462088 17.3125 17.3125 C16.51510832 21.69815425 15.28892761 23.16636715 11.6875 25.75 C8.875 26.5 8.875 26.5 5.6875 25.75 C2.70691235 23.71316555 0.21520711 21.31782944 -2.3125 18.75 C-2.9209375 18.151875 -3.529375 17.55375 -4.15625 16.9375 C-6.77976609 14.165483 -8.16875593 12.40338211 -9 8.625 C-7.76345805 3.45400638 -5.12912341 1.16131096 0 0 Z " fill="#040001" transform="translate(375.3125,264.25)"/>
<path d="M0 0 C3 2 3 2 5 5 C5.51273496 8.71732845 5.56880562 9.73666567 4 13 C-5.74370801 24.56582773 -5.74370801 24.56582773 -11.8125 25.375 C-15 25 -15 25 -17.875 22.9375 C-20 20 -20 20 -20.75 16.6875 C-19.67151311 11.38493945 -16.81079849 8.68737182 -13 5 C-12.23042969 4.19949219 -12.23042969 4.19949219 -11.4453125 3.3828125 C-7.75303716 -0.14979688 -4.99464208 -0.90811674 0 0 Z " fill="#020000" transform="translate(174,265)"/>
<path d="M0 0 C5.30256055 1.07848689 8.00012818 3.93920151 11.6875 7.75 C12.22117187 8.26304687 12.75484375 8.77609375 13.3046875 9.3046875 C15.81347166 11.92686304 16.68304752 13.72462088 17.3125 17.3125 C16.51510832 21.69815425 15.28892761 23.16636715 11.6875 25.75 C8.875 26.5 8.875 26.5 5.6875 25.75 C2.7527863 23.67605863 0.25006155 21.25983394 -2.3125 18.75 C-3.281875 17.945625 -4.25125 17.14125 -5.25 16.3125 C-7.61680429 13.37192497 -8.33034918 11.41398923 -8.5703125 7.6875 C-8.3125 5.75 -8.3125 5.75 -6.3125 2.75 C-3.3125 0.75 -3.3125 0.75 0 0 Z " fill="#030001" transform="translate(341.3125,264.25)"/>
<path d="M0 0 C3.63525215 2.60789828 4.83397068 4.0702358 5.625 8.5 C4.82883761 12.95850936 3.69186542 14.40783917 0 17 C-3.5 17.625 -3.5 17.625 -7 17 C-10.38677089 14.54999553 -11.78698584 13.13607554 -12.5625 9 C-11.87642343 5.34092496 -10.57265686 3.64832324 -8 1 C-5.11138291 -0.44430855 -3.20352299 -0.37688506 0 0 Z " fill="#0B0302" transform="translate(46,179)"/>
</svg>
