<?xml version="1.0" encoding="UTF-8"?>
<svg version="1.1" xmlns="http://www.w3.org/2000/svg" width="512" height="512">
<path d="M0 0 C0.71575195 -0.02610352 1.43150391 -0.05220703 2.16894531 -0.07910156 C5.60243288 -0.09063993 7.44134713 0.14690747 10.234375 2.2109375 C11.75 4.375 11.75 4.375 11.75 7.375 C17.36 7.375 22.97 7.375 28.75 7.375 C29.08 5.725 29.41 4.075 29.75 2.375 C32.18086654 -0.05586654 33.57217386 0.06849549 36.90063477 -0.00537109 C86.98982816 0.11557746 141.27293499 17.30911035 177.5 52.8125 C193.08134105 68.81376372 201.31776434 87.81230762 201.16796875 110.0925293 C200.77044467 124.6878743 196.28813727 139.84366221 186.4375 150.9921875 C184.49208822 153.22584438 184.49208822 153.22584438 184.84765625 155.8515625 C185.82112584 158.57390602 186.93026475 161.14599345 188.1875 163.75 C192.42663428 172.97563038 195.12673002 182.98670352 191.88671875 193.05859375 C191.35498047 194.29802734 191.35498047 194.29802734 190.8125 195.5625 C188.70204842 200.59511531 188.35723658 205.05711982 188.1875 210.4375 C187.73089574 224.06962881 185.58995044 236.93336607 181.28808594 249.89501953 C179.63834087 254.6694778 179.63834087 254.6694778 180.75 259.375 C182.13484451 260.93486135 182.13484451 260.93486135 183.875 262.375 C189.29841379 267.52948418 195.15235316 275.67436857 195.953125 283.3125 C196.08 288.895 196.08 288.895 194.375 291.375 C192.75 292.375 192.75 292.375 190.75 292.375 C190.915 293.035 191.08 293.695 191.25 294.375 C192.1532273 299.79436382 192.0871279 305.02648842 190.75 310.375 C191.389375 310.684375 192.02875 310.99375 192.6875 311.3125 C194.75 312.375 194.75 312.375 195.75 313.375 C196.78136405 321.18389926 193.86450238 326.83226671 189.75 333.375 C184.03766457 340.74308483 177.13779645 348.06127611 168.75 352.375 C168.09 352.375 167.43 352.375 166.75 352.375 C167.33007812 353.02984375 167.91015625 353.6846875 168.5078125 354.359375 C176.08411834 363.21090063 181.63469872 371.57561939 182.75 383.375 C184.00554687 383.34019531 185.26109375 383.30539062 186.5546875 383.26953125 C204.19969151 382.92043944 204.19969151 382.92043944 211.75 386.375 C212.64847656 386.7771875 213.54695313 387.179375 214.47265625 387.59375 C227.26461998 393.92814744 234.92504883 403.89236554 239.5625 417.25 C243.49662023 429.79149843 242.11297433 441.2246891 236.46484375 453.0703125 C226.64669512 470.51872149 209.3907618 481.36373671 190.53027344 487.04345703 C169.95784731 492.66504383 148.07156533 493.03433452 127 490.125 C126.17467773 490.01575195 125.34935547 489.90650391 124.49902344 489.79394531 C118.27265414 488.81164854 112.2828107 487.0759641 107.8671875 482.3671875 C107.45726562 481.66851562 107.04734375 480.96984375 106.625 480.25 C106.15578125 479.47527344 105.6865625 478.70054687 105.203125 477.90234375 C104.72359375 477.06832031 104.2440625 476.23429687 103.75 475.375 C102.62546604 473.52055065 101.50047507 471.66637834 100.375 469.8125 C99.49774801 468.33466781 98.62190124 466.85599536 97.75 465.375 C97.32332031 465.83648437 96.89664062 466.29796875 96.45703125 466.7734375 C76.83985229 487.24002008 49.97984645 501.22904582 22.75 508.375 C21.95658203 508.58672852 21.16316406 508.79845703 20.34570312 509.01660156 C-2.41419782 514.80286163 -30.46791983 515.26500121 -53.25 509.375 C-54.06355957 509.17632324 -54.87711914 508.97764648 -55.71533203 508.77294922 C-81.0620045 502.49622732 -103.23299808 491.08644197 -123.25 474.375 C-124.43142578 473.40626953 -124.43142578 473.40626953 -125.63671875 472.41796875 C-130.08108696 468.71282609 -130.08108696 468.71282609 -131.25 466.375 C-131.0878446 464.89533199 -130.92035163 463.41624681 -130.75 461.9375 C-130.68574269 455.64946278 -133.6237043 452.01755558 -137.67578125 447.4375 C-140.50166767 445.17336035 -141.37153557 444.86407621 -144.875 445.25 C-145.62136719 445.33636719 -146.36773437 445.42273438 -147.13671875 445.51171875 C-149.25 445.375 -149.25 445.375 -151.01953125 444.08203125 C-153.04477333 441.62992316 -154.63268062 439.11770411 -156.25 436.375 C-156.62769531 435.73594727 -157.00539063 435.09689453 -157.39453125 434.43847656 C-169.54896426 413.51548831 -179.61602063 388.02267065 -179.3125 363.4375 C-179.30347656 362.47972656 -179.29445312 361.52195312 -179.28515625 360.53515625 C-179.27355469 359.82230469 -179.26195312 359.10945313 -179.25 358.375 C-179.83265625 358.34921875 -180.4153125 358.3234375 -181.015625 358.296875 C-196.96269256 357.19361875 -210.39705275 349.97579739 -221.25 338.375 C-231.56089615 324.89000388 -235.79581747 309.65748256 -233.97265625 292.8125 C-231.90434307 280.52081022 -226.07230328 269.19730328 -217.25 260.375 C-217.62918032 256.76624937 -218.85309433 253.40244457 -219.96411133 249.9597168 C-231.38562631 213.93152456 -227.43044992 175.98809845 -210.28857422 142.49658203 C-206.07271682 134.46187624 -201.22105942 127.21355296 -195.25 120.375 C-194.50492188 119.52035156 -193.75984375 118.66570312 -192.9921875 117.78515625 C-190.77465752 115.28573686 -188.52372449 112.82330662 -186.25 110.375 C-185.69957031 109.77042969 -185.14914063 109.16585937 -184.58203125 108.54296875 C-180.96368427 104.72806959 -176.96267222 101.46717864 -172.8125 98.25 C-171.96099365 97.58798584 -171.96099365 97.58798584 -171.09228516 96.91259766 C-168.12450648 94.65139212 -165.24528317 92.82674066 -161.875 91.25 C-157.19507793 88.49883242 -155.81666656 83.457413 -153.88208008 78.66040039 C-144.42775883 55.2778617 -123.76347103 39.18170665 -102.25 27.375 C-101.61868164 27.02840332 -100.98736328 26.68180664 -100.33691406 26.32470703 C-77.05886953 13.73990337 -51.26182372 6.59855571 -25.25 2.375 C-24.16162842 2.19710938 -24.16162842 2.19710938 -23.05126953 2.015625 C-15.39850616 0.80757779 -7.74383018 0.16208786 0 0 Z " fill="#010101" transform="translate(252.25,-0.375)"/>
<path d="M0 0 C0.66 0 1.32 0 2 0 C3.234375 1.4765625 3.234375 1.4765625 4.75 3.625 C8.18813051 8.17546685 11.98285991 12.21692731 16 16.25 C16.58104492 16.83990723 17.16208984 17.42981445 17.76074219 18.03759766 C20.66617823 20.92427316 23.55808021 23.47479883 26.9375 25.796875 C27.948125 26.52390625 28.95875 27.2509375 30 28 C30 28.66 30 29.32 30 30 C29.39671875 30.13277344 28.7934375 30.26554687 28.171875 30.40234375 C26.97304687 30.66724609 26.97304687 30.66724609 25.75 30.9375 C24.96109375 31.11152344 24.1721875 31.28554687 23.359375 31.46484375 C21.23121297 31.947556 19.11467158 32.46163178 17 33 C16.75045995 34.43410368 16.52607358 35.87260072 16.3125 37.3125 C16.18488281 38.11300781 16.05726562 38.91351563 15.92578125 39.73828125 C15.79108888 42.05872824 15.79108888 42.05872824 17.28125 43.7734375 C20.12783826 45.80486639 22.59083449 45.2794398 26 45 C27.23234375 44.67773438 28.4646875 44.35546875 29.734375 44.0234375 C38.78470426 41.71260415 48.44650648 40.96323785 56.72973633 45.81738281 C59.2229431 47.42616043 61.67379898 49.09183127 64.11865234 50.77294922 C67.23568467 52.80593708 70.53331585 54.43425961 73.875 56.0625 C74.5450708 56.38943848 75.2151416 56.71637695 75.90551758 57.05322266 C77.26548047 57.71310172 78.62673258 58.37033038 79.98925781 59.02490234 C81.93924284 59.97053617 83.87235316 60.94468105 85.8046875 61.92578125 C106.04525798 72.03335895 127.95265734 79.08608692 150 84 C151.13018555 84.26466064 151.13018555 84.26466064 152.28320312 84.53466797 C163.49926588 87.08124927 174.79640685 87.32750783 186.25 87.4375 C186.96757477 87.44980652 187.68514954 87.46211304 188.42446899 87.47479248 C203.32729996 87.68839965 219.17591896 85.54982785 230.8671875 75.375 C235.77485755 70.10108591 239.07633963 63.15836787 240 56 C256 58 256 58 272 60 C272 100.59 272 141.18 272 183 C268.04 183.99 264.08 184.98 260 186 C246.55426185 192.36820424 238.66128545 203.18978481 232.8984375 216.5546875 C229.5154865 226.15680093 228.61199115 235.81227884 228.625 245.9375 C228.62516113 247.11521973 228.62532227 248.29293945 228.62548828 249.50634766 C228.76597944 260.38332119 229.87557828 271.56603109 234.1328125 281.6953125 C235.16627903 284.44191273 235.48026071 286.0912512 235 289 C214.41299649 315.97317603 176.59455221 331.58084193 144.1328125 336.59765625 C103.62667658 341.20522304 64.56735653 329.44015271 32.8046875 304.30859375 C30.48746308 302.4012405 28.3048181 300.43371709 26.125 298.375 C22.37613026 295.525859 20.59948849 295.47930319 16 296 C12 296 12 296 9.5703125 293.8046875 C8.76335937 292.83789062 7.95640625 291.87109375 7.125 290.875 C6.30257812 289.92367188 5.48015625 288.97234375 4.6328125 287.9921875 C3 285 3 285 3.8046875 282.0078125 C4.19914062 281.01523437 4.59359375 280.02265625 5 279 C4.7953363 273.856119 2.61532028 270.32775937 -0.125 266.125 C-15.14999484 241.98206863 -21.10523487 215.50034379 -21.19287109 187.31494141 C-21.20079352 185.86957615 -21.2090637 184.42421277 -21.21765137 182.97885132 C-21.24362732 178.26977361 -21.25915577 173.56068809 -21.2734375 168.8515625 C-21.2788075 167.21662773 -21.284185 165.58169299 -21.28956985 163.94675827 C-21.31116399 157.13514533 -21.32989249 150.32353453 -21.34119225 143.51189613 C-21.35738497 133.82203546 -21.39048865 124.13257845 -21.44759309 114.44286978 C-21.48657382 107.58972289 -21.50585791 100.73668266 -21.51111281 93.88342798 C-21.51472845 89.80993422 -21.52633716 85.73687326 -21.55921555 81.66350174 C-21.7943046 51.02556168 -17.2142664 25.8213996 0 0 Z " fill="#FBAF9F" transform="translate(109,160)"/>
<path d="M0 0 C5.61 0 11.22 0 17 0 C17.99 1.98 18.98 3.96 20 6 C22.4545824 7.2272912 24.41476689 7.32242877 27.15234375 7.578125 C75.33336362 12.33142571 126.39297106 24.06222271 159.7109375 62.046875 C165.99009494 70.14763102 170.72296777 78.95094867 173 89 C173.17917969 89.62132813 173.35835938 90.24265625 173.54296875 90.8828125 C176.52495499 104.69680006 171.84156635 119.44282036 164.8515625 131.34375 C155.7311894 144.42782955 144.89575581 152.35030306 129.98022461 157.69262695 C125.73756832 158.88767705 125.73756832 158.88767705 123 162 C122.54037154 166.10952512 122.54037154 166.10952512 124.28515625 169.65234375 C126.73581297 171.57825849 129.02995364 171.64544743 132.07421875 171.55078125 C141.84515492 169.71139273 151.57029627 164.08123808 160 159 C164.65270546 166.80453819 165.84555119 172.79557128 165 182 C163.27413014 187.75983074 159.07243298 191.17154457 154 194 C127.84046656 206.17771384 92.56142071 197.17831602 66.8125 187.9375 C50.3760286 181.77837494 34.24020952 174.0961081 19.65600586 164.30175781 C15.62516288 161.6618223 12.99440128 160.30983756 8 161 C5.98048938 161.93597315 5.98048938 161.93597315 5 164 C3.82918845 167.27923695 3.82918845 167.27923695 5 171 C8.15015203 174.38349662 12.05330298 176.65721618 16 179 C16.75684082 179.45036621 17.51368164 179.90073242 18.29345703 180.36474609 C34.77906752 190.02092672 52.10898161 197.38074615 70 204 C70.31517154 209.25285905 69.96749405 212.59662174 67 217 C57.66961082 225.51905099 45.13196795 226.66612675 33 226.4375 C31.7318042 226.42211182 30.4636084 226.40672363 29.15698242 226.39086914 C-28.95171525 225.21232033 -93.10459095 195.74693967 -133.89868164 154.5234375 C-141.46147278 146.56122622 -147.76871625 137.57131192 -151 127 C-151.21140625 126.33758301 -151.4228125 125.67516602 -151.640625 124.99267578 C-157.49755974 106.34403289 -158.32523324 90.26265115 -149.3125 72.3125 C-145.97127093 66.50351037 -141.66284709 61.77614991 -137 57 C-136.175 56.13375 -135.35 55.2675 -134.5 54.375 C-133.675 53.59125 -132.85 52.8075 -132 52 C-131.44957031 51.443125 -130.89914063 50.88625 -130.33203125 50.3125 C-100.7977939 21.97791252 -53.70007357 10.87120069 -14.23950195 8.11206055 C-13.08796631 8.02093994 -11.93643066 7.92981934 -10.75 7.8359375 C-9.73421875 7.76938965 -8.7184375 7.7028418 -7.671875 7.63427734 C-4.35153698 6.84606114 -3.10753188 5.64226976 -1 3 C-0.67 2.01 -0.34 1.02 0 0 Z " fill="#544D54" transform="translate(264,7)"/>
<path d="M0 0 C0.92941406 -0.01611328 1.85882813 -0.03222656 2.81640625 -0.04882812 C18.2427117 -0.05958566 31.59599133 6.75967952 42.42578125 17.4453125 C54.89668062 30.69225916 58.85515961 44.79864422 58.5 62.640625 C57.7483044 78.67321838 50.38850658 92.03128345 38.85546875 103.0234375 C25.73896739 114.01953163 9.99913572 118.31530578 -6.875 117.3125 C-22.67030404 115.22040675 -37.34620107 106.67958813 -47 94.1875 C-56.82794139 80.12270986 -60.37027528 66.19415788 -58.875 49.3125 C-56.33028593 35.72141348 -49.51470738 24.98639074 -39.875 15.3125 C-39.33359375 14.74789062 -38.7921875 14.18328125 -38.234375 13.6015625 C-27.85030438 3.68949509 -13.95066959 -0.04797342 0 0 Z " fill="#030302" transform="translate(162.875,233.6875)"/>
<path d="M0 0 C9.2188676 7.33003946 12.44767319 16.21690571 14.44824219 27.45825195 C14.82530617 29.4983597 15.31908149 31.51610245 15.828125 33.52734375 C19.53209749 35.99665875 22.53985967 35.88126968 26.828125 35.52734375 C27.45589844 35.36363281 28.08367187 35.19992187 28.73046875 35.03125 C37.45435813 32.93556708 47.30440411 34.27229394 55.015625 38.81640625 C63.60601763 44.9012677 69.02686413 52.04586884 70.828125 62.52734375 C72.08430459 73.48313792 68.8111386 81.72158634 62.078125 90.33984375 C47.00974704 106.38163114 23.03327273 111.94712204 1.84375 112.75 C-10.54296172 113.03971416 -23.31874938 112.47838562 -35.171875 108.52734375 C-36.54738193 106.43815917 -37.71669591 104.42827119 -38.859375 102.21484375 C-39.20315186 101.55548828 -39.54692871 100.89613281 -39.90112305 100.21679688 C-46.68009406 86.8835381 -52.02102505 73.36998598 -54.171875 58.52734375 C-54.44451172 56.85091797 -54.44451172 56.85091797 -54.72265625 55.140625 C-56.80328502 38.40513269 -55.74478443 19.93382535 -45.31640625 6.05859375 C-33.91269547 -7.52880633 -14.83091341 -10.05621287 0 0 Z " fill="#E7566A" transform="translate(407.171875,363.47265625)"/>
<path d="M0 0 C5.09180162 4.22925599 10.06764595 9.39043785 12.1875 15.75 C11.24648437 15.71519531 10.30546875 15.68039062 9.3359375 15.64453125 C8.09070313 15.61746094 6.84546875 15.59039062 5.5625 15.5625 C4.33273438 15.52769531 3.10296875 15.49289062 1.8359375 15.45703125 C-3.35416288 15.8737952 -6.55483249 17.69706906 -10.5 21 C-14.39695182 25.63421298 -16.506346 30.41096481 -16.21875 36.5703125 C-15.10608902 42.54016662 -12.29540969 48.13080323 -7.4375 51.875 C-1.56212053 55.10759295 5.69782707 54.13025427 12.1875 53.75 C6.5546657 65.76555056 -1.85466589 71.97521874 -13.8125 76.75 C-24.69227102 80.52323318 -35.38613594 79.34902634 -45.8125 74.75 C-58.46941574 68.00230675 -64.88029279 58.40178134 -70.1875 45.375 C-72.37641347 32.67930188 -70.72396487 21.33004872 -63.625 10.5 C-48.08784829 -10.09499046 -21.2785711 -15.2906315 0 0 Z " fill="#F7F4F4" transform="translate(189.8125,257.25)"/>
<path d="M0 0 C44.40301044 4.07563864 91.41432837 18.50676687 121.7109375 53.046875 C127.99009494 61.14763102 132.72296777 69.95094867 135 80 C135.17917969 80.62132813 135.35835937 81.24265625 135.54296875 81.8828125 C138.52495499 95.69680006 133.84156635 110.44282036 126.8515625 122.34375 C116.80832454 136.7517707 104.5184902 144.73183665 88 150 C87.34 150 86.68 150 86 150 C83.75997453 144.67993951 82.4722239 140.88093374 83 135 C84.16152345 132.4993415 85.29235985 130.36569347 86.75 128.0625 C87.48950197 126.83015879 88.22779447 125.59709095 88.96484375 124.36328125 C89.63644531 123.25339844 90.30804688 122.14351563 91 121 C96.31465483 111.585018 98.55252143 102.5031374 98.4375 91.6875 C98.42505249 90.1708374 98.42505249 90.1708374 98.41235352 88.62353516 C98.23711225 80.85429804 97.23058912 74.13421765 94 67 C93.525625 65.94039063 93.05125 64.88078125 92.5625 63.7890625 C77.91245754 34.13681309 46.2117073 16.33347879 16.12353516 5.71533203 C10.80954384 3.92526597 5.42788381 2.40496671 0 1 C0 0.67 0 0.34 0 0 Z " fill="#423E42" transform="translate(302,16)"/>
<path d="M0 0 C0.08636719 0.969375 0.17273438 1.93875 0.26171875 2.9375 C1.08895955 11.14277862 2.53393044 18.70136981 5.23510742 26.50585938 C6.67746614 30.70220979 7.90974389 34.54736513 8 39 C6.61866219 41.59858582 5.32208641 43.63208271 3.5625 45.9375 C-4.74681093 57.60274761 -10.91597769 70.24559631 -15 84 C-15.19078125 84.63019043 -15.3815625 85.26038086 -15.578125 85.90966797 C-20.38306983 102.47130637 -19.82827627 119.90312619 -20 137 C-21.09699219 137.19335938 -22.19398437 137.38671875 -23.32421875 137.5859375 C-24.77869582 137.84868175 -26.23312017 138.11171801 -27.6875 138.375 C-28.40873047 138.50132812 -29.12996094 138.62765625 -29.87304688 138.7578125 C-33.82159462 139.47900844 -37.27806364 140.45757592 -41 142 C-41.99 142 -42.98 142 -44 142 C-54.66088612 110.66838813 -54.37034995 76.69912384 -39.92578125 46.578125 C-34.05918387 34.84233325 -14.62469061 0 0 0 Z " fill="#2C2A2C" transform="translate(93,108)"/>
<path d="M0 0 C3.91606153 2.00714609 7.49186055 4.52468831 11.11230469 7.01416016 C14.22933702 9.04714802 17.52696819 10.67547054 20.86865234 12.30371094 C21.53872314 12.63064941 22.20879395 12.95758789 22.89916992 13.29443359 C24.25913282 13.95431266 25.62038493 14.61154132 26.98291016 15.26611328 C28.93289518 16.21174711 30.8660055 17.18589199 32.79833984 18.16699219 C53.03891033 28.27456989 74.94630968 35.32729786 96.99365234 40.24121094 C97.74710937 40.41765137 98.50056641 40.5940918 99.27685547 40.77587891 C110.49291822 43.32246021 121.7900592 43.56871877 133.24365234 43.67871094 C133.96122711 43.69101746 134.67880188 43.70332397 135.41812134 43.71600342 C150.3209523 43.92961059 166.1695713 41.79103879 177.86083984 31.61621094 C182.7685099 26.34229685 186.06999197 19.39957881 186.99365234 12.24121094 C188.80485026 12.46761068 190.61604818 12.69401042 192.42724609 12.92041016 C193.27416016 13.02627441 194.12107422 13.13213867 194.99365234 13.24121094 C202.92333984 14.23242188 202.92333984 14.23242188 210.85302734 15.22363281 C212.42310547 15.41989258 212.42310547 15.41989258 214.02490234 15.62011719 C215.66458984 15.82507813 217.30427734 16.03003906 218.99365234 16.24121094 C218.99365234 20.53121094 218.99365234 24.82121094 218.99365234 29.24121094 C203.24877763 28.46216766 203.24877763 28.46216766 195.99365234 26.24121094 C195.80802734 27.04558594 195.62240234 27.84996094 195.43115234 28.67871094 C190.78792879 40.18583018 180.94109813 46.82480523 169.90380859 51.61230469 C167.99365234 52.24121094 167.99365234 52.24121094 164.99365234 52.24121094 C164.99365234 52.90121094 164.99365234 53.56121094 164.99365234 54.24121094 C166.12416016 54.32757813 167.25466797 54.41394531 168.41943359 54.50292969 C173.42858597 55.13279668 177.62740088 56.95051139 182.18115234 59.05371094 C182.96167969 59.39724609 183.74220703 59.74078125 184.54638672 60.09472656 C188.81191407 62.02307777 192.58914116 63.94864693 195.99365234 67.24121094 C197.11865234 70.67871094 197.11865234 70.67871094 196.99365234 74.24121094 C194.93115234 77.17871094 194.93115234 77.17871094 191.99365234 79.24121094 C186.83708385 79.86757378 183.78381074 78.39474173 179.30615234 75.92871094 C173.32192855 72.7692744 167.61798531 70.61845147 160.99365234 69.24121094 C160.14416016 69.03753906 159.29466797 68.83386719 158.41943359 68.62402344 C144.94664245 65.81799276 130.02881756 66.44791624 116.45458984 68.41308594 C113.99365234 68.24121094 113.99365234 68.24121094 111.67724609 66.48339844 C109.31876966 63.34241126 109.63914653 61.06987377 109.99365234 57.24121094 C110.32365234 56.58121094 110.65365234 55.92121094 110.99365234 55.24121094 C110.4080957 55.19730225 109.82253906 55.15339355 109.21923828 55.1081543 C78.74259524 52.48281431 48.16493304 40.80075699 20.99365234 27.24121094 C20.06697754 26.78069336 19.14030273 26.32017578 18.18554688 25.84570312 C6.98539988 20.23481678 -3.87130396 14.19529605 -14.34960938 7.32373047 C-15.48361673 6.58276545 -16.62642168 5.85514002 -17.77636719 5.13916016 C-19.22046409 4.22494515 -20.61870858 3.23903995 -22.00634766 2.24121094 C-22.00634766 1.58121094 -22.00634766 0.92121094 -22.00634766 0.24121094 C-15.45821497 -1.94149996 -6.56370744 -2.48235613 0 0 Z " fill="#F59D8D" transform="translate(162.00634765625,203.7587890625)"/>
<path d="M0 0 C11.63449964 0 19.81854102 3.99448388 28.05859375 12 C31.87795674 16.043182 34.59940691 19.94597979 37.0625 24.9375 C38.85329828 28.62698381 38.85329828 28.62698381 41.92578125 31.140625 C44.04323266 31.79532097 44.04323266 31.79532097 47 32 C48.49944026 37.99776106 48.49944026 44.00223894 47 50 C45.906875 50.226875 44.81375 50.45375 43.6875 50.6875 C39.3521647 52.23058545 39.07032664 53.08438223 37 57 C30.12138888 69.4383145 22.92144528 75.914699 9.8125 81.3125 C7 82 7 82 0 82 C0 54.94 0 27.88 0 0 Z " fill="#F49D8C" transform="translate(396,260)"/>
<path d="M0 0 C0 27.06 0 54.12 0 82 C-13.17897186 80.80191165 -21.06567327 77.79010515 -30 68 C-32.35504958 64.81194161 -34.25125477 61.55353998 -36 58 C-36.51046875 56.99066406 -36.51046875 56.99066406 -37.03125 55.9609375 C-40.61901938 47.35693502 -40.62679744 35.19413625 -37.375 26.5 C-36.6341493 24.97426203 -35.84206165 23.47230034 -35 22 C-34.34644531 20.83404297 -34.34644531 20.83404297 -33.6796875 19.64453125 C-27.93137442 10.2681845 -19.34877001 3.17794 -8.57421875 0.3671875 C-6 0 -6 0 0 0 Z " fill="#F69E8D" transform="translate(73,260)"/>
<path d="M0 0 C6.21023254 5.53885605 8.38184258 11.60872831 9.30859375 19.69140625 C9.752289 29.57370956 6.28670342 37.08551962 0.25 44.8125 C-14.81837796 60.85428739 -38.79485227 66.41977829 -59.984375 67.22265625 C-72.37108672 67.51237041 -85.14687438 66.95104187 -97 63 C-98.35327565 60.65567452 -99.5439716 58.37973289 -100.6875 55.9375 C-101.00783203 55.27427734 -101.32816406 54.61105469 -101.65820312 53.92773438 C-102.4478598 52.28949142 -103.22512362 50.64528546 -104 49 C-102.98800537 49.01047363 -101.97601074 49.02094727 -100.93334961 49.03173828 C-97.10330888 49.06851236 -93.27328298 49.0911045 -89.44311523 49.10986328 C-87.79953367 49.11979235 -86.15596914 49.13334011 -84.51245117 49.15087891 C-59.06164657 49.41526246 -33.13606756 45.64471789 -14.08203125 27.22265625 C-6.50583026 19.13474187 -1.92440717 10.9387355 0 0 Z " fill="#E03B52" transform="translate(469,409)"/>
<path d="M0 0 C7.92545363 2.14647702 14.7750942 7.44381741 19.5 14.125 C22.41246322 19.8849161 22.13766209 27.53385196 20.1640625 33.546875 C18.77339926 36.41185039 17.25414644 38.74585356 15 41 C15.35567779 44.16876576 16.62022822 45.92917628 18.5625 48.375 C22.27914865 54.14444877 21.81154417 60.39171179 21 67 C19.27679851 73.66804054 14.64009775 78.27451737 9 82 C2.77465322 85.11267339 -4.00250563 87.40820945 -11 86 C-13.5625 84.4375 -13.5625 84.4375 -15 82 C-15.54133422 78.21066044 -15.59842721 76.00644576 -13.625 72.6875 C-10.29903467 70.54937943 -7.27672377 70.13987063 -3.4140625 69.49609375 C-0.47102556 68.8912949 1.62834766 67.83611794 4 66 C5.54586876 62.90826248 5.29359521 60.40570448 5 57 C1.02484416 51.55256422 -4.73329537 50.74700937 -11.01171875 49.66015625 C-13 49 -13 49 -15 46 C-15.4375 42.5625 -15.4375 42.5625 -15 39 C-12.1310944 35.46168309 -9.31297209 34.7531608 -5 34 C-0.6781432 33.23883716 2.16590465 32.58985411 5 29 C5.69935424 26.16761534 5.68944734 23.83374542 5 21 C1.5225785 16.40483588 -3.88136914 15.8879047 -9.2578125 14.80859375 C-12.11183688 13.96702246 -13.28683743 13.39958124 -15 11 C-15.4783921 7.24120497 -15.49734698 4.9236444 -13.6875 1.5625 C-9.27102241 -1.00521953 -4.97158901 -0.65522301 0 0 Z " fill="#040202" transform="translate(282,379)"/>
<path d="M0 0 C7.97063389 6.72562344 7.97063389 6.72562344 9.05078125 12.234375 C8.25892852 15.79771227 7.46831136 17.01852159 4.42578125 19.046875 C1.30078125 19.859375 1.30078125 19.859375 -2.57421875 19.046875 C-5.19574833 16.96727507 -7.55144428 14.70015701 -9.95703125 12.375 C-18.16192879 5.07631503 -28.33044125 2.52805271 -39.1015625 2.73828125 C-50.55529934 3.75610488 -60.5143943 8.3846905 -68.19921875 16.984375 C-70.75429059 19.20325318 -71.45856558 19.43325255 -74.69921875 19.609375 C-78.57421875 19.046875 -78.57421875 19.046875 -80.57421875 17.421875 C-81.95254078 14.14836017 -82.25549062 12.58948875 -81.57421875 9.046875 C-74.65576774 -1.84081553 -61.45720124 -9.01349634 -49.26171875 -12.265625 C-31.40083149 -15.62654465 -14.25684168 -10.97632384 0 0 Z " fill="#040202" transform="translate(341.57421875,302.953125)"/>
<path d="M0 0 C2.07421875 1.96484375 2.07421875 1.96484375 3.19921875 5.40234375 C3.07421875 8.96484375 3.07421875 8.96484375 1.01171875 11.90234375 C-2.49666177 14.36567476 -3.72369978 14.40129183 -7.92578125 13.96484375 C-11.1875 12.5390625 -11.1875 12.5390625 -14.61328125 10.65234375 C-20.59750505 7.49290721 -26.30144829 5.34208428 -32.92578125 3.96484375 C-33.77527344 3.76117188 -34.62476563 3.5575 -35.5 3.34765625 C-48.97279115 0.54162557 -63.89061603 1.17154905 -77.46484375 3.13671875 C-79.92578125 2.96484375 -79.92578125 2.96484375 -82.23046875 1.19921875 C-83.92578125 -1.03515625 -83.92578125 -1.03515625 -84.42578125 -4.53515625 C-83.83737415 -8.65400594 -83.11601908 -9.49151604 -79.92578125 -12.03515625 C-55.65117111 -19.63665898 -20.79449268 -14.46452695 0 0 Z " fill="#050303" transform="translate(355.92578125,269.03515625)"/>
<path d="M0 0 C4.21524895 3.88464119 5.70588018 8.35992444 6.328125 13.9453125 C6.5598259 20.54878822 6.15106378 24.7845609 2 30 C-10.30864105 41.37380755 -28.37198715 40.31571743 -44 40 C-43.39285156 39.55398437 -42.78570312 39.10796875 -42.16015625 38.6484375 C-36.83402312 34.58401041 -32.7287108 30.32401236 -31.26953125 23.66796875 C-31.11871094 22.51941406 -30.96789062 21.37085938 -30.8125 20.1875 C-30.65394531 19.02605469 -30.49539063 17.86460937 -30.33203125 16.66796875 C-30.22246094 15.78753906 -30.11289062 14.90710938 -30 14 C-30.66 13.67 -31.32 13.34 -32 13 C-31.41734375 12.91363281 -30.8346875 12.82726562 -30.234375 12.73828125 C-19.05224822 10.82184757 -9.48011875 6.10335079 0 0 Z " fill="#413E41" transform="translate(423,166)"/>
<path d="M0 0 C4.17695185 1.25308556 6.71310394 3.02215371 10.05078125 5.75 C14.10053661 9.02704342 18.38000953 8.50825962 23.41015625 8.48046875 C29.15447465 7.86908515 32.65497345 5.02956959 36.8125 1.25 C38.75 0.125 38.75 0.125 42.3125 0.1875 C45.75 1.125 45.75 1.125 47.75 2.75 C49.32565012 6.49216904 49.04222967 8.248311 47.75 12.125 C42.64344012 18.16926889 35.88932604 23.47371669 27.83984375 24.32763672 C15.41508789 25.13135596 6.4801613 23.79158475 -3.40234375 15.84375 C-6.23751422 13.20638212 -7.20206397 11.56441362 -7.625 7.6875 C-7.25 4.125 -7.25 4.125 -5.6875 1.625 C-3.25 0.125 -3.25 0.125 0 0 Z " fill="#050303" transform="translate(214.25,350.875)"/>
<path d="M0 0 C-0.31234543 11.88474367 -1.12429407 24.35522333 -7 35 C-8.85625 34.566875 -8.85625 34.566875 -10.75 34.125 C-16.46387853 32.90059746 -22.23591619 31.96068063 -28 31 C-28 22.75 -28 14.5 -28 6 C-25.7725 5.7525 -23.545 5.505 -21.25 5.25 C-14.27662922 4.39652438 -6.63475885 0 0 0 Z " fill="#2B292B" transform="translate(424,214)"/>
<path d="M0 0 C0.66 0 1.32 0 2 0 C3.234375 1.4765625 3.234375 1.4765625 4.75 3.625 C8.18813051 8.17546685 11.98285991 12.21692731 16 16.25 C16.58104492 16.83990723 17.16208984 17.42981445 17.76074219 18.03759766 C20.66617823 20.92427316 23.55808021 23.47479883 26.9375 25.796875 C27.948125 26.52390625 28.95875 27.2509375 30 28 C30 28.66 30 29.32 30 30 C29.39671875 30.13277344 28.7934375 30.26554687 28.171875 30.40234375 C26.97304687 30.66724609 26.97304687 30.66724609 25.75 30.9375 C24.96109375 31.11152344 24.1721875 31.28554687 23.359375 31.46484375 C22.58078125 31.64144531 21.8021875 31.81804687 21 32 C20.26265625 32.14566406 19.5253125 32.29132813 18.765625 32.44140625 C18.18296875 32.62574219 17.6003125 32.81007812 17 33 C16.67 33.66 16.34 34.32 16 35 C15.505 34.319375 15.01 33.63875 14.5 32.9375 C12.49420872 30.58069525 10.6544171 28.78513277 8.3125 26.8125 C4.11918125 23.24070504 0.51543876 19.26930576 -3.1171875 15.13671875 C-4.3674817 13.71781641 -5.66274172 12.33725828 -7 11 C-5.88368586 9.16136495 -4.75670373 7.32920277 -3.625 5.5 C-2.99851562 4.4790625 -2.37203125 3.458125 -1.7265625 2.40625 C-1.15679687 1.6121875 -0.58703125 0.818125 0 0 Z " fill="#F39C8B" transform="translate(109,160)"/>
<path d="M0 0 C5.61 0 11.22 0 17 0 C17.33 1.65 17.66 3.3 18 5 C12.06 4.34 6.12 3.68 0 3 C0 2.01 0 1.02 0 0 Z " fill="#444044" transform="translate(264,7)"/>
</svg>
