<?xml version="1.0" encoding="UTF-8" standalone="no"?>
<svg
   version="1.1"
   width="512.54785"
   height="419.7919"
   id="svg16"
   xmlns="http://www.w3.org/2000/svg"
   xmlns:svg="http://www.w3.org/2000/svg">
  <defs
     id="defs20" />
  <path
     d="m 241.09417,36.979482 c 11.00673,9.772914 11.00673,9.772914 14.22265,14.452637 3.32437,-1.108121 3.92686,-1.855367 6.0625,-4.5 22.85966,-26.693265 58.90389,-43.3902758 93.69483,-46.35498083 41.38704,-2.67623597 82.54363,8.40624603 114.24268,35.85498083 25.52026,22.757881 39.61488,54.152814 43,88.000001 0.14798,2.78562 0.18615,5.56625 0.20312,8.35547 0.007,0.77539 0.0141,1.55078 0.0214,2.34967 0.39522,56.1958 -17.22604,108.01772 -52.22451,152.29486 -0.33,0.33 -0.66,0.66 -1,1 -0.17652,1.89065 -0.34788,3.78194 -0.49268,5.67529 -1.6738,20.50931 -10.32741,35.51401 -24.50732,50.32471 -0.90106,0.9958 -0.90106,0.9958 -1.82032,2.01172 -10.85476,11.58311 -29.13029,25.42235 -45.30468,27.36328 -4.5379,-0.43915 -8.14231,-1.8409 -12.32422,-3.59766 -3.41742,-1.04145 -5.33825,-0.41803 -8.45996,1.23145 -0.66419,0.41475 -1.32838,0.82951 -2.0127,1.25683 -0.7653,0.47123 -1.5306,0.94247 -2.31909,1.42798 -0.82798,0.51361 -1.65596,1.02722 -2.50903,1.5564 -27.76172,16.87926 -56.54231,30.1368 -87.25001,40.75 -1.11181,0.39848 -2.22363,0.79696 -3.36914,1.20752 -11.86726,4.02061 -19.43631,1.87804 -31.06836,-2.08252 -1.17433,-0.39639 -2.34867,-0.79278 -3.55859,-1.20118 -12.60788,-4.34405 -24.8356,-9.48263 -37.00391,-14.92382 -1.29043,-0.57186 -1.29043,-0.57186 -2.60693,-1.15528 -26.84161,-11.97623 -52.33723,-27.62139 -75.39306,-45.84472 -0.81598,-0.6368 -1.63196,-1.2736 -2.47266,-1.92969 -22.081723,-17.42741 -44.511343,-36.57033 -61.527343,-59.07031 -1.00723,-1.26973 -2.01652,-2.53782 -3.02735,-3.80469 -17.79493,-22.49732 -31.80346,-48.00588 -40.97265,-75.19531 -0.2807,-0.83097 -0.56139,-1.66193 -0.85059,-2.51807 -5.86598,-17.69812 -10.24678997,-36.40968 -10.35253997,-55.12646 -0.006,-0.80927 -0.0114,-1.61853 -0.0173,-2.45232 -0.009,-1.70851 -0.016,-3.41704 -0.0198,-5.12557 -0.01,-2.54535 -0.0406,-5.08985 -0.0723,-7.63501 -0.0973,-14.95535 1.43383997,-29.8148 5.93749997,-44.142571 0.25233,-0.814849 0.50466,-1.629698 0.76464,-2.469239 6.32744,-19.557878 16.4552,-35.696577 30.61036,-50.530761 0.86238,-0.974531 0.86238,-0.974531 1.74218,-1.96875 51.56451,-55.918816 147.668383,-50.815862 202.035183,-3.483887 z"
     fill="#feb2c7"
     id="path2" />
  <path
     d="m 372.31683,262.43212 c 3.90307,2.41417 7.45962,5.08726 11,8 1.32871,1.00612 2.66041,2.0084 4,3 1.2375,-1.485 1.2375,-1.485 2.5,-3 8.08074,-8.16405 20.29779,-13.11045 31.625,-13.25 10.40051,0.0176 18.14403,2.13419 25.875,9.25 8.0898,8.14484 10.95191,17.01636 11.3125,28.375 -0.41758,19.73738 -11.10272,35.82759 -24.3125,49.625 -0.60071,0.66387 -1.20141,1.32773 -1.82032,2.01172 -10.98506,11.72216 -28.977,25.10218 -45.24218,27.42578 -14.83534,-1.64837 -28.94744,-12.98053 -39.9375,-22.4375 -0.9668,-0.82113 -1.9336,-1.64227 -2.92969,-2.48828 -15.20049,-13.20663 -27.88658,-30.85151 -29.41797,-51.54688 -0.53422,-11.2426 1.41017,-20.38866 8.59766,-29.40234 13.1652,-13.79621 32.53691,-13.06756 48.75,-5.5625 z"
     fill="#ff5e7f"
     id="path4" />
  <path
     d="m 258.35199,204.12353 c 7.24918,-0.46093 13.02706,2.31347 18.96484,6.30859 4.8062,4.75064 7.67842,9.89134 8.375,16.625 -0.18728,6.57991 -2.41319,13.83727 -7.125,18.5625 -0.7425,0.59813 -1.485,1.19625 -2.25,1.8125 1.9488,4.05766 4.30418,7.82954 6.66016,11.66016 2.69609,4.70834 3.0489,9.04226 2.33984,14.33984 -2.76868,8.2688 -7.38744,13.30343 -14.79297,17.63282 -6.09478,2.59826 -13.40157,2.45279 -19.7539,0.64062 -4.1429,-1.9157 -7.11256,-4.27496 -9.45313,-8.27344 -0.64425,-3.30178 -0.33107,-4.4896 1.5,-7.3125 3.70681,-2.50209 6.06638,-2.10975 10.5,-1.6875 0.99,0.66 1.98,1.32 3,2 3.67522,0.3403 6.41774,0.18583 9.9375,-0.9375 2.46359,-2.46359 2.38812,-3.18799 2.4375,-6.5625 -0.12226,-2.82152 -0.47101,-4.78802 -1.375,-7.5 -4.12944,-2.60002 -8.81097,-3.87699 -13.625,-4.375 -3.89576,-0.72143 -5.11471,-1.40843 -7.375,-4.625 -1.23674,-3.63293 -1.34458,-5.24192 0.25,-8.75 3.576,-2.92581 6.56392,-3.0877 11.05469,-3.73437 4.78492,-0.91538 7.61441,-3.19066 10.63281,-6.89063 1.36985,-3.38434 1.18886,-5.17083 0.0625,-8.625 -1.85889,-2.32361 -3.22146,-2.9113 -6.16016,-3.24609 -4.22819,-0.11688 -6.21672,-0.16932 -9.83984,2.24609 -3.4375,0.4375 -3.4375,0.4375 -7,0 -2.5,-2.0625 -2.5,-2.0625 -4,-5 -0.3125,-3.4375 -0.3125,-3.4375 1,-7 4.90065,-4.47973 9.57579,-6.32915 16.03516,-7.30859 z"
     fill="#050304"
     id="path6" />
  <path
     d="m 347.31683,106.18212 c 1.29937,-0.0387 1.29937,-0.0387 2.625,-0.0781 2.375,0.32813 2.375,0.32813 4.16406,1.62891 2.02499,2.84151 1.56517,5.33402 1.21094,8.69922 -2.28666,4.42933 -6.03085,5.39997 -10.5,6.875 -8.51762,2.99426 -16.27772,6.64004 -23.5,12.125 0.72888,-0.0209 1.45777,-0.0419 2.20874,-0.0635 24.57649,-0.61165 24.57649,-0.61165 34.79126,1.81348 0.6799,0.15694 1.3598,0.31389 2.0603,0.47559 2.88371,0.78159 4.74303,1.58012 6.8811,3.69238 1.67483,3.29402 1.00746,5.60286 0.0586,9.08203 -2.24376,2.67525 -3.59516,2.95869 -7.0625,3.3125 -3.05329,-0.24232 -5.66153,-0.66685 -8.625,-1.3125 -18.14201,-3.44374 -35.00415,-0.75075 -51.3125,7.82812 -3.55208,1.38753 -6.21639,1.48756 -10,1.17188 -2.4375,-1.625 -2.4375,-1.625 -4,-4 -0.70205,-5.34928 1.06791,-8.42091 4.1875,-12.5625 0.44561,-0.60352 0.89122,-1.20705 1.35034,-1.82886 12.23437,-16.1131 33.96048,-36.47468 55.46216,-36.85864 z"
     fill="#040303"
     id="path8" />
  <path
     d="m 411.19183,162.24462 c 4.2365,3.05928 7.55781,5.92765 8.49609,11.32031 0.30009,5.36523 -0.73083,9.77557 -4.37109,13.86719 -8.68059,7.51374 -18.25701,9.6293 -29.53516,9.34766 -9.75684,-0.97899 -17.96898,-5.28981 -24.46484,-12.59766 -1.98973,-5.47176 -1.93926,-10.71494 0.5,-16 12.93468,-14.22815 33.08572,-16.01252 49.375,-5.9375 z"
     fill="#ff5f7f"
     id="path10" />
  <path
     d="m 144.75433,161.36962 c 3.68509,2.96605 7.16046,6.32458 7.87109,11.16406 0.30221,5.91591 -0.44848,9.59538 -4.33594,14.14453 -8.01515,7.12635 -18.277,9.20288 -28.69531,9 -8.99124,-0.67514 -17.62041,-4.01175 -23.726562,-10.875 -2.996148,-4.53101 -3.459291,-9.14955 -2.550781,-14.37109 2.68369,-5.95079 7.494483,-8.87375 13.000003,-12 0.89138,-0.51627 0.89138,-0.51627 1.80078,-1.04297 11.69124,-5.52158 26.01324,-2.00731 36.63672,3.98047 z"
     fill="#ff5f7f"
     id="path12" />
  <path
     d="m 206.31683,111.43212 c 3.2911,2.10071 4.83338,3.75008 7,7 0.26069,2.11142 0.26069,2.11142 0.27466,4.57568 0.0143,1.38692 0.0143,1.38692 0.0289,2.80185 -9.1e-4,0.9969 -0.002,1.9938 -0.003,3.02091 0.004,1.02711 0.009,2.05422 0.013,3.11245 0.006,2.17377 0.006,4.34756 0.002,6.52134 -0.003,3.32292 0.0203,6.64495 0.0456,9.96777 0.002,2.11198 0.003,4.22396 0.002,6.33594 0.009,0.99285 0.0184,1.9857 0.0279,3.00863 -0.0413,6.1732 -0.80213,9.63485 -4.89119,14.40543 -3.26701,2.72251 -7.15646,2.64388 -11.21094,2.59766 -3.99081,-0.60612 -5.58958,-2.38481 -8.28906,-5.34766 -2.67833,-4.78947 -2.30594,-9.82125 -2.30078,-15.15625 -0.004,-0.97989 -0.009,-1.95978 -0.013,-2.96936 -0.006,-2.06766 -0.006,-4.13534 -0.002,-6.203 0.003,-3.16035 -0.0203,-6.31976 -0.0456,-9.47998 -0.002,-2.01172 -0.003,-4.02344 -0.002,-6.03516 -0.009,-0.94283 -0.0184,-1.88566 -0.0279,-2.85706 0.0346,-4.9015 0.1252,-8.36718 3.39123,-12.29919 5.36571,-4.07795 9.47392,-4.93456 16,-3 z"
     fill="#010101"
     id="path14" />
</svg>
