<?xml version="1.0" encoding="UTF-8"?>
<svg version="1.1" xmlns="http://www.w3.org/2000/svg" width="512" height="512">
<path d="M0 0 C11.00673268 9.77291345 11.00673268 9.77291345 14.22265625 14.45263672 C17.54701846 13.34451598 18.14950957 12.59727044 20.28515625 9.95263672 C43.14481363 -16.7406278 79.18904171 -33.43763884 113.97998047 -36.40234375 C155.36702224 -39.07857963 196.52360795 -27.99609832 228.22265625 -0.54736328 C253.74292456 22.21051753 267.8375351 53.60545118 271.22265625 87.45263672 C271.3706403 90.23826193 271.40880933 93.01888515 271.42578125 95.80810547 C271.43284088 96.5834967 271.43990051 97.35888794 271.44717407 98.15777588 C271.84238528 154.35357986 254.22113172 206.17549566 219.22265625 250.45263672 C218.89265625 250.78263672 218.56265625 251.11263672 218.22265625 251.45263672 C218.04613823 253.34329364 217.87478334 255.23457966 217.72998047 257.12792969 C216.05617901 277.63724131 207.40257313 292.64194062 193.22265625 307.45263672 C192.32160156 308.4484375 192.32160156 308.4484375 191.40234375 309.46435547 C180.54758359 321.04746534 162.27205139 334.8867093 146.09765625 336.82763672 C141.55975857 336.38848533 137.95535028 334.98673874 133.7734375 333.22998047 C130.35601782 332.18853098 128.43519223 332.81194635 125.31347656 334.46142578 C124.64928711 334.87618164 123.98509766 335.2909375 123.30078125 335.71826172 C122.53548096 336.18949463 121.77018066 336.66072754 120.98168945 337.14624023 C120.1537085 337.65985107 119.32572754 338.17346191 118.47265625 338.70263672 C90.71094321 355.58190097 61.93034945 368.83944417 31.22265625 379.45263672 C30.11083984 379.85111816 28.99902344 380.24959961 27.85351562 380.66015625 C15.98624841 384.68076985 8.41720604 382.53820124 -3.21484375 378.57763672 C-4.38917969 378.18125 -5.56351563 377.78486328 -6.7734375 377.37646484 C-19.38131335 373.03240505 -31.60903441 367.89383349 -43.77734375 362.45263672 C-45.06777588 361.88077637 -45.06777588 361.88077637 -46.38427734 361.29736328 C-73.22588332 349.32113259 -98.72150671 333.67597032 -121.77734375 315.45263672 C-122.59332031 314.81583984 -123.40929687 314.17904297 -124.25 313.52294922 C-146.33172176 296.09553648 -168.76133645 276.95262427 -185.77734375 254.45263672 C-186.7845707 253.18290788 -187.7938631 251.91481602 -188.8046875 250.64794922 C-206.5996219 228.15063112 -220.60814567 202.64207335 -229.77734375 175.45263672 C-230.05803711 174.6216748 -230.33873047 173.79071289 -230.62792969 172.93457031 C-236.49390733 155.23645285 -240.87471786 136.5248852 -240.98046875 117.80810547 C-240.98616882 116.99884109 -240.9918689 116.18957672 -240.9977417 115.35578918 C-241.00713649 113.64728069 -241.01370354 111.93875454 -241.01757812 110.23022461 C-241.02717507 107.68487468 -241.05820539 105.14037223 -241.08984375 102.59521484 C-241.18716709 87.63986184 -239.65599907 72.78041072 -235.15234375 58.45263672 C-234.90000977 57.63778809 -234.64767578 56.82293945 -234.38769531 55.98339844 C-228.060257 36.42551985 -217.93249887 20.28682142 -203.77734375 5.45263672 C-202.91496094 4.47810547 -202.91496094 4.47810547 -202.03515625 3.48388672 C-150.47067432 -52.43492924 -54.36680044 -47.33197544 0 0 Z " fill="#FEB2C7" transform="translate(240.77734375,82.54736328125)"/>
<path d="M0 0 C3.9030725 2.41417481 7.45961803 5.0872589 11 8 C12.32871721 9.00612542 13.66041077 10.00839602 15 11 C16.2375 9.515 16.2375 9.515 17.5 8 C25.5807448 -0.16405145 37.79779195 -5.11044508 49.125 -5.25 C59.52551664 -5.23239971 67.26903414 -3.11581374 75 4 C83.08980688 12.14483958 85.95190831 21.01636166 86.3125 32.375 C85.89492493 52.11238162 75.20978138 68.20259489 62 82 C61.39929688 82.66386719 60.79859375 83.32773437 60.1796875 84.01171875 C49.19462068 95.7338788 31.20268454 109.11390221 14.9375 111.4375 C0.10215966 109.78912885 -14.00993538 98.45696783 -25 89 C-25.96679688 88.17886719 -26.93359375 87.35773438 -27.9296875 86.51171875 C-43.13018031 73.30509151 -55.81626647 55.66020852 -57.34765625 34.96484375 C-57.88187827 23.72224213 -55.93749248 14.57618521 -48.75 5.5625 C-35.58479904 -8.23371278 -16.21309048 -7.50506292 0 0 Z " fill="#FF5E7F" transform="translate(372,308)"/>
<path d="M0 0 C7.24918769 -0.46093101 13.02706385 2.313473 18.96484375 6.30859375 C23.7710449 11.05923188 26.64325785 16.19993004 27.33984375 22.93359375 C27.15256 29.51349607 24.92665487 36.77085866 20.21484375 41.49609375 C19.47234375 42.09421875 18.72984375 42.69234375 17.96484375 43.30859375 C19.91364718 47.36624727 22.26902525 51.13813091 24.625 54.96875 C27.32109247 59.67708642 27.67390544 64.01100644 26.96484375 69.30859375 C24.19616278 77.57738985 19.57740656 82.61201857 12.171875 86.94140625 C6.07708796 89.53967113 -1.22969435 89.39420098 -7.58203125 87.58203125 C-11.7249229 85.66633323 -14.69458596 83.30706799 -17.03515625 79.30859375 C-17.67940646 76.0068114 -17.36622711 74.81899466 -15.53515625 71.99609375 C-11.82834437 69.49399573 -9.46877348 69.88634449 -5.03515625 70.30859375 C-4.04515625 70.96859375 -3.05515625 71.62859375 -2.03515625 72.30859375 C1.64005898 72.64889146 4.38258472 72.4944211 7.90234375 71.37109375 C10.36593725 68.90750025 10.29046079 68.18309593 10.33984375 64.80859375 C10.21757774 61.98707035 9.86883434 60.02056552 8.96484375 57.30859375 C4.83540224 54.70857502 0.15387505 53.43159699 -4.66015625 52.93359375 C-8.5559131 52.2121573 -9.77486269 51.52516536 -12.03515625 48.30859375 C-13.27189876 44.67566261 -13.37973828 43.06667422 -11.78515625 39.55859375 C-8.20915751 36.6327766 -5.22123369 36.4708889 -0.73046875 35.82421875 C4.05445076 34.90884284 6.88394629 32.63356483 9.90234375 28.93359375 C11.27219704 25.54925032 11.09120228 23.76275992 9.96484375 20.30859375 C8.1059549 17.98498269 6.74338504 17.39728833 3.8046875 17.0625 C-0.42350261 16.9456232 -2.41203935 16.89318248 -6.03515625 19.30859375 C-9.47265625 19.74609375 -9.47265625 19.74609375 -13.03515625 19.30859375 C-15.53515625 17.24609375 -15.53515625 17.24609375 -17.03515625 14.30859375 C-17.34765625 10.87109375 -17.34765625 10.87109375 -16.03515625 7.30859375 C-11.13450935 2.82886131 -6.4593646 0.979443 0 0 Z " fill="#050304" transform="translate(258.03515625,249.69140625)"/>
<path d="M0 0 C1.299375 -0.03867188 1.299375 -0.03867188 2.625 -0.078125 C5 0.25 5 0.25 6.7890625 1.55078125 C8.81404893 4.39229447 8.35423108 6.88480473 8 10.25 C5.71334792 14.67932978 1.96915252 15.64997228 -2.5 17.125 C-11.01761476 20.11926326 -18.777716 23.76504495 -26 29.25 C-25.27111572 29.22905273 -24.54223145 29.20810547 -23.79125977 29.18652344 C0.78523041 28.57486943 0.78523041 28.57486943 11 31 C11.6798999 31.15694336 12.3597998 31.31388672 13.06030273 31.47558594 C15.94400905 32.25717574 17.80333419 33.05570842 19.94140625 35.16796875 C21.61622886 38.46199255 20.94886385 40.77083256 20 44.25 C17.75623774 46.925255 16.40484065 47.20868973 12.9375 47.5625 C9.88421638 47.3201759 7.27597322 46.89564699 4.3125 46.25 C-13.82950528 42.8062631 -30.69164871 45.49925271 -47 54.078125 C-50.55207406 55.46565393 -53.21638429 55.56567712 -57 55.25 C-59.4375 53.625 -59.4375 53.625 -61 51.25 C-61.70204558 45.90071792 -59.93208901 42.8290944 -56.8125 38.6875 C-56.36688721 38.08397705 -55.92127441 37.4804541 -55.4621582 36.85864258 C-43.2277846 20.74553808 -21.50167318 0.38395845 0 0 Z " fill="#040303" transform="translate(347,151.75)"/>
<path d="M0 0 C4.23650609 3.05928228 7.557811 5.92765585 8.49609375 11.3203125 C8.79618252 16.68553605 7.76526166 21.09588514 4.125 25.1875 C-4.55558435 32.70124409 -14.13200882 34.8168038 -25.41015625 34.53515625 C-35.16699917 33.55617201 -43.37913281 29.24535059 -49.875 21.9375 C-51.86472987 16.46574286 -51.81425951 11.22256227 -49.375 5.9375 C-36.44031966 -8.29064837 -16.28927323 -10.07502127 0 0 Z " fill="#FF5F7F" transform="translate(410.875,207.8125)"/>
<path d="M0 0 C3.68509776 2.9660543 7.16046354 6.3245808 7.87109375 11.1640625 C8.17329979 17.07997467 7.42261313 20.75944209 3.53515625 25.30859375 C-4.47999828 32.43493906 -14.74184281 34.51147041 -25.16015625 34.30859375 C-34.1514002 33.63344671 -42.78056811 30.29684124 -48.88671875 23.43359375 C-51.88286674 18.90257697 -52.34600975 14.28404024 -51.4375 9.0625 C-48.75381016 3.11170949 -43.94301717 0.18874845 -38.4375 -2.9375 C-37.54611328 -3.45376953 -37.54611328 -3.45376953 -36.63671875 -3.98046875 C-24.94548101 -9.5020511 -10.62347984 -5.98777954 0 0 Z " fill="#FF5F7F" transform="translate(144.4375,206.9375)"/>
<path d="M0 0 C3.29110633 2.10070617 4.8333853 3.75007795 7 7 C7.26069641 9.11141968 7.26069641 9.11141968 7.2746582 11.57568359 C7.28895622 12.96259903 7.28895622 12.96259903 7.30354309 14.37753296 C7.30263168 15.37443146 7.30172028 16.37132996 7.30078125 17.3984375 C7.30506638 18.4255484 7.3093515 19.4526593 7.31376648 20.51089478 C7.31951184 22.68466454 7.32000853 24.85845353 7.31567383 27.03222656 C7.31251884 30.35515266 7.33595372 33.67718434 7.36132812 37 C7.36360161 39.11197804 7.36430439 41.22395848 7.36328125 43.3359375 C7.372491 44.32878754 7.38170074 45.32163757 7.39118958 46.34457397 C7.34988447 52.51776687 6.58906415 55.97942516 2.5 60.75 C-0.76700968 63.47250807 -4.6564596 63.39387994 -8.7109375 63.34765625 C-12.70174842 62.74154333 -14.30051704 60.96284715 -17 58 C-19.67832275 53.21052873 -19.30593845 48.17874899 -19.30078125 42.84375 C-19.30506638 41.86386108 -19.3093515 40.88397217 -19.31376648 39.87438965 C-19.31949854 37.80672985 -19.32001833 35.7390499 -19.31567383 33.67138672 C-19.31251105 30.51104344 -19.33599712 27.35163408 -19.36132812 24.19140625 C-19.36360097 22.17968868 -19.36430468 20.1679686 -19.36328125 18.15625 C-19.372491 17.21342163 -19.38170074 16.27059326 -19.39118958 15.29919434 C-19.35666916 10.39768631 -19.26603064 6.93201294 -16 3 C-10.63428393 -1.07794421 -6.5260791 -1.93456003 0 0 Z " fill="#010101" transform="translate(206,157)"/>
</svg>
