<?xml version="1.0" encoding="UTF-8"?>
<svg version="1.1" xmlns="http://www.w3.org/2000/svg" width="512" height="512">
<path d="M0 0 C1.20642151 -0.00807175 2.41284302 -0.01614349 3.65582275 -0.02445984 C6.20754584 -0.03825255 8.75928699 -0.04899608 11.31103516 -0.05688477 C13.88433354 -0.06834532 16.45760929 -0.08870157 19.03076172 -0.1184082 C50.83812634 -0.48483363 78.99264684 4.76472616 103.453125 26.23828125 C104.74089844 27.25341797 104.74089844 27.25341797 106.0546875 28.2890625 C124.93492927 43.63310263 135.53321763 69.66907608 138.453125 93.23828125 C138.74386448 98.37582713 138.78363867 103.50795068 138.7890625 108.65234375 C138.79551523 110.11664958 138.80224525 111.5809542 138.80923462 113.04525757 C138.82112504 116.09937519 138.82492419 119.15338044 138.82373047 122.20751953 C138.82356825 125.30085718 138.83741595 128.39360055 138.86474609 131.48681641 C139.15659644 165.0311504 134.71985043 192.23480514 110.453125 217.23828125 C109.41514172 218.20060288 108.37428529 219.15985539 107.328125 220.11328125 C106.709375 220.81453125 106.090625 221.51578125 105.453125 222.23828125 C105.87859918 225.49559998 107.34170568 228.24418265 108.765625 231.17578125 C112.27197351 238.84528708 115.26755888 246.5309478 115.83984375 255.0078125 C116.18435865 263.45579328 116.18435865 263.45579328 119.80810547 270.78564453 C123.89565894 273.94647508 128.60565333 275.59505116 133.453125 277.23828125 C134.7316208 277.72353801 136.00900379 278.21173865 137.28515625 278.703125 C151.12460356 283.70271591 165.22519419 286.48428748 179.91796875 286.16015625 C181.95506228 286.13290306 183.99217284 286.10689974 186.02929688 286.08203125 C189.21360568 286.03881089 192.39701641 285.98813647 195.58081055 285.91601562 C198.67250235 285.84912174 201.76322203 285.81456993 204.85546875 285.78515625 C206.26988503 285.74174103 206.26988503 285.74174103 207.71287537 285.69744873 C214.1749016 285.67149755 218.48500464 287.01978976 223.453125 291.23828125 C227.65473584 296.38525452 228.09909339 300.79085137 227.8203125 307.375 C227.14797583 312.61779552 225.55593707 315.55199984 221.41577148 318.87207031 C215.17052366 323.27361595 208.78419152 326.8901242 201.890625 330.17578125 C200.26966919 330.9483728 200.26966919 330.9483728 198.6159668 331.73657227 C160.53583884 349.39192937 118.7820426 353.39072604 77.453125 356.23828125 C77.47407227 357.4279248 77.49501953 358.61756836 77.51660156 359.84326172 C77.58952606 364.29740145 77.6351138 368.75148944 77.67285156 373.20605469 C77.69284836 375.12639264 77.72005506 377.04667064 77.75488281 378.96679688 C78.14634402 401.11889585 78.14634402 401.11889585 71.203125 410.55078125 C64.35318085 417.24504485 57.17806169 420.23657487 47.578125 420.61328125 C38.80420386 420.42730038 32.61750461 417.14795993 26.24609375 411.234375 C20.14192483 404.43866624 18.31448363 397.60074105 18.35546875 388.625 C18.35869141 387.37783203 18.36191406 386.13066406 18.36523438 384.84570312 C18.37361328 383.55212891 18.38199219 382.25855469 18.390625 380.92578125 C18.39513672 379.61287109 18.39964844 378.29996094 18.40429688 376.94726562 C18.41606541 373.71091797 18.43400037 370.4745938 18.453125 367.23828125 C12.183125 367.23828125 5.913125 367.23828125 -0.546875 367.23828125 C-0.51207031 369.15511719 -0.47726562 371.07195312 -0.44140625 373.046875 C-0.4132554 375.58983494 -0.38595664 378.13280442 -0.359375 380.67578125 C-0.33423828 381.93583984 -0.30910156 383.19589844 -0.28320312 384.49414062 C-0.19428916 395.84549002 -1.92031523 403.6957866 -9.546875 412.23828125 C-15.6543594 418.34576565 -21.99166839 420.34871938 -30.484375 420.67578125 C-38.42063588 420.46320283 -45.84755212 417.93760413 -51.546875 412.23828125 C-53.67628492 409.43133181 -53.5501999 408.27618516 -53.234375 404.67578125 C-52.546875 401.23828125 -52.546875 401.23828125 -51.546875 398.23828125 C-51.85899445 396.89982306 -52.1953176 395.56692578 -52.546875 394.23828125 C-52.61312007 392.48941144 -52.63240095 390.73825377 -52.609375 388.98828125 C-52.60035156 388.09625 -52.59132812 387.20421875 -52.58203125 386.28515625 C-52.56462891 385.27195312 -52.56462891 385.27195312 -52.546875 384.23828125 C-53.495625 384.01140625 -54.444375 383.78453125 -55.421875 383.55078125 C-58.546875 382.23828125 -58.546875 382.23828125 -59.73046875 379.97265625 C-62.13964925 371.90363064 -60.35308161 362.48750245 -59.546875 354.23828125 C-60.26230469 353.98046875 -60.97773438 353.72265625 -61.71484375 353.45703125 C-73.37859312 348.43759704 -80.94888706 338.68509549 -87.546875 328.23828125 C-88.25199219 328.56054688 -88.95710937 328.8828125 -89.68359375 329.21484375 C-95.75488897 331.38493836 -102.99915129 331.33473043 -108.921875 328.67578125 C-113.96542266 325.70218961 -117.4122024 321.61077851 -119.921875 316.36328125 C-121.61220705 307.91162102 -120.57884155 301.22582514 -116.10546875 293.8671875 C-111.27434275 286.68214859 -105.655124 279.53450446 -98.87890625 274.09765625 C-95.50563919 269.96159011 -95.37342925 266.00243508 -94.859375 260.80078125 C-94.65229301 258.94733315 -94.44018046 257.09443911 -94.22265625 255.2421875 C-94.13927002 254.42564697 -94.05588379 253.60910645 -93.9699707 252.76782227 C-93.47247661 249.79347935 -92.52293289 247.08748669 -91.546875 244.23828125 C-92.41114609 244.2471637 -93.27541718 244.25604614 -94.1658783 244.26519775 C-102.38685195 244.34598031 -110.60768869 244.40656479 -118.82897091 244.44552994 C-123.05371736 244.46623705 -127.27813072 244.49423772 -131.50268555 244.54003906 C-135.59410851 244.58410979 -139.68521502 244.60754448 -143.77685738 244.61779022 C-145.32307467 244.62507361 -146.86927842 244.63928884 -148.41535759 244.66120148 C-162.23883168 244.84898887 -176.48319516 243.29408947 -188.859375 236.61328125 C-189.5097876 236.27264648 -190.1602002 235.93201172 -190.83032227 235.58105469 C-207.67521282 226.39706578 -219.34192218 211.18338474 -225.609375 193.1875 C-228.02328921 184.79682705 -228.70536985 176.51904731 -228.75 167.83203125 C-228.75570007 166.94906372 -228.76140015 166.06609619 -228.76727295 165.15637207 C-228.77667121 163.29403867 -228.7832362 161.43168903 -228.78710938 159.56933594 C-228.79675255 156.77377852 -228.82779989 153.97897728 -228.859375 151.18359375 C-229.00152134 127.19506747 -223.90575655 106.64753252 -207.05859375 88.65625 C-189.71352192 71.95858365 -170.05470842 67.66652735 -146.859375 67.61328125 C-128.22564433 67.49284653 -110.31393768 67.2642492 -95.546875 54.23828125 C-94.97710937 53.738125 -94.40734375 53.23796875 -93.8203125 52.72265625 C-90.14884896 49.26913346 -87.16481296 45.47688099 -84.171875 41.42578125 C-67.45595681 18.81841804 -44.9286959 4.95011449 -17.13745117 0.71923828 C-11.43936075 0.02344337 -5.73361113 0.03706227 0 0 Z " fill="#5AB08B" transform="translate(284.546875,50.76171875)"/>
<path d="M0 0 C1.20642151 -0.00807175 2.41284302 -0.01614349 3.65582275 -0.02445984 C6.20754584 -0.03825255 8.75928699 -0.04899608 11.31103516 -0.05688477 C13.88433354 -0.06834532 16.45760929 -0.08870157 19.03076172 -0.1184082 C50.83812634 -0.48483363 78.99264684 4.76472616 103.453125 26.23828125 C104.74089844 27.25341797 104.74089844 27.25341797 106.0546875 28.2890625 C124.93492927 43.63310263 135.53321763 69.66907608 138.453125 93.23828125 C138.74386448 98.37582713 138.78363867 103.50795068 138.7890625 108.65234375 C138.79551523 110.11664958 138.80224525 111.5809542 138.80923462 113.04525757 C138.82112504 116.09937519 138.82492419 119.15338044 138.82373047 122.20751953 C138.82356825 125.30085718 138.83741595 128.39360055 138.86474609 131.48681641 C139.15659644 165.0311504 134.71985043 192.23480514 110.453125 217.23828125 C109.41514172 218.20060288 108.37428529 219.15985539 107.328125 220.11328125 C106.709375 220.81453125 106.090625 221.51578125 105.453125 222.23828125 C105.87859918 225.49559998 107.34170568 228.24418265 108.765625 231.17578125 C112.27197351 238.84528708 115.26755888 246.5309478 115.83984375 255.0078125 C116.18435865 263.45579328 116.18435865 263.45579328 119.80810547 270.78564453 C123.89565894 273.94647508 128.60565333 275.59505116 133.453125 277.23828125 C134.7316208 277.72353801 136.00900379 278.21173865 137.28515625 278.703125 C151.12460356 283.70271591 165.22519419 286.48428748 179.91796875 286.16015625 C181.95506228 286.13290306 183.99217284 286.10689974 186.02929688 286.08203125 C189.21360568 286.03881089 192.39701641 285.98813647 195.58081055 285.91601562 C198.67250235 285.84912174 201.76322203 285.81456993 204.85546875 285.78515625 C206.26988503 285.74174103 206.26988503 285.74174103 207.71287537 285.69744873 C214.1749016 285.67149755 218.48500464 287.01978976 223.453125 291.23828125 C227.65473584 296.38525452 228.09909339 300.79085137 227.8203125 307.375 C227.14797583 312.61779552 225.55593707 315.55199984 221.41577148 318.87207031 C215.17052366 323.27361595 208.78419152 326.8901242 201.890625 330.17578125 C200.26966919 330.9483728 200.26966919 330.9483728 198.6159668 331.73657227 C160.53583884 349.39192937 118.7820426 353.39072604 77.453125 356.23828125 C77.47407227 357.4279248 77.49501953 358.61756836 77.51660156 359.84326172 C77.58952606 364.29740145 77.6351138 368.75148944 77.67285156 373.20605469 C77.69284836 375.12639264 77.72005506 377.04667064 77.75488281 378.96679688 C78.14634402 401.11889585 78.14634402 401.11889585 71.203125 410.55078125 C64.35318085 417.24504485 57.17806169 420.23657487 47.578125 420.61328125 C38.80420386 420.42730038 32.61750461 417.14795993 26.24609375 411.234375 C20.14192483 404.43866624 18.31448363 397.60074105 18.35546875 388.625 C18.35869141 387.37783203 18.36191406 386.13066406 18.36523438 384.84570312 C18.37361328 383.55212891 18.38199219 382.25855469 18.390625 380.92578125 C18.39513672 379.61287109 18.39964844 378.29996094 18.40429688 376.94726562 C18.41606541 373.71091797 18.43400037 370.4745938 18.453125 367.23828125 C12.183125 367.23828125 5.913125 367.23828125 -0.546875 367.23828125 C-0.51207031 369.15511719 -0.47726562 371.07195312 -0.44140625 373.046875 C-0.4132554 375.58983494 -0.38595664 378.13280442 -0.359375 380.67578125 C-0.33423828 381.93583984 -0.30910156 383.19589844 -0.28320312 384.49414062 C-0.19428916 395.84549002 -1.92031523 403.6957866 -9.546875 412.23828125 C-15.6543594 418.34576565 -21.99166839 420.34871938 -30.484375 420.67578125 C-38.42063588 420.46320283 -45.84755212 417.93760413 -51.546875 412.23828125 C-53.67628492 409.43133181 -53.5501999 408.27618516 -53.234375 404.67578125 C-52.546875 401.23828125 -52.546875 401.23828125 -51.546875 398.23828125 C-51.85899445 396.89982306 -52.1953176 395.56692578 -52.546875 394.23828125 C-52.61312007 392.48941144 -52.63240095 390.73825377 -52.609375 388.98828125 C-52.60035156 388.09625 -52.59132812 387.20421875 -52.58203125 386.28515625 C-52.56462891 385.27195312 -52.56462891 385.27195312 -52.546875 384.23828125 C-53.495625 384.01140625 -54.444375 383.78453125 -55.421875 383.55078125 C-58.546875 382.23828125 -58.546875 382.23828125 -59.73046875 379.97265625 C-62.13964925 371.90363064 -60.35308161 362.48750245 -59.546875 354.23828125 C-60.26230469 353.98046875 -60.97773438 353.72265625 -61.71484375 353.45703125 C-73.37859312 348.43759704 -80.94888706 338.68509549 -87.546875 328.23828125 C-88.25199219 328.56054688 -88.95710937 328.8828125 -89.68359375 329.21484375 C-95.75488897 331.38493836 -102.99915129 331.33473043 -108.921875 328.67578125 C-113.96542266 325.70218961 -117.4122024 321.61077851 -119.921875 316.36328125 C-121.61220705 307.91162102 -120.57884155 301.22582514 -116.10546875 293.8671875 C-111.27434275 286.68214859 -105.655124 279.53450446 -98.87890625 274.09765625 C-95.50563919 269.96159011 -95.37342925 266.00243508 -94.859375 260.80078125 C-94.65229301 258.94733315 -94.44018046 257.09443911 -94.22265625 255.2421875 C-94.13927002 254.42564697 -94.05588379 253.60910645 -93.9699707 252.76782227 C-93.47247661 249.79347935 -92.52293289 247.08748669 -91.546875 244.23828125 C-92.41114609 244.2471637 -93.27541718 244.25604614 -94.1658783 244.26519775 C-102.38685195 244.34598031 -110.60768869 244.40656479 -118.82897091 244.44552994 C-123.05371736 244.46623705 -127.27813072 244.49423772 -131.50268555 244.54003906 C-135.59410851 244.58410979 -139.68521502 244.60754448 -143.77685738 244.61779022 C-145.32307467 244.62507361 -146.86927842 244.63928884 -148.41535759 244.66120148 C-162.23883168 244.84898887 -176.48319516 243.29408947 -188.859375 236.61328125 C-189.5097876 236.27264648 -190.1602002 235.93201172 -190.83032227 235.58105469 C-207.67521282 226.39706578 -219.34192218 211.18338474 -225.609375 193.1875 C-228.02328921 184.79682705 -228.70536985 176.51904731 -228.75 167.83203125 C-228.75570007 166.94906372 -228.76140015 166.06609619 -228.76727295 165.15637207 C-228.77667121 163.29403867 -228.7832362 161.43168903 -228.78710938 159.56933594 C-228.79675255 156.77377852 -228.82779989 153.97897728 -228.859375 151.18359375 C-229.00152134 127.19506747 -223.90575655 106.64753252 -207.05859375 88.65625 C-189.71352192 71.95858365 -170.05470842 67.66652735 -146.859375 67.61328125 C-128.22564433 67.49284653 -110.31393768 67.2642492 -95.546875 54.23828125 C-94.97710937 53.738125 -94.40734375 53.23796875 -93.8203125 52.72265625 C-90.14884896 49.26913346 -87.16481296 45.47688099 -84.171875 41.42578125 C-67.45595681 18.81841804 -44.9286959 4.95011449 -17.13745117 0.71923828 C-11.43936075 0.02344337 -5.73361113 0.03706227 0 0 Z M-35.296875 21.36328125 C-36.34016968 21.8111499 -36.34016968 21.8111499 -37.40454102 22.26806641 C-44.43584173 25.41833406 -50.49629889 29.47730514 -56.546875 34.23828125 C-57.40539062 34.90214844 -58.26390625 35.56601563 -59.1484375 36.25 C-64.45519996 40.67230205 -68.4937712 45.63493484 -72.546875 51.17578125 C-84.44198183 67.43161205 -96.96244718 76.66513649 -116.546875 81.23828125 C-117.18076645 81.41428864 -117.8146579 81.59029602 -118.46775818 81.77163696 C-120.6318441 82.25735201 -122.55788484 82.37605638 -124.77368164 82.39599609 C-126.01131004 82.41138931 -126.01131004 82.41138931 -127.27394104 82.42709351 C-128.15936081 82.43439484 -129.04478058 82.44169617 -129.95703125 82.44921875 C-131.85352395 82.47730819 -133.7500082 82.50597277 -135.64648438 82.53515625 C-138.61938041 82.57621903 -141.59212233 82.61312735 -144.56518555 82.63964844 C-159.83710373 82.58490875 -159.83710373 82.58490875 -174.546875 86.23828125 C-175.77277344 86.71265625 -176.99867188 87.18703125 -178.26171875 87.67578125 C-194.24902986 95.42720482 -204.32292445 106.49254969 -210.56640625 123.22265625 C-211.987202 127.59259379 -212.66953619 131.64333376 -212.75561523 136.23364258 C-212.77490585 137.20268021 -212.79419647 138.17171783 -212.81407166 139.17012024 C-212.87257541 143.62207677 -212.92116493 148.07388244 -212.9519043 152.52612305 C-212.9733714 154.85635297 -213.0073375 157.18650477 -213.05444336 159.51635742 C-213.42683294 178.13981238 -212.08541401 193.44591395 -199.546875 208.23828125 C-198.90234375 209.00527344 -198.2578125 209.77226562 -197.59375 210.5625 C-188.21472099 220.79258905 -175.47580571 227.54504924 -161.57391739 228.51567078 C-156.7868101 228.66297461 -152.00021295 228.64103754 -147.21142578 228.62304688 C-145.37557133 228.62715824 -143.53971949 228.63262245 -141.70387268 228.639328 C-137.77088421 228.65099922 -133.83803587 228.65355684 -129.90503311 228.64897156 C-123.6857925 228.64213532 -117.46673495 228.658073 -111.24752808 228.67736816 C-96.93276636 228.71834395 -82.61801023 228.72977798 -68.30319977 228.74089813 C-55.16178756 228.75140624 -42.02046389 228.76814866 -28.8791064 228.80899382 C-22.69607021 228.82735488 -16.513245 228.83124131 -10.33018804 228.82405853 C-6.48949915 228.82253844 -2.6489163 228.83330837 1.19174385 228.8474369 C2.97313729 228.85144408 4.7545508 228.85030684 6.53593636 228.84366417 C8.96642739 228.83529616 11.39618303 228.84525663 13.82662964 228.85974121 C14.53216945 228.85284728 15.23770925 228.84595334 15.96462905 228.8388505 C20.27548934 228.88894521 23.03045158 229.57825333 26.453125 232.23828125 C27.2654535 235.1069938 26.79022603 237.20437195 26.453125 240.23828125 C24.09420717 242.59719908 23.6512536 242.49247268 20.45419312 242.51675415 C19.61844254 242.52791763 18.78269196 242.53908112 17.9216156 242.55058289 C17.00308304 242.55274307 16.08455048 242.55490326 15.13818359 242.55712891 C14.17228806 242.56717453 13.20639252 242.57722015 12.21122742 242.58757019 C9.00801202 242.61854298 5.80488072 242.63547642 2.6015625 242.65234375 C0.38480905 242.67104406 -1.83193719 242.6906166 -4.04867554 242.71102905 C-9.89135503 242.76247635 -15.73405763 242.80203454 -21.57684326 242.83917236 C-27.53566259 242.87913321 -33.49438475 242.93026157 -39.453125 242.98046875 C-51.15097353 243.07737713 -62.84887677 243.16173403 -74.546875 243.23828125 C-75.01867187 244.32753906 -75.49046875 245.41679687 -75.9765625 246.5390625 C-76.37464111 247.45812378 -76.37464111 247.45812378 -76.78076172 248.39575195 C-85.02955994 268.23440082 -81.70360019 298.30168965 -74.546875 318.23828125 C-72.8113211 321.79336746 -70.83378891 325.01524049 -68.546875 328.23828125 C-67.969375 329.12515625 -67.391875 330.01203125 -66.796875 330.92578125 C-57.51854711 340.46184048 -45.74740665 344.90169151 -33.109375 347.98828125 C-32.25174561 348.1992041 -31.39411621 348.41012695 -30.51049805 348.62744141 C-18.22067438 351.45757176 -5.86192188 351.39884952 6.67919922 351.36865234 C9.31613959 351.36330555 11.95290862 351.36861992 14.58984375 351.375 C38.69395207 351.38617785 63.53266172 350.49382591 83.453125 335.23828125 C84.505 334.49578125 85.556875 333.75328125 86.640625 332.98828125 C90.52032847 329.19479342 92.9528135 325.02641318 95.453125 320.23828125 C95.83597656 319.51125 96.21882813 318.78421875 96.61328125 318.03515625 C105.6033935 298.48251667 105.63713748 269.52355401 99.453125 249.23828125 C97.15395856 243.06850607 94.39630294 237.12463713 91.453125 231.23828125 C88.02192065 232.26764255 84.90998408 233.48366224 81.765625 235.17578125 C76.90164497 237.69749517 71.75429159 238.95196877 66.453125 240.23828125 C66.453125 240.89828125 66.453125 241.55828125 66.453125 242.23828125 C67.154375 242.60953125 67.855625 242.98078125 68.578125 243.36328125 C73.2617105 246.41779353 76.68340577 250.92912356 78.453125 256.23828125 C79.52409666 265.87702618 75.8926929 272.73775211 70.09765625 280.3203125 C62.10540557 289.7837058 49.20916437 301.72067513 36.640625 303.67578125 C34.453125 303.23828125 34.453125 303.23828125 32.640625 302.23828125 C30.73715648 299.03243953 30.58363224 295.78853075 31.453125 292.23828125 C33.53983769 289.99229216 36.06103921 288.75795628 38.765625 287.36328125 C40.24325882 286.52170088 41.71591208 285.6713188 43.18359375 284.8125 C43.9111084 284.38759277 44.63862305 283.96268555 45.38818359 283.52490234 C53.05874489 278.74553866 60.76564525 271.60725702 64.453125 263.23828125 C64.59264131 259.47134095 64.21717799 258.11552728 61.765625 255.30078125 C58.5616258 253.82867351 56.82281752 254.30768521 53.453125 255.23828125 C51.302038 257.25409341 51.302038 257.25409341 49.578125 259.86328125 C43.95616716 267.34857739 37.44167015 272.43890854 29.65234375 277.5625 C27.36445932 279.13147638 27.36445932 279.13147638 25.9140625 281.421875 C24.453125 283.23828125 24.453125 283.23828125 22.48046875 283.69921875 C16.67534722 283.46050347 16.67534722 283.46050347 14.453125 281.23828125 C13.97254894 277.0732887 14.16542845 274.78170807 16.140625 271.05078125 C19.71207738 266.70712295 24.07664267 263.80744985 28.703125 260.67578125 C33.90620977 256.94328571 37.54645718 252.71763377 41.4375 247.671875 C43.86893755 244.736244 46.12273138 243.03157012 49.453125 241.23828125 C49.1128125 239.38203125 49.1128125 239.38203125 48.765625 237.48828125 C48.27736564 234.8250484 48.30304806 233.57232347 49.421875 231.08203125 C52.41575032 228.36451365 55.78035389 228.12244848 59.640625 227.48828125 C79.24819916 223.68267521 97.59214381 211.86972972 108.97753906 195.37744141 C119.52242984 179.38302899 123.93246136 162.06730862 123.88671875 142.94140625 C123.8919606 141.62775085 123.89720245 140.31409546 123.90260315 138.96063232 C123.91144909 136.20086937 123.90921211 133.44139703 123.89916992 130.68164062 C123.88999491 127.89292343 123.89687631 125.1050446 123.91967773 122.31640625 C124.17740564 90.62589214 119.38392246 64.30577244 96.703125 40.92578125 C87.82195873 32.15559353 77.05171519 25.77029189 65.453125 21.23828125 C64.51082031 20.86960937 63.56851562 20.5009375 62.59765625 20.12109375 C48.16778671 14.89812908 33.54780182 14.89177111 18.39575195 14.92260742 C15.15737123 14.92576492 11.91990896 14.90224251 8.68164062 14.87695312 C-6.25145544 14.83009837 -21.40961007 15.19961846 -35.296875 21.36328125 Z " fill="#000101" transform="translate(284.546875,50.76171875)"/>
<path d="M0 0 C7.29037182 5.14829262 12.55285535 12.55045473 14.28125 21.40625 C15.51641799 32.05222174 14.34069835 41.92100109 7.52734375 50.52734375 C4.6056859 53.93378996 1.57775497 57.23662849 -1.47265625 60.52734375 C-2.00777832 61.10758301 -2.54290039 61.68782227 -3.09423828 62.28564453 C-6.64134234 66.12976211 -10.2089735 69.95346997 -13.80078125 73.75585938 C-14.85855395 74.87665358 -15.91360101 76.00003191 -16.96484375 77.12695312 C-23.29729423 83.89766642 -27.73883795 88.40378952 -37.28515625 89.02734375 C-49.31132567 88.50210442 -56.26474376 80.14138985 -64.03173828 72.00146484 C-65.78017461 70.21273923 -67.62225646 68.57549742 -69.53515625 66.96484375 C-79.24872119 58.61531134 -87.3276634 50.96232229 -91.47265625 38.52734375 C-92.26837647 26.30455942 -91.86421652 16.70755709 -83.97265625 6.77734375 C-78.09363893 0.54470133 -69.6404042 -3.96031936 -61.02734375 -4.67578125 C-54.30784788 -4.79332345 -48.78024697 -3.74385963 -42.47265625 -1.47265625 C-38.87127215 -0.27219488 -38.32298591 -0.73978002 -35.03515625 -2.34765625 C-23.45786631 -7.95020265 -10.92626943 -6.50743061 0 0 Z " fill="#010000" transform="translate(91.47265625,46.47265625)"/>
<path d="M0 0 C0.64646484 0.21962402 1.29292969 0.43924805 1.95898438 0.66552734 C23.5209615 8.12563353 40.12517553 23.87682658 50.2734375 44.20703125 C55.66017455 55.61372417 57.18153062 66.53489766 57 79 C-10.65969372 79.73359134 -10.65969372 79.73359134 -32 61 C-47.58180778 42.83573246 -48.2610083 19.85272637 -48 -3 C-32.15118766 -5.76511194 -15.22168969 -5.27532808 0 0 Z " fill="#9ADDC0" transform="translate(252,323)"/>
<path d="M0 0 C4.27967192 2.35981909 6.99966756 5.34578848 8.90234375 9.84765625 C10.80842489 16.87633044 10.17391776 22.78542535 6.79345703 29.15820312 C4.70201504 32.45224442 2.05440323 35.00263378 -0.78515625 37.65234375 C-1.95497449 38.78063766 -3.12295913 39.9108359 -4.2890625 41.04296875 C-5.12074951 41.84637695 -5.12074951 41.84637695 -5.96923828 42.66601562 C-7.82143397 44.4971568 -9.53617779 46.41825145 -11.22265625 48.40234375 C-13.77658445 51.36819585 -16.35968194 54.29495493 -19.03515625 57.15234375 C-19.73769531 57.91546875 -20.44023438 58.67859375 -21.1640625 59.46484375 C-24.17416708 61.66512324 -25.81882433 61.69151262 -29.47265625 61.15234375 C-31.52734375 59.90234375 -31.52734375 59.90234375 -33.34765625 58.15234375 C-34.36472656 57.19328125 -34.36472656 57.19328125 -35.40234375 56.21484375 C-36.42714844 55.19390625 -36.42714844 55.19390625 -37.47265625 54.15234375 C-38.13523437 53.49234375 -38.7978125 52.83234375 -39.48046875 52.15234375 C-40.8164042 50.81116933 -42.1484011 49.46606097 -43.4765625 48.1171875 C-45.39372802 46.23003631 -47.36840947 44.46549 -49.41015625 42.71484375 C-64.76494925 29.42354072 -64.76494925 29.42354072 -65.8125 21.62109375 C-66.13771946 15.84646535 -65.54548776 11.58346106 -62.0703125 6.87890625 C-58.35639874 2.86533685 -55.00639421 0.49861017 -49.5 -0.25390625 C-43.46381873 -0.43342093 -39.83877813 0.41219641 -34.47265625 3.15234375 C-29.10034477 3.87698111 -24.33485425 3.97258239 -19.59765625 1.15234375 C-13.70905512 -2.22814949 -6.34546912 -2.175303 0 0 Z " fill="#CB5A5A" transform="translate(80.47265625,57.84765625)"/>
<path d="M0 0 C4.2715451 1.34486427 8.25033758 2.99716204 12.3125 4.875 C20.27818459 8.41050775 28.48266356 10.29891938 37 12 C37.80092072 12.16980377 38.60184143 12.33960754 39.42703247 12.51455688 C46.14311981 13.85914487 52.51799522 14.2679788 59.35546875 14.1953125 C60.38311844 14.1924826 61.41076813 14.18965271 62.46955872 14.18673706 C65.70899771 14.175661 68.94814646 14.15058083 72.1875 14.125 C74.40168868 14.11495392 76.61588175 14.10583094 78.83007812 14.09765625 C84.22014888 14.07576309 89.6100537 14.04241364 95 14 C95.57165527 15.90106201 95.57165527 15.90106201 96 18 C83.5887078 35.13688642 46.3140236 41.63651313 27 46 C26.26716797 46.17015625 25.53433594 46.3403125 24.77929688 46.515625 C12.02698359 49.43043946 -0.98048049 50.13255115 -14 51 C-12.55061764 47.30265933 -10.90816835 43.83007149 -9.0625 40.3125 C-6.37402025 34.96824707 -4.40920546 29.80592649 -3 24 C-2.80664062 23.22398437 -2.61328125 22.44796875 -2.4140625 21.6484375 C-0.80856661 14.50514418 -0.3994929 7.29600198 0 0 Z " fill="#5AB08B" transform="translate(401,338)"/>
<path d="M0 0 C2.625 1.8125 2.625 1.8125 4 4 C4.48877589 7.35160611 4.44900182 9.20638213 2.7734375 12.16796875 C1 14 1 14 -1.26953125 14.42578125 C-2.10871094 14.38839844 -2.94789063 14.35101563 -3.8125 14.3125 C-4.69292969 14.27769531 -5.57335937 14.24289063 -6.48046875 14.20703125 C-9.36122263 13.97031814 -12.1708822 13.59560375 -15 13 C-15.20970559 17.14093698 -15.20970559 17.14093698 -14 21 C-13.70059857 26.78842765 -14.4101433 31.43550155 -16 37 C-15.35933594 36.84402344 -14.71867187 36.68804687 -14.05859375 36.52734375 C-8.77960671 35.33937498 -4.32913469 34.47739009 1 36 C3.5881216 38.25417042 3.94242643 39.60520979 4.4375 43 C4 46 4 46 2.625 48.1875 C-3.38168924 52.33497591 -10.8155883 53.92702086 -18 53 C-24.17234822 50.2529659 -28.38828886 46.37691858 -31.3125 40.25 C-32.41603185 35.03330399 -31.47352815 30.2255823 -30.375 25.0625 C-29.77708333 22.94583333 -29.77708333 22.94583333 -31 21 C-31.52779267 14.7882863 -31.74403643 9.241651 -28 4 C-19.43160455 -4.59239656 -10.83557469 -4.4605811 0 0 Z " fill="#020403" transform="translate(147,211)"/>
<path d="M0 0 C3.72934897 0.64478351 7.45844626 1.29101138 11.1875 1.9375 C12.24259766 2.11990234 13.29769531 2.30230469 14.38476562 2.49023438 C15.40634766 2.66748047 16.42792969 2.84472656 17.48046875 3.02734375 C18.88655396 3.27085571 18.88655396 3.27085571 20.32104492 3.51928711 C22.88817232 3.97993359 25.44447284 4.47916695 28 5 C28.09938095 9.16253275 28.17170617 13.32442479 28.21972656 17.48779297 C28.23975843 18.90197795 28.26699248 20.31608097 28.30175781 21.72998047 C28.35065489 23.77071419 28.37305123 25.8103469 28.390625 27.8515625 C28.41157227 29.07697754 28.43251953 30.30239258 28.45410156 31.56494141 C27.79971335 36.51507162 25.57687426 39.60864036 21.875 42.875 C17.57612101 44.55717004 13.55365712 44.69999584 9 44 C6.98745218 42.68568305 4.98689731 41.35278115 3 40 C-0.0316131 39.65925671 -2.96330269 39.75706422 -6 40 C-8.44064587 34.35600642 -8.19289099 29.02248522 -8 23 C-7.21625 22.71125 -6.4325 22.4225 -5.625 22.125 C-2.90328368 21.15087746 -2.90328368 21.15087746 -1 19 C-0.63105418 16.96939341 -0.63105418 16.96939341 -0.5859375 14.6484375 C-0.52792969 13.37226563 -0.52792969 13.37226563 -0.46875 12.0703125 C-0.4378125 11.18085938 -0.406875 10.29140625 -0.375 9.375 C-0.33632812 8.4778125 -0.29765625 7.580625 -0.2578125 6.65625 C-0.16340643 4.4377073 -0.07783252 2.21917597 0 0 Z " fill="#488967" transform="translate(240,411)"/>
<path d="M0 0 C0.09961729 4.41074704 0.17181669 8.82088095 0.21972656 13.23242188 C0.23971919 14.7299339 0.26692299 16.22736908 0.30175781 17.72460938 C0.65778166 33.43154382 0.65778166 33.43154382 -4 40 C-6.89145061 42.63024814 -10.17731576 43.80210857 -14.05078125 44.22265625 C-18.95933784 43.9843768 -21.94080429 41.95928923 -25.5546875 38.765625 C-28.92672699 34.64626864 -29.24266663 30.57199582 -29.1953125 25.38671875 C-29.18886719 24.13955078 -29.18242187 22.89238281 -29.17578125 21.60742188 C-29.15902344 20.31384766 -29.14226562 19.02027344 -29.125 17.6875 C-29.11597656 16.37458984 -29.10695313 15.06167969 -29.09765625 13.70898438 C-29.07411797 10.47247087 -29.0412352 7.23632851 -29 4 C-28.34926514 3.91435791 -27.69853027 3.82871582 -27.02807617 3.74047852 C-24.08080626 3.35085906 -21.13415629 2.95673217 -18.1875 2.5625 C-17.16333984 2.42779297 -16.13917969 2.29308594 -15.08398438 2.15429688 C-14.10107422 2.02216797 -13.11816406 1.89003906 -12.10546875 1.75390625 C-11.19949951 1.63345947 -10.29353027 1.5130127 -9.36010742 1.38891602 C-0.93157564 0 -0.93157564 0 0 0 Z " fill="#488866" transform="translate(347,412)"/>
<path d="M0 0 C3.84944912 1.25304649 7.62350633 2.60412419 11.375 4.125 C12.24898438 4.47820312 13.12296875 4.83140625 14.0234375 5.1953125 C14.67570312 5.46085937 15.32796875 5.72640625 16 6 C15.01 6.495 15.01 6.495 14 7 C13.81334774 8.95219904 13.73051613 10.91437006 13.6875 12.875 C12.99796791 24.69382197 10.56803586 39.49348478 3 49 C-0.04213267 50.52106634 -3.28047572 50.37429338 -6.625 50.5625 C-7.33140625 50.60568359 -8.0378125 50.64886719 -8.765625 50.69335938 C-10.51018537 50.79944751 -12.25506697 50.90022889 -14 51 C-12.5873985 47.28938649 -10.90639676 43.8266951 -9.0625 40.3125 C-6.37402025 34.96824707 -4.40920546 29.80592649 -3 24 C-2.80664062 23.22398437 -2.61328125 22.44796875 -2.4140625 21.6484375 C-0.80856661 14.50514418 -0.3994929 7.29600198 0 0 Z " fill="#519E7E" transform="translate(401,338)"/>
<path d="M0 0 C2.9375 1 2.9375 1 4.875 2.6875 C6.33585561 5.86700926 5.76714274 7.63140033 4.9375 11 C-0.33123148 19.8610484 -8.79364235 26.97698404 -17.62109375 32.12890625 C-18.21446533 32.47550293 -18.80783691 32.82209961 -19.41918945 33.17919922 C-21.10120106 34.13829185 -22.80410529 35.06046686 -24.5078125 35.98046875 C-27.36041664 37.82221641 -27.36041664 37.82221641 -27.9296875 41.23828125 C-27.97351563 42.14964844 -28.01734375 43.06101562 -28.0625 44 C-28.3925 43.34 -28.7225 42.68 -29.0625 42 C-29.825625 41.731875 -30.58875 41.46375 -31.375 41.1875 C-34.73046766 39.7048515 -36.09178635 38.06555457 -38.0625 35 C-38.0625 33.68 -38.0625 32.36 -38.0625 31 C-38.7225 30.67 -39.3825 30.34 -40.0625 30 C-38.99 29.773125 -37.9175 29.54625 -36.8125 29.3125 C-33.00839229 28.35469872 -33.00839229 28.35469872 -31.21484375 25.6796875 C-28.73810307 22.59612287 -26.20434135 20.93261821 -22.875 18.8125 C-17.43301011 15.22460212 -13.17754482 11.28299968 -8.96484375 6.26171875 C-3.69807858 0 -3.69807858 0 0 0 Z " fill="#468565" transform="translate(343.0625,305)"/>
<path d="M0 0 C3.49010734 2.39990609 5.96431345 5.4833144 7.86328125 9.28125 C8.00968626 10.92267541 8.08424714 12.5710641 8.11328125 14.21875 C8.1390625 15.09402344 8.16484375 15.96929687 8.19140625 16.87109375 C7.86328125 19.28125 7.86328125 19.28125 6.59765625 21.07421875 C3.56086273 23.18766289 0.41230772 22.81471536 -3.13671875 22.28125 C-5.07421875 21.15625 -5.07421875 21.15625 -6.13671875 19.28125 C-6.82421875 16.09375 -6.82421875 16.09375 -7.13671875 13.28125 C-8.78671875 13.28125 -10.43671875 13.28125 -12.13671875 13.28125 C-12.38421875 14.374375 -12.63171875 15.4675 -12.88671875 16.59375 C-14.13671875 20.28125 -14.13671875 20.28125 -15.88671875 22.28125 C-19.03217355 23.67922991 -20.87631033 23.25243549 -24.13671875 22.28125 C-26.32996183 20.62079946 -27.04912114 19.73975641 -27.5703125 17.01171875 C-27.57918005 11.23894491 -27.10423582 7.78491803 -23.13671875 3.28125 C-16.01537468 -3.29229838 -8.61705954 -4.68500324 0 0 Z " fill="#020403" transform="translate(343.13671875,97.71875)"/>
<path d="M0 0 C2.83453606 1.37322131 5.09726784 2.93320534 7.32421875 5.16015625 C7.23217028 8.65799798 6.60170942 9.89037366 4.07421875 12.34765625 C-2.60663327 16.75094508 -8.84678269 16.80106923 -16.67578125 16.16015625 C-20.86022148 14.69193161 -24.02411387 12.76642389 -26.67578125 9.16015625 C-26.92578125 6.72265625 -26.92578125 6.72265625 -25.67578125 4.16015625 C-19.28259747 -2.681672 -8.44080617 -2.64930413 0 0 Z " fill="#F8A8C8" transform="translate(249.67578125,122.83984375)"/>
<path d="M0 0 C3.125 2.4375 3.125 2.4375 4.4375 5.9375 C4.125 9.4375 4.125 9.4375 2.1875 11.75 C-4.33571621 15.34442526 -11.50741391 16.41673613 -18.875 15.4375 C-22.78460404 14.05610657 -25.93945834 12.37304166 -28.875 9.4375 C-29.375 7.125 -29.375 7.125 -28.875 4.4375 C-21.48267098 -2.79055504 -9.60193212 -4.09262681 0 0 Z " fill="#EC9FBF" transform="translate(364.875,123.5625)"/>
<path d="M0 0 C0 10.56 0 21.12 0 32 C-0.33 32 -0.66 32 -1 32 C-1 26.39 -1 20.78 -1 15 C-3.413125 15.495 -5.82625 15.99 -8.3125 16.5 C-14.9769769 17.80725491 -21.18645694 18.28389763 -28 18 C-28 22.62 -28 27.24 -28 32 C-28.33 32 -28.66 32 -29 32 C-29 22.76 -29 13.52 -29 4 C-18.1875 2.5625 -18.1875 2.5625 -14.78979492 2.11547852 C-13.46105347 1.93650024 -13.46105347 1.93650024 -12.10546875 1.75390625 C-11.19949951 1.63345947 -10.29353027 1.5130127 -9.36010742 1.38891602 C-0.93157564 0 -0.93157564 0 0 0 Z " fill="#3D7356" transform="translate(347,412)"/>
<path d="M0 0 C3.72930327 0.64505246 7.45844568 1.29101128 11.1875 1.9375 C12.77014648 2.21110352 12.77014648 2.21110352 14.38476562 2.49023438 C15.40634766 2.66748047 16.42792969 2.84472656 17.48046875 3.02734375 C18.88655396 3.27085571 18.88655396 3.27085571 20.32104492 3.51928711 C22.88686827 3.97969959 25.443818 4.4887636 28 5 C28 9.62 28 14.24 28 19 C18.34438126 18.45754951 9.42942122 17.02688493 0 15 C0 10.05 0 5.1 0 0 Z " fill="#417B5C" transform="translate(240,411)"/>
<path d="M0 0 C2.622731 0.13474581 3.73485098 0.25788293 5.9375 1.75 C8.75805424 6.22970379 8.48014851 11.33490477 8 16.4375 C6.83567931 18.91800929 5.90574048 20.53175952 4 22.4375 C-1.79588336 22.90490995 -1.79588336 22.90490995 -4 22.4375 C-6.58219632 20.08211822 -6.97874347 18.61422092 -7.3984375 15.125 C-7.39070312 13.908125 -7.38296875 12.69125 -7.375 11.4375 C-7.38273438 10.220625 -7.39046875 9.00375 -7.3984375 7.75 C-6.80256745 2.79609995 -5.29214513 -0.15034503 0 0 Z " fill="#010302" transform="translate(261,97.5625)"/>
<path d="M0 0 C0 5.28 0 10.56 0 16 C-9.06060606 16 -9.06060606 16 -15 12 C-16 11 -16 11 -16.4375 8.75 C-16 6 -16 6 -13.1875 3.25 C-8.13796854 -0.31437515 -6.64763824 0 0 0 Z " fill="#FBA8C9" transform="translate(352,122)"/>
<path d="M0 0 C0.33 0 0.66 0 1 0 C3.99324006 14.29806634 3.99324006 14.29806634 3 20 C0.90224006 22.56392881 -0.32047645 22.90055753 -3.5625 23.375 C-6 23 -6 23 -7.8125 21.9375 C-9.69069787 18.87307189 -9.32640299 16.53965905 -9 13 C-7.81515435 10.45339863 -6.25306314 8.29691653 -4.5625 6.0625 C-4.14162109 5.47404297 -3.72074219 4.88558594 -3.28710938 4.27929688 C-2.23047989 2.8236841 -1.11975442 1.4076308 0 0 Z " fill="#458363" transform="translate(189,343)"/>
<path d="M0 0 C2 2 2 2 2.375 4.875 C2 8 2 8 0.4375 10.4375 C-2 12 -2 12 -5.625 11.9375 C-9 11 -9 11 -11 8 C-11.54640069 2.75455334 -11.54640069 2.75455334 -9.6875 0.1875 C-5.90886426 -2.47153996 -3.94207802 -1.92049955 0 0 Z " fill="#4F9A79" transform="translate(347,249)"/>
<path d="M0 0 C3.5625 0.3125 3.5625 0.3125 5.5 1.375 C7.19585287 4.46743758 6.99310657 6.86764741 6.5625 10.3125 C4.48558202 12.69710953 3.15693084 13.2084746 0.0625 13.75 C-2.4375 13.3125 -2.4375 13.3125 -4.8125 11.75 C-6.4375 9.3125 -6.4375 9.3125 -6.3125 5.6875 C-5.14951423 1.20169775 -4.66151968 0.42377452 0 0 Z " fill="#4F9979" transform="translate(362.4375,214.6875)"/>
<path d="M0 0 C2.4375 1.5625 2.4375 1.5625 4 4 C3.9375 7.625 3.9375 7.625 3 11 C-0.46923881 13.31282587 -1.92205575 13.42478586 -6 13 C-7.875 11.9375 -7.875 11.9375 -9 10 C-9.63316583 4.09045226 -9.63316583 4.09045226 -7.875 1.0625 C-5.06487736 -0.52990283 -3.17235276 -0.45319325 0 0 Z " fill="#040806" transform="translate(166,154)"/>
<path d="M0 0 C3.4375 0.8125 3.4375 0.8125 5.4375 3.8125 C5.24602432 6.87611086 4.85927804 9.08610449 3.3125 11.75 C0.20844169 13.50896638 -2.22570548 12.66186588 -5.5625 11.8125 C-7.5625 8.8125 -7.5625 8.8125 -7.375 5.25 C-6.23767142 0.43822523 -4.87993559 -0.25683872 0 0 Z " fill="#53A180" transform="translate(316.5625,225.1875)"/>
<path d="M0 0 C2 2 2 2 2.3125 5.4375 C2 9 2 9 0.875 10.9375 C-1.88980433 12.50422245 -3.88188517 12.38976435 -7 12 C-8.875 10.9375 -8.875 10.9375 -10 9 C-10.36841966 5.56141649 -10.58367385 3.09868019 -8.9375 0 C-5.80557344 -1.61647822 -3.32814714 -0.78665296 0 0 Z " fill="#020403" transform="translate(125,155)"/>
</svg>
