<?xml version="1.0" encoding="UTF-8" standalone="no"?>
<svg
   width="118"
   height="90"
   viewBox="0 0 118 90"
   version="1.1"
   id="svg14"
   xmlns="http://www.w3.org/2000/svg"
   xmlns:svg="http://www.w3.org/2000/svg">
  <defs
     id="defs18" />
  <!-- Shadow -->
  <ellipse
     cx="60"
     cy="80"
     rx="40"
     ry="8"
     fill="#000000"
     opacity="0.08"
     id="ellipse2" />
  <!-- White sticker border -->
  <path
     d="M 60,90 C 60,90 10,60 10,30 10,10 22,0 35,0 45,0 52,5 60,15 68,5 75,0 85,0 c 13,0 25,10 25,30 0,30 -50,60 -50,60 z"
     fill="#ffffff"
     id="path4" />
  <!-- Heart outline - cocoa brown (empty/unfilled) -->
  <path
     d="M 60,83 C 60,83 15,55 15,30 15,12 25,4 36,4 45,4 53,9 60,17 67,9 75,4 84,4 c 11,0 21,8 21,26 0,25 -45,53 -45,53 z"
     fill="none"
     stroke="#8b6f47"
     stroke-width="6"
     stroke-linecap="round"
     stroke-linejoin="round"
     id="path6" />
  <!-- Inner outline for depth -->
  <path
     d="M 60,78 C 60,78 20,52 20,30 20,15 28,8 37,8 45,8 52,12 60,19 68,12 75,8 83,8 c 9,0 17,7 17,22 0,22 -40,48 -40,48 z"
     fill="none"
     stroke="#8b6f47"
     stroke-width="2"
     opacity="0.3"
     id="path8" />
  <!-- Tiny sparkle -->
  <circle
     cx="115"
     cy="20"
     r="3"
     fill="#ffffff"
     opacity="0.8"
     id="circle10" />
  <!-- Tiny accent -->
  <path
     d="m 0,45 c 0,-1.5 0.5,-2 1,-2 0.5,0 1,0.5 1,1 0,-0.5 0.5,-1 1,-1 0.5,0 1,0.5 1,2 0,1.5 -2,3 -2,3 0,0 -2,-1.5 -2,-3 z"
     fill="#ffb6c1"
     opacity="0.4"
     id="path12" />
</svg>
