<svg width="200" height="200" viewBox="0 0 200 200" xmlns="http://www.w3.org/2000/svg">
  <!-- Shadow -->
  <ellipse cx="100" cy="130" rx="40" ry="8" fill="#000000" opacity="0.08"/>
  
  <!-- White sticker border -->
  <path d="M 100 140 C 100 140 50 110 50 80 C 50 60 62 50 75 50 C 85 50 92 55 100 65 C 108 55 115 50 125 50 C 138 50 150 60 150 80 C 150 110 100 140 100 140 Z" fill="#FFFFFF"/>
  
  <!-- Heart outline - cocoa brown (empty/unfilled) -->
  <path d="M 100 133 C 100 133 55 105 55 80 C 55 62 65 54 76 54 C 85 54 93 59 100 67 C 107 59 115 54 124 54 C 135 54 145 62 145 80 C 145 105 100 133 100 133 Z" fill="none" stroke="#8B6F47" stroke-width="6" stroke-linecap="round" stroke-linejoin="round"/>
  
  <!-- Inner outline for depth -->
  <path d="M 100 128 C 100 128 60 102 60 80 C 60 65 68 58 77 58 C 85 58 92 62 100 69 C 108 62 115 58 123 58 C 132 58 140 65 140 80 C 140 102 100 128 100 128 Z" fill="none" stroke="#8B6F47" stroke-width="2" opacity="0.3"/>
  
  <!-- Tiny sparkle -->
  <circle cx="155" cy="70" r="3" fill="#FFFFFF" opacity="0.8"/>
  
  <!-- Tiny accent -->
  <path d="M 40 95 C 40 93.5 40.5 93 41 93 C 41.5 93 42 93.5 42 94 C 42 93.5 42.5 93 43 93 C 43.5 93 44 93.5 44 95 C 44 96.5 42 98 42 98 C 42 98 40 96.5 40 95 Z" fill="#FFB6C1" opacity="0.4"/>
</svg>