<svg width="400" height="400" viewBox="0 0 400 400" xmlns="http://www.w3.org/2000/svg">
  <!-- Shadow -->
  <ellipse cx="200" cy="280" rx="70" ry="15" fill="#000000" opacity="0.08"/>
  
  <!-- White sticker border -->
  <circle cx="200" cy="200" r="92" fill="#FFFFFF"/>
  
  <!-- Figure 1 (left - soft pink) -->
  <!-- Head tilted close -->
  <circle cx="185" cy="168" r="25" fill="none" stroke="#8B6F47" stroke-width="6"/>
  <circle cx="185" cy="168" r="21" fill="#FFD4E5"/>
  
  <!-- Body -->
  <ellipse cx="185" cy="225" rx="27" ry="42" fill="none" stroke="#8B6F47" stroke-width="6"/>
  <ellipse cx="185" cy="225" rx="23" ry="38" fill="#FFD4E5"/>
  
  <!-- Arms wrapped close -->
  <path d="M 170 205 Q 200 208 218 222" fill="none" stroke="#8B6F47" stroke-width="5" stroke-linecap="round"/>
  <path d="M 172 207 Q 200 210 216 222" fill="none" stroke="#FFD4E5" stroke-width="3"/>
  
  <path d="M 170 235 Q 200 238 218 235" fill="none" stroke="#8B6F47" stroke-width="5" stroke-linecap="round"/>
  <path d="M 172 237 Q 200 240 216 237" fill="none" stroke="#FFD4E5" stroke-width="3"/>
  
  <!-- Figure 2 (right - lavender) -->
  <!-- Head tilted close -->
  <circle cx="215" cy="168" r="25" fill="none" stroke="#8B6F47" stroke-width="6"/>
  <circle cx="215" cy="168" r="21" fill="#E6D4FF"/>
  
  <!-- Body -->
  <ellipse cx="215" cy="225" rx="27" ry="42" fill="none" stroke="#8B6F47" stroke-width="6"/>
  <ellipse cx="215" cy="225" rx="23" ry="38" fill="#E6D4FF"/>
  
  <!-- Arms wrapped close -->
  <path d="M 230 205 Q 200 208 182 222" fill="none" stroke="#8B6F47" stroke-width="5" stroke-linecap="round"/>
  <path d="M 228 207 Q 200 210 184 222" fill="none" stroke="#E6D4FF" stroke-width="3"/>
  
  <!-- Eyes closed, content -->
  <path d="M 180 166 Q 183 164 186 166" fill="none" stroke="#8B6F47" stroke-width="2" stroke-linecap="round"/>
  <path d="M 210 166 Q 213 164 216 166" fill="none" stroke="#8B6F47" stroke-width="2" stroke-linecap="round"/>
  
  <!-- Soft smiles -->
  <path d="M 182 174 Q 185 176 188 174" fill="none" stroke="#8B6F47" stroke-width="2" stroke-linecap="round"/>
  <path d="M 212 174 Q 215 176 218 174" fill="none" stroke="#8B6F47" stroke-width="2" stroke-linecap="round"/>
  
  <!-- Hearts -->
  <path d="M 195 138 C 195 136 196 135 197 135 C 198 135 198 136 198 136 C 198 136 199 135 199 135 C 200 135 201 136 201 138 C 201 140 198 142 198 142 C 198 142 195 140 195 138 Z" fill="#FFB6C1" opacity="0.7"/>
  
  <path d="M 205 133 C 205 131 206 130 207 130 C 208 130 208 131 208 131 C 208 131 209 130 209 130 C 210 130 211 131 211 133 C 211 135 208 137 208 137 C 208 137 205 135 205 133 Z" fill="#FFB6C1" opacity="0.7"/>
  
  <!-- Sparkles -->
  <circle cx="250" cy="185" r="3" fill="#FFFFFF" opacity="0.8"/>
  <circle cx="150" cy="185" r="3" fill="#FFFFFF" opacity="0.8"/>
</svg>