<?xml version="1.0" encoding="UTF-8" standalone="no"?>
<svg
   width="184"
   height="187"
   viewBox="0 0 184 187"
   version="1.1"
   id="svg44"
   xmlns="http://www.w3.org/2000/svg"
   xmlns:svg="http://www.w3.org/2000/svg">
  <defs
     id="defs48" />
  <!-- Shadow -->
  <ellipse
     cx="92"
     cy="172"
     rx="75"
     ry="15"
     fill="#000000"
     opacity="0.08"
     id="ellipse2" />
  <!-- White sticker border -->
  <circle
     cx="92"
     cy="92"
     r="92"
     fill="#ffffff"
     id="circle4" />
  <!-- Figure 1 (left - soft blue) -->
  <!-- Head -->
  <circle
     cx="72"
     cy="62"
     r="26"
     fill="none"
     stroke="#8b6f47"
     stroke-width="6"
     id="circle6" />
  <circle
     cx="72"
     cy="62"
     r="22"
     fill="#d4e5ff"
     id="circle8" />
  <!-- Body -->
  <ellipse
     cx="72"
     cy="117"
     rx="28"
     ry="40"
     fill="none"
     stroke="#8b6f47"
     stroke-width="6"
     id="ellipse10" />
  <ellipse
     cx="72"
     cy="117"
     rx="24"
     ry="36"
     fill="#d4e5ff"
     id="ellipse12" />
  <!-- Gentle arm -->
  <path
     d="m 57,97 q 35,5 50,20"
     fill="none"
     stroke="#8b6f47"
     stroke-width="5"
     stroke-linecap="round"
     id="path14" />
  <path
     d="m 59,99 q 33,5 46,18"
     fill="none"
     stroke="#d4e5ff"
     stroke-width="3"
     id="path16" />
  <!-- Figure 2 (right - cream) -->
  <!-- Head leaning slightly -->
  <circle
     cx="112"
     cy="67"
     r="26"
     fill="none"
     stroke="#8b6f47"
     stroke-width="6"
     id="circle18" />
  <circle
     cx="112"
     cy="67"
     r="22"
     fill="#f5e6d3"
     id="circle20" />
  <!-- Body -->
  <ellipse
     cx="112"
     cy="120"
     rx="28"
     ry="38"
     fill="none"
     stroke="#8b6f47"
     stroke-width="6"
     id="ellipse22" />
  <ellipse
     cx="112"
     cy="120"
     rx="24"
     ry="34"
     fill="#f5e6d3"
     id="ellipse24" />
  <!-- Gentle arm -->
  <path
     d="m 127,100 q -35,2 -50,17"
     fill="none"
     stroke="#8b6f47"
     stroke-width="5"
     stroke-linecap="round"
     id="path26" />
  <path
     d="m 125,102 q -33,2 -46,15"
     fill="none"
     stroke="#f5e6d3"
     stroke-width="3"
     id="path28" />
  <!-- Soft closed eyes -->
  <path
     d="m 67,60 q 3,-2 6,0"
     fill="none"
     stroke="#8b6f47"
     stroke-width="2"
     stroke-linecap="round"
     id="path30" />
  <path
     d="m 107,65 q 3,-2 6,0"
     fill="none"
     stroke="#8b6f47"
     stroke-width="2"
     stroke-linecap="round"
     id="path32" />
  <!-- Gentle smiles -->
  <path
     d="m 69,69 q 3,2 6,0"
     fill="none"
     stroke="#8b6f47"
     stroke-width="2"
     stroke-linecap="round"
     id="path34" />
  <path
     d="m 109,74 q 3,2 6,0"
     fill="none"
     stroke="#8b6f47"
     stroke-width="2"
     stroke-linecap="round"
     id="path36" />
  <!-- Hearts -->
  <path
     d="m 89,37 c 0,-2 1,-3 2,-3 1,0 1,1 1,1 0,0 1,-1 1,-1 1,0 2,1 2,3 0,2 -3,4 -3,4 0,0 -3,-2 -3,-4 z"
     fill="#ffb6c1"
     opacity="0.6"
     id="path38" />
  <!-- Sparkles -->
  <circle
     cx="147"
     cy="82"
     r="3"
     fill="#ffffff"
     opacity="0.8"
     id="circle40" />
  <circle
     cx="37"
     cy="82"
     r="3"
     fill="#ffffff"
     opacity="0.8"
     id="circle42" />
</svg>
