<?xml version="1.0" encoding="UTF-8" standalone="no"?>
<svg
   width="184"
   height="187"
   viewBox="0 0 184 187"
   version="1.1"
   id="svg50"
   xmlns="http://www.w3.org/2000/svg"
   xmlns:svg="http://www.w3.org/2000/svg">
  <defs
     id="defs54" />
  <!-- Shadow -->
  <ellipse
     cx="92"
     cy="172"
     rx="70"
     ry="15"
     fill="#000000"
     opacity="0.08"
     id="ellipse2" />
  <!-- White sticker border -->
  <circle
     cx="92"
     cy="92"
     r="92"
     fill="#ffffff"
     id="circle4" />
  <!-- Figure 1 (left - soft pink) -->
  <!-- Head tilted close -->
  <circle
     cx="77"
     cy="60"
     r="25"
     fill="none"
     stroke="#8b6f47"
     stroke-width="6"
     id="circle6" />
  <circle
     cx="77"
     cy="60"
     r="21"
     fill="#ffd4e5"
     id="circle8" />
  <!-- Body -->
  <ellipse
     cx="77"
     cy="117"
     rx="27"
     ry="42"
     fill="none"
     stroke="#8b6f47"
     stroke-width="6"
     id="ellipse10" />
  <ellipse
     cx="77"
     cy="117"
     rx="23"
     ry="38"
     fill="#ffd4e5"
     id="ellipse12" />
  <!-- Arms wrapped close -->
  <path
     d="m 62,97 q 30,3 48,17"
     fill="none"
     stroke="#8b6f47"
     stroke-width="5"
     stroke-linecap="round"
     id="path14" />
  <path
     d="m 64,99 q 28,3 44,15"
     fill="none"
     stroke="#ffd4e5"
     stroke-width="3"
     id="path16" />
  <path
     d="m 62,127 q 30,3 48,0"
     fill="none"
     stroke="#8b6f47"
     stroke-width="5"
     stroke-linecap="round"
     id="path18" />
  <path
     d="m 64,129 q 28,3 44,0"
     fill="none"
     stroke="#ffd4e5"
     stroke-width="3"
     id="path20" />
  <!-- Figure 2 (right - lavender) -->
  <!-- Head tilted close -->
  <circle
     cx="107"
     cy="60"
     r="25"
     fill="none"
     stroke="#8b6f47"
     stroke-width="6"
     id="circle22" />
  <circle
     cx="107"
     cy="60"
     r="21"
     fill="#e6d4ff"
     id="circle24" />
  <!-- Body -->
  <ellipse
     cx="107"
     cy="117"
     rx="27"
     ry="42"
     fill="none"
     stroke="#8b6f47"
     stroke-width="6"
     id="ellipse26" />
  <ellipse
     cx="107"
     cy="117"
     rx="23"
     ry="38"
     fill="#e6d4ff"
     id="ellipse28" />
  <!-- Arms wrapped close -->
  <path
     d="m 122,97 q -30,3 -48,17"
     fill="none"
     stroke="#8b6f47"
     stroke-width="5"
     stroke-linecap="round"
     id="path30" />
  <path
     d="m 120,99 q -28,3 -44,15"
     fill="none"
     stroke="#e6d4ff"
     stroke-width="3"
     id="path32" />
  <!-- Eyes closed, content -->
  <path
     d="m 72,58 q 3,-2 6,0"
     fill="none"
     stroke="#8b6f47"
     stroke-width="2"
     stroke-linecap="round"
     id="path34" />
  <path
     d="m 102,58 q 3,-2 6,0"
     fill="none"
     stroke="#8b6f47"
     stroke-width="2"
     stroke-linecap="round"
     id="path36" />
  <!-- Soft smiles -->
  <path
     d="m 74,66 q 3,2 6,0"
     fill="none"
     stroke="#8b6f47"
     stroke-width="2"
     stroke-linecap="round"
     id="path38" />
  <path
     d="m 104,66 q 3,2 6,0"
     fill="none"
     stroke="#8b6f47"
     stroke-width="2"
     stroke-linecap="round"
     id="path40" />
  <!-- Hearts -->
  <path
     d="m 87,30 c 0,-2 1,-3 2,-3 1,0 1,1 1,1 0,0 1,-1 1,-1 1,0 2,1 2,3 0,2 -3,4 -3,4 0,0 -3,-2 -3,-4 z"
     fill="#ffb6c1"
     opacity="0.7"
     id="path42" />
  <path
     d="m 97,25 c 0,-2 1,-3 2,-3 1,0 1,1 1,1 0,0 1,-1 1,-1 1,0 2,1 2,3 0,2 -3,4 -3,4 0,0 -3,-2 -3,-4 z"
     fill="#ffb6c1"
     opacity="0.7"
     id="path44" />
  <!-- Sparkles -->
  <circle
     cx="142"
     cy="77"
     r="3"
     fill="#ffffff"
     opacity="0.8"
     id="circle46" />
  <circle
     cx="42"
     cy="77"
     r="3"
     fill="#ffffff"
     opacity="0.8"
     id="circle48" />
</svg>
