<?xml version="1.0" encoding="UTF-8" standalone="no"?>
<svg
   width="184"
   height="187"
   viewBox="0 0 184 187"
   version="1.1"
   id="svg50"
   xmlns="http://www.w3.org/2000/svg"
   xmlns:svg="http://www.w3.org/2000/svg">
  <defs
     id="defs54" />
  <!-- Shadow -->
  <ellipse
     cx="92"
     cy="172"
     rx="75"
     ry="15"
     fill="#000000"
     opacity="0.08"
     id="ellipse2" />
  <!-- White sticker border -->
  <circle
     cx="92"
     cy="92"
     r="92"
     fill="#ffffff"
     id="circle4" />
  <!-- Figure 1 (left - baby pink, facing right) -->
  <!-- Head -->
  <circle
     cx="67"
     cy="57"
     r="28"
     fill="none"
     stroke="#8b6f47"
     stroke-width="6"
     id="circle6" />
  <circle
     cx="67"
     cy="57"
     r="24"
     fill="#ffd4e5"
     id="circle8" />
  <!-- Body -->
  <ellipse
     cx="67"
     cy="117"
     rx="30"
     ry="45"
     fill="none"
     stroke="#8b6f47"
     stroke-width="6"
     id="ellipse10" />
  <ellipse
     cx="67"
     cy="117"
     rx="26"
     ry="41"
     fill="#ffd4e5"
     id="ellipse12" />
  <!-- Arms wrapping tight -->
  <path
     d="m 52,92 q 40,0 60,20"
     fill="none"
     stroke="#8b6f47"
     stroke-width="6"
     stroke-linecap="round"
     id="path14" />
  <path
     d="m 54,94 q 38,0 56,18"
     fill="none"
     stroke="#ffd4e5"
     stroke-width="4"
     id="path16" />
  <path
     d="m 52,132 q 40,5 60,0"
     fill="none"
     stroke="#8b6f47"
     stroke-width="6"
     stroke-linecap="round"
     id="path18" />
  <path
     d="m 54,134 q 38,5 56,0"
     fill="none"
     stroke="#ffdab9"
     stroke-width="4"
     id="path20" />
  <!-- Figure 2 (right - soft peach, facing left) -->
  <!-- Head -->
  <circle
     cx="117"
     cy="57"
     r="28"
     fill="none"
     stroke="#8b6f47"
     stroke-width="6"
     id="circle22" />
  <circle
     cx="117"
     cy="57"
     r="24"
     fill="#ffdab9"
     id="circle24" />
  <!-- Body -->
  <ellipse
     cx="117"
     cy="117"
     rx="30"
     ry="45"
     fill="none"
     stroke="#8b6f47"
     stroke-width="6"
     id="ellipse26" />
  <ellipse
     cx="117"
     cy="117"
     rx="26"
     ry="41"
     fill="#ffdab9"
     id="ellipse28" />
  <!-- Arms wrapping tight -->
  <path
     d="M 132,92 Q 92,92 72,112"
     fill="none"
     stroke="#8b6f47"
     stroke-width="6"
     stroke-linecap="round"
     id="path30" />
  <path
     d="M 130,94 Q 92,94 74,112"
     fill="none"
     stroke="#ffdab9"
     stroke-width="4"
     id="path32" />
  <!-- Closed happy eyes -->
  <path
     d="m 62,55 q 3,-3 6,0"
     fill="none"
     stroke="#8b6f47"
     stroke-width="2"
     stroke-linecap="round"
     id="path34" />
  <path
     d="m 112,55 q 3,-3 6,0"
     fill="none"
     stroke="#8b6f47"
     stroke-width="2"
     stroke-linecap="round"
     id="path36" />
  <!-- Big smiles -->
  <path
     d="m 62,64 q 5,4 10,0"
     fill="none"
     stroke="#8b6f47"
     stroke-width="2"
     stroke-linecap="round"
     id="path38" />
  <path
     d="m 112,64 q 5,4 10,0"
     fill="none"
     stroke="#8b6f47"
     stroke-width="2"
     stroke-linecap="round"
     id="path40" />
  <!-- Hearts above -->
  <path
     d="m 87,22 c 0,-2 1,-3 2,-3 1,0 1,1 1,1 0,0 1,-1 1,-1 1,0 2,1 2,3 0,2 -3,4 -3,4 0,0 -3,-2 -3,-4 z"
     fill="#ffb6c1"
     opacity="0.7"
     id="path42" />
  <path
     d="m 97,17 c 0,-2 1,-3 2,-3 1,0 1,1 1,1 0,0 1,-1 1,-1 1,0 2,1 2,3 0,2 -3,4 -3,4 0,0 -3,-2 -3,-4 z"
     fill="#ffb6c1"
     opacity="0.7"
     id="path44" />
  <!-- Sparkles -->
  <circle
     cx="152"
     cy="77"
     r="3"
     fill="#ffffff"
     opacity="0.8"
     id="circle46" />
  <circle
     cx="32"
     cy="77"
     r="3"
     fill="#ffffff"
     opacity="0.8"
     id="circle48" />
</svg>
