<svg width="400" height="400" viewBox="0 0 400 400" xmlns="http://www.w3.org/2000/svg">
  <!-- Shadow -->
  <ellipse cx="200" cy="280" rx="80" ry="15" fill="#000000" opacity="0.08"/>
  
  <!-- White sticker border -->
  <circle cx="200" cy="200" r="92" fill="#FFFFFF"/>
  
  <!-- Figure 1 (left - baby pink) -->
  <!-- Head -->
  <circle cx="170" cy="170" r="30" fill="none" stroke="#8B6F47" stroke-width="6"/>
  <circle cx="170" cy="170" r="26" fill="#FFD4E5"/>
  
  <!-- Body -->
  <ellipse cx="170" cy="230" rx="32" ry="42" fill="none" stroke="#8B6F47" stroke-width="6"/>
  <ellipse cx="170" cy="230" rx="28" ry="38" fill="#FFD4E5"/>
  
  <!-- Arm reaching around -->
  <path d="M 155 210 Q 200 215 220 235" fill="none" stroke="#8B6F47" stroke-width="6" stroke-linecap="round"/>
  <path d="M 157 212 Q 200 217 218 235" fill="none" stroke="#FFD4E5" stroke-width="4"/>
  
  <!-- Figure 2 (right - soft peach) -->
  <!-- Head -->
  <circle cx="230" cy="170" r="30" fill="none" stroke="#8B6F47" stroke-width="6"/>
  <circle cx="230" cy="170" r="26" fill="#FFDAB9"/>
  
  <!-- Body -->
  <ellipse cx="230" cy="230" rx="32" ry="42" fill="none" stroke="#8B6F47" stroke-width="6"/>
  <ellipse cx="230" cy="230" rx="28" ry="38" fill="#FFDAB9"/>
  
  <!-- Arm reaching around -->
  <path d="M 245 210 Q 200 215 180 235" fill="none" stroke="#8B6F47" stroke-width="6" stroke-linecap="round"/>
  <path d="M 243 212 Q 200 217 182 235" fill="none" stroke="#FFDAB9" stroke-width="4"/>
  
  <!-- Happy faces -->
  <circle cx="165" cy="168" r="2" fill="#8B6F47"/>
  <circle cx="175" cy="168" r="2" fill="#8B6F47"/>
  <path d="M 167 175 Q 170 177 173 175" fill="none" stroke="#8B6F47" stroke-width="2" stroke-linecap="round"/>
  
  <circle cx="225" cy="168" r="2" fill="#8B6F47"/>
  <circle cx="235" cy="168" r="2" fill="#8B6F47"/>
  <path d="M 227 175 Q 230 177 233 175" fill="none" stroke="#8B6F47" stroke-width="2" stroke-linecap="round"/>
  
  <!-- Hearts above -->
  <path d="M 195 135 C 195 133 196 132 197 132 C 198 132 198 133 198 133 C 198 133 199 132 199 132 C 200 132 201 133 201 135 C 201 137 198 139 198 139 C 198 139 195 137 195 135 Z" fill="#FFB6C1" opacity="0.6"/>
  
  <path d="M 205 130 C 205 128.5 205.5 128 206 128 C 206.5 128 207 128.5 207 129 C 207 128.5 207.5 128 208 128 C 208.5 128 209 128.5 209 130 C 209 131.5 207 133 207 133 C 207 133 205 131.5 205 130 Z" fill="#FFB6C1" opacity="0.6"/>
  
  <!-- Sparkles -->
  <circle cx="260" cy="190" r="3" fill="#FFFFFF" opacity="0.8"/>
  <circle cx="140" cy="190" r="3" fill="#FFFFFF" opacity="0.8"/>
</svg>