<?xml version="1.0" encoding="UTF-8" standalone="no"?>
<svg
   width="184"
   height="187"
   viewBox="0 0 184 187"
   version="1.1"
   id="svg50"
   xmlns="http://www.w3.org/2000/svg"
   xmlns:svg="http://www.w3.org/2000/svg">
  <defs
     id="defs54" />
  <!-- Shadow -->
  <ellipse
     cx="92"
     cy="172"
     rx="75"
     ry="15"
     fill="#000000"
     opacity="0.08"
     id="ellipse2" />
  <!-- White sticker border -->
  <circle
     cx="92"
     cy="92"
     r="92"
     fill="#ffffff"
     id="circle4" />
  <!-- Figure 1 (left - peach) -->
  <!-- Head -->
  <circle
     cx="70"
     cy="64"
     r="27"
     fill="none"
     stroke="#8b6f47"
     stroke-width="6"
     id="circle6" />
  <circle
     cx="70"
     cy="64"
     r="23"
     fill="#ffdab9"
     id="circle8" />
  <!-- Body -->
  <ellipse
     cx="70"
     cy="120"
     rx="29"
     ry="42"
     fill="none"
     stroke="#8b6f47"
     stroke-width="6"
     id="ellipse10" />
  <ellipse
     cx="70"
     cy="120"
     rx="25"
     ry="38"
     fill="#ffdab9"
     id="ellipse12" />
  <!-- Snug arm -->
  <path
     d="m 55,100 q 37,4 54,20"
     fill="none"
     stroke="#8b6f47"
     stroke-width="5"
     stroke-linecap="round"
     id="path14" />
  <path
     d="m 57,102 q 35,4 50,18"
     fill="none"
     stroke="#ffdab9"
     stroke-width="3"
     id="path16" />
  <!-- Figure 2 (right - pink) -->
  <!-- Head nestled -->
  <circle
     cx="114"
     cy="64"
     r="27"
     fill="none"
     stroke="#8b6f47"
     stroke-width="6"
     id="circle18" />
  <circle
     cx="114"
     cy="64"
     r="23"
     fill="#ffd4e5"
     id="circle20" />
  <!-- Body -->
  <ellipse
     cx="114"
     cy="120"
     rx="29"
     ry="42"
     fill="none"
     stroke="#8b6f47"
     stroke-width="6"
     id="ellipse22" />
  <ellipse
     cx="114"
     cy="120"
     rx="25"
     ry="38"
     fill="#ffd4e5"
     id="ellipse24" />
  <!-- Snug arm -->
  <path
     d="m 129,100 q -37,4 -54,20"
     fill="none"
     stroke="#8b6f47"
     stroke-width="5"
     stroke-linecap="round"
     id="path26" />
  <path
     d="m 127,102 q -35,4 -50,18"
     fill="none"
     stroke="#ffd4e5"
     stroke-width="3"
     id="path28" />
  <!-- Happy closed eyes -->
  <path
     d="m 65,62 q 3,-2 6,0"
     fill="none"
     stroke="#8b6f47"
     stroke-width="2"
     stroke-linecap="round"
     id="path30" />
  <path
     d="m 109,62 q 3,-2 6,0"
     fill="none"
     stroke="#8b6f47"
     stroke-width="2"
     stroke-linecap="round"
     id="path32" />
  <!-- Cozy smiles -->
  <path
     d="m 67,70 q 3,2 6,0"
     fill="none"
     stroke="#8b6f47"
     stroke-width="2"
     stroke-linecap="round"
     id="path34" />
  <path
     d="m 111,70 q 3,2 6,0"
     fill="none"
     stroke="#8b6f47"
     stroke-width="2"
     stroke-linecap="round"
     id="path36" />
  <!-- Blush cheeks -->
  <ellipse
     cx="62"
     cy="70"
     rx="8"
     ry="5"
     fill="#ffb6c1"
     opacity="0.4"
     id="ellipse38" />
  <ellipse
     cx="122"
     cy="70"
     rx="8"
     ry="5"
     fill="#ffb6c1"
     opacity="0.4"
     id="ellipse40" />
  <!-- Hearts -->
  <path
     d="m 87,32 c 0,-2 1,-3 2,-3 1,0 1,1 1,1 0,0 1,-1 1,-1 1,0 2,1 2,3 0,2 -3,4 -3,4 0,0 -3,-2 -3,-4 z"
     fill="#ffb6c1"
     opacity="0.6"
     id="path42" />
  <path
     d="m 97,37 c 0,-1.5 0.5,-2 1,-2 0.5,0 1,0.5 1,1 0,-0.5 0.5,-1 1,-1 0.5,0 1,0.5 1,2 0,1.5 -2,3 -2,3 0,0 -2,-1.5 -2,-3 z"
     fill="#ffb6c1"
     opacity="0.6"
     id="path44" />
  <!-- Sparkles -->
  <circle
     cx="147"
     cy="82"
     r="3"
     fill="#ffffff"
     opacity="0.8"
     id="circle46" />
  <circle
     cx="37"
     cy="82"
     r="3"
     fill="#ffffff"
     opacity="0.8"
     id="circle48" />
</svg>
