<svg width="400" height="400" viewBox="0 0 400 400" xmlns="http://www.w3.org/2000/svg">
  <!-- Shadow -->
  <ellipse cx="200" cy="280" rx="75" ry="15" fill="#000000" opacity="0.08"/>
  
  <!-- White sticker border -->
  <circle cx="200" cy="200" r="92" fill="#FFFFFF"/>
  
  <!-- Figure 1 (left - soft blue) -->
  <!-- Head -->
  <circle cx="180" cy="170" r="26" fill="none" stroke="#8B6F47" stroke-width="6"/>
  <circle cx="180" cy="170" r="22" fill="#D4E5FF"/>
  
  <!-- Body -->
  <ellipse cx="180" cy="225" rx="28" ry="40" fill="none" stroke="#8B6F47" stroke-width="6"/>
  <ellipse cx="180" cy="225" rx="24" ry="36" fill="#D4E5FF"/>
  
  <!-- Gentle arm -->
  <path d="M 165 205 Q 200 210 215 225" fill="none" stroke="#8B6F47" stroke-width="5" stroke-linecap="round"/>
  <path d="M 167 207 Q 200 212 213 225" fill="none" stroke="#D4E5FF" stroke-width="3"/>
  
  <!-- Figure 2 (right - cream) -->
  <!-- Head leaning slightly -->
  <circle cx="220" cy="175" r="26" fill="none" stroke="#8B6F47" stroke-width="6"/>
  <circle cx="220" cy="175" r="22" fill="#F5E6D3"/>
  
  <!-- Body -->
  <ellipse cx="220" cy="228" rx="28" ry="38" fill="none" stroke="#8B6F47" stroke-width="6"/>
  <ellipse cx="220" cy="228" rx="24" ry="34" fill="#F5E6D3"/>
  
  <!-- Gentle arm -->
  <path d="M 235 208 Q 200 210 185 225" fill="none" stroke="#8B6F47" stroke-width="5" stroke-linecap="round"/>
  <path d="M 233 210 Q 200 212 187 225" fill="none" stroke="#F5E6D3" stroke-width="3"/>
  
  <!-- Soft closed eyes -->
  <path d="M 175 168 Q 178 166 181 168" fill="none" stroke="#8B6F47" stroke-width="2" stroke-linecap="round"/>
  <path d="M 215 173 Q 218 171 221 173" fill="none" stroke="#8B6F47" stroke-width="2" stroke-linecap="round"/>
  
  <!-- Gentle smiles -->
  <path d="M 177 177 Q 180 179 183 177" fill="none" stroke="#8B6F47" stroke-width="2" stroke-linecap="round"/>
  <path d="M 217 182 Q 220 184 223 182" fill="none" stroke="#8B6F47" stroke-width="2" stroke-linecap="round"/>
  
  <!-- Hearts -->
  <path d="M 197 145 C 197 143 198 142 199 142 C 200 142 200 143 200 143 C 200 143 201 142 201 142 C 202 142 203 143 203 145 C 203 147 200 149 200 149 C 200 149 197 147 197 145 Z" fill="#FFB6C1" opacity="0.6"/>
  
  <!-- Sparkles -->
  <circle cx="255" cy="190" r="3" fill="#FFFFFF" opacity="0.8"/>
  <circle cx="145" cy="190" r="3" fill="#FFFFFF" opacity="0.8"/>
</svg>