<?xml version="1.0" encoding="UTF-8" standalone="no"?>
<svg
   width="2400"
   height="1800"
   viewBox="0 0 2400 1800"
   version="1.1"
   id="svg180"
   xmlns="http://www.w3.org/2000/svg"
   xmlns:svg="http://www.w3.org/2000/svg">
  <defs
     id="defs24">
    <!-- Sky gradient -->
    <linearGradient
       id="skyGradient"
       x1="0"
       y1="0"
       x2="0"
       y2="1440"
       gradientTransform="matrix(1.3333333,0,0,0.75,240,200)"
       gradientUnits="userSpaceOnUse">
      <stop
         offset="0%"
         style="stop-color:#FFE8F0;stop-opacity:1"
         id="stop2" />
      <stop
         offset="50%"
         style="stop-color:#FFD4E5;stop-opacity:1"
         id="stop4" />
      <stop
         offset="100%"
         style="stop-color:#FFDAB9;stop-opacity:1"
         id="stop6" />
    </linearGradient>
    <!-- Sunlight glow -->
    <radialGradient
       id="sunGlow"
       gradientTransform="matrix(1.2247449,0,0,0.81649658,240,200)"
       cx="783.83672"
       cy="244.94897"
       fx="783.83672"
       fy="244.94897"
       r="489.89795"
       gradientUnits="userSpaceOnUse">
      <stop
         offset="0%"
         style="stop-color:#FFF4D4;stop-opacity:0.8"
         id="stop9" />
      <stop
         offset="50%"
         style="stop-color:#FFD4A3;stop-opacity:0.3"
         id="stop11" />
      <stop
         offset="100%"
         style="stop-color:#FFD4A3;stop-opacity:0"
         id="stop13" />
    </radialGradient>
    <!-- Ground gradient -->
    <linearGradient
       id="groundGradient"
       x1="-138.56406"
       y1="1385.6406"
       x2="-138.56406"
       y2="2771.2813"
       gradientTransform="matrix(1.7320508,0,0,0.57735027,240,200)"
       gradientUnits="userSpaceOnUse">
      <stop
         offset="0%"
         style="stop-color:#D4E5D3;stop-opacity:0.6"
         id="stop16" />
      <stop
         offset="100%"
         style="stop-color:#C8DCC8;stop-opacity:0.8"
         id="stop18" />
    </linearGradient>
    <!-- Blur for depth -->
    <filter
       id="softBlur"
       x="-0.0045627376"
       y="-0.04556962"
       width="1.0091255"
       height="1.0911392">
      <feGaussianBlur
         in="SourceGraphic"
         stdDeviation="3"
         id="feGaussianBlur21" />
    </filter>
  </defs>
  <!-- Sky background -->
  <rect
     width="1920"
     height="1080"
     fill="url(#skyGradient)"
     id="rect26"
     x="240"
     y="200"
     style="fill:url(#skyGradient)" />
  <!-- Soft sunlight glow (top center) -->
  <ellipse
     cx="1200"
     cy="400"
     rx="600"
     ry="400"
     fill="url(#sunGlow)"
     id="ellipse28"
     style="fill:url(#sunGlow)" />
  <!-- Ground/meadow -->
  <ellipse
     cx="1200"
     cy="1400"
     rx="1200"
     ry="400"
     fill="url(#groundGradient)"
     id="ellipse30"
     style="fill:url(#groundGradient)" />
  <!-- Subtle sparkles in sky -->
  <g
     opacity="0.4"
     id="g44"
     transform="translate(240,200)">
    <circle
       cx="300"
       cy="200"
       r="3"
       fill="#ffffff"
       id="circle32" />
    <circle
       cx="800"
       cy="150"
       r="2"
       fill="#fff4d4"
       id="circle34" />
    <circle
       cx="1200"
       cy="250"
       r="2.5"
       fill="#ffffff"
       id="circle36" />
    <circle
       cx="1600"
       cy="180"
       r="2"
       fill="#fff4d4"
       id="circle38" />
    <circle
       cx="500"
       cy="300"
       r="2"
       fill="#ffffff"
       id="circle40" />
    <circle
       cx="1400"
       cy="220"
       r="3"
       fill="#fff4d4"
       id="circle42" />
  </g>
  <!-- Background roses (very blurred, distant) -->
  <g
     opacity="0.2"
     filter="url(#softBlur)"
     id="g54"
     transform="translate(240,200)">
    <circle
       cx="200"
       cy="700"
       r="40"
       fill="#ffb6c1"
       id="circle46" />
    <circle
       cx="400"
       cy="750"
       r="35"
       fill="#ffd4e5"
       id="circle48" />
    <circle
       cx="1500"
       cy="720"
       r="45"
       fill="#ffdab9"
       id="circle50" />
    <circle
       cx="1700"
       cy="780"
       r="38"
       fill="#ffb6c1"
       id="circle52" />
  </g>
  <!-- BOTTOM LEFT CORNER - Foreground roses (sticker style) -->
  <g
     id="g82"
     transform="translate(240,200)">
    <!-- Rose 1 - bottom left -->
    <!-- White sticker border -->
    <circle
       cx="180"
       cy="950"
       r="48"
       fill="#ffffff"
       id="circle56" />
    <!-- Outer petals -->
    <ellipse
       cx="180"
       cy="930"
       rx="20"
       ry="26"
       fill="#8b6f47"
       id="ellipse58" />
    <ellipse
       cx="180"
       cy="930"
       rx="17"
       ry="23"
       fill="#ffd4e5"
       id="ellipse60" />
    <ellipse
       cx="160"
       cy="945"
       rx="20"
       ry="26"
       fill="#8b6f47"
       transform="rotate(-70,160,945)"
       id="ellipse62" />
    <ellipse
       cx="160"
       cy="945"
       rx="17"
       ry="23"
       fill="#ffd4e5"
       transform="rotate(-70,160,945)"
       id="ellipse64" />
    <ellipse
       cx="200"
       cy="945"
       rx="20"
       ry="26"
       fill="#8b6f47"
       transform="rotate(70,200,945)"
       id="ellipse66" />
    <ellipse
       cx="200"
       cy="945"
       rx="17"
       ry="23"
       fill="#ffd4e5"
       transform="rotate(70,200,945)"
       id="ellipse68" />
    <!-- Center -->
    <circle
       cx="180"
       cy="950"
       r="12"
       fill="#8b6f47"
       id="circle70" />
    <circle
       cx="180"
       cy="950"
       r="9"
       fill="#ffdab9"
       id="circle72" />
    <!-- Stem -->
    <rect
       x="177"
       y="950"
       width="6"
       height="40"
       rx="3"
       fill="#8b6f47"
       id="rect74" />
    <rect
       x="178.5"
       y="952"
       width="3"
       height="36"
       rx="1.5"
       fill="#d4e5d3"
       id="rect76" />
    <!-- Leaf -->
    <ellipse
       cx="165"
       cy="970"
       rx="12"
       ry="8"
       fill="#8b6f47"
       transform="rotate(-30,165,970)"
       id="ellipse78" />
    <ellipse
       cx="165"
       cy="970"
       rx="9"
       ry="6"
       fill="#d4e5d3"
       transform="rotate(-30,165,970)"
       id="ellipse80" />
  </g>
  <g
     id="g110"
     transform="translate(240,200)">
    <!-- Rose 2 - left side -->
    <circle
       cx="120"
       cy="850"
       r="42"
       fill="#ffffff"
       id="circle84" />
    <ellipse
       cx="120"
       cy="835"
       rx="18"
       ry="24"
       fill="#8b6f47"
       id="ellipse86" />
    <ellipse
       cx="120"
       cy="835"
       rx="15"
       ry="21"
       fill="#ffb6c1"
       id="ellipse88" />
    <ellipse
       cx="105"
       cy="848"
       rx="18"
       ry="24"
       fill="#8b6f47"
       transform="rotate(-65,105,848)"
       id="ellipse90" />
    <ellipse
       cx="105"
       cy="848"
       rx="15"
       ry="21"
       fill="#ffb6c1"
       transform="rotate(-65,105,848)"
       id="ellipse92" />
    <ellipse
       cx="135"
       cy="848"
       rx="18"
       ry="24"
       fill="#8b6f47"
       transform="rotate(65,135,848)"
       id="ellipse94" />
    <ellipse
       cx="135"
       cy="848"
       rx="15"
       ry="21"
       fill="#ffb6c1"
       transform="rotate(65,135,848)"
       id="ellipse96" />
    <circle
       cx="120"
       cy="850"
       r="10"
       fill="#8b6f47"
       id="circle98" />
    <circle
       cx="120"
       cy="850"
       r="7"
       fill="#ffdab9"
       id="circle100" />
    <rect
       x="117.5"
       y="850"
       width="5"
       height="35"
       rx="2.5"
       fill="#8b6f47"
       id="rect102" />
    <rect
       x="119"
       y="852"
       width="2"
       height="31"
       rx="1"
       fill="#d4e5d3"
       id="rect104" />
    <ellipse
       cx="130"
       cy="868"
       rx="10"
       ry="7"
       fill="#8b6f47"
       transform="rotate(30,130,868)"
       id="ellipse106" />
    <ellipse
       cx="130"
       cy="868"
       rx="7"
       ry="5"
       fill="#d4e5d3"
       transform="rotate(30,130,868)"
       id="ellipse108" />
  </g>
  <!-- BOTTOM RIGHT CORNER - Foreground roses -->
  <g
     id="g138"
     transform="translate(240,200)">
    <!-- Rose 3 - bottom right -->
    <circle
       cx="1740"
       cy="950"
       r="48"
       fill="#ffffff"
       id="circle112" />
    <ellipse
       cx="1740"
       cy="930"
       rx="20"
       ry="26"
       fill="#8b6f47"
       id="ellipse114" />
    <ellipse
       cx="1740"
       cy="930"
       rx="17"
       ry="23"
       fill="#ffdab9"
       id="ellipse116" />
    <ellipse
       cx="1720"
       cy="945"
       rx="20"
       ry="26"
       fill="#8b6f47"
       transform="rotate(-70,1720,945)"
       id="ellipse118" />
    <ellipse
       cx="1720"
       cy="945"
       rx="17"
       ry="23"
       fill="#ffdab9"
       transform="rotate(-70,1720,945)"
       id="ellipse120" />
    <ellipse
       cx="1760"
       cy="945"
       rx="20"
       ry="26"
       fill="#8b6f47"
       transform="rotate(70,1760,945)"
       id="ellipse122" />
    <ellipse
       cx="1760"
       cy="945"
       rx="17"
       ry="23"
       fill="#ffdab9"
       transform="rotate(70,1760,945)"
       id="ellipse124" />
    <circle
       cx="1740"
       cy="950"
       r="12"
       fill="#8b6f47"
       id="circle126" />
    <circle
       cx="1740"
       cy="950"
       r="9"
       fill="#ffb6c1"
       id="circle128" />
    <rect
       x="1737"
       y="950"
       width="6"
       height="40"
       rx="3"
       fill="#8b6f47"
       id="rect130" />
    <rect
       x="1738.5"
       y="952"
       width="3"
       height="36"
       rx="1.5"
       fill="#d4e5d3"
       id="rect132" />
    <ellipse
       cx="1755"
       cy="970"
       rx="12"
       ry="8"
       fill="#8b6f47"
       transform="rotate(30,1755,970)"
       id="ellipse134" />
    <ellipse
       cx="1755"
       cy="970"
       rx="9"
       ry="6"
       fill="#d4e5d3"
       transform="rotate(30,1755,970)"
       id="ellipse136" />
  </g>
  <g
     id="g166"
     transform="translate(240,200)">
    <!-- Rose 4 - right side -->
    <circle
       cx="1800"
       cy="850"
       r="42"
       fill="#ffffff"
       id="circle140" />
    <ellipse
       cx="1800"
       cy="835"
       rx="18"
       ry="24"
       fill="#8b6f47"
       id="ellipse142" />
    <ellipse
       cx="1800"
       cy="835"
       rx="15"
       ry="21"
       fill="#ffd4e5"
       id="ellipse144" />
    <ellipse
       cx="1785"
       cy="848"
       rx="18"
       ry="24"
       fill="#8b6f47"
       transform="rotate(-65,1785,848)"
       id="ellipse146" />
    <ellipse
       cx="1785"
       cy="848"
       rx="15"
       ry="21"
       fill="#ffd4e5"
       transform="rotate(-65,1785,848)"
       id="ellipse148" />
    <ellipse
       cx="1815"
       cy="848"
       rx="18"
       ry="24"
       fill="#8b6f47"
       transform="rotate(65,1815,848)"
       id="ellipse150" />
    <ellipse
       cx="1815"
       cy="848"
       rx="15"
       ry="21"
       fill="#ffd4e5"
       transform="rotate(65,1815,848)"
       id="ellipse152" />
    <circle
       cx="1800"
       cy="850"
       r="10"
       fill="#8b6f47"
       id="circle154" />
    <circle
       cx="1800"
       cy="850"
       r="7"
       fill="#ffdab9"
       id="circle156" />
    <rect
       x="1797.5"
       y="850"
       width="5"
       height="35"
       rx="2.5"
       fill="#8b6f47"
       id="rect158" />
    <rect
       x="1799"
       y="852"
       width="2"
       height="31"
       rx="1"
       fill="#d4e5d3"
       id="rect160" />
    <ellipse
       cx="1790"
       cy="868"
       rx="10"
       ry="7"
       fill="#8b6f47"
       transform="rotate(-30,1790,868)"
       id="ellipse162" />
    <ellipse
       cx="1790"
       cy="868"
       rx="7"
       ry="5"
       fill="#d4e5d3"
       transform="rotate(-30,1790,868)"
       id="ellipse164" />
  </g>
  <!-- Foreground sparkles -->
  <g
     opacity="0.6"
     id="g176"
     transform="translate(240,200)">
    <circle
       cx="250"
       cy="920"
       r="4"
       fill="#ffffff"
       id="circle168" />
    <circle
       cx="1670"
       cy="920"
       r="4"
       fill="#ffffff"
       id="circle170" />
    <circle
       cx="180"
       cy="800"
       r="3"
       fill="#fff4d4"
       id="circle172" />
    <circle
       cx="1740"
       cy="800"
       r="3"
       fill="#fff4d4"
       id="circle174" />
  </g>
  <!-- Subtle overlay for depth -->
  <rect
     width="1920"
     height="1080"
     fill="#ffffff"
     opacity="0.02"
     id="rect178"
     x="240"
     y="200" />
</svg>
