<?xml version="1.0" encoding="UTF-8" standalone="no"?>
<svg
   width="124"
   height="182"
   viewBox="0 0 124 182"
   version="1.1"
   id="svg82"
   xmlns="http://www.w3.org/2000/svg"
   xmlns:svg="http://www.w3.org/2000/svg">
  <defs
     id="defs86" />
  <!-- Soft shadow -->
  <ellipse
     cx="62"
     cy="162"
     rx="55"
     ry="12"
     fill="#000000"
     opacity="0.08"
     id="ellipse2" />
  <!-- White sticker border -->
  <g
     id="g12"
     transform="translate(-138,-118)">
    <!-- Main bloom border -->
    <circle
       cx="200"
       cy="180"
       r="62"
       fill="#ffffff"
       id="circle4" />
    <!-- Stem border -->
    <rect
       x="195"
       y="220"
       width="10"
       height="80"
       rx="5"
       fill="#ffffff"
       id="rect6" />
    <!-- Leaf left border -->
    <ellipse
       cx="175"
       cy="250"
       rx="18"
       ry="12"
       fill="#ffffff"
       transform="rotate(-30,175,250)"
       id="ellipse8" />
    <!-- Leaf right border -->
    <ellipse
       cx="225"
       cy="270"
       rx="18"
       ry="12"
       fill="#ffffff"
       transform="rotate(30,225,270)"
       id="ellipse10" />
  </g>
  <!-- ROSE BLOOM - layered petals -->
  <!-- Outer petals layer (5 petals) - pink with cocoa outline -->
  <!-- Top petal -->
  <ellipse
     cx="62"
     cy="32"
     rx="22"
     ry="28"
     fill="#8b6f47"
     id="ellipse14" />
  <ellipse
     cx="62"
     cy="32"
     rx="19"
     ry="25"
     fill="#ffb6d9"
     id="ellipse16" />
  <!-- Top-left petal -->
  <ellipse
     cx="-32.536869"
     cy="48.024494"
     rx="22"
     ry="28"
     fill="#8b6f47"
     transform="rotate(-70)"
     id="ellipse18" />
  <ellipse
     cx="-32.536869"
     cy="48.024494"
     rx="19"
     ry="25"
     fill="#ffb6d9"
     transform="rotate(-70)"
     id="ellipse20" />
  <!-- Top-right petal -->
  <ellipse
     cx="74.947365"
     cy="-68.497391"
     rx="22"
     ry="28"
     fill="#8b6f47"
     transform="rotate(70)"
     id="ellipse22" />
  <ellipse
     cx="74.947365"
     cy="-68.497391"
     rx="19"
     ry="25"
     fill="#ffb6d9"
     transform="rotate(70)"
     id="ellipse24" />
  <!-- Bottom-left petal -->
  <ellipse
     cx="-83.350365"
     cy="-37.104141"
     rx="22"
     ry="28"
     fill="#8b6f47"
     transform="rotate(-140)"
     id="ellipse26" />
  <ellipse
     cx="-83.350365"
     cy="-37.104141"
     rx="19"
     ry="25"
     fill="#ffb6d9"
     transform="rotate(-140)"
     id="ellipse28" />
  <!-- Bottom-right petal -->
  <ellipse
     cx="-11.63915"
     cy="-116.80981"
     rx="22"
     ry="28"
     fill="#8b6f47"
     transform="rotate(140)"
     id="ellipse30" />
  <ellipse
     cx="-11.63915"
     cy="-116.80981"
     rx="19"
     ry="25"
     fill="#ffb6d9"
     transform="rotate(140)"
     id="ellipse32" />
  <!-- Middle petals layer (smaller, tighter) -->
  <ellipse
     cx="62"
     cy="57"
     rx="16"
     ry="20"
     fill="#8b6f47"
     id="ellipse34" />
  <ellipse
     cx="62"
     cy="57"
     rx="13"
     ry="17"
     fill="#ffd4e5"
     id="ellipse36" />
  <ellipse
     cx="-10.606602"
     cy="77.074638"
     rx="14"
     ry="18"
     fill="#8b6f47"
     transform="rotate(-45)"
     id="ellipse38" />
  <ellipse
     cx="-10.606602"
     cy="77.074638"
     rx="11"
     ry="15"
     fill="#ffd4e5"
     transform="rotate(-45)"
     id="ellipse40" />
  <ellipse
     cx="98.287842"
     cy="-10.606602"
     rx="14"
     ry="18"
     fill="#8b6f47"
     transform="rotate(45)"
     id="ellipse42" />
  <ellipse
     cx="98.287842"
     cy="-10.606602"
     rx="11"
     ry="15"
     fill="#ffd4e5"
     transform="rotate(45)"
     id="ellipse44" />
  <!-- Center spiral bud -->
  <ellipse
     cx="62"
     cy="64"
     rx="12"
     ry="14"
     fill="#8b6f47"
     id="ellipse46" />
  <ellipse
     cx="62"
     cy="64"
     rx="9"
     ry="11"
     fill="#ffdab9"
     id="ellipse48" />
  <!-- Tiny center -->
  <circle
     cx="62"
     cy="64"
     r="5"
     fill="#8b6f47"
     id="circle50" />
  <circle
     cx="62"
     cy="64"
     r="3"
     fill="#ffd4a3"
     id="circle52" />
  <!-- Subtle shading at bottom of bloom -->
  <ellipse
     cx="62"
     cy="82"
     rx="35"
     ry="12"
     fill="#000000"
     opacity="0.05"
     id="ellipse54" />
  <!-- Petal depth shading (deeper pink on edges) -->
  <ellipse
     cx="62"
     cy="37"
     rx="16"
     ry="20"
     fill="#ff99c8"
     opacity="0.3"
     id="ellipse56" />
  <ellipse
     cx="-84.145706"
     cy="-24.748737"
     rx="14"
     ry="18"
     fill="#ff99c8"
     opacity="0.3"
     transform="rotate(-135)"
     id="ellipse58" />
  <ellipse
     cx="-3.5355339"
     cy="-112.42998"
     rx="14"
     ry="18"
     fill="#ff99c8"
     opacity="0.3"
     transform="rotate(135)"
     id="ellipse60" />
  <!-- Gentle highlight on top of bloom -->
  <ellipse
     cx="38.063648"
     cy="58.857105"
     rx="15"
     ry="10"
     fill="#ffffff"
     opacity="0.5"
     transform="rotate(-15)"
     id="ellipse62" />
  <!-- STEM -->
  <!-- Stem - cocoa brown outline -->
  <rect
     x="59"
     y="104"
     width="6"
     height="76"
     rx="3"
     fill="none"
     stroke="#8b6f47"
     stroke-width="3"
     id="rect64" />
  <!-- Stem fill - soft green -->
  <rect
     x="60.5"
     y="106"
     width="3"
     height="72"
     rx="1.5"
     fill="#d4e5d3"
     id="rect66" />
  <!-- LEAVES -->
  <!-- Leaf left - cocoa outline -->
  <ellipse
     cx="-33.957062"
     cy="132.81535"
     rx="15"
     ry="10"
     fill="none"
     stroke="#8b6f47"
     stroke-width="3"
     transform="rotate(-30)"
     id="ellipse68" />
  <!-- Leaf left fill - soft green -->
  <ellipse
     cx="-33.957062"
     cy="132.81535"
     rx="12"
     ry="7"
     fill="#d4e5d3"
     transform="rotate(-30)"
     id="ellipse70" />
  <!-- Leaf right - cocoa outline -->
  <ellipse
     cx="151.34421"
     cy="88.135864"
     rx="15"
     ry="10"
     fill="none"
     stroke="#8b6f47"
     stroke-width="3"
     transform="rotate(30)"
     id="ellipse72" />
  <!-- Leaf right fill - soft green -->
  <ellipse
     cx="151.34421"
     cy="88.135864"
     rx="12"
     ry="7"
     fill="#d4e5d3"
     transform="rotate(30)"
     id="ellipse74" />
  <!-- Tiny sparkles -->
  <circle
     cx="97"
     cy="42"
     r="3"
     fill="#ffffff"
     opacity="0.8"
     id="circle76" />
  <circle
     cx="104"
     cy="49"
     r="2"
     fill="#ffffff"
     opacity="0.6"
     id="circle78" />
  <!-- Tiny heart accent -->
  <path
     d="m 17,52 c 0,-2 1,-3 2,-3 1,0 1,1 1,1 0,0 1,-1 1,-1 1,0 2,1 2,3 0,2 -3,4 -3,4 0,0 -3,-2 -3,-4 z"
     fill="#ffb6c1"
     opacity="0.5"
     id="path80" />
</svg>
