<?xml version="1.0" encoding="UTF-8" standalone="no"?>
<svg
   width="1920"
   height="1080"
   viewBox="224 230 1920 1080"
   version="1.1"
   id="svg71"
   xmlns:xlink="http://www.w3.org/1999/xlink"
   xmlns="http://www.w3.org/2000/svg"
   xmlns:svg="http://www.w3.org/2000/svg">
  <defs
     id="defs19">
    <linearGradient
       id="promiseGradient"
       x1="0"
       y1="0"
       x2="0"
       y2="1440"
       gradientTransform="matrix(1.3333333,0,0,0.75,224,230)"
       gradientUnits="userSpaceOnUse">
      <stop
         offset="0%"
         style="stop-color:#FFF8F0;stop-opacity:1"
         id="stop2" />
      <stop
         offset="50%"
         style="stop-color:#F5E6D3;stop-opacity:1"
         id="stop4" />
      <stop
         offset="100%"
         style="stop-color:#D4A574;stop-opacity:1"
         id="stop6" />
    </linearGradient>
    <radialGradient
       id="warmLight">
      <stop
         offset="0%"
         style="stop-color:#FFF4D4;stop-opacity:0.7"
         id="stop9" />
      <stop
         offset="50%"
         style="stop-color:#FFD4A3;stop-opacity:0.4"
         id="stop11" />
      <stop
         offset="100%"
         style="stop-color:#FFD4A3;stop-opacity:0"
         id="stop13" />
    </radialGradient>
    <filter
       id="softBlur"
       x="-0.024"
       y="-0.03"
       width="1.048"
       height="1.06">
      <feGaussianBlur
         in="SourceGraphic"
         stdDeviation="10"
         id="feGaussianBlur16" />
    </filter>
    <radialGradient
       xlink:href="#warmLight"
       id="radialGradient75"
       gradientTransform="matrix(1.1116875,0,0,0.89953337,224,230)"
       cx="269.86"
       cy="222.33748"
       fx="269.86"
       fy="222.33748"
       r="471.35547"
       gradientUnits="userSpaceOnUse" />
    <radialGradient
       xlink:href="#warmLight"
       id="radialGradient77"
       gradientTransform="matrix(1.0892269,0,0,0.9180824,224,230)"
       cx="1468.9318"
       cy="326.76802"
       fx="1468.9318"
       fy="326.76802"
       r="577.2902"
       gradientUnits="userSpaceOnUse" />
  </defs>
  <!-- Base -->
  <rect
     width="1920"
     height="1080"
     fill="url(#promiseGradient)"
     id="rect21"
     x="224"
     y="230"
     style="fill:url(#promiseGradient)" />
  <!-- Warm desk light glow (top left) -->
  <ellipse
     cx="524"
     cy="430"
     rx="500"
     ry="400"
     fill="url(#warmLight)"
     filter="url(#softBlur)"
     id="ellipse23"
     style="fill:url(#radialGradient75)" />
  <!-- Soft ambient glow (top right) -->
  <ellipse
     cx="1824"
     cy="530"
     rx="600"
     ry="500"
     fill="url(#warmLight)"
     filter="url(#softBlur)"
     opacity="0.6"
     id="ellipse25"
     style="fill:url(#radialGradient77)" />
  <!-- Desk surface suggestion (bottom third) -->
  <rect
     y="930"
     width="1920"
     height="380"
     fill="#c8b299"
     opacity="0.15"
     id="rect27"
     x="224" />
  <!-- Stationery elements (very subtle) -->
  <g
     opacity="0.1"
     id="g37"
     transform="translate(224,230)">
    <!-- Paper stack left -->
    <rect
       x="150"
       y="850"
       width="180"
       height="5"
       rx="2"
       fill="#ffffff"
       id="rect29" />
    <rect
       x="150"
       y="860"
       width="180"
       height="5"
       rx="2"
       fill="#ffffff"
       id="rect31" />
    <!-- Paper stack right -->
    <rect
       x="1600"
       y="880"
       width="200"
       height="5"
       rx="2"
       fill="#ffffff"
       id="rect33" />
    <rect
       x="1600"
       y="890"
       width="200"
       height="5"
       rx="2"
       fill="#ffffff"
       id="rect35" />
  </g>
  <!-- Writing lines in center (middle 50% of screen, trailing off at edges) -->
  <g
     opacity="0.08"
     id="g59"
     transform="translate(224,230)">
    <line
       x1="480"
       y1="300"
       x2="1440"
       y2="300"
       stroke="#8b6f47"
       stroke-width="1.5"
       stroke-linecap="round"
       opacity="0.3"
       id="line39" />
    <line
       x1="480"
       y1="350"
       x2="1440"
       y2="350"
       stroke="#8b6f47"
       stroke-width="1.5"
       stroke-linecap="round"
       opacity="0.5"
       id="line41" />
    <line
       x1="480"
       y1="400"
       x2="1440"
       y2="400"
       stroke="#8b6f47"
       stroke-width="1.5"
       stroke-linecap="round"
       opacity="0.7"
       id="line43" />
    <line
       x1="480"
       y1="450"
       x2="1440"
       y2="450"
       stroke="#8b6f47"
       stroke-width="1.5"
       stroke-linecap="round"
       opacity="0.9"
       id="line45" />
    <line
       x1="480"
       y1="500"
       x2="1440"
       y2="500"
       stroke="#8b6f47"
       stroke-width="1.5"
       stroke-linecap="round"
       opacity="1"
       id="line47" />
    <line
       x1="480"
       y1="550"
       x2="1440"
       y2="550"
       stroke="#8b6f47"
       stroke-width="1.5"
       stroke-linecap="round"
       opacity="1"
       id="line49" />
    <line
       x1="480"
       y1="600"
       x2="1440"
       y2="600"
       stroke="#8b6f47"
       stroke-width="1.5"
       stroke-linecap="round"
       opacity="0.9"
       id="line51" />
    <line
       x1="480"
       y1="650"
       x2="1440"
       y2="650"
       stroke="#8b6f47"
       stroke-width="1.5"
       stroke-linecap="round"
       opacity="0.7"
       id="line53" />
    <line
       x1="480"
       y1="700"
       x2="1440"
       y2="700"
       stroke="#8b6f47"
       stroke-width="1.5"
       stroke-linecap="round"
       opacity="0.5"
       id="line55" />
    <line
       x1="480"
       y1="750"
       x2="1440"
       y2="750"
       stroke="#8b6f47"
       stroke-width="1.5"
       stroke-linecap="round"
       opacity="0.3"
       id="line57" />
  </g>
  <!-- Tiny hearts -->
  <g
     opacity="0.12"
     id="g67"
     transform="translate(224,230)">
    <path
       d="m 400,350 c 0,-3 2,-5 4,-5 1,0 2,1 2,2 0,-1 1,-2 2,-2 2,0 4,2 4,5 0,3 -6,7 -6,7 0,0 -6,-4 -6,-7 z"
       fill="#ffb6c1"
       id="path61" />
    <path
       d="m 1500,400 c 0,-3 2,-5 4,-5 1,0 2,1 2,2 0,-1 1,-2 2,-2 2,0 4,2 4,5 0,3 -6,7 -6,7 0,0 -6,-4 -6,-7 z"
       fill="#ffb6c1"
       id="path63" />
    <path
       d="m 900,250 c 0,-3 2,-5 4,-5 1,0 2,1 2,2 0,-1 1,-2 2,-2 2,0 4,2 4,5 0,3 -6,7 -6,7 0,0 -6,-4 -6,-7 z"
       fill="#ffb6c1"
       id="path65" />
  </g>
  <!-- Overlay -->
  <rect
     width="1920"
     height="1080"
     fill="#ffffff"
     opacity="0.03"
     id="rect69"
     x="224"
     y="230" />
</svg>
