<?xml version="1.0" encoding="UTF-8" standalone="no"?>
<svg
   width="578.39996"
   height="378.39999"
   viewBox="0 0 578.39996 378.39999"
   version="1.1"
   id="svg52"
   xmlns:xlink="http://www.w3.org/1999/xlink"
   xmlns="http://www.w3.org/2000/svg"
   xmlns:svg="http://www.w3.org/2000/svg">
  <defs
     id="defs12">
    <radialGradient
       id="frameGlow">
      <stop
         offset="0%"
         style="stop-color:#FFDAB9;stop-opacity:0.6"
         id="stop2" />
      <stop
         offset="50%"
         style="stop-color:#FFD4E5;stop-opacity:0.3"
         id="stop4" />
      <stop
         offset="100%"
         style="stop-color:#FFDAB9;stop-opacity:0"
         id="stop6" />
    </radialGradient>
    <filter
       id="softGlow"
       x="-0.035555556"
       y="-0.056470588"
       width="1.0711111"
       height="1.1129412">
      <feGaussianBlur
         in="SourceGraphic"
         stdDeviation="8"
         id="feGaussianBlur9" />
    </filter>
    <radialGradient
       xlink:href="#frameGlow"
       id="radialGradient56"
       gradientTransform="matrix(1.2363419,0,0,0.80883777,-10.8,-10.8)"
       cx="242.65132"
       cy="247.26837"
       fx="242.65132"
       fy="247.26837"
       r="233.91588"
       gradientUnits="userSpaceOnUse" />
    <radialGradient
       xlink:href="#frameGlow"
       id="radialGradient58"
       gradientTransform="matrix(1.2747549,0,0,0.78446454,-10.8,-10.8)"
       cx="235.33936"
       cy="254.95098"
       fx="235.33936"
       fy="254.95098"
       r="203.96078"
       gradientUnits="userSpaceOnUse" />
  </defs>
  <!-- Outer glow layers -->
  <rect
     x="19.200001"
     y="19.200001"
     width="540"
     height="340"
     rx="20"
     fill="url(#frameGlow)"
     filter="url(#softGlow)"
     opacity="0.5"
     id="rect14"
     style="fill:url(#radialGradient56)" />
  <rect
     x="29.200001"
     y="29.200001"
     width="520"
     height="320"
     rx="18"
     fill="url(#frameGlow)"
     opacity="0.6"
     id="rect16"
     style="fill:url(#radialGradient58)" />
  <!-- Frame border -->
  <rect
     x="39.200001"
     y="39.200001"
     width="500"
     height="300"
     rx="16"
     fill="none"
     stroke="#ffdab9"
     stroke-width="4"
     opacity="0.7"
     id="rect18" />
  <rect
     x="44.200001"
     y="44.200001"
     width="490"
     height="290"
     rx="14"
     fill="none"
     stroke="#ffd4e5"
     stroke-width="2"
     opacity="0.5"
     id="rect20" />
  <!-- Inner glow -->
  <rect
     x="49.200001"
     y="49.200001"
     width="480"
     height="280"
     rx="12"
     fill="#ffd4e5"
     opacity="0.15"
     id="rect22" />
  <!-- Sparkles around frame -->
  <circle
     cx="69.199997"
     cy="59.200001"
     r="4"
     fill="#ffffff"
     opacity="0.9"
     id="circle24" />
  <circle
     cx="509.20001"
     cy="59.200001"
     r="4"
     fill="#fff4d4"
     opacity="0.9"
     id="circle26" />
  <circle
     cx="69.199997"
     cy="319.20001"
     r="4"
     fill="#ffffff"
     opacity="0.9"
     id="circle28" />
  <circle
     cx="509.20001"
     cy="319.20001"
     r="4"
     fill="#fff4d4"
     opacity="0.9"
     id="circle30" />
  <circle
     cx="139.2"
     cy="39.200001"
     r="3"
     fill="#ffffff"
     opacity="0.8"
     id="circle32" />
  <circle
     cx="439.20001"
     cy="39.200001"
     r="3"
     fill="#fff4d4"
     opacity="0.8"
     id="circle34" />
  <circle
     cx="139.2"
     cy="339.20001"
     r="3"
     fill="#ffffff"
     opacity="0.8"
     id="circle36" />
  <circle
     cx="439.20001"
     cy="339.20001"
     r="3"
     fill="#fff4d4"
     opacity="0.8"
     id="circle38" />
  <circle
     cx="289.20001"
     cy="29.200001"
     r="3.5"
     fill="#ffffff"
     opacity="0.85"
     id="circle40" />
  <circle
     cx="289.20001"
     cy="349.20001"
     r="3.5"
     fill="#fff4d4"
     opacity="0.85"
     id="circle42" />
  <!-- Corner hearts -->
  <path
     d="m 54.2,49.2 c 0,-2 1,-3 2,-3 1,0 1,1 1,1 0,0 1,-1 1,-1 1,0 2,1 2,3 0,2 -3,4 -3,4 0,0 -3,-2 -3,-4 z"
     fill="#ffb6c1"
     opacity="0.6"
     id="path44" />
  <path
     d="m 519.2,49.2 c 0,-2 1,-3 2,-3 1,0 1,1 1,1 0,0 1,-1 1,-1 1,0 2,1 2,3 0,2 -3,4 -3,4 0,0 -3,-2 -3,-4 z"
     fill="#ffb6c1"
     opacity="0.6"
     id="path46" />
  <path
     d="m 54.2,329.2 c 0,-2 1,-3 2,-3 1,0 1,1 1,1 0,0 1,-1 1,-1 1,0 2,1 2,3 0,2 -3,4 -3,4 0,0 -3,-2 -3,-4 z"
     fill="#ffb6c1"
     opacity="0.6"
     id="path48" />
  <path
     d="m 519.2,329.2 c 0,-2 1,-3 2,-3 1,0 1,1 1,1 0,0 1,-1 1,-1 1,0 2,1 2,3 0,2 -3,4 -3,4 0,0 -3,-2 -3,-4 z"
     fill="#ffb6c1"
     opacity="0.6"
     id="path50" />
</svg>
