<?xml version="1.0" encoding="UTF-8" standalone="no"?>
<svg
   width="180"
   height="142"
   viewBox="0 0 180 142"
   version="1.1"
   id="svg26"
   xmlns="http://www.w3.org/2000/svg"
   xmlns:svg="http://www.w3.org/2000/svg">
  <defs
     id="defs30" />
  <!-- Shadow -->
  <ellipse
     cx="90"
     cy="130"
     rx="70"
     ry="12"
     fill="#000000"
     opacity="0.08"
     id="ellipse2" />
  <!-- White border -->
  <rect
     x="0"
     y="0"
     width="180"
     height="140"
     rx="10"
     fill="#ffffff"
     id="rect4" />
  <!-- Box lid -->
  <rect
     x="7"
     y="7"
     width="166"
     height="50"
     rx="8"
     fill="none"
     stroke="#8b6f47"
     stroke-width="6"
     id="rect6" />
  <rect
     x="12"
     y="12"
     width="156"
     height="40"
     rx="6"
     fill="#ffdab9"
     id="rect8" />
  <!-- Box bottom -->
  <rect
     x="7"
     y="57"
     width="166"
     height="78"
     rx="8"
     fill="none"
     stroke="#8b6f47"
     stroke-width="6"
     id="rect10" />
  <rect
     x="12"
     y="62"
     width="156"
     height="68"
     rx="6"
     fill="#f5e6d3"
     id="rect12" />
  <!-- Ribbon -->
  <rect
     x="12"
     y="25"
     width="156"
     height="10"
     fill="#ffd4e5"
     id="rect14" />
  <!-- Heart seal -->
  <circle
     cx="90"
     cy="95"
     r="16"
     fill="#ffffff"
     id="circle16" />
  <circle
     cx="90"
     cy="95"
     r="14"
     fill="none"
     stroke="#8b6f47"
     stroke-width="3"
     id="circle18" />
  <circle
     cx="90"
     cy="95"
     r="11"
     fill="#ffb6c1"
     id="circle20" />
  <path
     d="m 90,102 c 0,0 -7,-6 -7,-10 0,-2 1,-3 2.5,-3 1,0 2,1 4.5,3.5 2.5,-2.5 3.5,-3.5 4.5,-3.5 1.5,0 2.5,1 2.5,3 0,4 -7,10 -7,10 z"
     fill="#ffffff"
     id="path22" />
  <!-- Sparkle -->
  <circle
     cx="175"
     cy="20"
     r="3"
     fill="#ffffff"
     opacity="0.8"
     id="circle24" />
</svg>
