<?xml version="1.0" encoding="UTF-8" standalone="no"?>
<svg
   width="144"
   height="144"
   viewBox="0 0 144 144"
   version="1.1"
   id="svg50"
   xmlns="http://www.w3.org/2000/svg"
   xmlns:svg="http://www.w3.org/2000/svg">
  <defs
     id="defs54" />
  <!-- Soft shadow -->
  <ellipse
     cx="72"
     cy="107"
     rx="65"
     ry="12"
     fill="#000000"
     opacity="0.08"
     id="ellipse2" />
  <!-- White sticker border -->
  <circle
     cx="72"
     cy="72"
     r="72"
     fill="#ffffff"
     id="circle4" />
  <!-- Cocoa brown outline (clock face) -->
  <circle
     cx="72"
     cy="72"
     r="65"
     fill="none"
     stroke="#8b6f47"
     stroke-width="10"
     id="circle6" />
  <!-- Baby pink fill (clock face) -->
  <circle
     cx="72"
     cy="72"
     r="60"
     fill="#ffd4e5"
     id="circle8" />
  <!-- Clock center dot - cocoa brown -->
  <circle
     cx="72"
     cy="72"
     r="8"
     fill="#8b6f47"
     id="circle10" />
  <!-- Hour hand (pointing to 10) - cocoa brown -->
  <line
     x1="72"
     y1="72"
     x2="47"
     y2="42"
     stroke="#8b6f47"
     stroke-width="6"
     stroke-linecap="round"
     id="line12" />
  <!-- Minute hand (pointing to 2) - cocoa brown -->
  <line
     x1="72"
     y1="72"
     x2="102"
     y2="47"
     stroke="#8b6f47"
     stroke-width="5"
     stroke-linecap="round"
     id="line14" />
  <!-- Hour markers - soft peach dots at 12, 3, 6, 9 -->
  <circle
     cx="72"
     cy="27"
     r="5"
     fill="#ffdab9"
     id="circle16" />
  <!-- 12 -->
  <circle
     cx="117"
     cy="72"
     r="5"
     fill="#ffdab9"
     id="circle18" />
  <!-- 3 -->
  <circle
     cx="72"
     cy="117"
     r="5"
     fill="#ffdab9"
     id="circle20" />
  <!-- 6 -->
  <circle
     cx="27"
     cy="72"
     r="5"
     fill="#ffdab9"
     id="circle22" />
  <!-- 9 -->
  <!-- Smaller hour markers - cream -->
  <circle
     cx="89"
     cy="32"
     r="3"
     fill="#f5e6d3"
     id="circle24" />
  <!-- 1 -->
  <circle
     cx="102"
     cy="47"
     r="3"
     fill="#f5e6d3"
     id="circle26" />
  <!-- 2 -->
  <circle
     cx="112"
     cy="89"
     r="3"
     fill="#f5e6d3"
     id="circle28" />
  <!-- 4 -->
  <circle
     cx="102"
     cy="97"
     r="3"
     fill="#f5e6d3"
     id="circle30" />
  <!-- 5 -->
  <circle
     cx="55"
     cy="112"
     r="3"
     fill="#f5e6d3"
     id="circle32" />
  <!-- 7 -->
  <circle
     cx="42"
     cy="97"
     r="3"
     fill="#f5e6d3"
     id="circle34" />
  <!-- 8 -->
  <circle
     cx="32"
     cy="55"
     r="3"
     fill="#f5e6d3"
     id="circle36" />
  <!-- 10 -->
  <circle
     cx="42"
     cy="47"
     r="3"
     fill="#f5e6d3"
     id="circle38" />
  <!-- 11 -->
  <!-- Subtle inner shading at bottom -->
  <ellipse
     cx="72"
     cy="102"
     rx="50"
     ry="25"
     fill="#000000"
     opacity="0.04"
     id="ellipse40" />
  <!-- Gentle shine highlight at top -->
  <ellipse
     cx="57"
     cy="47"
     rx="25"
     ry="15"
     fill="#ffffff"
     opacity="0.5"
     id="ellipse42" />
  <!-- Tiny sparkles -->
  <circle
     cx="132"
     cy="42"
     r="3"
     fill="#ffffff"
     opacity="0.8"
     id="circle44" />
  <circle
     cx="139"
     cy="49"
     r="2"
     fill="#ffffff"
     opacity="0.6"
     id="circle46" />
  <!-- Tiny heart accent -->
  <path
     d="m 7,52 c 0,-2 1,-3 2,-3 1,0 1,1 1,1 0,0 1,-1 1,-1 1,0 2,1 2,3 0,2 -3,4 -3,4 0,0 -3,-2 -3,-4 z"
     fill="#ffb6c1"
     opacity="0.5"
     id="path48" />
</svg>
