<?xml version="1.0" encoding="UTF-8" standalone="no"?>
<svg
   width="1150"
   height="117.69682"
   viewBox="0 0 1150 117.69682"
   version="1.1"
   id="svg38"
   xmlns="http://www.w3.org/2000/svg"
   xmlns:svg="http://www.w3.org/2000/svg">
  <defs
     id="defs42" />
  <!-- Soft shadow -->
  <ellipse
     cx="575"
     cy="78.848404"
     rx="500"
     ry="20"
     fill="#000000"
     opacity="0.06"
     id="ellipse2" />
  <!-- White sticker border (ribbon path) -->
  <path
     d="m 25,58.848408 q 100,-70 200,0 100,70.000002 200,0 100,-70 200,0 100,70.000002 200,0 100,-70 200,0 50,30 100,0"
     fill="none"
     stroke="#ffffff"
     stroke-width="50"
     stroke-linecap="round"
     stroke-linejoin="round"
     id="path4" />
  <!-- Cocoa brown outline -->
  <path
     d="m 25,58.848408 q 100,-70 200,0 100,70.000002 200,0 100,-70 200,0 100,70.000002 200,0 100,-70 200,0 50,30 100,0"
     fill="none"
     stroke="#8b6f47"
     stroke-width="42"
     stroke-linecap="round"
     stroke-linejoin="round"
     id="path6" />
  <!-- Soft orange/peach fill -->
  <path
     d="m 25,58.848408 q 100,-70 200,0 100,70.000002 200,0 100,-70 200,0 100,70.000002 200,0 100,-70 200,0 50,30 100,0"
     fill="none"
     stroke="#ffdab9"
     stroke-width="34"
     stroke-linecap="round"
     stroke-linejoin="round"
     id="path8" />
  <!-- Center line for ribbon detail -->
  <path
     d="m 25,58.848408 q 100,-70 200,0 100,70.000002 200,0 100,-70 200,0 100,70.000002 200,0 100,-70 200,0 50,30 100,0"
     fill="none"
     stroke="#8b6f47"
     stroke-width="3"
     stroke-linecap="round"
     stroke-linejoin="round"
     opacity="0.3"
     id="path10" />
  <!-- Gentle highlights on top curves -->
  <ellipse
     cx="225"
     cy="58.848408"
     rx="30"
     ry="12"
     fill="#ffffff"
     opacity="0.4"
     id="ellipse12" />
  <ellipse
     cx="625"
     cy="58.848408"
     rx="30"
     ry="12"
     fill="#ffffff"
     opacity="0.4"
     id="ellipse14" />
  <ellipse
     cx="1025"
     cy="58.848408"
     rx="30"
     ry="12"
     fill="#ffffff"
     opacity="0.4"
     id="ellipse16" />
  <!-- Subtle shading on bottom curves -->
  <ellipse
     cx="425"
     cy="58.848408"
     rx="30"
     ry="12"
     fill="#000000"
     opacity="0.05"
     id="ellipse18" />
  <ellipse
     cx="825"
     cy="58.848408"
     rx="30"
     ry="12"
     fill="#000000"
     opacity="0.05"
     id="ellipse20" />
  <!-- Tiny sparkles along the path -->
  <circle
     cx="125"
     cy="23.848408"
     r="4"
     fill="#ffffff"
     opacity="0.8"
     id="circle22" />
  <circle
     cx="525"
     cy="23.848408"
     r="4"
     fill="#ffffff"
     opacity="0.8"
     id="circle24" />
  <circle
     cx="925"
     cy="23.848408"
     r="4"
     fill="#ffffff"
     opacity="0.8"
     id="circle26" />
  <circle
     cx="325"
     cy="93.848404"
     r="3"
     fill="#ffffff"
     opacity="0.7"
     id="circle28" />
  <circle
     cx="725"
     cy="93.848404"
     r="3"
     fill="#ffffff"
     opacity="0.7"
     id="circle30" />
  <!-- Tiny heart accents floating near path -->
  <path
     d="m 175,28.848408 c 0,-2 1,-3 2,-3 1,0 1,1 1,1 0,0 1,-1 1,-1 1,0 2,1 2,3 0,2 -3,4 -3,4 0,0 -3,-2 -3,-4 z"
     fill="#ffb6c1"
     opacity="0.5"
     id="path32" />
  <path
     d="m 575,28.848408 c 0,-2 1,-3 2,-3 1,0 1,1 1,1 0,0 1,-1 1,-1 1,0 2,1 2,3 0,2 -3,4 -3,4 0,0 -3,-2 -3,-4 z"
     fill="#ffb6c1"
     opacity="0.5"
     id="path34" />
  <path
     d="m 975,28.848408 c 0,-2 1,-3 2,-3 1,0 1,1 1,1 0,0 1,-1 1,-1 1,0 2,1 2,3 0,2 -3,4 -3,4 0,0 -3,-2 -3,-4 z"
     fill="#ffb6c1"
     opacity="0.5"
     id="path36" />
</svg>
