<?xml version="1.0" encoding="UTF-8" standalone="no"?>
<svg
   width="98"
   height="96"
   viewBox="0 0 98 96"
   version="1.1"
   id="svg26"
   xmlns="http://www.w3.org/2000/svg"
   xmlns:svg="http://www.w3.org/2000/svg">
  <defs
     id="defs30" />
  <!-- Soft shadow -->
  <ellipse
     cx="48"
     cy="58"
     rx="40"
     ry="8"
     fill="#000000"
     opacity="0.08"
     id="ellipse2" />
  <!-- White sticker border -->
  <circle
     cx="48"
     cy="48"
     r="48"
     fill="#ffffff"
     id="circle4" />
  <!-- Cocoa brown outline (outer ring) -->
  <circle
     cx="48"
     cy="48"
     r="42"
     fill="none"
     stroke="#8b6f47"
     stroke-width="8"
     id="circle6" />
  <!-- Cream fill -->
  <circle
     cx="48"
     cy="48"
     r="38"
     fill="#f5e6d3"
     id="circle8" />
  <!-- Inner cocoa ring detail -->
  <circle
     cx="48"
     cy="48"
     r="30"
     fill="none"
     stroke="#8b6f47"
     stroke-width="3"
     opacity="0.3"
     id="circle10" />
  <!-- Subtle inner shading at bottom -->
  <ellipse
     cx="48"
     cy="63"
     rx="32"
     ry="20"
     fill="#000000"
     opacity="0.04"
     id="ellipse12" />
  <!-- Gentle shine highlight at top -->
  <ellipse
     cx="38"
     cy="33"
     rx="20"
     ry="12"
     fill="#ffffff"
     opacity="0.5"
     id="ellipse14" />
  <!-- Additional subtle shine -->
  <ellipse
     cx="53"
     cy="38"
     rx="12"
     ry="8"
     fill="#ffffff"
     opacity="0.3"
     id="ellipse16" />
  <!-- Tiny sparkles around node -->
  <circle
     cx="88"
     cy="23"
     r="3"
     fill="#ffffff"
     opacity="0.8"
     id="circle18" />
  <circle
     cx="96"
     cy="30"
     r="2"
     fill="#ffffff"
     opacity="0.6"
     id="circle20" />
  <circle
     cx="8"
     cy="26"
     r="2.5"
     fill="#ffffff"
     opacity="0.7"
     id="circle22" />
  <!-- Tiny heart accent -->
  <path
     d="m 3,53 c 0,-2 1,-3 2,-3 1,0 1,1 1,1 0,0 1,-1 1,-1 1,0 2,1 2,3 0,2 -3,4 -3,4 0,0 -3,-2 -3,-4 z"
     fill="#ffb6c1"
     opacity="0.5"
     id="path24" />
</svg>
