<svg width="400" height="400" viewBox="0 0 400 400" xmlns="http://www.w3.org/2000/svg">
  <!-- Soft shadow -->
  <ellipse cx="200" cy="245" rx="65" ry="12" fill="#000000" opacity="0.08"/>
  
  <!-- White sticker border -->
  <g>
    <!-- Tray border -->
    <rect x="125" y="215" width="150" height="50" rx="12" fill="#FFFFFF"/>
    <!-- Arrow shaft border -->
    <rect x="185" y="145" width="30" height="75" rx="8" fill="#FFFFFF"/>
    <!-- Arrow head border -->
    <path d="M 155 195 L 200 240 L 245 195 Z" fill="#FFFFFF"/>
  </g>
  
  <!-- Cocoa brown outline for tray -->
  <rect x="130" y="220" width="140" height="40" rx="10" fill="none" stroke="#8B6F47" stroke-width="8"/>
  
  <!-- Pastel fill for tray (soft peach) -->
  <rect x="135" y="225" width="130" height="30" rx="8" fill="#FFDAB9"/>
  
  <!-- Subtle shading on tray bottom -->
  <rect x="135" y="240" width="130" height="15" rx="8" fill="#000000" opacity="0.04"/>
  
  <!-- Cocoa brown outline for arrow shaft -->
  <rect x="190" y="150" width="20" height="65" rx="6" fill="none" stroke="#8B6F47" stroke-width="8"/>
  
  <!-- Pastel fill for arrow shaft (baby pink) -->
  <rect x="194" y="154" width="12" height="57" rx="4" fill="#FFD4E5"/>
  
  <!-- Cocoa brown outline for arrow head -->
  <path d="M 165 200 L 200 230 L 235 200 L 200 218 Z" fill="#8B6F47"/>
  
  <!-- Pastel fill for arrow head (soft peach) -->
  <path d="M 170 202 L 200 227 L 230 202 L 200 218 Z" fill="#FFDAB9"/>
  
  <!-- Highlight on arrow shaft -->
  <rect x="195" y="156" width="4" height="50" rx="2" fill="#FFFFFF" opacity="0.5"/>
  
  <!-- Highlight on tray -->
  <ellipse cx="200" cy="232" rx="50" ry="6" fill="#FFFFFF" opacity="0.3"/>
  
  <!-- Tiny sparkles -->
  <circle cx="245" cy="165" r="3" fill="#FFFFFF" opacity="0.8"/>
  <circle cx="252" cy="172" r="2" fill="#FFFFFF" opacity="0.6"/>
  
  <!-- Tiny heart accent -->
  <path d="M 150 178 C 150 175 152 173 154 173 C 155 173 156 174 156 175 C 156 174 157 173 158 173 C 160 173 162 175 162 178 C 162 181 156 185 156 185 C 156 185 150 181 150 178 Z" fill="#FFB6C1" opacity="0.5"/>
</svg>