<svg width="400" height="400" viewBox="0 0 400 400" xmlns="http://www.w3.org/2000/svg">
  <!-- Soft shadow -->
  <ellipse cx="200" cy="215" rx="110" ry="18" fill="#000000" opacity="0.08"/>
  
  <!-- White sticker border -->
  <rect x="70" y="170" width="260" height="80" rx="40" fill="#FFFFFF"/>
  
  <!-- Cocoa brown outline -->
  <rect x="78" y="178" width="244" height="64" rx="32" fill="#8B6F47" stroke="none"/>
  
  <!-- Baby pink fill -->
  <rect x="84" y="184" width="232" height="52" rx="26" fill="#FFD4E5"/>
  
  <!-- Subtle inner shading (bottom) -->
  <rect x="84" y="210" width="232" height="26" rx="26" fill="#000000" opacity="0.03"/>
  
  <!-- Gentle highlight shine (top curved) -->
  <ellipse cx="200" cy="195" rx="90" ry="12" fill="#FFFFFF" opacity="0.4"/>
  
  <!-- Tiny sparkle accent (top right) -->
  <circle cx="270" cy="190" r="3" fill="#FFFFFF" opacity="0.8"/>
  <circle cx="275" cy="198" r="2" fill="#FFFFFF" opacity="0.6"/>
  
  <!-- Tiny heart accent (left side) -->
  <path d="M 130 205 C 130 202 132 200 134 200 C 135 200 136 201 136 202 C 136 201 137 200 138 200 C 140 200 142 202 142 205 C 142 208 136 212 136 212 C 136 212 130 208 130 205 Z" fill="#FFB6C1" opacity="0.5"/>
</svg>