<svg width="400" height="400" viewBox="0 0 400 400" xmlns="http://www.w3.org/2000/svg">
  <!-- Soft shadow -->
  <ellipse cx="200" cy="215" rx="50" ry="10" fill="#000000" opacity="0.08"/>
  
  <!-- White sticker border (heart shape) -->
  <path d="M 200 240 C 200 240 150 200 150 170 C 150 150 165 140 180 140 C 190 140 198 145 200 152 C 202 145 210 140 220 140 C 235 140 250 150 250 170 C 250 200 200 240 200 240 Z" fill="#FFFFFF"/>
  
  <!-- Cocoa brown outline (heart shape) -->
  <path d="M 200 232 C 200 232 156 195 156 170 C 156 152 169 144 182 144 C 191 144 198 149 200 155 C 202 149 209 144 218 144 C 231 144 244 152 244 170 C 244 195 200 232 200 232 Z" fill="#8B6F47"/>
  
  <!-- Baby pink fill (heart shape) -->
  <path d="M 200 226 C 200 226 162 192 162 170 C 162 155 173 148 184 148 C 192 148 198 152 200 158 C 202 152 208 148 216 148 C 227 148 238 155 238 170 C 238 192 200 226 200 226 Z" fill="#FFD4E5"/>
  
  <!-- Subtle inner shading at bottom of heart -->
  <path d="M 200 226 C 200 226 162 192 162 170 C 162 170 170 210 200 226 C 230 210 238 170 238 170 C 238 192 200 226 200 226 Z" fill="#000000" opacity="0.04"/>
  
  <!-- X cutout - cocoa brown, small centered X -->
  <!-- Left diagonal of X (top-left to bottom-right) -->
  <line x1="188" y1="178" x2="212" y2="202" stroke="#8B6F47" stroke-width="7" stroke-linecap="round"/>
  <!-- Right diagonal of X (top-right to bottom-left) -->
  <line x1="212" y1="178" x2="188" y2="202" stroke="#8B6F47" stroke-width="7" stroke-linecap="round"/>
  
  <!-- Gentle highlight on top of heart -->
  <ellipse cx="200" cy="165" rx="25" ry="10" fill="#FFFFFF" opacity="0.4"/>
  
  <!-- Tiny sparkles -->
  <circle cx="230" cy="155" r="3" fill="#FFFFFF" opacity="0.8"/>
  <circle cx="236" cy="162" r="2" fill="#FFFFFF" opacity="0.6"/>
  
  <!-- Tiny heart accent (top right) -->
  <path d="M 220 148 C 220 146 221 145 222 145 C 223 145 223 146 223 146 C 223 146 224 145 224 145 C 225 145 226 146 226 148 C 226 150 223 152 223 152 C 223 152 220 150 220 148 Z" fill="#FFB6C1" opacity="0.5"/>
</svg>