<svg width="400" height="400" viewBox="0 0 400 400" xmlns="http://www.w3.org/2000/svg">
  <!-- Soft shadow for the whole set -->
  <ellipse cx="200" cy="235" rx="120" ry="15" fill="#000000" opacity="0.06"/>
  
  <!-- HEART 1 (Baby Pink, top left) -->
  <path d="M 130 150 L 134 146 L 138 150 L 142 150 L 142 154 L 138 162 L 134 166 L 130 162 L 126 154 L 126 150 Z" fill="#FFFFFF"/>
  <path d="M 131 151 C 131 149 132 148 133 148 C 134 148 134 149 134 149 C 134 149 135 148 135 148 C 136 148 137 149 137 151 C 137 153 134 156 134 156 C 134 156 131 153 131 151 Z" fill="#8B6F47"/>
  <path d="M 132 151 C 132 149.5 132.5 149 133 149 C 133.5 149 134 149.5 134 150 C 134 149.5 134.5 149 135 149 C 135.5 149 136 149.5 136 151 C 136 152.5 134 154.5 134 154.5 C 134 154.5 132 152.5 132 151 Z" fill="#FFD4E5"/>
  
  <!-- HEART 2 (Soft Orange, top center) -->
  <path d="M 210 135 C 210 132 212 130 214 130 C 215 130 216 131 216 132 C 216 131 217 130 218 130 C 220 130 222 132 222 135 C 222 138 216 142 216 142 C 216 142 210 138 210 135 Z" fill="#FFFFFF"/>
  <path d="M 211 135 C 211 133 212.5 131.5 214 131.5 C 215 131.5 215.5 132 216 132.5 C 216.5 132 217 131.5 218 131.5 C 219.5 131.5 221 133 221 135 C 221 137.5 216 141 216 141 C 216 141 211 137.5 211 135 Z" fill="#8B6F47"/>
  <path d="M 212 135 C 212 133.5 213 132.5 214 132.5 C 215 132.5 215.5 133 216 133.5 C 216.5 133 217 132.5 218 132.5 C 219 132.5 220 133.5 220 135 C 220 137 216 139.5 216 139.5 C 216 139.5 212 137 212 135 Z" fill="#FFDAB9"/>
  
  <!-- HEART 3 (Cream, top right) -->
  <path d="M 275 160 C 275 158 276 157 277 157 C 278 157 278 158 278 158 C 278 158 279 157 279 157 C 280 157 281 158 281 160 C 281 162 278 164 278 164 C 278 164 275 162 275 160 Z" fill="#FFFFFF"/>
  <path d="M 276 160 C 276 158.5 276.5 158 277 158 C 277.5 158 278 158.5 278 159 C 278 158.5 278.5 158 279 158 C 279.5 158 280 158.5 280 160 C 280 161.5 278 163 278 163 C 278 163 276 161.5 276 160 Z" fill="#8B6F47"/>
  <path d="M 276.5 160 C 276.5 159 277 158.5 277.5 158.5 C 278 158.5 278 159 278 159.5 C 278 159 278.5 158.5 279 158.5 C 279.5 158.5 279.5 159 279.5 160 C 279.5 161 278 162 278 162 C 278 162 276.5 161 276.5 160 Z" fill="#F5E6D3"/>
  
  <!-- HEART 4 (Soft Pastel Blue, center) -->
  <path d="M 195 195 C 195 192 197 190 199 190 C 200 190 201 191 201 192 C 201 191 202 190 203 190 C 205 190 207 192 207 195 C 207 198 201 202 201 202 C 201 202 195 198 195 195 Z" fill="#FFFFFF"/>
  <path d="M 196 195 C 196 193 197.5 191.5 199 191.5 C 200 191.5 200.5 192 201 192.5 C 201.5 192 202 191.5 203 191.5 C 204.5 191.5 206 193 206 195 C 206 197.5 201 201 201 201 C 201 201 196 197.5 196 195 Z" fill="#8B6F47"/>
  <path d="M 197 195 C 197 193.5 198 192.5 199 192.5 C 200 192.5 200.5 193 201 193.5 C 201.5 193 202 192.5 203 192.5 C 204 192.5 205 193.5 205 195 C 205 197 201 199.5 201 199.5 C 201 199.5 197 197 197 195 Z" fill="#D4E5FF"/>
  
  <!-- HEART 5 (Baby Pink, middle left) -->
  <path d="M 145 200 C 145 198 146 197 147 197 C 148 197 148 198 148 198 C 148 198 149 197 149 197 C 150 197 151 198 151 200 C 151 202 148 204 148 204 C 148 204 145 202 145 200 Z" fill="#FFFFFF"/>
  <path d="M 146 200 C 146 198.5 146.5 198 147 198 C 147.5 198 148 198.5 148 199 C 148 198.5 148.5 198 149 198 C 149.5 198 150 198.5 150 200 C 150 201.5 148 203 148 203 C 148 203 146 201.5 146 200 Z" fill="#8B6F47"/>
  <path d="M 146.5 200 C 146.5 199 147 198.5 147.5 198.5 C 148 198.5 148 199 148 199.5 C 148 199 148.5 198.5 149 198.5 C 149.5 198.5 149.5 199 149.5 200 C 149.5 201 148 202 148 202 C 148 202 146.5 201 146.5 200 Z" fill="#FFD4E5"/>
  
  <!-- HEART 6 (Soft Orange, middle right) -->
  <path d="M 250 205 C 250 203 251 202 252 202 C 253 202 253 203 253 203 C 253 203 254 202 254 202 C 255 202 256 203 256 205 C 256 207 253 209 253 209 C 253 209 250 207 250 205 Z" fill="#FFFFFF"/>
  <path d="M 251 205 C 251 203.5 251.5 203 252 203 C 252.5 203 253 203.5 253 204 C 253 203.5 253.5 203 254 203 C 254.5 203 255 203.5 255 205 C 255 206.5 253 208 253 208 C 253 208 251 206.5 251 205 Z" fill="#8B6F47"/>
  <path d="M 251.5 205 C 251.5 204 252 203.5 252.5 203.5 C 253 203.5 253 204 253 204.5 C 253 204 253.5 203.5 254 203.5 C 254.5 203.5 254.5 204 254.5 205 C 254.5 206 253 207 253 207 C 253 207 251.5 206 251.5 205 Z" fill="#FFDAB9"/>
  
  <!-- HEART 7 (Cream, bottom left) -->
  <path d="M 160 240 C 160 237 162 235 164 235 C 165 235 166 236 166 237 C 166 236 167 235 168 235 C 170 235 172 237 172 240 C 172 243 166 247 166 247 C 166 247 160 243 160 240 Z" fill="#FFFFFF"/>
  <path d="M 161 240 C 161 238 162.5 236.5 164 236.5 C 165 236.5 165.5 237 166 237.5 C 166.5 237 167 236.5 168 236.5 C 169.5 236.5 171 238 171 240 C 171 242.5 166 246 166 246 C 166 246 161 242.5 161 240 Z" fill="#8B6F47"/>
  <path d="M 162 240 C 162 238.5 163 237.5 164 237.5 C 165 237.5 165.5 238 166 238.5 C 166.5 238 167 237.5 168 237.5 C 169 237.5 170 238.5 170 240 C 170 242 166 244.5 166 244.5 C 166 244.5 162 242 162 240 Z" fill="#F5E6D3"/>
  
  <!-- HEART 8 (Baby Pink, bottom center) -->
  <path d="M 205 250 C 205 248 206 247 207 247 C 208 247 208 248 208 248 C 208 248 209 247 209 247 C 210 247 211 248 211 250 C 211 252 208 254 208 254 C 208 254 205 252 205 250 Z" fill="#FFFFFF"/>
  <path d="M 206 250 C 206 248.5 206.5 248 207 248 C 207.5 248 208 248.5 208 249 C 208 248.5 208.5 248 209 248 C 209.5 248 210 248.5 210 250 C 210 251.5 208 253 208 253 C 208 253 206 251.5 206 250 Z" fill="#8B6F47"/>
  <path d="M 206.5 250 C 206.5 249 207 248.5 207.5 248.5 C 208 248.5 208 249 208 249.5 C 208 249 208.5 248.5 209 248.5 C 209.5 248.5 209.5 249 209.5 250 C 209.5 251 208 252 208 252 C 208 252 206.5 251 206.5 250 Z" fill="#FFD4E5"/>
  
  <!-- HEART 9 (Pastel Blue, bottom right) -->
  <path d="M 240 235 C 240 233 241 232 242 232 C 243 232 243 233 243 233 C 243 233 244 232 244 232 C 245 232 246 233 246 235 C 246 237 243 239 243 239 C 243 239 240 237 240 235 Z" fill="#FFFFFF"/>
  <path d="M 241 235 C 241 233.5 241.5 233 242 233 C 242.5 233 243 233.5 243 234 C 243 233.5 243.5 233 244 233 C 244.5 233 245 233.5 245 235 C 245 236.5 243 238 243 238 C 243 238 241 236.5 241 235 Z" fill="#8B6F47"/>
  <path d="M 241.5 235 C 241.5 234 242 233.5 242.5 233.5 C 243 233.5 243 234 243 234.5 C 243 234 243.5 233.5 244 233.5 C 244.5 233.5 244.5 234 244.5 235 C 244.5 236 243 237 243 237 C 243 237 241.5 236 241.5 235 Z" fill="#D4E5FF"/>
  
  <!-- SPARKLES scattered around -->
  <circle cx="175" cy="165" r="2.5" fill="#FFFFFF" opacity="0.8"/>
  <circle cx="230" cy="175" r="3" fill="#FFFFFF" opacity="0.8"/>
  <circle cx="180" cy="225" r="2" fill="#FFFFFF" opacity="0.7"/>
  <circle cx="225" cy="220" r="2.5" fill="#FFFFFF" opacity="0.8"/>
  <circle cx="265" cy="190" r="2" fill="#FFFFFF" opacity="0.7"/>
  <circle cx="135" cy="180" r="2" fill="#FFFFFF" opacity="0.7"/>
  
  <!-- Four-point sparkles -->
  <path d="M 155 170 L 156 168 L 157 170 L 159 171 L 157 172 L 156 174 L 155 172 L 153 171 Z" fill="#FFF4D4" opacity="0.9"/>
  <path d="M 245 158 L 246 156 L 247 158 L 249 159 L 247 160 L 246 162 L 245 160 L 243 159 Z" fill="#FFD4E5" opacity="0.9"/>
  <path d="M 190 260 L 191 258 L 192 260 L 194 261 L 192 262 L 191 264 L 190 262 L 188 261 Z" fill="#FFDAB9" opacity="0.9"/>
</svg>