<svg width="400" height="400" viewBox="0 0 400 400" xmlns="http://www.w3.org/2000/svg">
  <!-- Soft shadow -->
  <ellipse cx="200" cy="265" rx="60" ry="12" fill="#000000" opacity="0.08"/>
  
  <!-- White sticker border -->
  <g>
    <!-- Lock body border -->
    <rect x="145" y="195" width="110" height="90" rx="18" fill="#FFFFFF"/>
    <!-- Shackle border -->
    <path d="M 165 195 L 165 165 C 165 145 175 135 200 135 C 225 135 235 145 235 165 L 235 195" fill="none" stroke="#FFFFFF" stroke-width="28" stroke-linecap="round"/>
  </g>
  
  <!-- Cocoa brown outline for shackle -->
  <path d="M 170 195 L 170 165 C 170 148 178 140 200 140 C 222 140 230 148 230 165 L 230 195" fill="none" stroke="#8B6F47" stroke-width="14" stroke-linecap="round"/>
  
  <!-- Soft orange fill for shackle -->
  <path d="M 175 195 L 175 165 C 175 151 182 145 200 145 C 218 145 225 151 225 165 L 225 195" fill="none" stroke="#FFDAB9" stroke-width="8" stroke-linecap="round"/>
  
  <!-- Cocoa brown outline for lock body -->
  <rect x="150" y="200" width="100" height="80" rx="16" fill="none" stroke="#8B6F47" stroke-width="10"/>
  
  <!-- Baby pink fill for lock body -->
  <rect x="155" y="205" width="90" height="70" rx="14" fill="#FFD4E5"/>
  
  <!-- Subtle inner shading at bottom of lock body -->
  <rect x="155" y="245" width="90" height="30" rx="14" fill="#000000" opacity="0.04"/>
  
  <!-- Heart cutout in center of lock -->
  <path d="M 200 235 C 200 235 188 225 188 218 C 188 214 190 212 193 212 C 195 212 197 213 200 216 C 203 213 205 212 207 212 C 210 212 212 214 212 218 C 212 225 200 235 200 235 Z" fill="#8B6F47"/>
  
  <!-- Inner heart fill (soft orange) -->
  <path d="M 200 232 C 200 232 190 224 190 218 C 190 215 192 213 194 213 C 196 213 197 214 200 217 C 203 214 204 213 206 213 C 208 213 210 215 210 218 C 210 224 200 232 200 232 Z" fill="#FFDAB9"/>
  
  <!-- Gentle highlight on top of lock body -->
  <ellipse cx="200" cy="218" rx="35" ry="8" fill="#FFFFFF" opacity="0.4"/>
  
  <!-- Highlight on shackle -->
  <path d="M 177 195 L 177 165 C 177 152 183 147 200 147" fill="none" stroke="#FFFFFF" stroke-width="3" stroke-linecap="round" opacity="0.5"/>
  
  <!-- Tiny sparkles -->
  <circle cx="255" cy="215" r="3" fill="#FFFFFF" opacity="0.8"/>
  <circle cx="261" cy="222" r="2" fill="#FFFFFF" opacity="0.6"/>
  
  <!-- Tiny heart accent (top left) -->
  <path d="M 135 175 C 135 172 137 170 139 170 C 140 170 141 171 141 172 C 141 171 142 170 143 170 C 145 170 147 172 147 175 C 147 178 141 182 141 182 C 141 182 135 178 135 175 Z" fill="#FFB6C1" opacity="0.5"/>
</svg>