<svg width="400" height="400" viewBox="0 0 400 400" xmlns="http://www.w3.org/2000/svg">
  <!-- Soft shadow for all sparkles -->
  <ellipse cx="200" cy="215" rx="100" ry="12" fill="#000000" opacity="0.06"/>
  
  <!-- SPARKLE 1 (Large, left) -->
  <!-- White sticker border -->
  <g>
    <path d="M 140 200 L 148 188 L 156 200 L 168 208 L 156 216 L 148 228 L 140 216 L 128 208 Z" fill="#FFFFFF"/>
  </g>
  
  <!-- Cocoa brown outline -->
  <path d="M 142 200 L 148 190 L 154 200 L 164 206 L 154 212 L 148 222 L 142 212 L 132 206 Z" fill="#8B6F47"/>
  
  <!-- Soft orange/yellow pastel fill -->
  <path d="M 144 200 L 148 193 L 152 200 L 159 204 L 152 208 L 148 215 L 144 208 L 137 204 Z" fill="#FFD4A3"/>
  
  <!-- Highlight -->
  <path d="M 146 200 L 148 196 L 150 200 L 154 202 L 150 204 L 148 208 L 146 204 L 142 202 Z" fill="#FFFFFF" opacity="0.5"/>
  
  
  <!-- SPARKLE 2 (Medium, center-right) -->
  <!-- White sticker border -->
  <g>
    <path d="M 230 190 L 236 180 L 242 190 L 252 196 L 242 202 L 236 212 L 230 202 L 220 196 Z" fill="#FFFFFF"/>
  </g>
  
  <!-- Cocoa brown outline -->
  <path d="M 232 190 L 236 182 L 240 190 L 248 194 L 240 198 L 236 206 L 232 198 L 224 194 Z" fill="#8B6F47"/>
  
  <!-- Soft peach/orange fill -->
  <path d="M 234 190 L 236 185 L 238 190 L 243 193 L 238 196 L 236 201 L 234 196 L 229 193 Z" fill="#FFDAB9"/>
  
  <!-- Highlight -->
  <path d="M 235 190 L 236 187 L 237 190 L 240 192 L 237 194 L 236 197 L 235 194 L 232 192 Z" fill="#FFFFFF" opacity="0.5"/>
  
  
  <!-- SPARKLE 3 (Small, bottom) -->
  <!-- White sticker border -->
  <g>
    <path d="M 190 235 L 194 228 L 198 235 L 205 239 L 198 243 L 194 250 L 190 243 L 183 239 Z" fill="#FFFFFF"/>
  </g>
  
  <!-- Cocoa brown outline -->
  <path d="M 191 235 L 194 230 L 197 235 L 202 238 L 197 241 L 194 246 L 191 241 L 186 238 Z" fill="#8B6F47"/>
  
  <!-- Soft yellow/cream fill -->
  <path d="M 192 235 L 194 232 L 196 235 L 199 237 L 196 239 L 194 242 L 192 239 L 189 237 Z" fill="#FFF4D4"/>
  
  <!-- Highlight -->
  <circle cx="194" cy="235" r="2" fill="#FFFFFF" opacity="0.6"/>
  
  
  <!-- Additional tiny heart accents floating around -->
  <path d="M 165 175 C 165 173 166 172 167 172 C 168 172 168 173 168 173 C 168 173 169 172 169 172 C 170 172 171 173 171 175 C 171 177 168 179 168 179 C 168 179 165 177 165 175 Z" fill="#FFB6C1" opacity="0.5"/>
  
  <path d="M 255 210 C 255 208 256 207 257 207 C 258 207 258 208 258 208 C 258 208 259 207 259 207 C 260 207 261 208 261 210 C 261 212 258 214 258 214 C 258 214 255 212 255 210 Z" fill="#FFB6C1" opacity="0.5"/>
  
  <!-- Tiny white sparkles around -->
  <circle cx="175" cy="215" r="2" fill="#FFFFFF" opacity="0.7"/>
  <circle cx="260" cy="175" r="2.5" fill="#FFFFFF" opacity="0.7"/>
  <circle cx="210" cy="255" r="2" fill="#FFFFFF" opacity="0.7"/>
</svg>