<?xml version="1.0" encoding="UTF-8" standalone="no"?>
<svg
   width="2308"
   height="1446.4286"
   viewBox="0 0 2308 1446.4286"
   version="1.1"
   id="svg88"
   xmlns:xlink="http://www.w3.org/1999/xlink"
   xmlns="http://www.w3.org/2000/svg"
   xmlns:svg="http://www.w3.org/2000/svg">
  <defs
     id="defs32">
    <!-- Main dreamy gradient -->
    <linearGradient
       id="dreamyGradient"
       x1="0"
       y1="0"
       x2="1440"
       y2="1440"
       gradientTransform="matrix(1.3333333,0,0,0.75,148,195)"
       gradientUnits="userSpaceOnUse">
      <stop
         offset="0%"
         style="stop-color:#F5E6D3;stop-opacity:1"
         id="stop2" />
      <stop
         offset="35%"
         style="stop-color:#FFE8F0;stop-opacity:1"
         id="stop4" />
      <stop
         offset="65%"
         style="stop-color:#FFD4E5;stop-opacity:1"
         id="stop6" />
      <stop
         offset="100%"
         style="stop-color:#FFDAB9;stop-opacity:1"
         id="stop8" />
    </linearGradient>
    <!-- Radial gradient for soft glow -->
    <radialGradient
       id="softGlow1">
      <stop
         offset="0%"
         style="stop-color:#FFDAB9;stop-opacity:0.4"
         id="stop11" />
      <stop
         offset="100%"
         style="stop-color:#FFDAB9;stop-opacity:0"
         id="stop13" />
    </radialGradient>
    <radialGradient
       id="softGlow2">
      <stop
         offset="0%"
         style="stop-color:#FFD4E5;stop-opacity:0.3"
         id="stop16" />
      <stop
         offset="100%"
         style="stop-color:#FFD4E5;stop-opacity:0"
         id="stop18" />
    </radialGradient>
    <radialGradient
       id="softGlow3"
       gradientTransform="matrix(1.0760139,0,0,0.92935601,148,195)"
       cx="836.42041"
       cy="430.40556"
       fx="836.42041"
       fy="430.40556"
       r="364.30756"
       gradientUnits="userSpaceOnUse">
      <stop
         offset="0%"
         style="stop-color:#F5E6D3;stop-opacity:0.5"
         id="stop21" />
      <stop
         offset="100%"
         style="stop-color:#F5E6D3;stop-opacity:0"
         id="stop23" />
    </radialGradient>
    <!-- Blur filter for bokeh effect -->
    <filter
       id="bokeh"
       x="-0.012590164"
       y="-0.023357664"
       width="1.0251803"
       height="1.0467153">
      <feGaussianBlur
         in="SourceGraphic"
         stdDeviation="8"
         id="feGaussianBlur26" />
    </filter>
    <filter
       id="softBlur"
       x="-0.06"
       y="-0.064285714"
       width="1.12"
       height="1.1285714">
      <feGaussianBlur
         in="SourceGraphic"
         stdDeviation="15"
         id="feGaussianBlur29" />
    </filter>
    <radialGradient
       xlink:href="#softGlow1"
       id="radialGradient92"
       gradientTransform="matrix(1.0649776,0,0,0.9389869,148,195)"
       cx="281.69607"
       cy="212.99551"
       fx="281.69607"
       fy="212.99551"
       r="420.66613"
       gradientUnits="userSpaceOnUse" />
    <radialGradient
       xlink:href="#softGlow2"
       id="radialGradient94"
       gradientTransform="matrix(1.1137802,0,0,0.8978432,148,195)"
       cx="1436.5491"
       cy="891.02416"
       fx="1436.5491"
       fy="891.02416"
       r="502.7922"
       gradientUnits="userSpaceOnUse" />
    <radialGradient
       xlink:href="#softGlow1"
       id="radialGradient96"
       gradientTransform="matrix(1.0311601,0,0,0.9697815,148,195)"
       cx="1357.6941"
       cy="309.34803"
       fx="1357.6941"
       fy="309.34803"
       r="325.84658"
       gradientUnits="userSpaceOnUse" />
    <radialGradient
       xlink:href="#softGlow2"
       id="radialGradient98"
       gradientTransform="matrix(1.0855787,0,0,0.92116769,148,195)"
       cx="460.58385"
       cy="922.74186"
       fx="460.58385"
       fy="922.74186"
       r="392.04897"
       gradientUnits="userSpaceOnUse" />
  </defs>
  <!-- Main gradient background -->
  <rect
     width="1920"
     height="1080"
     fill="url(#dreamyGradient)"
     id="rect34"
     x="148"
     y="195"
     style="fill:url(#dreamyGradient)" />
  <!-- Soft glowing circles for dreamy effect -->
  <ellipse
     cx="448"
     cy="395"
     rx="400"
     ry="350"
     fill="url(#softGlow1)"
     filter="url(#softBlur)"
     id="ellipse36"
     style="fill:url(#radialGradient92)" />
  <ellipse
     cx="1748"
     cy="995"
     rx="500"
     ry="400"
     fill="url(#softGlow2)"
     filter="url(#softBlur)"
     id="ellipse38"
     style="fill:url(#radialGradient94)" />
  <ellipse
     cx="1048"
     cy="595"
     rx="350"
     ry="300"
     fill="url(#softGlow3)"
     filter="url(#softBlur)"
     id="ellipse40"
     style="fill:url(#softGlow3)" />
  <ellipse
     cx="1548"
     cy="495"
     rx="300"
     ry="280"
     fill="url(#softGlow1)"
     filter="url(#softBlur)"
     id="ellipse42"
     style="fill:url(#radialGradient96)" />
  <ellipse
     cx="648"
     cy="1045"
     rx="380"
     ry="320"
     fill="url(#softGlow2)"
     filter="url(#softBlur)"
     id="ellipse44"
     style="fill:url(#radialGradient98)" />
  <!-- Subtle heart bokeh (very soft and blurred) -->
  <g
     opacity="0.15"
     filter="url(#bokeh)"
     id="g66"
     transform="translate(148,195)">
    <!-- Small hearts scattered -->
    <path
       d="m 250,150 c 0,0 -15,-8 -15,-15 0,-5 3,-7 7,-7 3,0 5,2 8,5 3,-3 5,-5 8,-5 4,0 7,2 7,7 0,7 -15,15 -15,15 z"
       fill="#ffb6c1"
       id="path46" />
    <path
       d="m 1650,250 c 0,0 -15,-8 -15,-15 0,-5 3,-7 7,-7 3,0 5,2 8,5 3,-3 5,-5 8,-5 4,0 7,2 7,7 0,7 -15,15 -15,15 z"
       fill="#ffdab9"
       id="path48" />
    <path
       d="m 1200,850 c 0,0 -15,-8 -15,-15 0,-5 3,-7 7,-7 3,0 5,2 8,5 3,-3 5,-5 8,-5 4,0 7,2 7,7 0,7 -15,15 -15,15 z"
       fill="#ffd4e5"
       id="path50" />
    <path
       d="m 450,600 c 0,0 -10,-6 -10,-11 0,-4 2,-6 5,-6 2,0 4,2 5,4 1,-2 3,-4 5,-4 3,0 5,2 5,6 0,5 -10,11 -10,11 z"
       fill="#ffb6c1"
       id="path52" />
    <path
       d="m 1500,550 c 0,0 -10,-6 -10,-11 0,-4 2,-6 5,-6 2,0 4,2 5,4 1,-2 3,-4 5,-4 3,0 5,2 5,6 0,5 -10,11 -10,11 z"
       fill="#ffdab9"
       id="path54" />
    <path
       d="m 750,300 c 0,0 -10,-6 -10,-11 0,-4 2,-6 5,-6 2,0 4,2 5,4 1,-2 3,-4 5,-4 3,0 5,2 5,6 0,5 -10,11 -10,11 z"
       fill="#ffd4e5"
       id="path56" />
    <path
       d="m 1100,200 c 0,0 -10,-6 -10,-11 0,-4 2,-6 5,-6 2,0 4,2 5,4 1,-2 3,-4 5,-4 3,0 5,2 5,6 0,5 -10,11 -10,11 z"
       fill="#ffb6c1"
       id="path58" />
    <path
       d="m 350,950 c 0,0 -10,-6 -10,-11 0,-4 2,-6 5,-6 2,0 4,2 5,4 1,-2 3,-4 5,-4 3,0 5,2 5,6 0,5 -10,11 -10,11 z"
       fill="#ffdab9"
       id="path60" />
    <path
       d="m 1750,650 c 0,0 -10,-6 -10,-11 0,-4 2,-6 5,-6 2,0 4,2 5,4 1,-2 3,-4 5,-4 3,0 5,2 5,6 0,5 -10,11 -10,11 z"
       fill="#ffd4e5"
       id="path62" />
    <path
       d="m 900,750 c 0,0 -10,-6 -10,-11 0,-4 2,-6 5,-6 2,0 4,2 5,4 1,-2 3,-4 5,-4 3,0 5,2 5,6 0,5 -10,11 -10,11 z"
       fill="#ffb6c1"
       id="path64" />
  </g>
  <!-- Very subtle soft circles for additional bokeh -->
  <g
     opacity="0.1"
     filter="url(#bokeh)"
     id="g84"
     transform="translate(148,195)">
    <circle
       cx="600"
       cy="400"
       r="30"
       fill="#ffdab9"
       id="circle68" />
    <circle
       cx="1300"
       cy="700"
       r="40"
       fill="#ffd4e5"
       id="circle70" />
    <circle
       cx="200"
       cy="800"
       r="25"
       fill="#ffb6c1"
       id="circle72" />
    <circle
       cx="1700"
       cy="400"
       r="35"
       fill="#ffdab9"
       id="circle74" />
    <circle
       cx="800"
       cy="150"
       r="28"
       fill="#ffd4e5"
       id="circle76" />
    <circle
       cx="1450"
       cy="950"
       r="32"
       fill="#ffb6c1"
       id="circle78" />
    <circle
       cx="400"
       cy="500"
       r="22"
       fill="#ffdab9"
       id="circle80" />
    <circle
       cx="1000"
       cy="900"
       r="38"
       fill="#ffd4e5"
       id="circle82" />
  </g>
  <!-- Subtle overlay for depth -->
  <rect
     width="1920"
     height="1080"
     fill="#ffffff"
     opacity="0.03"
     id="rect86"
     x="148"
     y="195" />
</svg>
