<?xml version="1.0" encoding="UTF-8" standalone="no"?>
<svg
   width="164"
   height="100"
   viewBox="0 0 164 100"
   version="1.1"
   id="svg32"
   xmlns="http://www.w3.org/2000/svg"
   xmlns:svg="http://www.w3.org/2000/svg">
  <defs
     id="defs36" />
  <!-- Soft shadow -->
  <ellipse
     cx="80"
     cy="80"
     rx="70"
     ry="12"
     fill="#000000"
     opacity="0.08"
     id="ellipse2" />
  <!-- White sticker border -->
  <rect
     x="10"
     y="0"
     width="140"
     height="100"
     rx="8"
     fill="#ffffff"
     id="rect4" />
  <!-- Main chocolate bar - cocoa brown outline (sharp rectangular edges) -->
  <rect
     x="18"
     y="8"
     width="124"
     height="84"
     fill="none"
     stroke="#8b6f47"
     stroke-width="8"
     id="rect6" />
  <!-- Main chocolate bar - rich brown fill -->
  <rect
     x="22"
     y="12"
     width="116"
     height="76"
     fill="#6b4423"
     id="rect8" />
  <!-- Chocolate squares divider lines (6 squares: 2 rows of 3) -->
  <!-- Vertical dividers -->
  <line
     x1="60.669998"
     y1="12"
     x2="60.669998"
     y2="88"
     stroke="#8b6f47"
     stroke-width="3"
     id="line10" />
  <line
     x1="99.330002"
     y1="12"
     x2="99.330002"
     y2="88"
     stroke="#8b6f47"
     stroke-width="3"
     id="line12" />
  <!-- Horizontal divider -->
  <line
     x1="22"
     y1="50"
     x2="138"
     y2="50"
     stroke="#8b6f47"
     stroke-width="3"
     id="line14" />
  <!-- Highlights on chocolate squares (top row) -->
  <rect
     x="25"
     y="15"
     width="32"
     height="8"
     fill="#ffffff"
     opacity="0.2"
     id="rect16" />
  <rect
     x="63.669998"
     y="15"
     width="32"
     height="8"
     fill="#ffffff"
     opacity="0.2"
     id="rect18" />
  <rect
     x="102.33"
     y="15"
     width="32"
     height="8"
     fill="#ffffff"
     opacity="0.2"
     id="rect20" />
  <!-- Subtle shading at bottom of chocolate -->
  <rect
     x="22"
     y="70"
     width="116"
     height="18"
     fill="#000000"
     opacity="0.08"
     id="rect22" />
  <!-- Tiny sparkles -->
  <circle
     cx="155"
     cy="5"
     r="3"
     fill="#ffffff"
     opacity="0.8"
     id="circle24" />
  <circle
     cx="162"
     cy="12"
     r="2"
     fill="#ffffff"
     opacity="0.6"
     id="circle26" />
  <!-- Tiny heart accent -->
  <path
     d="m 0,15 c 0,-2 1,-3 2,-3 1,0 1,1 1,1 0,0 1,-1 1,-1 1,0 2,1 2,3 0,2 -3,4 -3,4 0,0 -3,-2 -3,-4 z"
     fill="#ffb6c1"
     opacity="0.5"
     id="path28" />
  <!-- Additional tiny heart on chocolate -->
  <path
     d="m 125,25 c 0,-1.5 1,-2 2,-2 0.5,0 1,0.5 1,1 0,-0.5 0.5,-1 1,-1 1,0.5 1.5,1 1.5,2 0,1.5 -2.5,3 -2.5,3 0,0 -3,-1.5 -3,-3 z"
     fill="#ffdab9"
     opacity="0.4"
     id="path30" />
</svg>
