<?xml version="1.0" encoding="UTF-8" standalone="no"?>
<svg
   width="154"
   height="88.25"
   viewBox="0 0 154 88.25"
   version="1.1"
   id="svg28"
   xmlns="http://www.w3.org/2000/svg"
   xmlns:svg="http://www.w3.org/2000/svg">
  <defs
     id="defs32" />
  <!-- Soft shadow -->
  <ellipse
     cx="75"
     cy="71.25"
     rx="65"
     ry="12"
     fill="#000000"
     opacity="0.08"
     id="ellipse2" />
  <!-- White sticker border -->
  <path
     d="m 75,1.25 q -30,-5 -55,10 -15,15 -10,35 5,20 30,33 20,9 35,7 15,2 35,-7 25,-13 30,-33 5,-20 -10,-35 -25,-15 -55,-10 z"
     fill="#ffffff"
     id="path4" />
  <!-- Upper lip outline - cocoa brown -->
  <path
     d="m 15,46.25 q 2,-18 17,-30 15,-10 30,-5 8,3 13,5 5,-2 13,-5 15,-5 30,5 15,12 17,30"
     fill="none"
     stroke="#8b6f47"
     stroke-width="8"
     stroke-linejoin="round"
     id="path6" />
  <!-- Upper lip fill - baby pink -->
  <path
     d="m 18,46.25 q 2,-16 16,-27 14,-9 28,-5 7,3 13,5 6,-2 13,-5 14,-4 28,5 14,11 16,27 z"
     fill="#ffd4e5"
     id="path8" />
  <!-- Lower lip outline - cocoa brown -->
  <path
     d="m 15,46.25 q -2,15 15,28 20,10 45,10 25,0 45,-10 17,-13 15,-28"
     fill="none"
     stroke="#8b6f47"
     stroke-width="8"
     stroke-linejoin="round"
     id="path10" />
  <!-- Lower lip fill - baby pink (slightly deeper shade) -->
  <path
     d="m 18,46.25 q -2,13 14,25 19,10 43,10 24,0 43,-10 16,-12 14,-25 z"
     fill="#ffb6c1"
     id="path12" />
  <!-- Center line where lips meet - curved like natural lips -->
  <path
     d="m 15,46.25 q 20,5 40,4 10,-1 20,-1 10,0 20,1 20,1 40,-4"
     fill="none"
     stroke="#8b6f47"
     stroke-width="3"
     id="path14" />
  <!-- Glossy highlight on upper lip -->
  <ellipse
     cx="45.029419"
     cy="32.563995"
     rx="20"
     ry="10"
     fill="#ffffff"
     opacity="0.5"
     transform="rotate(-10)"
     id="ellipse16" />
  <!-- Glossy highlight on lower lip -->
  <ellipse
     cx="75"
     cy="61.25"
     rx="35"
     ry="10"
     fill="#ffffff"
     opacity="0.4"
     id="ellipse18" />
  <!-- Subtle shading at bottom of lower lip -->
  <ellipse
     cx="75"
     cy="76.25"
     rx="42"
     ry="10"
     fill="#000000"
     opacity="0.06"
     id="ellipse20" />
  <!-- Tiny sparkles -->
  <circle
     cx="145"
     cy="31.25"
     r="3"
     fill="#ffffff"
     opacity="0.8"
     id="circle22" />
  <circle
     cx="152"
     cy="38.25"
     r="2"
     fill="#ffffff"
     opacity="0.6"
     id="circle24" />
  <!-- Tiny heart accent -->
  <path
     d="m 0,31.25 c 0,-2 1,-3 2,-3 1,0 1,1 1,1 0,0 1,-1 1,-1 1,0 2,1 2,3 0,2 -3,4 -3,4 0,0 -3,-2 -3,-4 z"
     fill="#ffb6c1"
     opacity="0.5"
     id="path26" />
</svg>
