<?xml version="1.0" encoding="UTF-8" standalone="no"?>
<svg
   width="141"
   height="150"
   viewBox="0 0 141 150"
   version="1.1"
   id="svg56"
   xmlns="http://www.w3.org/2000/svg"
   xmlns:svg="http://www.w3.org/2000/svg">
  <defs
     id="defs60" />
  <!-- Soft shadow -->
  <ellipse
     cx="70"
     cy="125"
     rx="70"
     ry="12"
     fill="#000000"
     opacity="0.08"
     id="ellipse2" />
  <!-- White sticker border -->
  <rect
     x="15"
     y="0"
     width="110"
     height="150"
     rx="8"
     fill="#ffffff"
     id="rect4" />
  <!-- Main parchment body - cocoa outline -->
  <rect
     x="23"
     y="30"
     width="94"
     height="90"
     fill="none"
     stroke="#8b6f47"
     stroke-width="8"
     id="rect6" />
  <!-- Main parchment body - cream fill -->
  <rect
     x="27"
     y="34"
     width="86"
     height="82"
     fill="#f5e6d3"
     id="rect8" />
  <!-- Top wooden rod -->
  <rect
     x="23"
     y="8"
     width="94"
     height="18"
     rx="9"
     fill="none"
     stroke="#8b6f47"
     stroke-width="8"
     id="rect10" />
  <rect
     x="27"
     y="12"
     width="86"
     height="14"
     rx="7"
     fill="#d4a574"
     id="rect12" />
  <!-- Rod highlight -->
  <rect
     x="30"
     y="14"
     width="30"
     height="5"
     rx="2"
     fill="#ffffff"
     opacity="0.4"
     id="rect14" />
  <!-- Bottom wooden rod -->
  <rect
     x="23"
     y="124"
     width="94"
     height="18"
     rx="9"
     fill="none"
     stroke="#8b6f47"
     stroke-width="8"
     id="rect16" />
  <rect
     x="27"
     y="128"
     width="86"
     height="14"
     rx="7"
     fill="#d4a574"
     id="rect18" />
  <!-- Rod highlight -->
  <rect
     x="30"
     y="130"
     width="30"
     height="5"
     rx="2"
     fill="#ffffff"
     opacity="0.4"
     id="rect20" />
  <!-- Paper rolled edge at top (showing paper attached to rod) -->
  <path
     d="m 27,26 q 43,-4 86,0"
     fill="none"
     stroke="#8b6f47"
     stroke-width="3"
     id="path22" />
  <path
     d="m 27,28 q 43,-4 86,0"
     fill="#f5e6d3"
     id="path24" />
  <!-- Paper rolled edge at bottom (showing paper attached to rod) -->
  <path
     d="m 27,120 q 43,4 86,0"
     fill="none"
     stroke="#8b6f47"
     stroke-width="3"
     id="path26" />
  <path
     d="m 27,118 q 43,4 86,0"
     fill="#f5e6d3"
     id="path28" />
  <!-- Decorative text lines on scroll -->
  <line
     x1="40"
     y1="50"
     x2="100"
     y2="50"
     stroke="#8b6f47"
     stroke-width="3"
     stroke-linecap="round"
     opacity="0.3"
     id="line30" />
  <line
     x1="40"
     y1="65"
     x2="100"
     y2="65"
     stroke="#8b6f47"
     stroke-width="3"
     stroke-linecap="round"
     opacity="0.3"
     id="line32" />
  <line
     x1="40"
     y1="80"
     x2="90"
     y2="80"
     stroke="#8b6f47"
     stroke-width="3"
     stroke-linecap="round"
     opacity="0.3"
     id="line34" />
  <!-- Heart seal -->
  <circle
     cx="70"
     cy="100"
     r="18"
     fill="#ffffff"
     id="circle36" />
  <circle
     cx="70"
     cy="100"
     r="16"
     fill="none"
     stroke="#8b6f47"
     stroke-width="4"
     id="circle38" />
  <circle
     cx="70"
     cy="100"
     r="13"
     fill="#ffb6c1"
     id="circle40" />
  <!-- Heart shape in seal -->
  <path
     d="m 70,107 c 0,0 -7,-6 -7,-10 0,-2 1,-3 2.5,-3 1,0 2,0.5 4.5,3 2.5,-2.5 3.5,-3 4.5,-3 1.5,0 2.5,1 2.5,3 0,4 -7,10 -7,10 z"
     fill="#ffffff"
     id="path42" />
  <!-- Gentle highlight on parchment -->
  <rect
     x="32"
     y="38"
     width="35"
     height="75"
     fill="#ffffff"
     opacity="0.15"
     id="rect44" />
  <!-- Subtle shading on parchment bottom -->
  <rect
     x="27"
     y="95"
     width="86"
     height="21"
     fill="#000000"
     opacity="0.04"
     id="rect46" />
  <!-- Tiny sparkles around seal -->
  <circle
     cx="95"
     cy="85"
     r="2.5"
     fill="#ffffff"
     opacity="0.8"
     id="circle48" />
  <circle
     cx="45"
     cy="88"
     r="2"
     fill="#ffffff"
     opacity="0.7"
     id="circle50" />
  <circle
     cx="85"
     cy="105"
     r="2"
     fill="#ffffff"
     opacity="0.7"
     id="circle52" />
  <!-- Tiny heart accent (floating) -->
  <path
     d="m 135,60 c 0,-2 1,-3 2,-3 1,0 1,1 1,1 0,0 1,-1 1,-1 1,0 2,1 2,3 0,2 -3,4 -3,4 0,0 -3,-2 -3,-4 z"
     fill="#ffb6c1"
     opacity="0.5"
     id="path54" />
</svg>
