<?xml version="1.0" encoding="UTF-8" standalone="no"?>
<svg
   width="132"
   height="151"
   viewBox="0 0 132 151"
   version="1.1"
   id="svg54"
   xmlns="http://www.w3.org/2000/svg"
   xmlns:svg="http://www.w3.org/2000/svg">
  <defs
     id="defs58" />
  <!-- Soft shadow -->
  <ellipse
     cx="66"
     cy="120"
     rx="55"
     ry="12"
     fill="#000000"
     opacity="0.08"
     id="ellipse2" />
  <!-- White sticker border -->
  <g
     id="g8"
     transform="translate(-134,-135)">
    <!-- Ring band border -->
    <circle
       cx="200"
       cy="220"
       fill="none"
       stroke="#ffffff"
       stroke-width="28"
       id="ellipse4"
       r="52" />
    <!-- Diamond/gem border -->
    <path
       d="m 200,135 20,20 -10,20 h -20 l -10,-20 z"
       fill="#ffffff"
       id="path6" />
  </g>
  <!-- Ring band - cocoa brown outline (outer) -->
  <circle
     cx="66"
     cy="85"
     fill="none"
     stroke="#8b6f47"
     stroke-width="12"
     id="ellipse10"
     r="48" />
  <!-- Ring band - soft gold/peach fill -->
  <circle
     cx="66"
     cy="85"
     fill="none"
     stroke="#ffdab9"
     stroke-width="8"
     id="ellipse12"
     r="42" />
  <!-- Ring band - cocoa brown outline (inner) -->
  <circle
     cx="66"
     cy="85"
     fill="none"
     stroke="#8b6f47"
     stroke-width="4"
     id="ellipse14"
     r="38" />
  <!-- Ring band inner shadow -->
  <circle
     cx="66"
     cy="90"
     fill="none"
     stroke="#000000"
     stroke-width="2"
     opacity="0.1"
     id="ellipse16"
     r="36" />
  <!-- Ring band highlight -->
  <path
     d="M 31,60 Q 46,50 66,50"
     fill="none"
     stroke="#ffffff"
     stroke-width="3"
     stroke-linecap="round"
     opacity="0.6"
     id="path18" />
  <!-- Diamond/gem setting base - cocoa outline -->
  <rect
     x="54"
     y="30"
     width="24"
     height="18"
     rx="3"
     fill="#8b6f47"
     id="rect20" />
  <!-- Diamond/gem setting base - soft gold fill -->
  <rect
     x="56"
     y="32"
     width="20"
     height="14"
     rx="2"
     fill="#ffd4a3"
     id="rect22" />
  <!-- Diamond gem - cocoa outline -->
  <path
     d="M 66,3 84,21 74,38 H 58 L 48,21 Z"
     fill="#8b6f47"
     id="path24" />
  <!-- Diamond gem - baby pink fill -->
  <path
     d="M 66,7 81,22 73,35 H 59 L 51,22 Z"
     fill="#ffd4e5"
     id="path26" />
  <!-- Diamond facets - cocoa lines for detail -->
  <line
     x1="66"
     y1="7"
     x2="66"
     y2="35"
     stroke="#8b6f47"
     stroke-width="2"
     id="line28" />
  <line
     x1="51"
     y1="22"
     x2="81"
     y2="22"
     stroke="#8b6f47"
     stroke-width="2"
     id="line30" />
  <line
     x1="51"
     y1="22"
     x2="59"
     y2="35"
     stroke="#8b6f47"
     stroke-width="1.5"
     id="line32" />
  <line
     x1="81"
     y1="22"
     x2="73"
     y2="35"
     stroke="#8b6f47"
     stroke-width="1.5"
     id="line34" />
  <line
     x1="51"
     y1="22"
     x2="66"
     y2="7"
     stroke="#8b6f47"
     stroke-width="1.5"
     id="line36" />
  <line
     x1="81"
     y1="22"
     x2="66"
     y2="7"
     stroke="#8b6f47"
     stroke-width="1.5"
     id="line38" />
  <!-- Diamond shine/sparkle -->
  <circle
     cx="61"
     cy="15"
     r="3"
     fill="#ffffff"
     opacity="0.9"
     id="circle40" />
  <circle
     cx="71"
     cy="20"
     r="2"
     fill="#ffffff"
     opacity="0.7"
     id="circle42" />
  <!-- Gentle highlight on diamond top -->
  <path
     d="m 58,10 8,-3 8,3"
     fill="#ffffff"
     opacity="0.4"
     id="path44" />
  <!-- Tiny sparkles around ring -->
  <circle
     cx="106"
     cy="65"
     r="3"
     fill="#ffffff"
     opacity="0.8"
     id="circle46" />
  <circle
     cx="113"
     cy="72"
     r="2"
     fill="#ffffff"
     opacity="0.6"
     id="circle48" />
  <circle
     cx="26"
     cy="70"
     r="2.5"
     fill="#ffffff"
     opacity="0.7"
     id="circle50" />
  <!-- Tiny heart accent -->
  <path
     d="m 16,55 c 0,-2 1,-3 2,-3 1,0 1,1 1,1 0,0 1,-1 1,-1 1,0 2,1 2,3 0,2 -3,4 -3,4 0,0 -3,-2 -3,-4 z"
     fill="#ffb6c1"
     opacity="0.5"
     id="path52" />
</svg>
