<svg width="400" height="400" viewBox="0 0 400 400" xmlns="http://www.w3.org/2000/svg">
  <!-- Soft shadow -->
  <ellipse cx="200" cy="255" rx="55" ry="12" fill="#000000" opacity="0.08"/>
  
  <!-- White sticker border -->
  <g>
    <!-- Ring band border -->
    <ellipse cx="200" cy="220" rx="52" ry="52" fill="none" stroke="#FFFFFF" stroke-width="28"/>
    <!-- Diamond/gem border -->
    <path d="M 200 135 L 220 155 L 210 175 L 190 175 L 180 155 Z" fill="#FFFFFF"/>
  </g>
  
  <!-- Ring band - cocoa brown outline (outer) -->
  <ellipse cx="200" cy="220" rx="48" ry="48" fill="none" stroke="#8B6F47" stroke-width="12"/>
  
  <!-- Ring band - soft gold/peach fill -->
  <ellipse cx="200" cy="220" rx="42" ry="42" fill="none" stroke="#FFDAB9" stroke-width="8"/>
  
  <!-- Ring band - cocoa brown outline (inner) -->
  <ellipse cx="200" cy="220" rx="38" ry="38" fill="none" stroke="#8B6F47" stroke-width="4"/>
  
  <!-- Ring band inner shadow -->
  <ellipse cx="200" cy="225" rx="36" ry="36" fill="none" stroke="#000000" stroke-width="2" opacity="0.1"/>
  
  <!-- Ring band highlight -->
  <path d="M 165 195 Q 180 185 200 185" fill="none" stroke="#FFFFFF" stroke-width="3" stroke-linecap="round" opacity="0.6"/>
  
  <!-- Diamond/gem setting base - cocoa outline -->
  <rect x="188" y="165" width="24" height="18" rx="3" fill="#8B6F47"/>
  
  <!-- Diamond/gem setting base - soft gold fill -->
  <rect x="190" y="167" width="20" height="14" rx="2" fill="#FFD4A3"/>
  
  <!-- Diamond gem - cocoa outline -->
  <path d="M 200 138 L 218 156 L 208 173 L 192 173 L 182 156 Z" fill="#8B6F47"/>
  
  <!-- Diamond gem - baby pink fill -->
  <path d="M 200 142 L 215 157 L 207 170 L 193 170 L 185 157 Z" fill="#FFD4E5"/>
  
  <!-- Diamond facets - cocoa lines for detail -->
  <line x1="200" y1="142" x2="200" y2="170" stroke="#8B6F47" stroke-width="2"/>
  <line x1="185" y1="157" x2="215" y2="157" stroke="#8B6F47" stroke-width="2"/>
  <line x1="185" y1="157" x2="193" y2="170" stroke="#8B6F47" stroke-width="1.5"/>
  <line x1="215" y1="157" x2="207" y2="170" stroke="#8B6F47" stroke-width="1.5"/>
  <line x1="185" y1="157" x2="200" y2="142" stroke="#8B6F47" stroke-width="1.5"/>
  <line x1="215" y1="157" x2="200" y2="142" stroke="#8B6F47" stroke-width="1.5"/>
  
  <!-- Diamond shine/sparkle -->
  <circle cx="195" cy="150" r="3" fill="#FFFFFF" opacity="0.9"/>
  <circle cx="205" cy="155" r="2" fill="#FFFFFF" opacity="0.7"/>
  
  <!-- Gentle highlight on diamond top -->
  <path d="M 192 145 L 200 142 L 208 145" fill="#FFFFFF" opacity="0.4"/>
  
  <!-- Tiny sparkles around ring -->
  <circle cx="240" cy="200" r="3" fill="#FFFFFF" opacity="0.8"/>
  <circle cx="247" cy="207" r="2" fill="#FFFFFF" opacity="0.6"/>
  <circle cx="160" cy="205" r="2.5" fill="#FFFFFF" opacity="0.7"/>
  
  <!-- Tiny heart accent -->
  <path d="M 150 190 C 150 188 151 187 152 187 C 153 187 153 188 153 188 C 153 188 154 187 154 187 C 155 187 156 188 156 190 C 156 192 153 194 153 194 C 153 194 150 192 150 190 Z" fill="#FFB6C1" opacity="0.5"/>
</svg>