<?xml version="1.0" encoding="UTF-8" standalone="no"?>
<svg
   width="168"
   height="151"
   viewBox="0 0 168 151"
   version="1.1"
   id="svg58"
   xmlns="http://www.w3.org/2000/svg"
   xmlns:svg="http://www.w3.org/2000/svg">
  <defs
     id="defs62" />
  <!-- Soft shadow -->
  <ellipse
     cx="84"
     cy="139"
     rx="75"
     ry="12"
     fill="#000000"
     opacity="0.08"
     id="ellipse2" />
  <!-- White sticker border -->
  <g
     id="g10"
     transform="translate(-116,-116)">
    <!-- Left ear border -->
    <circle
       cx="150"
       cy="150"
       r="34"
       fill="#ffffff"
       id="circle4" />
    <!-- Right ear border -->
    <circle
       cx="250"
       cy="150"
       r="34"
       fill="#ffffff"
       id="circle6" />
    <!-- Head border -->
    <circle
       cx="200"
       cy="190"
       r="62"
       fill="#ffffff"
       id="circle8" />
  </g>
  <!-- Left ear - cocoa outline -->
  <circle
     cx="34"
     cy="34"
     r="30"
     fill="none"
     stroke="#8b6f47"
     stroke-width="6"
     id="circle12" />
  <!-- Left ear - soft brown fill -->
  <circle
     cx="34"
     cy="34"
     r="26"
     fill="#d4a574"
     id="circle14" />
  <!-- Left ear inner - lighter cream -->
  <circle
     cx="34"
     cy="34"
     r="16"
     fill="#f5e6d3"
     id="circle16" />
  <!-- Right ear - cocoa outline -->
  <circle
     cx="134"
     cy="34"
     r="30"
     fill="none"
     stroke="#8b6f47"
     stroke-width="6"
     id="circle18" />
  <!-- Right ear - soft brown fill -->
  <circle
     cx="134"
     cy="34"
     r="26"
     fill="#d4a574"
     id="circle20" />
  <!-- Right ear inner - lighter cream -->
  <circle
     cx="134"
     cy="34"
     r="16"
     fill="#f5e6d3"
     id="circle22" />
  <!-- Head - cocoa outline -->
  <circle
     cx="84"
     cy="74"
     r="58"
     fill="none"
     stroke="#8b6f47"
     stroke-width="8"
     id="circle24" />
  <!-- Head - soft brown fill -->
  <circle
     cx="84"
     cy="74"
     r="53"
     fill="#d4a574"
     id="circle26" />
  <!-- Face/muzzle area - cream -->
  <ellipse
     cx="84"
     cy="89"
     rx="35"
     ry="30"
     fill="#f5e6d3"
     id="ellipse28" />
  <!-- Left eye - cocoa brown -->
  <circle
     cx="64"
     cy="64"
     r="5"
     fill="#8b6f47"
     id="circle30" />
  <!-- Left eye shine -->
  <circle
     cx="66"
     cy="62"
     r="2"
     fill="#ffffff"
     id="circle32" />
  <!-- Right eye - cocoa brown -->
  <circle
     cx="104"
     cy="64"
     r="5"
     fill="#8b6f47"
     id="circle34" />
  <!-- Right eye shine -->
  <circle
     cx="106"
     cy="62"
     r="2"
     fill="#ffffff"
     id="circle36" />
  <!-- Nose - cocoa brown (small triangle) -->
  <ellipse
     cx="84"
     cy="84"
     rx="6"
     ry="5"
     fill="#8b6f47"
     id="ellipse38" />
  <!-- Nose highlight -->
  <ellipse
     cx="83"
     cy="83"
     rx="2"
     ry="1.5"
     fill="#ffffff"
     opacity="0.6"
     id="ellipse40" />
  <!-- Mouth - simple smile -->
  <path
     d="m 74,94 q 10,6 20,0"
     fill="none"
     stroke="#8b6f47"
     stroke-width="3"
     stroke-linecap="round"
     id="path42" />
  <!-- Tiny blush cheeks - soft pink -->
  <ellipse
     cx="54"
     cy="79"
     rx="10"
     ry="7"
     fill="#ffb6c1"
     opacity="0.5"
     id="ellipse44" />
  <ellipse
     cx="114"
     cy="79"
     rx="10"
     ry="7"
     fill="#ffb6c1"
     opacity="0.5"
     id="ellipse46" />
  <!-- Subtle shading at bottom of head -->
  <ellipse
     cx="84"
     cy="109"
     rx="45"
     ry="15"
     fill="#000000"
     opacity="0.04"
     id="ellipse48" />
  <!-- Gentle highlight on top of head -->
  <ellipse
     cx="74"
     cy="49"
     rx="25"
     ry="15"
     fill="#ffffff"
     opacity="0.3"
     id="ellipse50" />
  <!-- Tiny sparkles -->
  <circle
     cx="144"
     cy="59"
     r="3"
     fill="#ffffff"
     opacity="0.8"
     id="circle52" />
  <circle
     cx="151"
     cy="66"
     r="2"
     fill="#ffffff"
     opacity="0.6"
     id="circle54" />
  <!-- Tiny heart accent -->
  <path
     d="m 19,59 c 0,-2 1,-3 2,-3 1,0 1,1 1,1 0,0 1,-1 1,-1 1,0 2,1 2,3 0,2 -3,4 -3,4 0,0 -3,-2 -3,-4 z"
     fill="#ffb6c1"
     opacity="0.5"
     id="path56" />
</svg>
