<?xml version="1.0" encoding="UTF-8" standalone="no"?>
<svg
   width="150"
   height="142"
   viewBox="0 0 150 142"
   version="1.1"
   id="svg30"
   xmlns="http://www.w3.org/2000/svg"
   xmlns:svg="http://www.w3.org/2000/svg">
  <defs
     id="defs34" />
  <!-- Soft shadow -->
  <ellipse
     cx="80"
     cy="130"
     rx="70"
     ry="12"
     fill="#000000"
     opacity="0.08"
     id="ellipse2" />
  <!-- White sticker border (heart shape) -->
  <path
     d="M 80,140 C 80,140 10,80 10,40 10,15 30,0 55,0 70,0 78,7 80,18 82,7 90,0 105,0 c 25,15 45,15 45,40 0,40 -70,100 -70,100 z"
     fill="#ffffff"
     id="path4" />
  <!-- Cocoa brown outline (heart shape) -->
  <path
     d="M 80,132 C 80,132 18,75 18,40 18,18 35,6 57,6 71,6 78,12 80,22 82,12 89,6 103,6 c 22,0 39,12 39,34 0,35 -62,92 -62,92 z"
     fill="none"
     stroke="#8b6f47"
     stroke-width="10"
     id="path6" />
  <!-- Baby pink fill (heart shape) -->
  <path
     d="M 80,125 C 80,125 25,72 25,40 25,21 40,10 59,10 c 13,0 19,6 21,15 2,-9 8,-15 21,-15 19,0 34,11 34,30 0,32 -55,85 -55,85 z"
     fill="#ffd4e5"
     id="path8" />
  <!-- Soft golden highlight (top left area) -->
  <path
     d="m 50,25 q -5,5 -8,15 -2,10 3,20 L 65,35 Q 60,25 50,25 Z"
     fill="#ffd4a3"
     opacity="0.6"
     id="path10" />
  <!-- Additional soft golden glow -->
  <ellipse
     cx="39.712391"
     cy="51.700348"
     rx="25"
     ry="20"
     fill="#ffd4a3"
     opacity="0.4"
     transform="rotate(-20)"
     id="ellipse12" />
  <!-- Subtle inner shading at bottom of heart -->
  <path
     d="m 80,125 c 0,0 -55,-53 -55,-85 0,0 10,60 55,85 45,-25 55,-85 55,-85 0,32 -55,85 -55,85 z"
     fill="#000000"
     opacity="0.04"
     id="path14" />
  <!-- Gentle white highlight shine on top -->
  <ellipse
     cx="55.020607"
     cy="45.801014"
     rx="22"
     ry="15"
     fill="#ffffff"
     opacity="0.5"
     transform="rotate(-15)"
     id="ellipse16" />
  <!-- Additional shine accent -->
  <ellipse
     cx="95"
     cy="35"
     rx="15"
     ry="10"
     fill="#ffffff"
     opacity="0.3"
     id="ellipse18" />
  <!-- Tiny sparkles around the heart -->
  <circle
     cx="25"
     cy="25"
     r="3"
     fill="#ffd4a3"
     opacity="0.8"
     id="circle20" />
  <circle
     cx="135"
     cy="25"
     r="3"
     fill="#ffd4a3"
     opacity="0.8"
     id="circle22" />
  <circle
     cx="15"
     cy="60"
     r="2.5"
     fill="#ffffff"
     opacity="0.8"
     id="circle24" />
  <circle
     cx="145"
     cy="60"
     r="2.5"
     fill="#ffffff"
     opacity="0.8"
     id="circle26" />
  <!-- Tiny heart accent -->
  <path
     d="m 0,35 c 0,-2 1,-3 2,-3 1,0 1,1 1,1 0,0 1,-1 1,-1 1,0 2,1 2,3 0,2 -3,4 -3,4 0,0 -3,-2 -3,-4 z"
     fill="#ffb6c1"
     opacity="0.5"
     id="path28" />
</svg>
