<svg width="300" height="250" viewBox="0 0 300 250" xmlns="http://www.w3.org/2000/svg">
  <!-- Shadow -->
  <ellipse cx="150" cy="210" rx="70" ry="12" fill="#000000" opacity="0.08"/>
  
  <!-- White border -->
  <rect x="60" y="80" width="180" height="140" rx="10" fill="#FFFFFF"/>
  
  <!-- Box lid -->
  <rect x="67" y="87" width="166" height="50" rx="8" fill="none" stroke="#8B6F47" stroke-width="6"/>
  <rect x="72" y="92" width="156" height="40" rx="6" fill="#E6D4FF"/>
  
  <!-- Box bottom -->
  <rect x="67" y="137" width="166" height="78" rx="8" fill="none" stroke="#8B6F47" stroke-width="6"/>
  <rect x="72" y="142" width="156" height="68" rx="6" fill="#F5E6D3"/>
  
  <!-- Ribbon -->
  <rect x="72" y="105" width="156" height="10" fill="#FFDAB9"/>
  
  <!-- Heart seal -->
  <circle cx="150" cy="175" r="16" fill="#FFFFFF"/>
  <circle cx="150" cy="175" r="14" fill="none" stroke="#8B6F47" stroke-width="3"/>
  <circle cx="150" cy="175" r="11" fill="#FFB6C1"/>
  <path d="M 150 182 C 150 182 143 176 143 172 C 143 170 144 169 145.5 169 C 146.5 169 147.5 170 150 172.5 C 152.5 170 153.5 169 154.5 169 C 156 169 157 170 157 172 C 157 176 150 182 150 182 Z" fill="#FFFFFF"/>
  
  <!-- Sparkle -->
  <circle cx="235" cy="100" r="3" fill="#FFFFFF" opacity="0.8"/>
</svg>