<svg width="500" height="400" viewBox="0 0 500 400" xmlns="http://www.w3.org/2000/svg">
  <!-- Shadow -->
  <ellipse cx="250" cy="245" rx="170" ry="18" fill="#000000" opacity="0.08"/>
  
  <!-- White border -->
  <rect x="80" y="90" width="340" height="200" fill="#FFFFFF"/>
  
  <!-- Scroll paper -->
  <rect x="90" y="100" width="320" height="180" fill="none" stroke="#8B6F47" stroke-width="8"/>
  <rect x="95" y="105" width="310" height="170" fill="#F5E6D3"/>
  
  <!-- Top rod -->
  <rect x="90" y="85" width="320" height="20" rx="10" fill="none" stroke="#8B6F47" stroke-width="6"/>
  <rect x="95" y="90" width="310" height="15" rx="8" fill="#D4A574"/>
  <ellipse cx="250" cy="98" rx="140" ry="4" fill="#F5E6D3" opacity="0.8"/>
  
  <!-- Bottom rod -->
  <rect x="90" y="275" width="320" height="20" rx="10" fill="none" stroke="#8B6F47" stroke-width="6"/>
  <rect x="95" y="280" width="310" height="15" rx="8" fill="#D4A574"/>
  <ellipse cx="250" cy="287" rx="140" ry="4" fill="#F5E6D3" opacity="0.8"/>
  
  <!-- Decorative lines (text space indication) -->
  <line x1="120" y1="140" x2="380" y2="140" stroke="#8B6F47" stroke-width="2" opacity="0.2"/>
  <line x1="120" y1="170" x2="380" y2="170" stroke="#8B6F47" stroke-width="2" opacity="0.2"/>
  <line x1="120" y1="200" x2="350" y2="200" stroke="#8B6F47" stroke-width="2" opacity="0.2"/>
  <line x1="120" y1="230" x2="380" y2="230" stroke="#8B6F47" stroke-width="2" opacity="0.2"/>
  
  <!-- Highlight -->
  <rect x="110" y="110" width="80" height="160" fill="#FFFFFF" opacity="0.2"/>
  
  <!-- Sparkles -->
  <circle cx="425" cy="115" r="3" fill="#FFFFFF" opacity="0.8"/>
  <circle cx="75" cy="115" r="3" fill="#FFFFFF" opacity="0.8"/>
  
  <!-- Heart -->
  <path d="M 60 190 C 60 188 61 187 62 187 C 63 187 63 188 63 188 C 63 188 64 187 64 187 C 65 187 66 188 66 190 C 66 192 63 194 63 194 C 63 194 60 192 60 190 Z" fill="#FFB6C1" opacity="0.5"/>
</svg>