<?xml version="1.0" encoding="UTF-8" standalone="no"?>
<svg
   width="260"
   height="80"
   viewBox="0 0 260 80"
   version="1.1"
   id="svg20"
   xmlns="http://www.w3.org/2000/svg"
   xmlns:svg="http://www.w3.org/2000/svg">
  <defs
     id="defs24" />
  <!-- Soft shadow -->
  <ellipse
     cx="130"
     cy="45"
     rx="110"
     ry="18"
     fill="#000000"
     opacity="0.08"
     id="ellipse2" />
  <!-- White sticker border -->
  <rect
     x="0"
     y="0"
     width="260"
     height="80"
     rx="40"
     fill="#ffffff"
     id="rect4" />
  <!-- Cocoa brown outline -->
  <rect
     x="8"
     y="8"
     width="244"
     height="64"
     rx="32"
     fill="#8b6f47"
     stroke="none"
     id="rect6" />
  <!-- Cream/beige fill -->
  <rect
     x="14"
     y="14"
     width="232"
     height="52"
     rx="26"
     fill="#f5e6d3"
     id="rect8" />
  <!-- Subtle inner shading (bottom) -->
  <rect
     x="14"
     y="40"
     width="232"
     height="26"
     rx="26"
     fill="#000000"
     opacity="0.03"
     id="rect10" />
  <!-- Gentle highlight shine (top curved) -->
  <ellipse
     cx="130"
     cy="25"
     rx="90"
     ry="12"
     fill="#ffffff"
     opacity="0.4"
     id="ellipse12" />
  <!-- Tiny sparkle accent (top right) -->
  <circle
     cx="200"
     cy="20"
     r="3"
     fill="#ffffff"
     opacity="0.8"
     id="circle14" />
  <circle
     cx="205"
     cy="28"
     r="2"
     fill="#ffffff"
     opacity="0.6"
     id="circle16" />
  <!-- Tiny heart accent (left side) -->
  <path
     d="m 60,35 c 0,-3 2,-5 4,-5 1,0 2,1 2,2 0,-1 1,-2 2,-2 2,0 4,2 4,5 0,3 -6,7 -6,7 0,0 -6,-4 -6,-7 z"
     fill="#ffb6c1"
     opacity="0.5"
     id="path18" />
</svg>
