<?xml version="1.0" encoding="UTF-8" standalone="no"?>
<svg
   width="150"
   height="120"
   viewBox="0 0 150 120"
   version="1.1"
   id="svg36"
   xmlns="http://www.w3.org/2000/svg"
   xmlns:svg="http://www.w3.org/2000/svg">
  <defs
     id="defs40" />
  <!-- Soft shadow -->
  <ellipse
     cx="75"
     cy="100"
     rx="65"
     ry="12"
     fill="#000000"
     opacity="0.08"
     id="ellipse2" />
  <!-- White sticker border -->
  <g
     id="g10"
     transform="translate(-125,-145)">
    <!-- Tray border -->
    <rect
       x="125"
       y="215"
       width="150"
       height="50"
       rx="12"
       fill="#ffffff"
       id="rect4" />
    <!-- Arrow shaft border -->
    <rect
       x="185"
       y="145"
       width="30"
       height="75"
       rx="8"
       fill="#ffffff"
       id="rect6" />
    <!-- Arrow head border -->
    <path
       d="m 155,195 45,45 45,-45 z"
       fill="#ffffff"
       id="path8" />
  </g>
  <!-- Cocoa brown outline for tray -->
  <rect
     x="5"
     y="75"
     width="140"
     height="40"
     rx="10"
     fill="none"
     stroke="#8b6f47"
     stroke-width="8"
     id="rect12" />
  <!-- Pastel fill for tray (soft peach) -->
  <rect
     x="10"
     y="80"
     width="130"
     height="30"
     rx="8"
     fill="#ffdab9"
     id="rect14" />
  <!-- Subtle shading on tray bottom -->
  <rect
     x="10"
     y="95"
     width="130"
     height="15"
     rx="8"
     fill="#000000"
     opacity="0.04"
     id="rect16" />
  <!-- Cocoa brown outline for arrow shaft -->
  <rect
     x="65"
     y="5"
     width="20"
     height="65"
     rx="6"
     fill="none"
     stroke="#8b6f47"
     stroke-width="8"
     id="rect18" />
  <!-- Pastel fill for arrow shaft (baby pink) -->
  <rect
     x="69"
     y="9"
     width="12"
     height="57"
     rx="4"
     fill="#ffd4e5"
     id="rect20" />
  <!-- Cocoa brown outline for arrow head -->
  <path
     d="M 40,55 75,85 110,55 75,73 Z"
     fill="#8b6f47"
     id="path22" />
  <!-- Pastel fill for arrow head (soft peach) -->
  <path
     d="M 45,57 75,82 105,57 75,73 Z"
     fill="#ffdab9"
     id="path24" />
  <!-- Highlight on arrow shaft -->
  <rect
     x="70"
     y="11"
     width="4"
     height="50"
     rx="2"
     fill="#ffffff"
     opacity="0.5"
     id="rect26" />
  <!-- Highlight on tray -->
  <ellipse
     cx="75"
     cy="87"
     rx="50"
     ry="6"
     fill="#ffffff"
     opacity="0.3"
     id="ellipse28" />
  <!-- Tiny sparkles -->
  <circle
     cx="120"
     cy="20"
     r="3"
     fill="#ffffff"
     opacity="0.8"
     id="circle30" />
  <circle
     cx="127"
     cy="27"
     r="2"
     fill="#ffffff"
     opacity="0.6"
     id="circle32" />
  <!-- Tiny heart accent -->
  <path
     d="m 25,33 c 0,-3 2,-5 4,-5 1,0 2,1 2,2 0,-1 1,-2 2,-2 2,0 4,2 4,5 0,3 -6,7 -6,7 0,0 -6,-4 -6,-7 z"
     fill="#ffb6c1"
     opacity="0.5"
     id="path34" />
</svg>
