<?xml version="1.0" encoding="UTF-8" standalone="no"?>
<svg
   width="100"
   height="100"
   viewBox="0 0 100 100"
   version="1.1"
   id="svg24"
   xmlns="http://www.w3.org/2000/svg"
   xmlns:svg="http://www.w3.org/2000/svg">
  <defs
     id="defs28" />
  <!-- Soft shadow -->
  <ellipse
     cx="50"
     cy="75"
     rx="50"
     ry="10"
     fill="#000000"
     opacity="0.08"
     id="ellipse2" />
  <!-- White sticker border (heart shape) -->
  <path
     d="M 50,100 C 50,100 0,60 0,30 0,10 15,0 30,0 40,0 48,5 50,12 52,5 60,0 70,0 c 15,0 30,10 30,30 0,30 -50,70 -50,70 z"
     fill="#ffffff"
     id="path4" />
  <!-- Cocoa brown outline (heart shape) -->
  <path
     d="M 50,92 C 50,92 6,55 6,30 6,12 19,4 32,4 41,4 48,9 50,15 52,9 59,4 68,4 81,4 94,12 94,30 94,55 50,92 50,92 Z"
     fill="#8b6f47"
     id="path6" />
  <!-- Baby pink fill (heart shape) -->
  <path
     d="M 50,86 C 50,86 12,52 12,30 12,15 23,8 34,8 42,8 48,12 50,18 52,12 58,8 66,8 77,8 88,15 88,30 88,52 50,86 50,86 Z"
     fill="#ffd4e5"
     id="path8" />
  <!-- Subtle inner shading at bottom of heart -->
  <path
     d="M 50,86 C 50,86 12,52 12,30 12,30 20,70 50,86 80,70 88,30 88,30 88,52 50,86 50,86 Z"
     fill="#000000"
     opacity="0.04"
     id="path10" />
  <!-- X cutout - cocoa brown, small centered X -->
  <!-- Left diagonal of X (top-left to bottom-right) -->
  <line
     x1="38"
     y1="38"
     x2="62"
     y2="62"
     stroke="#8b6f47"
     stroke-width="7"
     stroke-linecap="round"
     id="line12" />
  <!-- Right diagonal of X (top-right to bottom-left) -->
  <line
     x1="62"
     y1="38"
     x2="38"
     y2="62"
     stroke="#8b6f47"
     stroke-width="7"
     stroke-linecap="round"
     id="line14" />
  <!-- Gentle highlight on top of heart -->
  <ellipse
     cx="50"
     cy="25"
     rx="25"
     ry="10"
     fill="#ffffff"
     opacity="0.4"
     id="ellipse16" />
  <!-- Tiny sparkles -->
  <circle
     cx="80"
     cy="15"
     r="3"
     fill="#ffffff"
     opacity="0.8"
     id="circle18" />
  <circle
     cx="86"
     cy="22"
     r="2"
     fill="#ffffff"
     opacity="0.6"
     id="circle20" />
  <!-- Tiny heart accent (top right) -->
  <path
     d="m 70,8 c 0,-2 1,-3 2,-3 1,0 1,1 1,1 0,0 1,-1 1,-1 1,0 2,1 2,3 0,2 -3,4 -3,4 0,0 -3,-2 -3,-4 z"
     fill="#ffb6c1"
     opacity="0.5"
     id="path22" />
</svg>
