<?xml version="1.0" encoding="UTF-8" standalone="no"?>
<svg
   width="240"
   height="134"
   viewBox="0 0 240 134"
   version="1.1"
   id="svg76"
   xmlns="http://www.w3.org/2000/svg"
   xmlns:svg="http://www.w3.org/2000/svg">
  <defs
     id="defs80" />
  <!-- Soft shadow for the whole set -->
  <ellipse
     cx="120"
     cy="105"
     rx="120"
     ry="15"
     fill="#000000"
     opacity="0.06"
     id="ellipse2" />
  <!-- HEART 1 (Baby Pink, top left) -->
  <path
     d="m 50,20 4,-4 4,4 h 4 v 4 l -4,8 -4,4 -4,-4 -4,-8 v -4 z"
     fill="#ffffff"
     id="path4" />
  <path
     d="m 51,21 c 0,-2 1,-3 2,-3 1,0 1,1 1,1 0,0 1,-1 1,-1 1,0 2,1 2,3 0,2 -3,5 -3,5 0,0 -3,-3 -3,-5 z"
     fill="#8b6f47"
     id="path6" />
  <path
     d="m 52,21 c 0,-1.5 0.5,-2 1,-2 0.5,0 1,0.5 1,1 0,-0.5 0.5,-1 1,-1 0.5,0 1,0.5 1,2 0,1.5 -2,3.5 -2,3.5 0,0 -2,-2 -2,-3.5 z"
     fill="#ffd4e5"
     id="path8" />
  <!-- HEART 2 (Soft Orange, top center) -->
  <path
     d="m 130,5 c 0,-3 2,-5 4,-5 1,0 2,1 2,2 0,-1 1,-2 2,-2 2,0 4,2 4,5 0,3 -6,7 -6,7 0,0 -6,-4 -6,-7 z"
     fill="#ffffff"
     id="path10" />
  <path
     d="m 131,5 c 0,-2 1.5,-3.5 3,-3.5 1,0 1.5,0.5 2,1 0.5,-0.5 1,-1 2,-1 1.5,0 3,1.5 3,3.5 0,2.5 -5,6 -5,6 0,0 -5,-3.5 -5,-6 z"
     fill="#8b6f47"
     id="path12" />
  <path
     d="m 132,5 c 0,-1.5 1,-2.5 2,-2.5 1,0 1.5,0.5 2,1 0.5,-0.5 1,-1 2,-1 1,0 2,1 2,2.5 0,2 -4,4.5 -4,4.5 0,0 -4,-2.5 -4,-4.5 z"
     fill="#ffdab9"
     id="path14" />
  <!-- HEART 3 (Cream, top right) -->
  <path
     d="m 195,30 c 0,-2 1,-3 2,-3 1,0 1,1 1,1 0,0 1,-1 1,-1 1,0 2,1 2,3 0,2 -3,4 -3,4 0,0 -3,-2 -3,-4 z"
     fill="#ffffff"
     id="path16" />
  <path
     d="m 196,30 c 0,-1.5 0.5,-2 1,-2 0.5,0 1,0.5 1,1 0,-0.5 0.5,-1 1,-1 0.5,0 1,0.5 1,2 0,1.5 -2,3 -2,3 0,0 -2,-1.5 -2,-3 z"
     fill="#8b6f47"
     id="path18" />
  <path
     d="m 196.5,30 c 0,-1 0.5,-1.5 1,-1.5 0.5,0 0.5,0.5 0.5,1 0,-0.5 0.5,-1 1,-1 0.5,0 0.5,0.5 0.5,1.5 0,1 -1.5,2 -1.5,2 0,0 -1.5,-1 -1.5,-2 z"
     fill="#f5e6d3"
     id="path20" />
  <!-- HEART 4 (Soft Pastel Blue, center) -->
  <path
     d="m 115,65 c 0,-3 2,-5 4,-5 1,0 2,1 2,2 0,-1 1,-2 2,-2 2,0 4,2 4,5 0,3 -6,7 -6,7 0,0 -6,-4 -6,-7 z"
     fill="#ffffff"
     id="path22" />
  <path
     d="m 116,65 c 0,-2 1.5,-3.5 3,-3.5 1,0 1.5,0.5 2,1 0.5,-0.5 1,-1 2,-1 1.5,0 3,1.5 3,3.5 0,2.5 -5,6 -5,6 0,0 -5,-3.5 -5,-6 z"
     fill="#8b6f47"
     id="path24" />
  <path
     d="m 117,65 c 0,-1.5 1,-2.5 2,-2.5 1,0 1.5,0.5 2,1 0.5,-0.5 1,-1 2,-1 1,0 2,1 2,2.5 0,2 -4,4.5 -4,4.5 0,0 -4,-2.5 -4,-4.5 z"
     fill="#d4e5ff"
     id="path26" />
  <!-- HEART 5 (Baby Pink, middle left) -->
  <path
     d="m 65,70 c 0,-2 1,-3 2,-3 1,0 1,1 1,1 0,0 1,-1 1,-1 1,0 2,1 2,3 0,2 -3,4 -3,4 0,0 -3,-2 -3,-4 z"
     fill="#ffffff"
     id="path28" />
  <path
     d="m 66,70 c 0,-1.5 0.5,-2 1,-2 0.5,0 1,0.5 1,1 0,-0.5 0.5,-1 1,-1 0.5,0 1,0.5 1,2 0,1.5 -2,3 -2,3 0,0 -2,-1.5 -2,-3 z"
     fill="#8b6f47"
     id="path30" />
  <path
     d="m 66.5,70 c 0,-1 0.5,-1.5 1,-1.5 0.5,0 0.5,0.5 0.5,1 0,-0.5 0.5,-1 1,-1 0.5,0 0.5,0.5 0.5,1.5 0,1 -1.5,2 -1.5,2 0,0 -1.5,-1 -1.5,-2 z"
     fill="#ffd4e5"
     id="path32" />
  <!-- HEART 6 (Soft Orange, middle right) -->
  <path
     d="m 170,75 c 0,-2 1,-3 2,-3 1,0 1,1 1,1 0,0 1,-1 1,-1 1,0 2,1 2,3 0,2 -3,4 -3,4 0,0 -3,-2 -3,-4 z"
     fill="#ffffff"
     id="path34" />
  <path
     d="m 171,75 c 0,-1.5 0.5,-2 1,-2 0.5,0 1,0.5 1,1 0,-0.5 0.5,-1 1,-1 0.5,0 1,0.5 1,2 0,1.5 -2,3 -2,3 0,0 -2,-1.5 -2,-3 z"
     fill="#8b6f47"
     id="path36" />
  <path
     d="m 171.5,75 c 0,-1 0.5,-1.5 1,-1.5 0.5,0 0.5,0.5 0.5,1 0,-0.5 0.5,-1 1,-1 0.5,0 0.5,0.5 0.5,1.5 0,1 -1.5,2 -1.5,2 0,0 -1.5,-1 -1.5,-2 z"
     fill="#ffdab9"
     id="path38" />
  <!-- HEART 7 (Cream, bottom left) -->
  <path
     d="m 80,110 c 0,-3 2,-5 4,-5 1,0 2,1 2,2 0,-1 1,-2 2,-2 2,0 4,2 4,5 0,3 -6,7 -6,7 0,0 -6,-4 -6,-7 z"
     fill="#ffffff"
     id="path40" />
  <path
     d="m 81,110 c 0,-2 1.5,-3.5 3,-3.5 1,0 1.5,0.5 2,1 0.5,-0.5 1,-1 2,-1 1.5,0 3,1.5 3,3.5 0,2.5 -5,6 -5,6 0,0 -5,-3.5 -5,-6 z"
     fill="#8b6f47"
     id="path42" />
  <path
     d="m 82,110 c 0,-1.5 1,-2.5 2,-2.5 1,0 1.5,0.5 2,1 0.5,-0.5 1,-1 2,-1 1,0 2,1 2,2.5 0,2 -4,4.5 -4,4.5 0,0 -4,-2.5 -4,-4.5 z"
     fill="#f5e6d3"
     id="path44" />
  <!-- HEART 8 (Baby Pink, bottom center) -->
  <path
     d="m 125,120 c 0,-2 1,-3 2,-3 1,0 1,1 1,1 0,0 1,-1 1,-1 1,0 2,1 2,3 0,2 -3,4 -3,4 0,0 -3,-2 -3,-4 z"
     fill="#ffffff"
     id="path46" />
  <path
     d="m 126,120 c 0,-1.5 0.5,-2 1,-2 0.5,0 1,0.5 1,1 0,-0.5 0.5,-1 1,-1 0.5,0 1,0.5 1,2 0,1.5 -2,3 -2,3 0,0 -2,-1.5 -2,-3 z"
     fill="#8b6f47"
     id="path48" />
  <path
     d="m 126.5,120 c 0,-1 0.5,-1.5 1,-1.5 0.5,0 0.5,0.5 0.5,1 0,-0.5 0.5,-1 1,-1 0.5,0 0.5,0.5 0.5,1.5 0,1 -1.5,2 -1.5,2 0,0 -1.5,-1 -1.5,-2 z"
     fill="#ffd4e5"
     id="path50" />
  <!-- HEART 9 (Pastel Blue, bottom right) -->
  <path
     d="m 160,105 c 0,-2 1,-3 2,-3 1,0 1,1 1,1 0,0 1,-1 1,-1 1,0 2,1 2,3 0,2 -3,4 -3,4 0,0 -3,-2 -3,-4 z"
     fill="#ffffff"
     id="path52" />
  <path
     d="m 161,105 c 0,-1.5 0.5,-2 1,-2 0.5,0 1,0.5 1,1 0,-0.5 0.5,-1 1,-1 0.5,0 1,0.5 1,2 0,1.5 -2,3 -2,3 0,0 -2,-1.5 -2,-3 z"
     fill="#8b6f47"
     id="path54" />
  <path
     d="m 161.5,105 c 0,-1 0.5,-1.5 1,-1.5 0.5,0 0.5,0.5 0.5,1 0,-0.5 0.5,-1 1,-1 0.5,0 0.5,0.5 0.5,1.5 0,1 -1.5,2 -1.5,2 0,0 -1.5,-1 -1.5,-2 z"
     fill="#d4e5ff"
     id="path56" />
  <!-- SPARKLES scattered around -->
  <circle
     cx="95"
     cy="35"
     r="2.5"
     fill="#ffffff"
     opacity="0.8"
     id="circle58" />
  <circle
     cx="150"
     cy="45"
     r="3"
     fill="#ffffff"
     opacity="0.8"
     id="circle60" />
  <circle
     cx="100"
     cy="95"
     r="2"
     fill="#ffffff"
     opacity="0.7"
     id="circle62" />
  <circle
     cx="145"
     cy="90"
     r="2.5"
     fill="#ffffff"
     opacity="0.8"
     id="circle64" />
  <circle
     cx="185"
     cy="60"
     r="2"
     fill="#ffffff"
     opacity="0.7"
     id="circle66" />
  <circle
     cx="55"
     cy="50"
     r="2"
     fill="#ffffff"
     opacity="0.7"
     id="circle68" />
  <!-- Four-point sparkles -->
  <path
     d="m 75,40 1,-2 1,2 2,1 -2,1 -1,2 -1,-2 -2,-1 z"
     fill="#fff4d4"
     opacity="0.9"
     id="path70" />
  <path
     d="m 165,28 1,-2 1,2 2,1 -2,1 -1,2 -1,-2 -2,-1 z"
     fill="#ffd4e5"
     opacity="0.9"
     id="path72" />
  <path
     d="m 110,130 1,-2 1,2 2,1 -2,1 -1,2 -1,-2 -2,-1 z"
     fill="#ffdab9"
     opacity="0.9"
     id="path74" />
</svg>
