<?xml version="1.0" encoding="UTF-8" standalone="no"?>
<svg
   width="110"
   height="115"
   viewBox="0 0 110 115"
   version="1.1"
   id="svg26"
   xmlns="http://www.w3.org/2000/svg"
   xmlns:svg="http://www.w3.org/2000/svg">
  <defs
     id="defs30" />
  <!-- Soft shadow -->
  <ellipse
     cx="55"
     cy="90"
     rx="45"
     ry="10"
     fill="#000000"
     opacity="0.08"
     id="ellipse2" />
  <!-- White sticker border (heart shape) -->
  <path
     d="M 55,115 C 55,115 0,70 0,35 0,13 17,0 35,0 47,0 53,5 55,13 57,5 63,0 75,0 c 18,0 35,13 35,35 0,35 -55,80 -55,80 z"
     fill="#ffffff"
     id="path4" />
  <!-- Cocoa brown outline (heart shape) -->
  <path
     d="M 55,107 C 55,107 7,65 7,35 7,16 21,6 37,6 48,6 53,10 55,17 57,10 62,6 73,6 c 16,0 30,10 30,29 0,30 -48,72 -48,72 z"
     fill="#8b6f47"
     id="path6" />
  <!-- Baby pink fill (heart shape) -->
  <path
     d="M 55,100 C 55,100 13,61 13,35 13,19 25,11 39,11 c 10,0 14,4 16,10 2,-6 6,-10 16,-10 14,0 26,8 26,24 0,26 -42,65 -42,65 z"
     fill="#ffd4e5"
     id="path8" />
  <!-- Subtle inner shading at bottom of heart -->
  <path
     d="m 55,100 c 0,0 -42,-39 -42,-65 0,0 7,45 42,65 35,-20 42,-65 42,-65 0,26 -42,65 -42,65 z"
     fill="#000000"
     opacity="0.04"
     id="path10" />
  <!-- Gentle highlight shine on top left of heart -->
  <ellipse
     cx="35"
     cy="30"
     rx="20"
     ry="12"
     fill="#ffffff"
     opacity="0.5"
     id="ellipse12" />
  <!-- Additional subtle shine on top right -->
  <ellipse
     cx="75"
     cy="30"
     rx="15"
     ry="10"
     fill="#ffffff"
     opacity="0.3"
     id="ellipse14" />
  <!-- Tiny sparkles around the heart -->
  <circle
     cx="10"
     cy="20"
     r="3"
     fill="#ffffff"
     opacity="0.8"
     id="circle16" />
  <circle
     cx="100"
     cy="20"
     r="3"
     fill="#ffffff"
     opacity="0.8"
     id="circle18" />
  <circle
     cx="3"
     cy="50"
     r="2"
     fill="#ffffff"
     opacity="0.6"
     id="circle20" />
  <circle
     cx="107"
     cy="50"
     r="2"
     fill="#ffffff"
     opacity="0.6"
     id="circle22" />
  <!-- Tiny heart accent (top right) -->
  <path
     d="m 95,10 c 0,-2 1,-3 2,-3 1,0 1,1 1,1 0,0 1,-1 1,-1 1,0 2,1 2,3 0,2 -3,4 -3,4 0,0 -3,-2 -3,-4 z"
     fill="#ffb6c1"
     opacity="0.5"
     id="path24" />
</svg>
