<?xml version="1.0" encoding="UTF-8" standalone="no"?>
<svg
   width="128"
   height="164"
   viewBox="0 0 128 164"
   version="1.1"
   id="svg34"
   xmlns="http://www.w3.org/2000/svg"
   xmlns:svg="http://www.w3.org/2000/svg">
  <defs
     id="defs38" />
  <!-- Soft shadow -->
  <ellipse
     cx="65"
     cy="144"
     rx="60"
     ry="12"
     fill="#000000"
     opacity="0.08"
     id="ellipse2" />
  <!-- White sticker border -->
  <g
     id="g8"
     transform="translate(-135,-121)">
    <!-- Lock body border -->
    <rect
       x="145"
       y="195"
       width="110"
       height="90"
       rx="18"
       fill="#ffffff"
       id="rect4" />
    <!-- Shackle border -->
    <path
       d="m 165,195 v -30 c 0,-20 10,-30 35,-30 25,0 35,10 35,30 v 30"
       fill="none"
       stroke="#ffffff"
       stroke-width="28"
       stroke-linecap="round"
       id="path6" />
  </g>
  <!-- Cocoa brown outline for shackle -->
  <path
     d="M 35,74 V 44 c 0,-17 8,-25 30,-25 22,0 30,8 30,25 v 30"
     fill="none"
     stroke="#8b6f47"
     stroke-width="14"
     stroke-linecap="round"
     id="path10" />
  <!-- Soft orange fill for shackle -->
  <path
     d="M 40,74 V 44 c 0,-14 7,-20 25,-20 18,0 25,6 25,20 v 30"
     fill="none"
     stroke="#ffdab9"
     stroke-width="8"
     stroke-linecap="round"
     id="path12" />
  <!-- Cocoa brown outline for lock body -->
  <rect
     x="15"
     y="79"
     width="100"
     height="80"
     rx="16"
     fill="none"
     stroke="#8b6f47"
     stroke-width="10"
     id="rect14" />
  <!-- Baby pink fill for lock body -->
  <rect
     x="20"
     y="84"
     width="90"
     height="70"
     rx="14"
     fill="#ffd4e5"
     id="rect16" />
  <!-- Subtle inner shading at bottom of lock body -->
  <rect
     x="20"
     y="124"
     width="90"
     height="30"
     rx="14"
     fill="#000000"
     opacity="0.04"
     id="rect18" />
  <!-- Heart cutout in center of lock -->
  <path
     d="m 65,114 c 0,0 -12,-10 -12,-17 0,-4 2,-6 5,-6 2,0 4,1 7,4 3,-3 5,-4 7,-4 3,0 5,2 5,6 0,7 -12,17 -12,17 z"
     fill="#8b6f47"
     id="path20" />
  <!-- Inner heart fill (soft orange) -->
  <path
     d="m 65,111 c 0,0 -10,-8 -10,-14 0,-3 2,-5 4,-5 2,0 3,1 6,4 3,-3 4,-4 6,-4 2,0 4,2 4,5 0,6 -10,14 -10,14 z"
     fill="#ffdab9"
     id="path22" />
  <!-- Gentle highlight on top of lock body -->
  <ellipse
     cx="65"
     cy="97"
     rx="35"
     ry="8"
     fill="#ffffff"
     opacity="0.4"
     id="ellipse24" />
  <!-- Highlight on shackle -->
  <path
     d="M 42,74 V 44 C 42,31 48,26 65,26"
     fill="none"
     stroke="#ffffff"
     stroke-width="3"
     stroke-linecap="round"
     opacity="0.5"
     id="path26" />
  <!-- Tiny sparkles -->
  <circle
     cx="120"
     cy="94"
     r="3"
     fill="#ffffff"
     opacity="0.8"
     id="circle28" />
  <circle
     cx="126"
     cy="101"
     r="2"
     fill="#ffffff"
     opacity="0.6"
     id="circle30" />
  <!-- Tiny heart accent (top left) -->
  <path
     d="m 0,54 c 0,-3 2,-5 4,-5 1,0 2,1 2,2 0,-1 1,-2 2,-2 2,0 4,2 4,5 0,3 -6,7 -6,7 0,0 -6,-4 -6,-7 z"
     fill="#ffb6c1"
     opacity="0.5"
     id="path32" />
</svg>
