<?xml version="1.0" encoding="UTF-8" standalone="no"?>
<svg
   width="200"
   height="85"
   viewBox="0 0 200 85"
   version="1.1"
   id="svg44"
   xmlns="http://www.w3.org/2000/svg"
   xmlns:svg="http://www.w3.org/2000/svg">
  <defs
     id="defs48" />
  <!-- Soft shadow for all sparkles -->
  <ellipse
     cx="100"
     cy="43"
     rx="100"
     ry="12"
     fill="#000000"
     opacity="0.06"
     id="ellipse2" />
  <!-- SPARKLE 1 (Large, left) -->
  <!-- White sticker border -->
  <g
     id="g6"
     transform="translate(-100,-172)">
    <path
       d="m 140,200 8,-12 8,12 12,8 -12,8 -8,12 -8,-12 -12,-8 z"
       fill="#ffffff"
       id="path4" />
  </g>
  <!-- Cocoa brown outline -->
  <path
     d="M 42,28 48,18 54,28 64,34 54,40 48,50 42,40 32,34 Z"
     fill="#8b6f47"
     id="path8" />
  <!-- Soft orange/yellow pastel fill -->
  <path
     d="m 44,28 4,-7 4,7 7,4 -7,4 -4,7 -4,-7 -7,-4 z"
     fill="#ffd4a3"
     id="path10" />
  <!-- Highlight -->
  <path
     d="m 46,28 2,-4 2,4 4,2 -4,2 -2,4 -2,-4 -4,-2 z"
     fill="#ffffff"
     opacity="0.5"
     id="path12" />
  <!-- SPARKLE 2 (Medium, center-right) -->
  <!-- White sticker border -->
  <g
     id="g16"
     transform="translate(-100,-172)">
    <path
       d="m 230,190 6,-10 6,10 10,6 -10,6 -6,10 -6,-10 -10,-6 z"
       fill="#ffffff"
       id="path14" />
  </g>
  <!-- Cocoa brown outline -->
  <path
     d="m 132,18 4,-8 4,8 8,4 -8,4 -4,8 -4,-8 -8,-4 z"
     fill="#8b6f47"
     id="path18" />
  <!-- Soft peach/orange fill -->
  <path
     d="m 134,18 2,-5 2,5 5,3 -5,3 -2,5 -2,-5 -5,-3 z"
     fill="#ffdab9"
     id="path20" />
  <!-- Highlight -->
  <path
     d="m 135,18 1,-3 1,3 3,2 -3,2 -1,3 -1,-3 -3,-2 z"
     fill="#ffffff"
     opacity="0.5"
     id="path22" />
  <!-- SPARKLE 3 (Small, bottom) -->
  <!-- White sticker border -->
  <g
     id="g26"
     transform="translate(-100,-172)">
    <path
       d="m 190,235 4,-7 4,7 7,4 -7,4 -4,7 -4,-7 -7,-4 z"
       fill="#ffffff"
       id="path24" />
  </g>
  <!-- Cocoa brown outline -->
  <path
     d="m 91,63 3,-5 3,5 5,3 -5,3 -3,5 -3,-5 -5,-3 z"
     fill="#8b6f47"
     id="path28" />
  <!-- Soft yellow/cream fill -->
  <path
     d="m 92,63 2,-3 2,3 3,2 -3,2 -2,3 -2,-3 -3,-2 z"
     fill="#fff4d4"
     id="path30" />
  <!-- Highlight -->
  <circle
     cx="94"
     cy="63"
     r="2"
     fill="#ffffff"
     opacity="0.6"
     id="circle32" />
  <!-- Additional tiny heart accents floating around -->
  <path
     d="m 65,3 c 0,-2 1,-3 2,-3 1,0 1,1 1,1 0,0 1,-1 1,-1 1,0 2,1 2,3 0,2 -3,4 -3,4 0,0 -3,-2 -3,-4 z"
     fill="#ffb6c1"
     opacity="0.5"
     id="path34" />
  <path
     d="m 155,38 c 0,-2 1,-3 2,-3 1,0 1,1 1,1 0,0 1,-1 1,-1 1,0 2,1 2,3 0,2 -3,4 -3,4 0,0 -3,-2 -3,-4 z"
     fill="#ffb6c1"
     opacity="0.5"
     id="path36" />
  <!-- Tiny white sparkles around -->
  <circle
     cx="75"
     cy="43"
     r="2"
     fill="#ffffff"
     opacity="0.7"
     id="circle38" />
  <circle
     cx="160"
     cy="3"
     r="2.5"
     fill="#ffffff"
     opacity="0.7"
     id="circle40" />
  <circle
     cx="110"
     cy="83"
     r="2"
     fill="#ffffff"
     opacity="0.7"
     id="circle42" />
</svg>
