<?xml version="1.0" encoding="UTF-8" standalone="no"?>
<svg
   width="233"
   height="150"
   viewBox="0 0 233 150"
   version="1.1"
   id="svg30"
   xmlns="http://www.w3.org/2000/svg"
   xmlns:svg="http://www.w3.org/2000/svg">
  <defs
     id="defs34" />
  <!-- Soft shadow -->
  <ellipse
     cx="115"
     cy="105"
     rx="90"
     ry="15"
     fill="#000000"
     opacity="0.08"
     id="ellipse2" />
  <!-- White sticker border -->
  <g
     id="g8"
     transform="translate(-85,-120)">
    <!-- Main bubble border -->
    <rect
       x="95"
       y="120"
       width="210"
       height="120"
       rx="28"
       fill="#ffffff"
       id="rect4" />
    <!-- Tail border -->
    <path
       d="m 170,240 -10,30 30,-25 z"
       fill="#ffffff"
       id="path6" />
  </g>
  <!-- Cocoa brown outline for main bubble -->
  <rect
     x="18"
     y="8"
     width="194"
     height="104"
     rx="24"
     fill="none"
     stroke="#8b6f47"
     stroke-width="10"
     id="rect10" />
  <!-- Cream fill for main bubble -->
  <rect
     x="23"
     y="13"
     width="184"
     height="94"
     rx="20"
     fill="#f5e6d3"
     id="rect12" />
  <!-- Cocoa brown outline for tail -->
  <path
     d="m 87,118 -7,22 23,-18 z"
     fill="#8b6f47"
     stroke="#8b6f47"
     stroke-width="3"
     stroke-linejoin="round"
     id="path14" />
  <!-- Cream fill for tail -->
  <path
     d="m 89,120 -4,12 14,-9 z"
     fill="#f5e6d3"
     id="path16" />
  <!-- Subtle inner shading at bottom of bubble -->
  <rect
     x="23"
     y="70"
     width="184"
     height="37"
     rx="20"
     fill="#000000"
     opacity="0.03"
     id="rect18" />
  <!-- Gentle highlight at top of bubble -->
  <ellipse
     cx="115"
     cy="30"
     rx="70"
     ry="12"
     fill="#ffffff"
     opacity="0.4"
     id="ellipse20" />
  <!-- Tiny heart accent inside bubble (top right) -->
  <path
     d="m 175,35 c 0,-3 2,-5 4,-5 1,0 2,1 2,2 0,-1 1,-2 2,-2 2,0 4,2 4,5 0,3 -6,7 -6,7 0,0 -6,-4 -6,-7 z"
     fill="#ffb6c1"
     opacity="0.6"
     id="path22" />
  <!-- Tiny sparkles outside bubble -->
  <circle
     cx="225"
     cy="15"
     r="3"
     fill="#ffffff"
     opacity="0.8"
     id="circle24" />
  <circle
     cx="231"
     cy="23"
     r="2"
     fill="#ffffff"
     opacity="0.6"
     id="circle26" />
  <!-- Additional tiny heart accent (outside, top left) -->
  <path
     d="m 0,20 c 0,-3 2,-5 4,-5 1,0 2,1 2,2 0,-1 1,-2 2,-2 2,0 4,2 4,5 0,3 -6,7 -6,7 0,0 -6,-4 -6,-7 z"
     fill="#ffb6c1"
     opacity="0.5"
     id="path28" />
</svg>
