<?xml version="1.0" encoding="UTF-8" standalone="no"?>
<svg
   width="576"
   height="266"
   viewBox="0 0 576 266"
   version="1.1"
   id="svg69"
   xmlns:xlink="http://www.w3.org/1999/xlink"
   xmlns="http://www.w3.org/2000/svg"
   xmlns:svg="http://www.w3.org/2000/svg">
  <defs
     id="defs9">
    <!-- Gradient for coupon background -->
    <linearGradient
       id="couponGradient"
       x1="0"
       y1="0"
       x2="1"
       y2="1">
      <stop
         offset="0%"
         style="stop-color:#F5E6D3;stop-opacity:1"
         id="stop2" />
      <stop
         offset="50%"
         style="stop-color:#FFE8F0;stop-opacity:1"
         id="stop4" />
      <stop
         offset="100%"
         style="stop-color:#FFD4E5;stop-opacity:1"
         id="stop6" />
    </linearGradient>
    <linearGradient
       xlink:href="#couponGradient"
       id="linearGradient73"
       x1="13.627703"
       y1="29.351975"
       x2="395.20338"
       y2="410.92766"
       gradientTransform="matrix(1.4675988,0,0,0.68138514,-12,-17)"
       gradientUnits="userSpaceOnUse" />
    <linearGradient
       xlink:href="#couponGradient"
       id="linearGradient75"
       x1="14"
       y1="94"
       x2="26"
       y2="106"
       gradientUnits="userSpaceOnUse"
       gradientTransform="translate(-12,-17)" />
    <linearGradient
       xlink:href="#couponGradient"
       id="linearGradient77"
       x1="14"
       y1="144"
       x2="26"
       y2="156"
       gradientUnits="userSpaceOnUse"
       gradientTransform="translate(-12,-17)" />
    <linearGradient
       xlink:href="#couponGradient"
       id="linearGradient79"
       x1="14"
       y1="194"
       x2="26"
       y2="206"
       gradientUnits="userSpaceOnUse"
       gradientTransform="translate(-12,-17)" />
    <linearGradient
       xlink:href="#couponGradient"
       id="linearGradient81"
       x1="574"
       y1="94"
       x2="586"
       y2="106"
       gradientUnits="userSpaceOnUse"
       gradientTransform="translate(-12,-17)" />
    <linearGradient
       xlink:href="#couponGradient"
       id="linearGradient83"
       x1="574"
       y1="144"
       x2="586"
       y2="156"
       gradientUnits="userSpaceOnUse"
       gradientTransform="translate(-12,-17)" />
    <linearGradient
       xlink:href="#couponGradient"
       id="linearGradient85"
       x1="574"
       y1="194"
       x2="586"
       y2="206"
       gradientUnits="userSpaceOnUse"
       gradientTransform="translate(-12,-17)" />
  </defs>
  <!-- Soft shadow -->
  <rect
     x="13"
     y="8"
     width="550"
     height="250"
     rx="20"
     fill="#000000"
     opacity="0.08"
     id="rect11" />
  <!-- Main coupon card - gradient fill -->
  <rect
     x="8"
     y="3"
     width="560"
     height="260"
     rx="18"
     fill="url(#couponGradient)"
     id="rect13"
     style="fill:url(#linearGradient73)" />
  <!-- Cocoa brown outline -->
  <rect
     x="8"
     y="3"
     width="560"
     height="260"
     rx="18"
     fill="none"
     stroke="#8b6f47"
     stroke-width="6"
     id="rect15" />
  <!-- Stitched/dotted inner border -->
  <rect
     x="28"
     y="23"
     width="520"
     height="220"
     rx="12"
     fill="none"
     stroke="#8b6f47"
     stroke-width="2"
     stroke-dasharray="8, 6"
     stroke-linecap="round"
     id="rect17" />
  <!-- Decorative scalloped edges (left side) -->
  <circle
     cx="8"
     cy="83"
     r="8"
     fill="#ffffff"
     id="circle19" />
  <circle
     cx="8"
     cy="83"
     r="6"
     fill="url(#couponGradient)"
     id="circle21"
     style="fill:url(#linearGradient75)" />
  <circle
     cx="8"
     cy="133"
     r="8"
     fill="#ffffff"
     id="circle23" />
  <circle
     cx="8"
     cy="133"
     r="6"
     fill="url(#couponGradient)"
     id="circle25"
     style="fill:url(#linearGradient77)" />
  <circle
     cx="8"
     cy="183"
     r="8"
     fill="#ffffff"
     id="circle27" />
  <circle
     cx="8"
     cy="183"
     r="6"
     fill="url(#couponGradient)"
     id="circle29"
     style="fill:url(#linearGradient79)" />
  <!-- Decorative scalloped edges (right side) -->
  <circle
     cx="568"
     cy="83"
     r="8"
     fill="#ffffff"
     id="circle31" />
  <circle
     cx="568"
     cy="83"
     r="6"
     fill="url(#couponGradient)"
     id="circle33"
     style="fill:url(#linearGradient81)" />
  <circle
     cx="568"
     cy="133"
     r="8"
     fill="#ffffff"
     id="circle35" />
  <circle
     cx="568"
     cy="133"
     r="6"
     fill="url(#couponGradient)"
     id="circle37"
     style="fill:url(#linearGradient83)" />
  <circle
     cx="568"
     cy="183"
     r="8"
     fill="#ffffff"
     id="circle39" />
  <circle
     cx="568"
     cy="183"
     r="6"
     fill="url(#couponGradient)"
     id="circle41"
     style="fill:url(#linearGradient85)" />
  <!-- Tiny hearts in corners -->
  <!-- Top-left corner -->
  <path
     d="m 38,33 c 0,-3 2,-5 4,-5 1,0 2,1 2,2 0,-1 1,-2 2,-2 2,0 4,2 4,5 0,3 -6,7 -6,7 0,0 -6,-4 -6,-7 z"
     fill="#ffb6c1"
     opacity="0.6"
     id="path43" />
  <!-- Top-right corner -->
  <path
     d="m 526,33 c 0,-3 2,-5 4,-5 1,0 2,1 2,2 0,-1 1,-2 2,-2 2,0 4,2 4,5 0,3 -6,7 -6,7 0,0 -6,-4 -6,-7 z"
     fill="#ffb6c1"
     opacity="0.6"
     id="path45" />
  <!-- Bottom-left corner -->
  <path
     d="m 38,233 c 0,-3 2,-5 4,-5 1,0 2,1 2,2 0,-1 1,-2 2,-2 2,0 4,2 4,5 0,3 -6,7 -6,7 0,0 -6,-4 -6,-7 z"
     fill="#ffb6c1"
     opacity="0.6"
     id="path47" />
  <!-- Bottom-right corner -->
  <path
     d="m 526,233 c 0,-3 2,-5 4,-5 1,0 2,1 2,2 0,-1 1,-2 2,-2 2,0 4,2 4,5 0,3 -6,7 -6,7 0,0 -6,-4 -6,-7 z"
     fill="#ffb6c1"
     opacity="0.6"
     id="path49" />
  <!-- Blank center area indication (light rectangle for text placement) -->
  <rect
     x="68"
     y="63"
     width="440"
     height="140"
     rx="8"
     fill="#ffffff"
     opacity="0.3"
     id="rect51" />
  <!-- Decorative elements -->
  <!-- Small sparkles -->
  <circle
     cx="88"
     cy="53"
     r="3"
     fill="#ffffff"
     opacity="0.7"
     id="circle53" />
  <circle
     cx="488"
     cy="53"
     r="3"
     fill="#ffffff"
     opacity="0.7"
     id="circle55" />
  <circle
     cx="88"
     cy="213"
     r="3"
     fill="#ffffff"
     opacity="0.7"
     id="circle57" />
  <circle
     cx="488"
     cy="213"
     r="3"
     fill="#ffffff"
     opacity="0.7"
     id="circle59" />
  <!-- Additional tiny hearts (decorative) -->
  <path
     d="m 108,123 c 0,-1.5 0.5,-2 1,-2 0.5,0 1,0.5 1,1 0,-0.5 0.5,-1 1,-1 0.5,0 1,0.5 1,2 0,1.5 -2,3 -2,3 0,0 -2,-1.5 -2,-3 z"
     fill="#ffdab9"
     opacity="0.4"
     id="path61" />
  <path
     d="m 464,143 c 0,-1.5 0.5,-2 1,-2 0.5,0 1,0.5 1,1 0,-0.5 0.5,-1 1,-1 0.5,0 1,0.5 1,2 0,1.5 -2,3 -2,3 0,0 -2,-1.5 -2,-3 z"
     fill="#ffdab9"
     opacity="0.4"
     id="path63" />
  <!-- Subtle shading at bottom -->
  <rect
     x="28"
     y="203"
     width="520"
     height="40"
     rx="12"
     fill="#000000"
     opacity="0.02"
     id="rect65" />
  <!-- Gentle highlight at top -->
  <ellipse
     cx="288"
     cy="43"
     rx="200"
     ry="20"
     fill="#ffffff"
     opacity="0.3"
     id="ellipse67" />
</svg>
