<?xml version="1.0" encoding="UTF-8" standalone="no"?>
<svg
   width="250"
   height="100"
   viewBox="0 0 250 100"
   version="1.1"
   id="svg42"
   xmlns="http://www.w3.org/2000/svg"
   xmlns:svg="http://www.w3.org/2000/svg">
  <defs
     id="defs46" />
  <!-- Soft shadow -->
  <ellipse
     cx="125"
     cy="60"
     rx="120"
     ry="15"
     fill="#000000"
     opacity="0.08"
     id="ellipse2" />
  <!-- White sticker border -->
  <rect
     x="0"
     y="0"
     width="250"
     height="100"
     rx="12"
     fill="#ffffff"
     id="rect4" />
  <!-- Cocoa brown outline (stamp border) -->
  <rect
     x="5"
     y="5"
     width="240"
     height="90"
     rx="10"
     fill="none"
     stroke="#8b6f47"
     stroke-width="6"
     id="rect6" />
  <!-- Pastel pink ink fill (stamp background) -->
  <rect
     x="10"
     y="10"
     width="230"
     height="80"
     rx="8"
     fill="#ffd4e5"
     opacity="0.4"
     id="rect8" />
  <!-- Inner decorative border (dotted) -->
  <rect
     x="15"
     y="15"
     width="220"
     height="70"
     rx="6"
     fill="none"
     stroke="#8b6f47"
     stroke-width="2"
     stroke-dasharray="4, 3"
     id="rect10" />
  <!-- Text: REDEEMABLE -->
  <!-- R -->
  <path
     d="m 30,40 v 30 m 0,-30 h 10 q 5,0 5,5 0,5 -5,5 H 30 m 10,0 5,20"
     fill="none"
     stroke="#8b6f47"
     stroke-width="5"
     stroke-linecap="round"
     stroke-linejoin="round"
     id="path12" />
  <!-- E -->
  <path
     d="M 60,40 H 50 V 70 H 60 M 50,55 h 8"
     fill="none"
     stroke="#8b6f47"
     stroke-width="5"
     stroke-linecap="round"
     stroke-linejoin="round"
     id="path14" />
  <!-- D -->
  <path
     d="m 70,40 v 30 m 0,-30 h 10 q 5,5 5,15 0,10 -5,15 H 70"
     fill="none"
     stroke="#8b6f47"
     stroke-width="5"
     stroke-linecap="round"
     stroke-linejoin="round"
     id="path16" />
  <!-- E -->
  <path
     d="M 105,40 H 95 v 30 h 10 M 95,55 h 8"
     fill="none"
     stroke="#8b6f47"
     stroke-width="5"
     stroke-linecap="round"
     stroke-linejoin="round"
     id="path18" />
  <!-- E -->
  <path
     d="m 125,40 h -10 v 30 h 10 M 115,55 h 8"
     fill="none"
     stroke="#8b6f47"
     stroke-width="5"
     stroke-linecap="round"
     stroke-linejoin="round"
     id="path20" />
  <!-- M -->
  <path
     d="M 135,70 V 40 l 7,10 7,-10 v 30"
     fill="none"
     stroke="#8b6f47"
     stroke-width="5"
     stroke-linecap="round"
     stroke-linejoin="round"
     id="path22" />
  <!-- A -->
  <path
     d="m 159,70 5,-30 5,30 m -8,-10 h 6"
     fill="none"
     stroke="#8b6f47"
     stroke-width="5"
     stroke-linecap="round"
     stroke-linejoin="round"
     id="path24" />
  <!-- B -->
  <path
     d="m 179,40 v 30 m 0,-30 h 8 q 4,2 4,7 0,5 -4,8 h -8 m 0,0 h 9 q 5,2 5,7 0,5 -5,8 h -9"
     fill="none"
     stroke="#8b6f47"
     stroke-width="5"
     stroke-linecap="round"
     stroke-linejoin="round"
     id="path26" />
  <!-- L -->
  <path
     d="m 203,40 v 30 h 10"
     fill="none"
     stroke="#8b6f47"
     stroke-width="5"
     stroke-linecap="round"
     stroke-linejoin="round"
     id="path28" />
  <!-- E -->
  <path
     d="m 230,40 h -10 v 30 h 10 M 220,55 h 8"
     fill="none"
     stroke="#8b6f47"
     stroke-width="5"
     stroke-linecap="round"
     stroke-linejoin="round"
     id="path30" />
  <!-- Heart emoji replacement (small heart shape) -->
  <path
     d="m 245,60 c 0,0 -4,-3 -4,-6 0,-2 1,-3 2.5,-3 1,0 1.5,1 1.5,2 0,-1 0.5,-2 1.5,-2 1.5,0 2.5,1 2.5,3 0,3 -4,6 -4,6 z"
     fill="#ffb6c1"
     id="path32" />
  <path
     d="m 245,60 c 0,0 -4,-3 -4,-6 0,-2 1,-3 2.5,-3 1,0 1.5,1 1.5,2 0,-1 0.5,-2 1.5,-2 1.5,0 2.5,1 2.5,3 0,3 -4,6 -4,6 z"
     fill="none"
     stroke="#8b6f47"
     stroke-width="1.5"
     id="path34" />
  <!-- Tiny sparkles -->
  <circle
     cx="20"
     cy="25"
     r="2"
     fill="#ffffff"
     opacity="0.8"
     id="circle36" />
  <circle
     cx="230"
     cy="25"
     r="2"
     fill="#ffffff"
     opacity="0.8"
     id="circle38" />
  <!-- Subtle texture overlay -->
  <rect
     x="10"
     y="10"
     width="230"
     height="80"
     rx="8"
     fill="#ffdab9"
     opacity="0.1"
     id="rect40" />
</svg>
