<?xml version="1.0" encoding="UTF-8" standalone="no"?>
<svg
   width="1920"
   height="1080"
   viewBox="136 132.91429 1920 1080"
   version="1.1"
   id="svg47"
   xmlns:xlink="http://www.w3.org/1999/xlink"
   xmlns="http://www.w3.org/2000/svg"
   xmlns:svg="http://www.w3.org/2000/svg">
  <defs
     id="defs21">
    <linearGradient
       id="chocoGradient"
       x1="0"
       y1="0"
       x2="1440"
       y2="1440"
       gradientTransform="matrix(1.3333333,0,0,0.75,136,132.91429)"
       gradientUnits="userSpaceOnUse">
      <stop
         offset="0%"
         style="stop-color:#F5E6D3;stop-opacity:1"
         id="stop2" />
      <stop
         offset="40%"
         style="stop-color:#D4A574;stop-opacity:1"
         id="stop4" />
      <stop
         offset="70%"
         style="stop-color:#8B6F47;stop-opacity:1"
         id="stop6" />
      <stop
         offset="100%"
         style="stop-color:#6B4423;stop-opacity:1"
         id="stop8" />
    </linearGradient>
    <radialGradient
       id="warmGlow">
      <stop
         offset="0%"
         style="stop-color:#FFD4A3;stop-opacity:0.6"
         id="stop11" />
      <stop
         offset="50%"
         style="stop-color:#D4A574;stop-opacity:0.3"
         id="stop13" />
      <stop
         offset="100%"
         style="stop-color:#8B6F47;stop-opacity:0"
         id="stop15" />
    </radialGradient>
    <filter
       id="softBlur"
       x="-0.036"
       y="-0.041142857"
       width="1.072"
       height="1.0822857">
      <feGaussianBlur
         in="SourceGraphic"
         stdDeviation="12"
         id="feGaussianBlur18" />
    </filter>
    <radialGradient
       xlink:href="#warmGlow"
       id="radialGradient51"
       gradientTransform="matrix(1.1127086,0,0,0.89870787,136,132.91429)"
       cx="359.48316"
       cy="333.81256"
       fx="359.48316"
       fy="333.81256"
       r="481.70743"
       gradientUnits="userSpaceOnUse" />
    <radialGradient
       xlink:href="#warmGlow"
       id="radialGradient53"
       gradientTransform="matrix(1.1492005,0,0,0.87017015,136,132.91429)"
       cx="1305.2552"
       cy="804.44033"
       fx="1305.2552"
       fy="804.44033"
       r="559.69346"
       gradientUnits="userSpaceOnUse" />
    <radialGradient
       xlink:href="#warmGlow"
       id="radialGradient55"
       gradientTransform="matrix(1.0639529,0,0,0.93989119,136,132.91429)"
       cx="845.90208"
       cy="531.97645"
       fx="845.90208"
       fy="531.97645"
       r="403.02535"
       gradientUnits="userSpaceOnUse" />
  </defs>
  <rect
     width="1920"
     height="1080"
     fill="url(#chocoGradient)"
     id="rect23"
     x="136"
     y="132.91429"
     style="fill:url(#chocoGradient)" />
  <ellipse
     cx="536"
     cy="432.91428"
     rx="500"
     ry="400"
     fill="url(#warmGlow)"
     filter="url(#softBlur)"
     id="ellipse25"
     style="fill:url(#radialGradient51)" />
  <ellipse
     cx="1636"
     cy="832.91431"
     rx="600"
     ry="450"
     fill="url(#warmGlow)"
     filter="url(#softBlur)"
     id="ellipse27"
     style="fill:url(#radialGradient53)" />
  <ellipse
     cx="1036"
     cy="632.91431"
     rx="400"
     ry="350"
     fill="url(#warmGlow)"
     filter="url(#softBlur)"
     opacity="0.5"
     id="ellipse29"
     style="fill:url(#radialGradient55)" />
  <g
     opacity="0.15"
     id="g43"
     transform="translate(136,132.91429)">
    <path
       d="m 300,200 c 0,-3 2,-5 4,-5 1,0 2,1 2,2 0,-1 1,-2 2,-2 2,0 4,2 4,5 0,3 -6,7 -6,7 0,0 -6,-4 -6,-7 z"
       fill="#ffb6c1"
       id="path31" />
    <path
       d="m 800,350 c 0,-3 2,-5 4,-5 1,0 2,1 2,2 0,-1 1,-2 2,-2 2,0 4,2 4,5 0,3 -6,7 -6,7 0,0 -6,-4 -6,-7 z"
       fill="#ffb6c1"
       id="path33" />
    <path
       d="m 1400,250 c 0,-3 2,-5 4,-5 1,0 2,1 2,2 0,-1 1,-2 2,-2 2,0 4,2 4,5 0,3 -6,7 -6,7 0,0 -6,-4 -6,-7 z"
       fill="#ffb6c1"
       id="path35" />
    <path
       d="m 500,700 c 0,-3 2,-5 4,-5 1,0 2,1 2,2 0,-1 1,-2 2,-2 2,0 4,2 4,5 0,3 -6,7 -6,7 0,0 -6,-4 -6,-7 z"
       fill="#ffb6c1"
       id="path37" />
    <path
       d="m 1200,800 c 0,-3 2,-5 4,-5 1,0 2,1 2,2 0,-1 1,-2 2,-2 2,0 4,2 4,5 0,3 -6,7 -6,7 0,0 -6,-4 -6,-7 z"
       fill="#ffb6c1"
       id="path39" />
    <path
       d="m 1600,450 c 0,-3 2,-5 4,-5 1,0 2,1 2,2 0,-1 1,-2 2,-2 2,0 4,2 4,5 0,3 -6,7 -6,7 0,0 -6,-4 -6,-7 z"
       fill="#ffb6c1"
       id="path41" />
  </g>
  <rect
     width="1920"
     height="1080"
     fill="#ffffff"
     opacity="0.03"
     id="rect45"
     x="136"
     y="132.91429" />
</svg>
