<?xml version="1.0" encoding="UTF-8" standalone="no"?>
<svg
   width="268"
   height="162"
   viewBox="0 0 268 162"
   version="1.1"
   id="svg20"
   xmlns="http://www.w3.org/2000/svg"
   xmlns:svg="http://www.w3.org/2000/svg">
  <defs
     id="defs24" />
  <!-- Soft shadow -->
  <ellipse
     cx="140"
     cy="150"
     rx="100"
     ry="12"
     fill="#000000"
     opacity="0.08"
     id="ellipse2" />
  <!-- White sticker border -->
  <rect
     x="20"
     y="0"
     width="240"
     height="140"
     rx="12"
     fill="#ffffff"
     id="rect4" />
  <!-- Box - cocoa outline -->
  <rect
     x="28"
     y="8"
     width="224"
     height="124"
     rx="10"
     fill="none"
     stroke="#8b6f47"
     stroke-width="6"
     id="rect6" />
  <!-- Box - cream fill -->
  <rect
     x="33"
     y="13"
     width="214"
     height="114"
     rx="8"
     fill="#f5e6d3"
     id="rect8" />
  <!-- Gentle highlight -->
  <rect
     x="40"
     y="20"
     width="60"
     height="80"
     rx="6"
     fill="#ffffff"
     opacity="0.3"
     id="rect10" />
  <!-- Subtle shading -->
  <rect
     x="33"
     y="95"
     width="214"
     height="32"
     rx="8"
     fill="#000000"
     opacity="0.04"
     id="rect12" />
  <!-- Tiny sparkles -->
  <circle
     cx="265"
     cy="25"
     r="3"
     fill="#ffffff"
     opacity="0.8"
     id="circle14" />
  <circle
     cx="15"
     cy="25"
     r="3"
     fill="#ffffff"
     opacity="0.8"
     id="circle16" />
  <!-- Tiny heart -->
  <path
     d="m 0,70 c 0,-2 1,-3 2,-3 1,0 1,1 1,1 0,0 1,-1 1,-1 1,0 2,1 2,3 0,2 -3,4 -3,4 0,0 -3,-2 -3,-4 z"
     fill="#ffb6c1"
     opacity="0.5"
     id="path18" />
</svg>
