<?xml version="1.0" encoding="UTF-8" standalone="no"?>
<svg
   width="2293.6001"
   height="1394.5"
   viewBox="0 0 2293.6001 1394.5"
   version="1.1"
   id="svg47"
   xmlns:xlink="http://www.w3.org/1999/xlink"
   xmlns="http://www.w3.org/2000/svg"
   xmlns:svg="http://www.w3.org/2000/svg">
  <defs
     id="defs21">
    <linearGradient
       id="teddyGradient"
       x1="0"
       y1="0"
       x2="1440"
       y2="1440"
       gradientTransform="matrix(1.3333333,0,0,0.75,143.2,145)"
       gradientUnits="userSpaceOnUse">
      <stop
         offset="0%"
         style="stop-color:#FFF8F0;stop-opacity:1"
         id="stop2" />
      <stop
         offset="40%"
         style="stop-color:#FFE8F0;stop-opacity:1"
         id="stop4" />
      <stop
         offset="70%"
         style="stop-color:#FFD4E5;stop-opacity:1"
         id="stop6" />
      <stop
         offset="100%"
         style="stop-color:#F5E6D3;stop-opacity:1"
         id="stop8" />
    </linearGradient>
    <radialGradient
       id="softGlow">
      <stop
         offset="0%"
         style="stop-color:#FFDAB9;stop-opacity:0.4"
         id="stop11" />
      <stop
         offset="50%"
         style="stop-color:#FFD4E5;stop-opacity:0.2"
         id="stop13" />
      <stop
         offset="100%"
         style="stop-color:#FFD4E5;stop-opacity:0"
         id="stop15" />
    </radialGradient>
    <filter
       id="plushBlur"
       x="-0.036"
       y="-0.045"
       width="1.072"
       height="1.09">
      <feGaussianBlur
         in="SourceGraphic"
         stdDeviation="15"
         id="feGaussianBlur18" />
    </filter>
    <radialGradient
       xlink:href="#softGlow"
       id="radialGradient51"
       gradientTransform="matrix(1.0863625,0,0,0.92050306,143.2,145)"
       cx="460.25154"
       cy="434.54502"
       fx="460.25154"
       fy="434.54502"
       r="592.06758"
       gradientUnits="userSpaceOnUse" />
    <radialGradient
       xlink:href="#softGlow"
       id="radialGradient53"
       gradientTransform="matrix(1.1187984,0,0,0.89381612,143.2,145)"
       cx="1251.3426"
       cy="727.21895"
       fx="1251.3426"
       fy="727.21895"
       r="670.71963"
       gradientUnits="userSpaceOnUse" />
    <radialGradient
       xlink:href="#softGlow"
       id="radialGradient55"
       gradientTransform="matrix(1.1087641,0,0,0.90190512,143.2,145)"
       cx="856.80987"
       cy="332.62924"
       fx="856.80987"
       fy="332.62924"
       r="483.42115"
       gradientUnits="userSpaceOnUse" />
  </defs>
  <!-- Base gradient -->
  <rect
     width="1920"
     height="1080"
     fill="url(#teddyGradient)"
     id="rect23"
     x="143.2"
     y="145"
     style="fill:url(#teddyGradient)" />
  <!-- Soft glows for cozy vibe -->
  <ellipse
     cx="643.20001"
     cy="545"
     rx="600"
     ry="500"
     fill="url(#softGlow)"
     filter="url(#plushBlur)"
     id="ellipse25"
     style="fill:url(#radialGradient51)" />
  <ellipse
     cx="1543.2"
     cy="795"
     rx="700"
     ry="550"
     fill="url(#softGlow)"
     filter="url(#plushBlur)"
     id="ellipse27"
     style="fill:url(#radialGradient53)" />
  <ellipse
     cx="1093.2"
     cy="445"
     rx="500"
     ry="400"
     fill="url(#softGlow)"
     filter="url(#plushBlur)"
     opacity="0.6"
     id="ellipse29"
     style="fill:url(#radialGradient55)" />
  <!-- Tiny hearts -->
  <g
     opacity="0.2"
     id="g43"
     transform="translate(143.2,145)">
    <path
       d="m 350,250 c 0,-3 2,-5 4,-5 1,0 2,1 2,2 0,-1 1,-2 2,-2 2,0 4,2 4,5 0,3 -6,7 -6,7 0,0 -6,-4 -6,-7 z"
       fill="#ffb6c1"
       id="path31" />
    <path
       d="m 850,300 c 0,-3 2,-5 4,-5 1,0 2,1 2,2 0,-1 1,-2 2,-2 2,0 4,2 4,5 0,3 -6,7 -6,7 0,0 -6,-4 -6,-7 z"
       fill="#ffb6c1"
       id="path33" />
    <path
       d="m 1450,280 c 0,-3 2,-5 4,-5 1,0 2,1 2,2 0,-1 1,-2 2,-2 2,0 4,2 4,5 0,3 -6,7 -6,7 0,0 -6,-4 -6,-7 z"
       fill="#ffb6c1"
       id="path35" />
    <path
       d="m 550,650 c 0,-3 2,-5 4,-5 1,0 2,1 2,2 0,-1 1,-2 2,-2 2,0 4,2 4,5 0,3 -6,7 -6,7 0,0 -6,-4 -6,-7 z"
       fill="#ffb6c1"
       id="path37" />
    <path
       d="m 1300,750 c 0,-3 2,-5 4,-5 1,0 2,1 2,2 0,-1 1,-2 2,-2 2,0 4,2 4,5 0,3 -6,7 -6,7 0,0 -6,-4 -6,-7 z"
       fill="#ffb6c1"
       id="path39" />
    <path
       d="m 700,500 c 0,-3 2,-5 4,-5 1,0 2,1 2,2 0,-1 1,-2 2,-2 2,0 4,2 4,5 0,3 -6,7 -6,7 0,0 -6,-4 -6,-7 z"
       fill="#ffb6c1"
       id="path41" />
  </g>
  <!-- Subtle overlay -->
  <rect
     width="1920"
     height="1080"
     fill="#ffffff"
     opacity="0.04"
     id="rect45"
     x="143.2"
     y="145" />
</svg>
