<svg width="1920" height="1080" viewBox="0 0 1920 1080" xmlns="http://www.w3.org/2000/svg">
  <defs>
    <linearGradient id="teddyGradient" x1="0%" y1="0%" x2="100%" y2="100%">
      <stop offset="0%" style="stop-color:#FFF8F0;stop-opacity:1"/>
      <stop offset="40%" style="stop-color:#FFE8F0;stop-opacity:1"/>
      <stop offset="70%" style="stop-color:#FFD4E5;stop-opacity:1"/>
      <stop offset="100%" style="stop-color:#F5E6D3;stop-opacity:1"/>
    </linearGradient>
    
    <radialGradient id="softGlow">
      <stop offset="0%" style="stop-color:#FFDAB9;stop-opacity:0.4"/>
      <stop offset="50%" style="stop-color:#FFD4E5;stop-opacity:0.2"/>
      <stop offset="100%" style="stop-color:#FFD4E5;stop-opacity:0"/>
    </radialGradient>
    
    <filter id="plushBlur">
      <feGaussianBlur in="SourceGraphic" stdDeviation="15"/>
    </filter>
  </defs>
  
  <!-- Base gradient -->
  <rect width="1920" height="1080" fill="url(#teddyGradient)"/>
  
  <!-- Soft glows for cozy vibe -->
  <ellipse cx="500" cy="400" rx="600" ry="500" fill="url(#softGlow)" filter="url(#plushBlur)"/>
  <ellipse cx="1400" cy="650" rx="700" ry="550" fill="url(#softGlow)" filter="url(#plushBlur)"/>
  <ellipse cx="950" cy="300" rx="500" ry="400" fill="url(#softGlow)" filter="url(#plushBlur)" opacity="0.6"/>
  
  <!-- Tiny hearts -->
  <g opacity="0.2">
    <path d="M 350 250 C 350 247 352 245 354 245 C 355 245 356 246 356 247 C 356 246 357 245 358 245 C 360 245 362 247 362 250 C 362 253 356 257 356 257 C 356 257 350 253 350 250 Z" fill="#FFB6C1"/>
    <path d="M 850 300 C 850 297 852 295 854 295 C 855 295 856 296 856 297 C 856 296 857 295 858 295 C 860 295 862 297 862 300 C 862 303 856 307 856 307 C 856 307 850 303 850 300 Z" fill="#FFB6C1"/>
    <path d="M 1450 280 C 1450 277 1452 275 1454 275 C 1455 275 1456 276 1456 277 C 1456 276 1457 275 1458 275 C 1460 275 1462 277 1462 280 C 1462 283 1456 287 1456 287 C 1456 287 1450 283 1450 280 Z" fill="#FFB6C1"/>
    <path d="M 550 650 C 550 647 552 645 554 645 C 555 645 556 646 556 647 C 556 646 557 645 558 645 C 560 645 562 647 562 650 C 562 653 556 657 556 657 C 556 657 550 653 550 650 Z" fill="#FFB6C1"/>
    <path d="M 1300 750 C 1300 747 1302 745 1304 745 C 1305 745 1306 746 1306 747 C 1306 746 1307 745 1308 745 C 1310 745 1312 747 1312 750 C 1312 753 1306 757 1306 757 C 1306 757 1300 753 1300 750 Z" fill="#FFB6C1"/>
    <path d="M 700 500 C 700 497 702 495 704 495 C 705 495 706 496 706 497 C 706 496 707 495 708 495 C 710 495 712 497 712 500 C 712 503 706 507 706 507 C 706 507 700 503 700 500 Z" fill="#FFB6C1"/>
  </g>
  
  <!-- Subtle overlay -->
  <rect width="1920" height="1080" fill="#FFFFFF" opacity="0.04"/>
</svg>