<?xml version="1.0" encoding="UTF-8" standalone="no"?>
<svg
   version="1.1"
   width="454.76227"
   height="377.42151"
   id="svg190"
   xmlns="http://www.w3.org/2000/svg"
   xmlns:svg="http://www.w3.org/2000/svg">
  <defs
     id="defs194" />
  <path
     d="m 49.313086,0.67149602 c 1.579021,0.0558325 1.579021,0.0558325 3.189942,0.11279297 3.298964,0.14573736 6.580975,0.37435291 9.872558,0.63720701 1.506028,0.1174658 1.506028,0.1174658 3.04248,0.2373047 C 109.7443,5.4839444 155.36695,21.08302 191.37559,47.421496 c 2.5283,-1.217732 4.71773,-2.483372 7.0625,-4.0625 3.61489,-2.384289 6.14077,-3.061512 10.37378,-3.114502 1.34236,-0.01925 1.34236,-0.01925 2.71184,-0.03889 0.96561,-0.0074 1.93122,-0.01477 2.9261,-0.02238 0.9978,-0.0081 1.9956,-0.01614 3.02363,-0.02446 2.1141,-0.01384 4.22821,-0.02456 6.34234,-0.03243 3.21764,-0.01718 6.43424,-0.06106 9.65161,-0.105225 2.05663,-0.01013 4.11327,-0.01864 6.16992,-0.02539 0.95549,-0.01751 1.91098,-0.03502 2.89543,-0.05306 6.88055,0.0221 12.45677,1.259554 17.56262,6.113892 0.42248,0.450431 0.84495,0.900863 1.28023,1.364944 4.44772,-1.527331 8.04949,-3.960644 11.875,-6.625 34.49314,-23.325934 77.91003,-35.764787 119.125,-39.375 1.06734,-0.1087646 2.13469,-0.2175293 3.23437,-0.3295898 17.27989,-1.62515688 17.27989,-1.62515688 22.63331,1.3769531 3.26254,2.8163883 5.2353,6.2571116 7.15527,10.0717777 0.95941,1.846903 2.02681,3.522616 3.19971,5.240234 9.38076,13.988754 15.52336,30.42403 20.21484,46.515625 0.2226,0.757485 0.44521,1.514971 0.67456,2.29541 3.99098,14.614621 5.42097,29.166147 5.26294,44.267095 -0.005,0.80843 -0.01,1.61687 -0.0151,2.4498 -0.086,11.9201 -0.42211,23.50345 -3.35989,35.1127 -0.22575,0.91427 -0.45149,1.82854 -0.68408,2.77051 -4.97638,19.62959 -12.53448,38.1309 -23.20947,55.36572 -1.11372,1.87601 -2.07855,3.79083 -3.05176,5.74268 -2.09715,3.80712 -4.17805,6.98058 -8.05469,9.12109 -7.8342,1.93586 -16.07395,0.80017 -24,0 -1.00499,-0.0841 -2.00997,-0.16822 -3.04541,-0.25488 -21.39614,-1.81961 -41.83229,-7.17493 -62.14209,-13.93262 -0.64979,-0.21601 -1.29958,-0.43202 -1.96906,-0.65457 -6.17275,-2.06567 -12.03543,-4.20796 -17.84344,-7.15793 4.25707,18.96769 8.9748,37.7379 14.25226,56.45181 1.76528,6.26014 3.50774,12.52665 5.25271,18.79247 0.60509,2.17224 1.21082,4.3443 1.81659,6.51636 4.11565,14.76654 8.15868,29.55259 12.16459,44.34925 0.75619,2.79276 1.51501,5.58478 2.27624,8.37616 1.0564,3.87418 2.10457,7.75053 3.15167,11.62723 0.31472,1.15104 0.62943,2.30209 0.95368,3.48801 0.42439,1.58048 0.42439,1.58048 0.85736,3.1929 0.37156,1.37138 0.37156,1.37138 0.75064,2.77046 0.52426,2.43535 0.52426,2.43535 0.52426,6.43535 -6.04578,-1.66082 -11.24629,-4.72095 -16.6875,-7.75 -0.93006,-0.51305 -1.86012,-1.02609 -2.81836,-1.55469 -1.87451,-1.03403 -3.74805,-2.06983 -5.6206,-3.10742 -4.61354,-2.5494 -9.2434,-5.0688 -13.87354,-7.58789 -0.51047,0.92297 -1.02094,1.84594 -1.54688,2.79687 -4.51459,8.12163 -9.12632,16.1885 -13.82812,24.20313 -0.51144,0.89042 -1.02287,1.78084 -1.5498,2.69824 -0.4863,0.82146 -0.9726,1.64291 -1.47364,2.48926 -0.42974,0.73605 -0.85948,1.47211 -1.30224,2.23047 -0.42878,0.52207 -0.85755,1.04414 -1.29932,1.58203 -0.99,0 -1.98,0 -3,0 -2.11727,-7.78123 -4.23038,-15.56358 -6.3387,-23.34724 -0.97993,-3.61727 -1.96109,-7.2342 -2.94548,-10.85027 -7.40586,-27.21084 -7.40586,-27.21084 -10.58691,-40.8728 -3.94431,-16.86782 -8.70116,-33.52646 -13.33124,-50.21576 -1.94052,-6.99861 -3.87289,-13.99947 -5.80681,-20.9999 -0.69834,-2.52721 -1.39724,-5.05426 -2.09618,-7.58131 -3.6933,-13.36118 -7.31922,-26.73947 -10.89468,-40.13272 -4.62,-0.33 -9.24,-0.66 -14,-1 -0.23713,0.96507 -0.47426,1.93014 -0.71858,2.92445 -2.4351,9.85648 -5.03421,19.65881 -7.73064,29.44664 -0.42129,1.53471 -0.84242,3.06947 -1.26338,4.60427 -1.10132,4.01369 -2.20474,8.02681 -3.3087,12.03978 -1.09234,3.97185 -2.18297,7.94418 -3.27362,11.9165 -0.32147,1.17074 -0.32147,1.17074 -0.64944,2.36512 -1.92896,7.02504 -3.85754,14.05019 -5.78544,21.07552 -0.8511,3.10134 -1.70285,6.2025 -2.55505,9.30353 -1.03635,3.77175 -2.07063,7.54407 -3.1035,11.31678 -0.38208,1.39438 -0.76482,2.78859 -1.14831,4.18259 -2.22686,8.09655 -4.3315,16.20355 -6.21334,24.38732 -4.80145,20.62939 -10.65425,41.01277 -16.25,61.4375 -3.80795,-0.7457 -3.80795,-0.7457 -5.53638,-3.03442 -0.47913,-0.88196 -0.95825,-1.76392 -1.4519,-2.67261 -0.53859,-0.97445 -1.07717,-1.9489 -1.63208,-2.95288 -0.83761,-1.56053 -0.83761,-1.56053 -1.69214,-3.15259 -1.15571,-2.10186 -2.31195,-4.20343 -3.46875,-6.30469 -0.82951,-1.52125 -0.82951,-1.52125 -1.67578,-3.07324 -1.89538,-3.45127 -3.85985,-6.85287 -5.85547,-10.24707 -0.53239,-0.90621 -1.06477,-1.81242 -1.61328,-2.74609 -0.3545,-0.59942 -0.70899,-1.19883 -1.07422,-1.81641 -5.69456,3.07651 -11.36148,6.1966 -16.9917,9.38916 -18.72684,10.61084 -18.72684,10.61084 -22.00831,10.61084 0.64668,-8.09371 2.96917,-15.75907 5.1289,-23.55078 0.42649,-1.55454 0.85246,-3.10922 1.27796,-4.66403 0.90733,-3.31162 1.818,-6.62229 2.73135,-9.93225 1.43377,-5.1965 2.85933,-10.39523 4.28342,-15.5944 1.92863,-7.039 3.8598,-14.07729 5.79321,-21.11499 3.62493,-13.19678 7.23788,-26.39679 10.83151,-39.60214 0.98895,-3.62911 1.983,-7.25679 2.97733,-10.88443 3.3178,-12.15831 6.40624,-24.31763 8.97632,-36.65698 -0.81727,0.37842 -1.63453,0.75684 -2.47657,1.14673 -25.8827,11.82947 -54.264871,18.28305 -82.523434,20.85327 -1.050264,0.10876 -2.100527,0.21753 -3.182617,0.32959 -17.25608,1.63219 -17.25608,1.63219 -22.689453,-1.36084 -3.27102,-2.7842 -5.243173,-6.20574 -7.14209,-10.01416 -1.001427,-1.98549 -2.111431,-3.8555 -3.278809,-5.74756 -14.95838,-24.64577 -25.63025455,-54.28082 -25.94531155,-83.30859 -0.01469,-1.12583 -0.01469,-1.12583 -0.02968,-2.2744 -0.171934,-16.59311 0.02449,-32.468733 4.26796005,-48.624044 0.203672,-0.815654 0.407344,-1.631309 0.617188,-2.47168 C 10.00414,48.236891 17.93408,28.870897 29.970556,12.384387 30.99565,10.952283 31.957806,9.474525 32.880224,7.9742304 37.515254,0.97453067 41.142233,0.1426768 49.313086,0.67149602 Z"
     fill="#f13b59"
     id="path2" />
  <path
     d="m 49.313086,0.67149602 c 1.579021,0.0558325 1.579021,0.0558325 3.189942,0.11279297 3.298964,0.14573736 6.580975,0.37435291 9.872558,0.63720701 1.506028,0.1174658 1.506028,0.1174658 3.04248,0.2373047 C 109.7443,5.4839444 155.36695,21.08302 191.37559,47.421496 c 2.5283,-1.217732 4.71773,-2.483372 7.0625,-4.0625 3.61489,-2.384289 6.14077,-3.061512 10.37378,-3.114502 1.34236,-0.01925 1.34236,-0.01925 2.71184,-0.03889 0.96561,-0.0074 1.93122,-0.01477 2.9261,-0.02238 0.9978,-0.0081 1.9956,-0.01614 3.02363,-0.02446 2.1141,-0.01384 4.22821,-0.02456 6.34234,-0.03243 3.21764,-0.01718 6.43424,-0.06106 9.65161,-0.105225 2.05663,-0.01013 4.11327,-0.01864 6.16992,-0.02539 0.95549,-0.01751 1.91098,-0.03502 2.89543,-0.05306 6.88055,0.0221 12.45677,1.259554 17.56262,6.113892 0.42248,0.450431 0.84495,0.900863 1.28023,1.364944 4.44772,-1.527331 8.04949,-3.960644 11.875,-6.625 34.49314,-23.325934 77.91003,-35.764787 119.125,-39.375 1.06734,-0.1087646 2.13469,-0.2175293 3.23437,-0.3295898 17.56153,-1.65164448 17.56153,-1.65164448 22.7461,1.5541992 3.67461,3.3791 5.89189,7.3041116 8.01953,11.7753906 0.40477,0.799219 0.80953,1.598437 1.22656,2.421875 0.38285,0.781172 0.38285,0.781172 0.77344,1.578125 -0.66,0.33 -1.32,0.66 -2,1 0,-0.66 0,-1.32 0,-2 -24.9998,0.61224 -48.54062,2.44482 -73,8 -1.17103,0.259343 -1.17103,0.259343 -2.36572,0.523926 -8.97493,2.00008 -17.46785,4.760594 -26.01709,8.10498 -2.94889,1.117775 -5.82796,2.050598 -8.86719,2.871094 -4.93164,1.390127 -9.24467,3.711306 -13.76953,6.082031 -3.61999,1.722221 -7.22375,2.766871 -11.11719,3.679688 -0.92232,0.365449 -0.92232,0.365449 -1.86328,0.738281 -0.33,0.99 -0.66,1.98 -1,3 -1.65,0.33 -3.3,0.66 -5,1 0,0.66 0,1.32 0,2 -0.67547,0.326133 -1.35094,0.652266 -2.04688,0.988281 -0.89203,0.436992 -1.78406,0.873985 -2.70312,1.324219 -0.88172,0.429258 -1.76344,0.858516 -2.67188,1.300781 -2.59158,1.301087 -2.59158,1.301087 -4.71875,3.054688 -1.85937,1.332032 -1.85937,1.332032 -4.85937,1.332032 -0.33,-1.32 -0.66,-2.64 -1,-4 -6.24379,-0.149071 -12.48653,-0.257558 -18.73169,-0.32959 -2.12128,-0.03005 -4.24243,-0.0709 -6.36328,-0.123047 -3.0611,-0.07334 -6.12055,-0.10694 -9.18237,-0.133301 -1.40681,-0.04645 -1.40681,-0.04645 -2.84203,-0.09384 -7.07208,-0.0036 -11.54063,2.054621 -16.88063,6.679779 -5.64783,6.951178 -6.29927,13.609554 -6.31885,22.228027 -0.01,1.015248 -0.0201,2.030495 -0.0304,3.076508 -0.0308,3.343795 -0.0479,6.687511 -0.0648,10.031402 -0.0187,2.323136 -0.0383,4.646276 -0.0587,6.969396 -0.0513,6.10566 -0.0909,12.21134 -0.12814,18.31711 -0.0401,6.23398 -0.0911,12.46787 -0.1413,18.70178 -0.0967,12.22519 -0.18115,24.45044 -0.25781,36.67578 -4.22133,-0.61063 -6.66112,-0.96557 -9.6875,-4.0625 -0.56074,-0.54785 -1.12148,-1.0957 -1.69922,-1.66016 -4.75173,-6.70764 -5.03944,-13.34998 -4.95386,-21.2832 -4.3e-4,-1.07406 -8.7e-4,-2.14812 -0.001,-3.25473 0.002,-3.52791 0.0254,-7.05533 0.0489,-10.58316 0.006,-2.45479 0.01,-4.90958 0.0129,-7.36438 0.0114,-6.44443 0.0409,-12.88866 0.0741,-19.33301 0.0308,-6.58261 0.0444,-13.165261 0.0595,-19.747926 0.0321,-12.903735 0.0833,-25.807319 0.14648,-38.710937 -2.64,-1.32 -5.28,-2.64 -8,-4 0,-0.66 0,-1.32 0,-2 -0.825,-0.0825 -1.65,-0.165 -2.5,-0.25 -3.66131,-0.784567 -6.39602,-2.057137 -9.66797,-3.8125 -1.97582,-1.069129 -1.97582,-1.069129 -4.83203,-1.9375 0,-0.66 0,-1.32 0,-2 -2.31,-0.33 -4.62,-0.66 -7,-1 0,-0.66 0,-1.32 0,-2 -0.78375,-0.0825 -1.5675,-0.165 -2.375,-0.25 -3.15175,-0.652086 -5.62077,-1.51043 -8.5625,-2.75 -4.06116,-1.693665 -7.68821,-2.432963 -12.0625,-3 -1.92886,-0.737631 -3.85723,-1.475746 -5.78399,-2.218019 -3.62484,-1.278954 -7.33427,-2.05704 -11.09131,-2.844482 -0.79519,-0.17064 -1.59038,-0.341279 -2.40967,-0.51709 -1.5575,-0.332909 -3.11559,-0.663114 -4.67432,-0.990234 -1.62529,-0.342555 -3.24775,-0.698524 -4.86914,-1.059082 -16.451959,-3.5534 -33.429033,-4.2282 -50.171874,-5.371094 -0.292053,0.768926 -0.584106,1.537852 -0.885009,2.330078 -1.300942,3.115195 -3.021433,5.476974 -5.052491,8.169922 -25.888608,34.453624 -35.80792,80.003444 -29.8125,122.375004 1.040602,6.70561 2.327621,13.36544 3.75,20 0.153721,0.71914 0.307441,1.43827 0.46582,2.1792 1.05047,4.59444 2.570936,8.65999 4.53418,12.9458 1.489955,3.3971 2.909621,6.72355 4.0625,10.25 0.862798,2.91587 0.862798,2.91587 2.9375,5.75 0,1.32 0,2.64 0,4 0.66,0 1.32,0 2,0 0.268125,0.70125 0.53625,1.4025 0.8125,2.125 1.172429,2.95762 1.172429,2.95762 2.8125,6 1.375,2.875 1.375,2.875 1.375,5.875 -0.33,0.66 -0.66,1.32 -1,2 -4.511494,-1.52132 -6.590505,-5.16398 -9.125,-8.9375 -0.717968,-1.06311 -0.717968,-1.06311 -1.450439,-2.14771 C 10.165894,180.64413 -0.08934755,146.96242 5.864547e-4,111.4215 0.00113045,110.60924 0.00168645,109.79698 0.00218645,108.9601 0.04274645,95.747165 1.0062085,83.248868 4.3755385,70.421496 4.5792105,69.605842 4.7828825,68.790187 4.9927265,67.949816 10.004093,48.236891 17.934033,28.870897 29.970509,12.384387 30.995603,10.952283 31.957759,9.474525 32.880177,7.9742304 37.515254,0.97453067 41.142233,0.1426768 49.313086,0.67149602 Z"
     fill="#fc5a73"
     id="path4" />
  <path
     d="m 261.37559,172.4215 c 0.66,0 1.32,0 2,0 0,0.66 0,1.32 0,2 0.57234,0.28617 1.14468,0.57234 1.73437,0.86718 5.13281,2.56641 5.13281,2.56641 10.26563,5.13282 0,0.66 0,1.32 0,2 1.98,0.66 3.96,1.32 6,2 0,0.66 0,1.32 0,2 0.81984,0.24621 1.63968,0.49242 2.48437,0.74609 4.11001,1.4659 7.88712,3.33098 11.76563,5.31641 0.71929,0.36416 1.43859,0.72832 2.17968,1.10351 1.85843,0.9414 3.71454,1.88737 5.57032,2.83399 0.66,0.33 1.32,0.66 2,1 0.41406,2.0664 0.41406,2.0664 0.625,4.5625 0.11214,1.23943 0.11214,1.23943 0.22656,2.5039 0.049,0.63809 0.098,1.27617 0.14844,1.9336 1.485,0.495 1.485,0.495 3,1 -0.33,2.31 -0.66,4.62 -1,7 -8.63289,-1.23327 -15.60902,-5.1368 -23.23828,-9.12305 -1.51508,-0.75418 -3.08099,-1.40466 -4.65235,-2.0332 -2.33914,-0.93566 -3.34913,-2.08351 -5.10937,-3.84375 -1.66355,-0.67441 -3.33067,-1.34004 -5,-2 -0.99,-0.72188 -1.98,-1.44375 -3,-2.1875 -2.74976,-2.08556 -2.74976,-2.08556 -5.28907,-1.51953 -0.89461,0.23332 -1.78921,0.46664 -2.71093,0.70703 -1.01836,0.23718 -2.03672,0.47437 -3.08594,0.71875 -1.62809,0.38672 -1.62809,0.38672 -3.28906,0.78125 -4.53875,1.05612 -8.99795,1.96197 -13.625,2.5 -0.13278,-0.73606 -0.26555,-1.47211 -0.40235,-2.23047 -0.2649,-1.46373 -0.2649,-1.46373 -0.53515,-2.95703 -0.17403,-0.96293 -0.34805,-1.92586 -0.52735,-2.91797 -0.35228,-1.9054 -0.73953,-3.80471 -1.16406,-5.69531 -0.18369,-1.08862 -0.18369,-1.08862 -0.37109,-2.19922 1.72806,-1.72807 4.20646,-1.2093 6.5625,-1.3125 5.8018,-0.41491 9.43447,-1.8154 14.4375,-4.6875 0.66,0 1.32,0 2,0 0.66,-1.32 1.32,-2.64 2,-4 z"
     fill="#d72647"
     id="path6" />
  <path
     d="m 193.59068,173.67223 c 1.78491,0.74926 1.78491,0.74926 3.09741,2.12426 6.11894,5.89232 14.72152,5.3046 22.6875,5.625 0,0.66 0,1.32 0,2 -0.66,0 -1.32,0 -2,0 0,2.97 0,5.94 0,9 -0.66,0.33 -1.32,0.66 -2,1 -0.65213,2.02464 -0.65213,2.02464 -1,4 -6.94411,0.54228 -12.07315,-0.42204 -18.45703,-3.22265 -3.65856,-1.11836 -6.11761,-0.4886 -9.49219,1.19531 -0.57363,0.35965 -1.14727,0.7193 -1.73828,1.08984 -3.3125,1.9375 -3.3125,1.9375 -5.3125,1.9375 0,0.66 0,1.32 0,2 -1.45626,0.6712 -2.91508,1.33682 -4.375,2 -0.81211,0.37125 -1.62422,0.7425 -2.46094,1.125 -2.16406,0.875 -2.16406,0.875 -4.16406,0.875 -0.33,0.99 -0.66,1.98 -1,3 -3.60379,1.5216 -6.05221,2 -10,2 0,0.66 0,1.32 0,2 -1.62101,0.69686 -3.24696,1.38223 -4.875,2.0625 -0.90492,0.38286 -1.80985,0.76571 -2.74219,1.16016 -2.38281,0.77734 -2.38281,0.77734 -4.38281,-0.22266 0.66,-0.99 1.32,-1.98 2,-3 0.39388,-2.32388 0.73486,-4.65793 1,-7 0.66,0 1.32,0 2,0 -0.33,-2.31 -0.66,-4.62 -1,-7 1.10473,-0.55945 2.20945,-1.1189 3.34765,-1.69531 10.69052,-5.48903 20.97652,-11.41159 31.08423,-17.92041 0.92869,-0.58443 1.85738,-1.16886 2.81421,-1.771 0.8217,-0.52811 1.6434,-1.05622 2.48999,-1.60034 2.26392,-1.01294 2.26392,-1.01294 4.47901,-0.7622 z"
     fill="#d72547"
     id="path8" />
  <path
     d="m 131.37559,72.421496 c 4.05744,0.812531 8.01625,1.886974 12,3 1.43648,0.337707 2.87385,0.671644 4.3125,1 3.6875,1 3.6875,1 6.875,2.5 4.27845,1.944753 8.76692,2.329332 13.38672,2.96875 7.07941,1.097834 13.77891,2.872503 20.42578,5.53125 0,5.28 0,10.56 0,16.000004 -6.89867,-1.19977 -13.76645,-2.52835 -20.625,-3.937504 -0.78673,-0.157588 -1.57347,-0.315176 -2.38404,-0.477539 -4.71959,-0.981793 -9.19212,-2.280203 -13.74536,-3.855713 -3.73195,-1.211931 -7.53717,-2.032327 -11.3706,-2.854248 -0.75926,-0.168867 -1.51852,-0.337734 -2.30078,-0.511719 -3.47752,-0.760144 -6.87838,-1.402268 -10.41407,-1.855469 -4.41565,-0.709561 -6.26695,-2.120645 -9.16015,-5.507812 -0.66389,-3.101779 -0.74617,-5.911226 0,-9 3.25789,-4.532725 7.94693,-3.519665 13,-3 z"
     fill="#d82647"
     id="path10" />
  <path
     d="m 266.37559,119.4215 c 4.31407,0.76272 8.6261,1.53489 12.9375,2.3125 1.81854,0.32001 1.81854,0.32001 3.67382,0.64648 5.90777,1.07268 11.51567,2.28549 17.1648,4.31567 5.38928,1.75778 11.05418,2.6497 16.60864,3.74292 6.43812,1.32891 12.75159,2.92297 18.61524,5.98243 1.72635,3.4527 1.48406,7.22429 1,11 -1.5625,2.0625 -1.5625,2.0625 -4,3 -6.25718,0.45405 -11.76197,-0.95998 -17.79688,-2.51953 -1.02942,-0.25924 -2.05883,-0.51848 -3.11944,-0.78557 -3.27991,-0.82808 -6.55674,-1.66768 -9.83368,-2.5074 -2.18732,-0.55347 -4.37482,-1.10621 -6.5625,-1.65821 -9.58684,-2.42634 -19.15204,-4.90738 -28.6875,-7.52929 0,-5.28 0,-10.56 0,-16 z"
     fill="#d82547"
     id="path12" />
  <path
     d="m 335.31309,73.421496 c 1.74372,3.282307 1.75899,6.440913 1.0625,10 -2.56697,4.125477 -5.41429,5.318612 -9.9375,6.5 -1.65415,0.361651 -3.30881,0.721296 -4.96729,1.0625 -3.44515,0.719379 -6.8759,1.501898 -10.30835,2.279297 -1.89639,0.428664 -3.79397,0.85211 -5.69287,1.269531 -5.30887,1.1826 -10.49503,2.568697 -15.69214,4.17041 -3.72548,1.114085 -7.49137,2.021336 -11.27685,2.905766 -0.73219,0.17724 -1.46438,0.35449 -2.21875,0.53711 -3.42596,0.80665 -6.36523,1.27539 -9.90625,1.27539 0,-5.280004 0,-10.560004 0,-16.000004 3.44063,-1.376252 5.66798,-2.232078 9.125,-2.8125 4.86286,-0.919809 9.60072,-2.148615 14.375,-3.4375 8.05258,-2.153043 16.1366,-4.151456 24.25,-6.0625 1.10666,-0.266514 2.21332,-0.533027 3.35351,-0.807617 13.46666,-3.133985 13.46666,-3.133985 17.83399,-0.879883 z"
     fill="#d82547"
     id="path14" />
  <path
     d="m 188.37559,119.4215 c 0,5.28 0,10.56 0,16 -3.19011,0.71614 -6.38021,1.43229 -9.57032,2.14843 -3.38168,0.78453 -3.38168,0.78453 -6.39843,1.88282 -3.46253,1.10658 -6.80459,1.61805 -10.40625,2.09375 -1.24524,0.16757 -2.49047,0.33515 -3.77344,0.50781 -0.94102,0.12117 -1.88203,0.24234 -2.85156,0.36719 0,0.66 0,1.32 0,2 -4.14002,1.04547 -8.28766,2.05681 -12.4375,3.0625 -1.16467,0.29455 -2.32934,0.5891 -3.5293,0.89257 -6.70899,1.60638 -12.26422,2.71792 -19.0332,1.04493 -2.17318,-3.35975 -2.48609,-6.03029 -2,-10 1.25,-2.6875 1.25,-2.6875 4,-5 5.59035,-1.98616 11.41373,-2.91259 17.25,-3.875 4.62391,-0.78945 8.99026,-2.10061 13.4375,-3.5625 6.86146,-2.24911 13.68447,-3.71503 20.79297,-4.9375 2.82447,-0.50158 5.56075,-1.08296 8.33203,-1.8125 3.1875,-0.8125 3.1875,-0.8125 6.1875,-0.8125 z"
     fill="#d72546"
     id="path16" />
  <path
     d="m 342.37559,335.4215 c 1.79385,2.69077 2.489,4.27386 3.28906,7.30859 0.21914,0.82951 0.43828,1.65902 0.66406,2.51367 0.22172,0.86303 0.44344,1.72606 0.67188,2.61524 0.22945,0.85916 0.4589,1.71832 0.69531,2.60351 1.00463,3.85408 1.67969,6.93285 1.67969,10.95899 -5.60477,-1.57805 -10.35051,-4.26417 -15.375,-7.125 -0.83145,-0.46793 -1.66289,-0.93586 -2.51953,-1.41797 -2.03782,-1.14774 -4.07283,-2.30017 -6.10547,-3.45703 3.41632,-0.9792 5.52928,-0.80094 9,0 0.99,0 1.98,0 3,0 0,-1.98 0,-3.96 0,-6 1.32,-0.66 2.64,-1.32 4,-2 -0.0206,-0.80438 -0.0412,-1.60875 -0.0625,-2.4375 0.0625,-2.5625 0.0625,-2.5625 1.0625,-3.5625 z"
     fill="#ee3b58"
     id="path18" />
  <path
     d="m 163.37559,31.421496 c 4.99892,1.440367 9.04801,3.610934 13.4375,6.3125 0.94456,0.56751 0.94456,0.56751 1.9082,1.146484 4.36968,2.654142 8.52329,5.529382 12.6543,8.541016 0.59812,-0.33 1.19625,-0.66 1.8125,-1 2.1875,-1 2.1875,-1 5.1875,-1 -2.4642,2.687019 -4.8923,5.07217 -8,7 -3.73312,0.09105 -6.68179,-1.340892 -10,-3 0,-0.66 0,-1.32 0,-2 -0.94875,-0.0825 -1.8975,-0.165 -2.875,-0.25 -3.125,-0.75 -3.125,-0.75 -4.5,-2.625 -0.625,-2.125 -0.625,-2.125 -0.625,-5.125 -0.66,-0.33 -1.32,-0.66 -2,-1 0,-0.99 0,-1.98 0,-3 -2.97,-0.495 -2.97,-0.495 -6,-1 -0.33,-0.99 -0.66,-1.98 -1,-3 z"
     fill="#f7637a"
     id="path20" />
  <path
     d="m 283.37559,356.4215 c 0.33,0 0.66,0 1,0 0.99,2.97 1.98,5.94 3,9 0,-0.99 0,-1.98 0,-3 0.66,0 1.32,0 2,0 0,-0.66 0,-1.32 0,-2 0.66,0 1.32,0 2,0 -0.33,1.65 -0.66,3.3 -1,5 0.5775,-0.825 1.155,-1.65 1.75,-2.5 0.7425,-0.825 1.485,-1.65 2.25,-2.5 1.32,0 2.64,0 4,0 -1.48599,3.98481 -3.33837,7.61531 -5.4375,11.3125 -0.59684,1.06863 -1.19368,2.13726 -1.8086,3.23828 -0.86818,1.21236 -0.86818,1.21236 -1.7539,2.44922 -0.99,0 -1.98,0 -3,0 -0.70297,-2.37137 -1.38747,-4.74568 -2.0625,-7.125 -0.29874,-0.99774 -0.29874,-0.99774 -0.60352,-2.01563 -1.2064,-4.31765 -1.41188,-7.50713 -0.33398,-11.85937 z"
     fill="#ec3c57"
     id="path22" />
  <path
     d="m 91.375586,6.421496 c 6.547314,0.5658985 12.517504,1.7655352 18.812504,3.625 1.34131,0.388894 1.34131,0.388894 2.70971,0.785645 9.61653,2.838934 19.05538,6.168548 28.47779,9.589355 0,0.66 0,1.32 0,2 -1.32,0 -2.64,0 -4,0 0,-0.66 0,-1.32 0,-2 -3.63,-0.66 -7.26,-1.32 -11,-2 0,-0.66 0,-1.32 0,-2 -1.01321,-0.07348 -1.01321,-0.07348 -2.04688,-0.148437 -0.89203,-0.07477 -1.78406,-0.149532 -2.70312,-0.226563 -1.32258,-0.104414 -1.32258,-0.104414 -2.67188,-0.210937 -2.60225,-0.417938 -4.27917,-1.172533 -6.57812,-2.414063 -5.65059,-1.628135 -11.14844,-2.485279 -17.000004,-3 0,-0.66 0,-1.32 0,-2 -1.32,0 -2.64,0 -4,0 0,-0.66 0,-1.32 0,-2 z"
     fill="#f0798c"
     id="path24" />
  <path
     d="m 320.37559,254.4215 c 1.40173,2.65395 2.44378,5.19006 3.25268,8.07837 0.22331,0.79084 0.44661,1.58168 0.67668,2.3965 0.35014,1.26734 0.35014,1.26734 0.70736,2.56028 0.24369,0.87507 0.48739,1.75014 0.73847,2.65172 0.51232,1.84603 1.02238,3.69269 1.53032,5.53993 0.78078,2.83134 1.575,5.65868 2.36988,8.48609 0.49627,1.79469 0.99174,3.58961 1.48633,5.38476 0.23949,0.84692 0.47899,1.69384 0.72575,2.56642 0.21385,0.7877 0.4277,1.57539 0.64802,2.38695 0.19161,0.69187 0.38321,1.38374 0.58062,2.09657 0.28389,1.85241 0.28389,1.85241 -0.71611,4.85241 -3.324,-6.53505 -4.97061,-12.75362 -6,-20 -0.66,0 -1.32,0 -2,0 -0.0374,-0.70125 -0.0748,-1.4025 -0.11328,-2.125 -0.37888,-5.46766 -1.10864,-9.9193 -3.25391,-14.94922 -1.09311,-3.32656 -0.81872,-6.45554 -0.63281,-9.92578 z"
     fill="#df5b74"
     id="path26" />
  <path
     d="m 345.37559,346.4215 c 1.74325,2.61488 2.41588,4.00534 3.125,6.9375 0.16757,0.66902 0.33515,1.33804 0.50781,2.02734 0.36719,2.03516 0.36719,2.03516 0.36719,6.03516 -5.47933,-1.54545 -10.1143,-4.15544 -15,-7 3.75,-1.125 3.75,-1.125 6,0 0.33,-0.99 0.66,-1.98 1,-3 0.99,-0.66 1.98,-1.32 3,-2 0.33,-0.99 0.66,-1.98 1,-3 z"
     fill="#e75972"
     id="path28" />
  <path
     d="m 330.37559,207.4215 c 1.33439,0.0896 2.66754,0.19771 4,0.3125 0.7425,0.058 1.485,0.11601 2.25,0.17578 3.01481,0.56099 5.6684,1.64879 8.51562,2.76098 3.98172,1.33783 8.08651,1.85524 12.23438,2.43824 0.87011,0.12955 1.74023,0.2591 2.63672,0.39257 2.11994,0.3145 4.24146,0.61834 6.36328,0.91993 0,0.66 0,1.32 0,2 3.96,0 7.92,0 12,0 0,0.33 0,0.66 0,1 -8.00965,1.42985 -14.50801,0.37092 -22.3125,-1.6875 -1.09563,-0.27602 -2.19125,-0.55204 -3.32007,-0.83643 -7.52938,-1.92132 -15.00359,-3.9873 -22.36743,-6.47607 0,-0.33 0,-0.66 0,-1 z"
     fill="#e56b7f"
     id="path30" />
  <path
     d="m 146.37559,197.4215 c 0.99,0 1.98,0 3,0 0.33,2.31 0.66,4.62 1,7 -0.66,0 -1.32,0 -2,0 0.0206,1.09312 0.0413,2.18625 0.0625,3.3125 -0.0625,3.6875 -0.0625,3.6875 -1.0625,6.6875 0.66,0.33 1.32,0.66 2,1 -0.59813,0.59812 -1.19625,1.19625 -1.8125,1.8125 -2.63523,3.8399 -3.45373,7.35891 -4.47657,11.85937 -0.23461,0.76828 -0.46921,1.53656 -0.71093,2.32813 -0.99,0.495 -0.99,0.495 -2,1 1.31826,-7.61965 2.88005,-15.15482 4.625,-22.6875 0.22945,-0.99967 0.4589,-1.99934 0.69531,-3.0293 0.55768,-2.42825 1.1176,-4.85597 1.67969,-7.2832 -0.66,-0.33 -1.32,-0.66 -2,-1 0.33,-0.33 0.66,-0.66 1,-1 z"
     fill="#d94a6e"
     id="path32" />
  <path
     d="m 228.37559,180.234 c 1.88718,-0.0213 1.88718,-0.0213 3.8125,-0.043 3.1875,0.23047 3.1875,0.23047 5.1875,2.23047 0.39171,1.65391 0.72057,3.32345 1,5 0.18562,0.61875 0.37125,1.2375 0.5625,1.875 0.62754,3.04806 0.49713,6.02405 0.4375,9.125 -2.59289,-4.73483 -3.63825,-9.80059 -5,-15 -6.93,-0.495 -6.93,-0.495 -14,-1 -0.66,2.97 -1.32,5.94 -2,9 -0.33,0 -0.66,0 -1,0 0,-2.64 0,-5.28 0,-8 0.66,0 1.32,0 2,0 0,-0.66 0,-1.32 0,-2 2.97041,-1.48521 5.69764,-1.17059 9,-1.1875 z"
     fill="#d75f75"
     id="path34" />
  <path
     d="m 294.37559,360.4215 c 1.32,0 2.64,0 4,0 -1.48599,3.98481 -3.33837,7.61531 -5.4375,11.3125 -0.59684,1.06863 -1.19368,2.13726 -1.8086,3.23828 -0.57879,0.80824 -1.15758,1.61648 -1.7539,2.44922 -0.99,0 -1.98,0 -3,0 0.33,-1.65 0.66,-3.3 1,-5 0.99,0 1.98,0 3,0 -0.0825,-0.86625 -0.165,-1.7325 -0.25,-2.625 0.31202,-4.21231 1.5208,-6.19094 4.25,-9.375 z"
     fill="#eb6d83"
     id="path36" />
  <path
     d="m 254.37559,253.4215 c 3.23254,3.86619 4.42944,7.89262 5.9375,12.63672 0.35062,0.77988 0.70125,1.55976 1.0625,2.36328 0.99,0.33 1.98,0.66 3,1 -1,2 -1,2 -2,3 -0.0406,1.66617 -0.0427,3.33388 0,5 0.66,0 1.32,0 2,0 -0.99,2.475 -0.99,2.475 -2,5 -2.46195,-4.61334 -3.70425,-9.48998 -5.125,-14.5 -0.27715,-0.95004 -0.5543,-1.90008 -0.83985,-2.87891 -0.39252,-1.37478 -0.39252,-1.37478 -0.79297,-2.77734 -0.23863,-0.83338 -0.47727,-1.66676 -0.72314,-2.52539 -0.51904,-2.31836 -0.51904,-2.31836 -0.51904,-6.31836 z"
     fill="#e44f69"
     id="path38" />
  <path
     d="m 52.375586,1.421496 c 7.665034,-0.2318184 15.034466,0.4762464 22.625,1.5 1.09957,0.1430859 2.199141,0.2861719 3.332031,0.4335937 2.681789,0.3497986 5.362675,0.7053635 8.042969,1.0664063 0,0.33 0,0.66 0,1 -7.554974,0.1382007 -15.079672,-0.081321 -22.625,-0.4375 C 62.861455,4.9447602 61.972325,4.9055243 61.056251,4.8650995 59.802798,4.8021369 59.802798,4.8021369 58.524024,4.7379023 57.397464,4.6829157 57.397464,4.6829157 56.248145,4.6268183 54.375586,4.421496 54.375586,4.421496 52.375586,3.421496 c 0,-0.66 0,-1.32 0,-2 z"
     fill="#ef7e90"
     id="path40" />
  <path
     d="m 401.37559,1.421496 c -0.33,0.66 -0.66,1.32 -1,2 -1.73413,0.3947754 -1.73413,0.3947754 -3.96485,0.5976563 -0.79986,0.079277 -1.59972,0.1585546 -2.42383,0.2402343 -0.84111,0.074121 -1.68222,0.1482422 -2.54882,0.2246094 -1.65527,0.1541856 -3.31024,0.3115881 -4.96485,0.4726563 -1.10589,0.098734 -1.10589,0.098734 -2.23413,0.1994628 -1.95188,0.1776228 -1.95188,0.1776228 -3.86352,1.2653809 -4.16736,0.1572586 -7.94442,-0.016829 -12,-1 0,-0.33 0,-0.66 0,-1 3.8113,-0.5094378 7.62419,-1.0058065 11.4375,-1.5 1.06927,-0.1430859 2.13855,-0.2861719 3.24023,-0.4335938 6.1677,-0.7921811 12.10447,-1.2233222 18.32227,-1.0664062 z"
     fill="#ef7e8e"
     id="path42" />
  <path
     d="m 201.37559,243.4215 c 0.66,0 1.32,0 2,0 -2.16678,9.38204 -4.3592,18.73719 -7,28 -1.46063,-2.64739 -2,-3.89449 -2,-7 0.55876,-1.88903 1.17009,-3.76276 1.8125,-5.625 0.36222,-1.05961 0.72445,-2.11922 1.09765,-3.21094 0.35965,-1.04414 0.7193,-2.08828 1.08985,-3.16406 0.58553,-1.74927 1.16916,-3.49917 1.75,-5.25 0.4125,-1.2375 0.825,-2.475 1.25,-3.75 z"
     fill="#df5f76"
     id="path44" />
  <path
     d="m 118.37559,309.4215 c 0.33,0 0.66,0 1,0 -0.14025,2.4796 -0.28692,4.95852 -0.4375,7.4375 -0.0393,0.70705 -0.0786,1.4141 -0.11914,2.14257 -0.33008,5.30665 -0.33008,5.30665 -1.44336,6.41993 -0.14438,1.11375 -0.28875,2.2275 -0.4375,3.375 -0.5625,3.625 -0.5625,3.625 -2.5625,6.625 -0.66,0 -1.32,0 -2,0 0.60498,-6.06371 1.8633,-11.65515 3.5625,-17.5 0.23396,-0.82243 0.46793,-1.64485 0.70898,-2.49219 0.57094,-2.0041 1.14898,-4.00618 1.72852,-6.00781 z"
     fill="#e76f84"
     id="path46" />
  <path
     d="m 242.37559,209.4215 c 0.66,0 1.32,0 2,0 0,1.32 0,2.64 0,4 0.66,0 1.32,0 2,0 0.12117,0.65226 0.24234,1.30453 0.36718,1.97656 1.07421,5.62365 1.07421,5.62365 2.75782,11.08594 1.19399,4.00839 1.04103,7.78655 0.875,11.9375 -2.46195,-4.61334 -3.70425,-9.48998 -5.125,-14.5 -0.27715,-0.95004 -0.5543,-1.90008 -0.83985,-2.87891 -0.39252,-1.37478 -0.39252,-1.37478 -0.79297,-2.77734 -0.23863,-0.83338 -0.47727,-1.66676 -0.72314,-2.52539 -0.51904,-2.31836 -0.51904,-2.31836 -0.51904,-6.31836 z"
     fill="#e76e84"
     id="path48" />
  <path
     d="m 421.37559,205.4215 c 1.67543,0.28605 3.34385,0.61781 5,1 -1.40399,4.1011 -3.37087,6.98089 -6.125,10.3125 -0.72446,0.883 -1.44891,1.76601 -2.19532,2.67578 -0.55429,0.66386 -1.10859,1.32773 -1.67968,2.01172 -0.66,-0.33 -1.32,-0.66 -2,-1 0.33,-1.65 0.66,-3.3 1,-5 0.99,-0.33 1.98,-0.66 3,-1 0.33,-1.98 0.66,-3.96 1,-6 0.33,0.66 0.66,1.32 1,2 0.66,0 1.32,0 2,0 0,-0.99 0,-1.98 0,-3 -0.66,-0.33 -1.32,-0.66 -2,-1 0.33,-0.33 0.66,-0.66 1,-1 z"
     fill="#ea6680"
     id="path50" />
  <path
     d="m 358.37559,8.421496 c 0,0.66 0,1.32 0,2 -1.7325,0.154688 -1.7325,0.154688 -3.5,0.3125 -3.07285,0.367229 -5.59528,1.037621 -8.4375,2.25 -4.36803,1.788893 -8.40482,1.728605 -13.0625,1.4375 3.80773,-2.538491 7.56055,-3.473028 11.9375,-4.6875 0.81146,-0.237832 1.62293,-0.475664 2.45898,-0.7207031 0.78568,-0.2197852 1.57137,-0.4395703 2.38086,-0.6660156 0.71406,-0.20198 1.42812,-0.40396 2.16382,-0.6120606 2.31006,-0.3520017 3.85114,-0.023126 6.05884,0.6862793 z"
     fill="#ec7588"
     id="path52" />
  <path
     d="m 451.37559,79.421496 c 0.33,0 0.66,0 1,0 1.97533,9.680755 1.99849,18.244422 1,28.000004 -0.33,0 -0.66,0 -1,0 -0.0606,-1.07121 -0.12118,-2.14243 -0.1836,-3.2461 -0.0844,-1.39715 -0.16904,-2.79428 -0.2539,-4.191404 -0.059,-1.060576 -0.059,-1.060576 -0.11914,-2.142578 0.0804,-3.506826 0.0804,-3.506826 -1.44336,-6.419922 -0.0985,-1.643409 -0.12973,-3.291146 -0.125,-4.9375 -0.003,-0.895898 -0.005,-1.791797 -0.008,-2.714844 0.13282,-2.347656 0.13282,-2.347656 1.13282,-4.347656 z"
     fill="#e7536d"
     id="path54" />
  <path
     d="m 276.37559,332.4215 c 0.66666,1.33333 1.33333,2.66666 2,4 0.37125,0.5775 0.7425,1.155 1.125,1.75 1.3366,3.43698 0.99738,6.57854 0.875,10.25 0.66,0 1.32,0 2,0 -0.33,1.98 -0.66,3.96 -1,6 -2.2369,-3.35534 -3.16736,-6.59631 -4.1875,-10.4375 -0.19014,-0.66838 -0.38028,-1.33676 -0.57618,-2.02539 -0.93339,-3.47525 -1.60713,-6.1232 -0.23632,-9.53711 z"
     fill="#e98294"
     id="path56" />
  <path
     d="m 115.37559,13.421496 c 9.2478,0.336284 17.42966,3.782433 26,7 0,0.66 0,1.32 0,2 -1.32,0 -2.64,0 -4,0 0,-0.66 0,-1.32 0,-2 -3.63,-0.66 -7.26,-1.32 -11,-2 0,-0.66 0,-1.32 0,-2 -0.71028,-0.04898 -1.42055,-0.09797 -2.15235,-0.148437 -0.9191,-0.07477 -1.8382,-0.149532 -2.78515,-0.226563 -0.91653,-0.06961 -1.83305,-0.139219 -2.77735,-0.210937 -1.13115,-0.204961 -1.13115,-0.204961 -2.28515,-0.414063 -0.33,-0.66 -0.66,-1.32 -1,-2 z"
     fill="#e77487"
     id="path58" />
  <path
     d="m 309.37559,338.4215 c 0.66,0 1.32,0 2,0 -1.48519,4.04301 -3.42878,7.61146 -5.625,11.3125 -0.63164,1.06863 -1.26328,2.13726 -1.91407,3.23828 -0.48211,0.80824 -0.96421,1.61648 -1.46093,2.44922 -0.66,-0.66 -1.32,-1.32 -2,-2 0.66666,-2 1.33333,-4 2,-6 0.66,0 1.32,0 2,0 0,-0.66 0,-1.32 0,-2 0.66,0 1.32,0 2,0 0,-1.65 0,-3.3 0,-5 0.99,0 1.98,0 3,0 0,-0.66 0,-1.32 0,-2 z"
     fill="#e37889"
     id="path60" />
  <path
     d="m 212.37559,205.4215 c 1.0354,3.18489 0.9404,5.13031 0.004,8.32812 -0.34321,1.19883 -0.34321,1.19883 -0.69336,2.42188 -0.24685,0.825 -0.49371,1.65 -0.74804,2.5 -0.24299,0.84047 -0.48598,1.68093 -0.73633,2.54687 -0.59991,2.07028 -1.21188,4.13707 -1.82617,6.20313 -0.33,0 -0.66,0 -1,0 -0.0272,-1.58324 -0.0465,-3.16661 -0.0625,-4.75 -0.0116,-0.88172 -0.0232,-1.76344 -0.0352,-2.67188 0.0894,-2.36001 0.42853,-4.32311 1.09766,-6.57812 0.66,0 1.32,0 2,0 0.14437,-1.13438 0.28875,-2.26875 0.4375,-3.4375 0.5625,-3.5625 0.5625,-3.5625 1.5625,-4.5625 z"
     fill="#e77084"
     id="path62" />
  <path
     d="m 38.375586,1.421496 c 0.66,0.33 1.32,0.66 2,1 -0.625,3.3125 -0.625,3.3125 -2,7 -3,1.6875 -3,1.6875 -6,3 -1.404669,2.050931 -1.404669,2.050931 -2,4 -0.99,0 -1.98,0 -3,0 1.644695,-2.313318 3.290697,-4.625685 4.9375,-6.9375 0.468575,-0.6593555 0.937149,-1.3187109 1.419922,-1.9980469 3.529297,-4.9511719 3.529297,-4.9511719 4.642578,-6.0644531 z"
     fill="#f28697"
     id="path64" />
  <path
     d="m 380.37559,218.4215 c 6.27,0 12.54,0 19,0 0.33,0.99 0.66,1.98 1,3 -2.95919,-0.11359 -5.91677,-0.24033 -8.875,-0.375 -0.84176,-0.0309 -1.68352,-0.0619 -2.55078,-0.0937 -0.80567,-0.0387 -1.61133,-0.0773 -2.44141,-0.11719 -0.74363,-0.0314 -1.48726,-0.0628 -2.25342,-0.0952 -1.87939,-0.31884 -1.87939,-0.31884 -3.87939,-2.31884 z"
     fill="#e1657b"
     id="path66" />
  <path
     d="m 125.37559,283.4215 c 0.33,0 0.66,0 1,0 0.56002,8.12029 -1.13457,15.38672 -4,23 -0.66,0.33 -1.32,0.66 -2,1 0.58359,-8.31617 2.73799,-16.0146 5,-24 z"
     fill="#e26679"
     id="path68" />
  <path
     d="m 265.37559,293.4215 c 0.99,0.33 1.98,0.66 3,1 0.66,5.61 1.32,11.22 2,17 0.66,0 1.32,0 2,0 -0.33,2.31 -0.66,4.62 -1,7 -2.30475,-3.90354 -3.1233,-8.12963 -4.125,-12.5 -0.18176,-0.75926 -0.36352,-1.51852 -0.55078,-2.30078 -0.8341,-3.58095 -1.32422,-6.47296 -1.32422,-10.19922 z"
     fill="#d74d63"
     id="path70" />
  <path
     d="m 333.37559,302.4215 c 2.25017,3.37526 3.13005,6.63075 4.125,10.5 0.18175,0.67675 0.36351,1.35351 0.55078,2.05078 0.76104,2.90111 1.32422,5.43696 1.32422,8.44922 -0.99,0 -1.98,0 -3,0 -0.50922,-2.18538 -1.00695,-4.37343 -1.5,-6.5625 -0.27844,-1.21817 -0.55688,-2.43633 -0.84375,-3.69141 -0.64263,-3.66832 -0.771,-7.03112 -0.65625,-10.74609 z"
     fill="#e67488"
     id="path72" />
  <path
     d="m 19.375586,188.4215 c 1.9375,0.0625 1.9375,0.0625 4,1 1.886982,4.05701 2.211171,7.56542 2,12 -2.600458,-2.30242 -3.847391,-4.49897 -5.1875,-7.6875 -0.344179,-0.80825 -0.688359,-1.61649 -1.042968,-2.44922 -0.253946,-0.61489 -0.507891,-1.22977 -0.769532,-1.86328 0.33,-0.33 0.66,-0.66 1,-1 z"
     fill="#f46a82"
     id="path74" />
  <path
     d="m 342.37559,335.4215 c 2.29633,3.4445 2.54016,5.93812 3,10 -1.65,0.33 -3.3,0.66 -5,1 0,-0.66 0,-1.32 0,-2 -0.66,0 -1.32,0 -2,0 0.33,-0.99 0.66,-1.98 1,-3 0.66,0 1.32,0 2,0 -0.0206,-0.80438 -0.0412,-1.60875 -0.0625,-2.4375 0.0625,-2.5625 0.0625,-2.5625 1.0625,-3.5625 z"
     fill="#e95a74"
     id="path76" />
  <path
     d="m 146.37559,197.4215 c 0.99,0 1.98,0 3,0 0.33,2.31 0.66,4.62 1,7 -0.66,0 -1.32,0 -2,0 0,2.31 0,4.62 0,7 -0.99,0.33 -1.98,0.66 -3,1 0.51958,-4.37934 1.05675,-8.68804 2,-13 -0.66,-0.33 -1.32,-0.66 -2,-1 0.33,-0.33 0.66,-0.66 1,-1 z"
     fill="#d0556b"
     id="path78" />
  <path
     d="m 181.37559,319.4215 c 0.66,0 1.32,0 2,0 -1.32,5.61 -2.64,11.22 -4,17 -2.24438,-4.48875 -2.15811,-7.28353 -1,-12 1.4375,-3 1.4375,-3 3,-5 z"
     fill="#e3778b"
     id="path80" />
  <path
     d="m 448.37559,150.4215 c 0.66,0 1.32,0 2,0 -0.61778,2.60607 -1.24388,5.20965 -1.875,7.8125 -0.17403,0.73798 -0.34805,1.47597 -0.52735,2.23632 -0.84258,3.44835 -1.61051,5.97046 -3.59765,8.95118 -0.537,-7.11514 1.30292,-12.44996 4,-19 z"
     fill="#e1526d"
     id="path82" />
  <path
     d="m 276.37559,38.421496 c 0.66,0.33 1.32,0.66 2,1 -3.04154,4.460927 -5.44955,7.280414 -10.875,8.4375 -1.37098,0.214923 -2.74543,0.41228 -4.125,0.5625 3.7175,-4.2024 8.31661,-6.997827 13,-10 z"
     fill="#f27b8d"
     id="path84" />
  <path
     d="m 327.37559,280.4215 c 2.24813,3.3722 3.16868,6.63804 4.1875,10.5 0.19013,0.67675 0.38027,1.35351 0.57617,2.05078 0.895,3.34883 1.35533,5.0922 0.23633,8.44922 -3.43665,-7.33684 -5.1608,-12.79956 -5,-21 z"
     fill="#e56a7d"
     id="path86" />
  <path
     d="m 333.37559,15.421496 c -3.88033,2.753783 -7.414,3.661293 -12.01172,4.472656 -2.20151,0.405772 -2.20151,0.405772 -3.98828,2.527344 -1.32,0 -2.64,0 -4,0 0,-0.66 0,-1.32 0,-2 2.76711,-1.032059 5.53791,-2.050908 8.3125,-3.0625 0.78568,-0.294551 1.57136,-0.589102 2.38086,-0.892578 0.75732,-0.273926 1.51464,-0.547852 2.29492,-0.830078 0.69649,-0.256604 1.39299,-0.513208 2.11059,-0.777588 1.90113,-0.437256 1.90113,-0.437256 4.90113,0.562744 z"
     fill="#ea697e"
     id="path88" />
  <path
     d="m 130.37559,265.4215 c 0.33,0 0.66,0 1,0 -0.11434,2.25056 -0.24187,4.50046 -0.375,6.75 -0.0696,1.25296 -0.13922,2.50593 -0.21094,3.79687 -0.3673,3.06311 -0.81118,4.87287 -2.41406,7.45313 -0.66,0 -1.32,0 -2,0 1.16554,-6.05093 2.45343,-12.03467 4,-18 z"
     fill="#e26176"
     id="path90" />
  <path
     d="m 26.375586,17.421496 c 0.666667,2.666667 1.333334,5.333333 2,8 -0.969375,0.268125 -1.93875,0.53625 -2.9375,0.8125 -1.010625,0.391875 -2.02125,0.78375 -3.0625,1.1875 -0.33,0.99 -0.66,1.98 -1,3 0,-4.146761 0.477695,-5.312081 2.5,-8.75 0.464063,-0.799219 0.928125,-1.598437 1.40625,-2.421875 0.360938,-0.603281 0.721875,-1.206562 1.09375,-1.828125 z"
     fill="#f08599"
     id="path92" />
  <path
     d="m 313.37559,341.4215 c 3.3,0 6.6,0 10,0 -0.33,1.32 -0.66,2.64 -1,4 0.99,0.33 1.98,0.66 3,1 0,0.66 0,1.32 0,2 -4.30765,-1.56642 -8.06172,-3.68337 -12,-6 0,-0.33 0,-0.66 0,-1 z"
     fill="#ec778e"
     id="path94" />
  <path
     d="m 111.37559,335.4215 c 2,3 2,3 1.64453,6.10156 -0.27457,1.16273 -0.54914,2.32547 -0.83203,3.52344 -0.26168,1.16789 -0.52336,2.33578 -0.79297,3.53906 -0.33645,0.93586 -0.67289,1.87172 -1.01953,2.83594 -0.99,0.33 -1.98,0.66 -3,1 1.08896,-5.75763 2.29336,-11.39248 4,-17 z"
     fill="#e78499"
     id="path96" />
  <path
     d="m 139.37559,233.4215 c 0.66,1.32 1.32,2.64 2,4 -0.99,1.485 -0.99,1.485 -2,3 -0.22654,1.97409 -0.45108,3.94855 -0.64844,5.92578 -0.51147,3.01766 -1.83823,5.44233 -3.35156,8.07422 -1.00694,-3.1218 -0.9729,-4.9897 -0.004,-8.10938 0.2288,-0.7541 0.45761,-1.5082 0.69336,-2.28515 0.24686,-0.77731 0.49371,-1.55461 0.74805,-2.35547 0.24298,-0.79278 0.48597,-1.58555 0.73632,-2.40235 0.59972,-1.95201 1.21176,-3.90022 1.82618,-5.84765 z"
     fill="#da6377"
     id="path98" />
  <path
     d="m 283.37559,356.4215 c 0.33,0 0.66,0 1,0 0.55704,2.26711 1.09517,4.53887 1.625,6.8125 0.30164,1.26457 0.60328,2.52914 0.91406,3.83203 0.46094,3.35547 0.46094,3.35547 -1.53906,6.35547 -3.62871,-11.52164 -3.62871,-11.52164 -2,-17 z"
     fill="#ea7287"
     id="path100" />
  <path
     d="m 291.37559,31.421496 c 0,0.66 0,1.32 0,2 -1.65533,1.018662 -3.3226,2.018108 -5,3 -0.33,0.66 -0.66,1.32 -1,2 -2.31,0 -4.62,0 -7,0 8.20689,-7 8.20689,-7 13,-7 z"
     fill="#f0899b"
     id="path102" />
  <path
     d="m 415.37559,1.421496 c 3.25516,3.164743 6.32008,6.3275279 9,10 0,0.66 0,1.32 0,2 -1.9375,-0.3125 -1.9375,-0.3125 -4,-1 -0.33,-0.99 -0.66,-1.98 -1,-3 -0.7425,-0.680625 -0.7425,-0.680625 -1.5,-1.375 -1.9331,-2.0941888 -2.12453,-3.8465069 -2.5,-6.625 z"
     fill="#f18b9c"
     id="path104" />
  <path
     d="m 121.37559,348.4215 c 0.33,0.99 0.66,1.98 1,3 0.66,0.33 1.32,0.66 2,1 -4.95,2.475 -4.95,2.475 -10,5 -0.33,-0.66 -0.66,-1.32 -1,-2 1.25,-1.5 1.25,-1.5 3,-3 1.32,0 2.64,0 4,0 0.33,-1.32 0.66,-2.64 1,-4 z"
     fill="#e66e81"
     id="path106" />
  <path
     d="m 6.3755865,63.421496 c 0.33,0 0.66,0 1,0 0.193922,5.526777 -0.2520497,9.756149 -2,15 -0.66,0 -1.32,0 -2,0 0.5514527,-5.238801 1.4292209,-9.973507 3,-15 z"
     fill="#ec778b"
     id="path108" />
  <path
     d="m 309.37559,211.4215 c 0.33,0 0.66,0 1,0 0.3382,1.5823 0.67036,3.16589 1,4.75 0.18562,0.88171 0.37125,1.76343 0.5625,2.67187 0.4375,2.57813 0.4375,2.57813 0.4375,6.57813 -0.66,0 -1.32,0 -2,0 -1.75418,-4.49508 -2.28362,-8.17845 -2,-13 0.33,-0.33 0.66,-0.66 1,-1 z"
     fill="#d44b63"
     id="path110" />
  <path
     d="m 272.37559,317.4215 c 2.85793,2.85793 2.408,5.14665 2.625,9.125 0.0748,1.28132 0.14953,2.56265 0.22656,3.88281 0.0735,1.48113 0.0735,1.48113 0.14844,2.99219 -1.65398,-3.00089 -2.52119,-5.76839 -3.1875,-9.125 -0.26877,-1.30325 -0.26877,-1.30325 -0.54297,-2.63282 -0.26953,-2.24218 -0.26953,-2.24218 0.73047,-4.24218 z"
     fill="#e58597"
     id="path112" />
  <path
     d="m 204.37559,228.4215 c 0.99,0 1.98,0 3,0 -0.28428,1.58467 -0.57775,3.1677 -0.875,4.75 -0.24364,1.32257 -0.24364,1.32257 -0.49219,2.67187 -0.60078,2.4476 -1.41278,4.38413 -2.63281,6.57813 -0.0833,-4.83335 0.0474,-9.23693 1,-14 z"
     fill="#e46b80"
     id="path114" />
  <path
     d="m 33.375586,214.4215 c 2.3125,-0.3125 2.3125,-0.3125 5,0 1.875,2.375 1.875,2.375 3,5 -0.33,0.66 -0.66,1.32 -1,2 -3.829468,-1.45256 -5.120503,-3.42896 -7,-7 z"
     fill="#f08597"
     id="path116" />
  <path
     d="m 86.375586,214.4215 c 4.62,0 9.24,0 14.000004,0 -4.442253,2.22112 -7.116442,2.60616 -12.000004,3 -0.66,-0.33 -1.32,-0.66 -2,-1 0,-0.66 0,-1.32 0,-2 z"
     fill="#e96a80"
     id="path118" />
  <path
     d="m 214.37559,191.4215 c 0.99,0.33 1.98,0.66 3,1 -1.485,6.435 -1.485,6.435 -3,13 -0.33,0 -0.66,0 -1,0 -0.0833,-4.83335 0.0474,-9.23693 1,-14 z"
     fill="#db667c"
     id="path120" />
  <path
     d="m 161.37559,369.4215 c 0.66,0 1.32,0 2,0 0,0.66 0,1.32 0,2 0.99,0.33 1.98,0.66 3,1 0.66,0.33 1.32,0.66 2,1 0,1.32 0,2.64 0,4 -1.8125,-0.1875 -1.8125,-0.1875 -4,-1 -3,-4.17858 -3,-4.17858 -3,-7 z"
     fill="#e68294"
     id="path122" />
  <path
     d="m 344.56309,11.358996 c 0.90105,0.009 1.80211,0.01805 2.73047,0.02734 0.68707,0.0116 1.37414,0.0232 2.08203,0.03516 0,0.33 0,0.66 0,1 -5.48676,1.867831 -10.22193,2.23584 -16,2 3.94965,-2.633104 6.54876,-3.122743 11.1875,-3.0625 z"
     fill="#ea687e"
     id="path124" />
  <path
     d="m 10.375586,50.421496 c 0.66,0.66 1.32,1.32 2,2 -0.25,1.6875 -0.25,1.6875 -1,4 -0.350625,1.2375 -0.70125,2.475 -1.0625,3.75 -0.464062,1.60875 -0.464062,1.60875 -0.9374995,3.25 -0.66,-0.33 -1.32,-0.66 -2,-1 0.3104973,-1.437934 0.6234776,-2.875332 0.9375,-4.3125 0.1740234,-0.800508 0.3480469,-1.601016 0.5273438,-2.425781 0.5351562,-2.261719 0.5351562,-2.261719 1.5351557,-5.261719 z"
     fill="#ee7a8c"
     id="path126" />
  <path
     d="m 324.37559,272.4215 c 0.99,0.495 0.99,0.495 2,1 1.15775,3.47325 1.06866,6.36067 1,10 -0.33,-0.66 -0.66,-1.32 -1,-2 -0.66,0 -1.32,0 -2,0 0,-2.97 0,-5.94 0,-9 z"
     fill="#e1526a"
     id="path128" />
  <path
     d="m 446.37559,59.421496 c 1.59946,3.198923 2.42595,5.354626 3.125,8.75 0.16757,0.799219 0.33515,1.598437 0.50781,2.421875 0.18176,0.904922 0.18176,0.904922 0.36719,1.828125 -0.99,0.495 -0.99,0.495 -2,1 0,-1.65 0,-3.3 0,-5 -0.66,0 -1.32,0 -2,0 0,-2.97 0,-5.94 0,-9 z"
     fill="#e25e74"
     id="path130" />
  <path
     d="m 325.37559,348.4215 c 3.37705,0.53725 6.69668,1.11064 10,2 -0.33,0.99 -0.66,1.98 -1,3 -3.77546,-1.09069 -6.47044,-1.90831 -9,-5 z"
     fill="#ec7b8e"
     id="path132" />
  <path
     d="m 254.37559,253.4215 c 3.91531,5.10693 4.10266,7.63515 4,14 -2.9848,-4.47719 -4,-8.63824 -4,-14 z"
     fill="#e46c82"
     id="path134" />
  <path
     d="m 120.37559,205.4215 c 1.32,0.66 2.64,1.32 4,2 -3.68735,2.45823 -6.697,3.01242 -11,4 0,-0.66 0,-1.32 0,-2 2.64739,-1.46063 3.89448,-2 7,-2 0,-0.66 0,-1.32 0,-2 z"
     fill="#e75f78"
     id="path136" />
  <path
     d="m 12.375586,174.4215 c 0.33,0.66 0.66,1.32 1,2 0.66,0 1.32,0 2,0 3,6.625 3,6.625 3,10 -0.66,0 -1.32,0 -2,0 -0.673545,-1.43429 -1.338597,-2.87257 -2,-4.3125 -0.37125,-0.80051 -0.7425,-1.60102 -1.125,-2.42579 -0.875,-2.26171 -0.875,-2.26171 -0.875,-5.26171 z"
     fill="#e97f96"
     id="path138" />
  <path
     d="m 368.37559,5.421496 c -0.99,0.495 -0.99,0.495 -2,1 0,0.66 0,1.32 0,2 -2,1.625 -2,1.625 -4,3 -1.32,-1.65 -2.64,-3.3 -4,-5 3.40562,-0.7784294 6.50765,-1.0997812 10,-1 z"
     fill="#f5788c"
     id="path140" />
  <path
     d="m 294.37559,360.4215 c 1.32,0 2.64,0 4,0 -0.66,1.65 -1.32,3.3 -2,5 -1.32,0 -2.64,0 -4,0 0.66,-1.65 1.32,-3.3 2,-5 z"
     fill="#e95f77"
     id="path142" />
  <path
     d="m 347.37559,353.4215 c 1.76462,3.08809 2,4.23312 2,8 -2.02046,-0.60184 -4.02111,-1.27306 -6,-2 -0.33,-0.66 -0.66,-1.32 -1,-2 1.32,0.33 2.64,0.66 4,1 0.33,-1.65 0.66,-3.3 1,-5 z"
     fill="#d77f92"
     id="path144" />
  <path
     d="m 276.37559,332.4215 c 0.66666,1.33333 1.33333,2.66666 2,4 0.39187,0.68062 0.78375,1.36125 1.1875,2.0625 0.8125,1.9375 0.8125,1.9375 -0.1875,4.9375 -0.33,-0.99 -0.66,-1.98 -1,-3 -0.66,0 -1.32,0 -2,0 -0.38064,-2.32609 -0.7127,-4.66056 -1,-7 0.33,-0.33 0.66,-0.66 1,-1 z"
     fill="#e35f78"
     id="path146" />
  <path
     d="m 19.375586,29.421496 c 0.33,0 0.66,0 1,0 0.196223,4.218782 -0.197698,7.170109 -2,11 -0.99,0 -1.98,0 -3,0 1.212574,-3.724334 2.5086,-7.378028 4,-11 z"
     fill="#ea8094"
     id="path148" />
  <path
     d="m 258.37559,263.4215 c 2,2 2,2 3,5 0.99,0.33 1.98,0.66 3,1 -0.33,0.66 -0.66,1.32 -1,2 -1.65,0 -3.3,0 -5,0 0,-2.64 0,-5.28 0,-8 z"
     fill="#e64662"
     id="path150" />
  <path
     d="m 133.37559,254.4215 c 0.33,0 0.66,0 1,0 0,3.63 0,7.26 0,11 -0.99,0 -1.98,0 -3,0 0.66,-3.63 1.32,-7.26 2,-11 z"
     fill="#e15c75"
     id="path152" />
  <path
     d="m 196.37559,44.421496 c 0.66,0.33 1.32,0.66 2,1 -4.39453,4.003906 -4.39453,4.003906 -6,5 -0.99,-0.33 -1.98,-0.66 -3,-1 0,-0.66 0,-1.32 0,-2 -0.66,0 -1.32,0 -2,0 0.33,-0.66 0.66,-1.32 1,-2 2.475,0.99 2.475,0.99 5,2 0.99,-0.99 1.98,-1.98 3,-3 z"
     fill="#f294a4"
     id="path154" />
  <path
     d="m 163.37559,31.421496 c 4.05281,1.22527 7.4436,2.698805 11,5 -0.99,0.495 -0.99,0.495 -2,1 -2.16407,-0.777344 -2.16407,-0.777344 -4.625,-1.9375 -0.81727,-0.380273 -1.63453,-0.760547 -2.47657,-1.152344 -0.62648,-0.300351 -1.25296,-0.600703 -1.89843,-0.910156 0,-0.66 0,-1.32 0,-2 z"
     fill="#f099a6"
     id="path156" />
  <path
     d="m 141.37559,338.4215 c 4.875,0.875 4.875,0.875 6,2 0.0406,1.66617 0.0427,3.33388 0,5 -0.61875,-0.66 -1.2375,-1.32 -1.875,-2 -1.88138,-2.22846 -1.88138,-2.22846 -4.125,-2 0,-0.99 0,-1.98 0,-3 z"
     fill="#e57181"
     id="path158" />
  <path
     d="m 141.37559,342.4215 c -1.28525,0.8638 -2.57843,1.7158 -3.875,2.5625 -0.7193,0.47566 -1.4386,0.95132 -2.17969,1.4414 -0.64195,0.32871 -1.28391,0.65742 -1.94531,0.9961 -0.66,-0.33 -1.32,-0.66 -2,-1 0.99,-0.33 1.98,-0.66 3,-1 0,-0.99 0,-1.98 0,-3 4.75,-1.125 4.75,-1.125 7,0 z"
     fill="#f198a4"
     id="path160" />
  <path
     d="m 269.37559,307.4215 c 0.33,1.32 0.66,2.64 1,4 0.66,0 1.32,0 2,0 -0.33,2.31 -0.66,4.62 -1,7 -1.88228,-3.26262 -2.58481,-6.26331 -3,-10 0.33,-0.33 0.66,-0.66 1,-1 z"
     fill="#e17f8f"
     id="path162" />
  <path
     d="m 125.37559,283.4215 c 0.33,0 0.66,0 1,0 0.027,1.45823 0.0464,2.9166 0.0625,4.375 0.0116,0.81211 0.0232,1.62421 0.0352,2.46093 -0.0977,2.16407 -0.0977,2.16407 -1.09765,4.16407 -0.66,0 -1.32,0 -2,0 0.66,-3.63 1.32,-7.26 2,-11 z"
     fill="#ec6b7f"
     id="path164" />
  <path
     d="m 111.37559,211.4215 c -3.44451,2.29633 -5.93813,2.54016 -10,3 0,-0.66 0,-1.32 0,-2 6.28571,-2.42858 6.28571,-2.42858 10,-1 z"
     fill="#e8657d"
     id="path166" />
  <path
     d="m 442.37559,48.421496 c 2.95183,2.951831 3.08664,5.95512 4,10 -0.66,0 -1.32,0 -2,0 0,-0.99 0,-1.98 0,-3 -0.66,0 -1.32,0 -2,0 0,-2.31 0,-4.62 0,-7 z"
     fill="#e05b71"
     id="path168" />
  <path
     d="m 208.37559,40.421496 c 0,0.66 0,1.32 0,2 -3.3,0.66 -6.6,1.32 -10,2 3.6762,-3.676201 4.8456,-4 10,-4 z"
     fill="#f1899f"
     id="path170" />
  <path
     d="m 428.37559,19.421496 c 1.32,1.65 2.64,3.3 4,5 -0.66,0.66 -1.32,1.32 -2,2 -2.125,-0.375 -2.125,-0.375 -4,-1 0.66666,-2 1.33333,-4 2,-6 z"
     fill="#e55d77"
     id="path172" />
  <path
     d="m 287.37559,372.4215 c 0.99,0 1.98,0 3,0 -0.33,1.65 -0.66,3.3 -1,5 -0.99,0 -1.98,0 -3,0 0.33,-1.65 0.66,-3.3 1,-5 z"
     fill="#df7b8c"
     id="path174" />
  <path
     d="m 151.37559,349.4215 c 1.5,1.25 1.5,1.25 3,3 0,1.32 0,2.64 0,4 0.66,0.33 1.32,0.66 2,1 -0.99,0 -1.98,0 -3,0 -1.75,-2.3125 -1.75,-2.3125 -3,-5 0.33,-0.99 0.66,-1.98 1,-3 z"
     fill="#e6798f"
     id="path176" />
  <path
     d="m 302.37559,347.4215 c 0.66,0 1.32,0 2,0 0.36923,4.55384 0.36923,4.55384 -1.5,6.8125 -0.495,0.39187 -0.99,0.78375 -1.5,1.1875 -0.625,-2.3125 -0.625,-2.3125 -1,-5 0.66,-0.99 1.32,-1.98 2,-3 z"
     fill="#e5687f"
     id="path178" />
  <path
     d="m 20.375586,192.4215 c 0.66,0 1.32,0 2,0 0.33,0.99 0.66,1.98 1,3 0.66,0.33 1.32,0.66 2,1 0,1.65 0,3.3 0,5 -3.09169,-2.52957 -3.909313,-5.22455 -5,-9 z"
     fill="#ea93a7"
     id="path180" />
  <path
     d="m 247.37559,40.421496 c 4.21912,0.479446 6.79663,1.166251 10,4 -2.64,-0.33 -5.28,-0.66 -8,-1 0,-0.66 0,-1.32 0,-2 -0.66,-0.33 -1.32,-0.66 -2,-1 z"
     fill="#f39dae"
     id="path182" />
  <path
     d="m 323.37559,18.421496 c -5.5,4 -5.5,4 -10,4 0,-0.66 0,-1.32 0,-2 1.28788,-0.530127 2.58046,-1.048833 3.875,-1.5625 0.71929,-0.290039 1.43859,-0.580078 2.17968,-0.878906 1.94532,-0.558594 1.94532,-0.558594 3.94532,0.441406 z"
     fill="#e2808e"
     id="path184" />
  <path
     d="m 195.37559,262.4215 c 0.66,0.66 1.32,1.32 2,2 -0.375,3.625 -0.375,3.625 -1,7 -1.46063,-2.64739 -2,-3.89449 -2,-7 0.33,-0.66 0.66,-1.32 1,-2 z"
     fill="#e74a73"
     id="path186" />
  <path
     d="m 316.37559,240.4215 c 2.29633,3.4445 2.54016,5.93812 3,10 -0.99,-0.66 -1.98,-1.32 -3,-2 -0.40844,-2.71204 -0.13337,-5.24372 0,-8 z"
     fill="#d9526c"
     id="path188" />
</svg>
