<?xml version="1.0" encoding="UTF-8"?>
<svg version="1.1" xmlns="http://www.w3.org/2000/svg" width="512" height="512">
<path d="M0 0 C0.67675781 0.53496094 1.35351562 1.06992188 2.05078125 1.62109375 C22.9911677 18.75413721 36.14918277 46.38296388 39 73 C40.71609579 104.63035511 34.03263961 133.69741066 13 158 C12.35933594 158.79664063 11.71867188 159.59328125 11.05859375 160.4140625 C-6.44191476 181.334974 -34.08404345 194.44729354 -61 197 C-93.22533938 199.06841713 -122.38881167 190.04987942 -147 169 C-170.22717804 148.27709992 -182.34322737 119.70687849 -184.18359375 88.9296875 C-184.86674519 59.43361928 -174.37559223 32.07382285 -155 10 C-153.92685547 8.77603516 -153.92685547 8.77603516 -152.83203125 7.52734375 C-112.58045192 -35.29187854 -44.45161051 -35.97823241 0 0 Z M-120.625 36.1875 C-125.16367766 41.56224986 -127.74447724 46.61045517 -127.38671875 53.765625 C-126.29187364 60.09139676 -122.88493664 64.92921947 -118 69 C-112.65959827 72.68742024 -107.27013904 72.77596315 -101 72 C-94.29926376 70.17252648 -90.47113306 65.84927959 -87 60 C-85.10632831 54.31898492 -84.75315279 47.92512943 -87.12890625 42.3515625 C-90.73285642 36.68686798 -94.56782226 33.14405925 -101 31 C-109.00105934 30.3468523 -114.31489927 30.92908273 -120.625 36.1875 Z M-54.875 38.9375 C-58.5166469 44.18575583 -59.54826229 48.64015744 -59 55 C-57.59257712 62.0510493 -53.73003298 65.89575019 -48 70 C-43.43658027 72.76206983 -38.18433184 72.62528582 -33 72 C-26.81331542 70.17781953 -22.46462761 66.37301265 -19 61 C-16.44917422 55.01110469 -16.41152479 49.11522075 -18.75390625 43.046875 C-21.6520008 37.46895244 -26.18437062 33.38482644 -32 31 C-41.76612386 29.67459748 -48.27896384 31.6914197 -54.875 38.9375 Z M-115.7265625 90.0703125 C-121.41235511 98.10884688 -124.09110896 106.13455644 -123 116 C-121.20015805 125.88413206 -116.30034353 132.39759515 -108.64453125 138.65234375 C-105.42959082 141.28691489 -102.63757375 144.27219235 -99.90234375 147.39453125 C-92.46071865 155.87972314 -85.90490109 160.8360523 -74.51953125 162.32421875 C-65.40595441 162.74439956 -56.91234019 159.50068364 -49.82421875 153.8359375 C-47.01555198 151.0092279 -45.02211063 147.70250281 -42.84765625 144.37890625 C-40.39674377 141.22329166 -37.58972781 139.59765934 -34.2109375 137.55078125 C-28.1908188 133.32818916 -23.31467106 126.27764338 -22 119 C-21.09193027 108.87502246 -21.50998681 100.11790897 -27.6484375 91.75390625 C-33.8731461 84.34677483 -40.89670153 78.98627519 -50.72366333 77.62182617 C-53.61589604 77.47610279 -56.48312786 77.44511327 -59.37890625 77.46875 C-60.95707375 77.46300964 -60.95707375 77.46300964 -62.56712341 77.45715332 C-64.77644821 77.45444844 -66.98580583 77.461709 -69.19506836 77.47851562 C-72.55720999 77.49996625 -75.91722025 77.47865292 -79.27929688 77.453125 C-81.43750467 77.45576811 -83.59571114 77.46089273 -85.75390625 77.46875 C-86.74789932 77.46065308 -87.7418924 77.45255615 -88.76600647 77.44421387 C-99.33899174 77.58482835 -108.87335576 81.85266641 -115.7265625 90.0703125 Z " fill="#FF7900" transform="translate(328,68)"/>
<path d="M0 0 C10.91909777 8.87973321 18.09528814 21.72859648 20.8203125 35.4453125 C21.00218688 38.01606519 21.09575233 40.59425265 21.11083984 43.17138672 C21.11755707 43.89776337 21.12427429 44.62414001 21.13119507 45.37252808 C21.15002747 47.74842366 21.15409148 50.12403465 21.15625 52.5 C21.16268742 54.16854971 21.16941647 55.83709833 21.17642212 57.50564575 C21.18835744 60.99386205 21.19210674 64.48197959 21.19091797 67.97021484 C21.19071482 72.41740259 21.21802961 76.86395107 21.25246239 81.31098747 C21.27480912 84.75475924 21.27875317 88.19837891 21.27769852 91.64221573 C21.2800423 93.28071421 21.28879609 94.91921768 21.30436325 96.55764389 C21.42040272 110.02959503 19.51629917 120.43207473 9.8203125 130.4453125 C0.79881027 137.96635698 -9.95455873 138.90281064 -21.2734375 138.84375 C-22.50074585 138.84662018 -23.7280542 138.84949036 -24.99255371 138.85244751 C-27.57430485 138.85447906 -30.15607171 138.84901325 -32.73779297 138.83642578 C-36.66799654 138.82036029 -40.5971718 138.83630677 -44.52734375 138.85546875 C-47.04687725 138.85348616 -49.56641011 138.84964216 -52.0859375 138.84375 C-53.24975952 138.84982269 -54.41358154 138.85589539 -55.6126709 138.8621521 C-67.52572872 138.76049118 -77.088831 136.03080729 -85.93359375 127.81640625 C-92.79451282 120.40523804 -95.28210285 111.78736881 -95.34082031 101.85766602 C-95.35042786 100.54182022 -95.3600354 99.22597443 -95.36993408 97.87025452 C-95.37478579 96.43824438 -95.3790637 95.0062322 -95.3828125 93.57421875 C-95.38563988 92.84606398 -95.38846725 92.1179092 -95.39138031 91.36768913 C-95.40635098 87.50659705 -95.4155911 83.64554205 -95.41992188 79.78442383 C-95.42537247 75.8342587 -95.44933345 71.88444422 -95.47789383 67.93438816 C-95.49671422 64.86534204 -95.5017362 61.79637666 -95.50325775 58.72727776 C-95.50624641 57.27350914 -95.51414325 55.81974059 -95.52744293 54.36602974 C-95.68856823 35.38391768 -91.84408476 18.58184455 -78.50976562 4.50927734 C-57.31217201 -16.62360177 -23.73946265 -16.93244827 0 0 Z " fill="#FF7900" transform="translate(205.1796875,331.5546875)"/>
<path d="M0 0 C0.73734375 0.47953125 1.4746875 0.9590625 2.234375 1.453125 C13.72409191 9.61478598 21.59590025 22.34222934 24.56672668 36.05235291 C25.53195608 42.61900615 25.32981472 49.30901403 25.3359375 55.93359375 C25.3423769 57.57829399 25.34910608 59.22299311 25.35610962 60.86769104 C25.36803377 64.30285293 25.37179531 67.7379146 25.37060547 71.1730957 C25.37040216 75.55187721 25.39773782 79.93001059 25.43214989 84.30863857 C25.45449668 87.70179641 25.4584407 91.0947999 25.45738602 94.48802376 C25.45972898 96.10140281 25.46847808 97.71478698 25.48405075 99.32809258 C25.59421186 111.91464156 24.09982719 122.55486687 15 132 C5.38177396 140.2844486 -5.69750043 141.46401113 -17.97265625 141.3984375 C-19.17635361 141.40130768 -20.38005096 141.40417786 -21.620224 141.40713501 C-24.14892043 141.40916442 -26.67763297 141.4037138 -29.20629883 141.39111328 C-33.05521017 141.37503046 -36.90307378 141.39100882 -40.75195312 141.41015625 C-43.22135646 141.4081739 -45.69075915 141.40433038 -48.16015625 141.3984375 C-49.29896744 141.40451019 -50.43777863 141.41058289 -51.61109924 141.4168396 C-63.4443631 141.3136957 -72.97444446 138.5248478 -81.75390625 130.37109375 C-88.63596487 122.93709058 -91.09298897 114.30678073 -91.17700195 104.35229492 C-91.18357315 103.7042691 -91.19014435 103.05624329 -91.19691467 102.38858032 C-91.21655147 100.25254162 -91.22829635 98.11657335 -91.23828125 95.98046875 C-91.24439454 94.8754322 -91.24439454 94.8754322 -91.25063133 93.74807167 C-91.2714636 89.83929353 -91.28577063 85.93055007 -91.29516602 82.02172852 C-91.30615039 78.0290593 -91.34046423 74.03695977 -91.38033772 70.04448986 C-91.40679243 66.93761838 -91.41488361 63.83087588 -91.41844749 60.72390175 C-91.42324925 59.25502034 -91.43467397 57.78614207 -91.45348549 56.31737328 C-91.67698441 37.69078712 -87.51904016 21.25583891 -74.5168457 7.28613281 C-54.95274417 -12.53534824 -23.08393625 -15.21829871 0 0 Z " fill="#FF7900" transform="translate(376,329)"/>
<path d="M0 0 C8.64922394 1.44068825 17.14105463 3.38933781 25.65234375 5.484375 C26.33336214 5.65157295 27.01438053 5.8187709 27.71603584 5.99103546 C31.31652142 6.87564113 34.9158756 7.7646956 38.5144043 8.65722656 C42.1902372 9.56788347 45.86989596 10.46195635 49.55066586 11.35241318 C52.41957655 12.04986435 55.28520548 12.76014489 58.15014839 13.47370148 C59.50387999 13.80852806 60.85878087 14.13866961 62.21491814 14.46361542 C80.39071145 18.83033319 94.6731417 26.72673249 105.0546875 42.578125 C113.21791281 56.93753338 115.08188994 72.64661695 112.3515625 88.84765625 C107.51979376 105.84144119 97.31829464 117.48078861 82.5234375 126.51171875 C75.81821432 130.14826487 67.70622341 133 60 133 C59.70609375 131.63681641 59.70609375 131.63681641 59.40625 130.24609375 C55.34681223 113.18595657 47.45593006 97.65204102 32.5625 87.6875 C28.44300924 84.40022959 26.76737214 82.45416183 25.96875 77.21875 C25.61515449 73.43954856 25.47172098 69.65928967 25.32421875 65.8671875 C24.42446904 43.61949864 14.84752782 21.15748016 1.23828125 3.74609375 C0 2 0 2 0 0 Z " fill="#FF7900" transform="translate(356,233)"/>
<path d="M0 0 C-0.94359375 1.34578125 -0.94359375 1.34578125 -1.90625 2.71875 C-17.31619087 25.0256381 -25.5130766 48.30653622 -27.15161133 75.51782227 C-27.57055039 81.4878555 -27.57055039 81.4878555 -29.78515625 84.12890625 C-30.53667969 84.60199219 -31.28820312 85.07507813 -32.0625 85.5625 C-48.33334888 96.83090089 -55.71878296 113.44198035 -61 132 C-72.79843967 131.71286983 -82.67664471 127.01505843 -92 120 C-92.61488281 119.55011719 -93.22976562 119.10023438 -93.86328125 118.63671875 C-105.67244163 109.34125992 -111.77456669 94.49955396 -114 80 C-115.5402096 64.84208359 -111.3875269 49.26137041 -101.859375 37.31640625 C-99.64962163 34.78721575 -97.37238611 32.3765776 -95 30 C-94.43539062 29.42378906 -93.87078125 28.84757812 -93.2890625 28.25390625 C-85.55594463 20.99231996 -75.24225389 17.36822288 -65.125 14.875 C-62.8853527 14.29972814 -60.64577562 13.72418286 -58.40625 13.1484375 C-57.78529449 12.99111145 -57.16433899 12.8337854 -56.52456665 12.67169189 C-51.45032959 11.38453896 -46.3917982 10.04278481 -41.33547974 8.68704224 C-37.15195514 7.56559433 -32.96620489 6.45258908 -28.7802124 5.34039307 C-26.67909703 4.78075949 -24.5787093 4.21838677 -22.47906494 3.65325928 C-19.50142463 2.85336385 -16.52074776 2.06591237 -13.5390625 1.28125 C-12.1843988 0.91309677 -12.1843988 0.91309677 -10.80236816 0.5375061 C-9.96475952 0.31952362 -9.12715088 0.10154114 -8.26416016 -0.12304688 C-7.53427887 -0.31733276 -6.80439758 -0.51161865 -6.05239868 -0.71179199 C-3.75586243 -1.03428301 -2.19288431 -0.70184034 0 0 Z " fill="#FF7900" transform="translate(156,234)"/>
<path d="M0 0 C3.45641245 1.11336363 6.86283417 2.31480888 10.25 3.62109375 C43.31817731 16.32010793 77.2807861 16.41147247 110.05859375 2.72265625 C112.04552148 1.82933354 114.0240716 0.91739533 116 0 C116.66 0 117.32 0 118 0 C125.01159547 12.4714444 127.60410838 24.86666928 128 39 C127.07960938 39.32871094 126.15921875 39.65742188 125.2109375 39.99609375 C104.26962874 47.74903533 89.07444822 60.00567627 79.25 80.5 C75.13731264 90.10076526 73.56129125 99.37188224 72.64575195 109.71484375 C72.09237876 115.90762124 72.09237876 115.90762124 71 117 C69.24314326 117.09949077 67.48232667 117.1308026 65.72265625 117.1328125 C64.65208984 117.13410156 63.58152344 117.13539063 62.47851562 117.13671875 C61.35123047 117.13285156 60.22394531 117.12898438 59.0625 117.125 C57.93908203 117.12886719 56.81566406 117.13273437 55.65820312 117.13671875 C54.58634766 117.13542969 53.51449219 117.13414062 52.41015625 117.1328125 C51.42152588 117.13168457 50.43289551 117.13055664 49.41430664 117.12939453 C47 117 47 117 45 116 C44.97421875 114.94683594 44.9484375 113.89367187 44.921875 112.80859375 C44.17362237 91.30762969 37.58073842 72.24202672 22 57 C12.55741212 48.68152972 1.83854911 43.09795931 -10 39 C-10.7754137 24.52561102 -7.09074973 12.43309541 0 0 Z " fill="#FFAA5A" transform="translate(197,267)"/>
<path d="M0 0 C0 0.66 0 1.32 0 2 C-1.88632193 3.52731227 -3.78479118 4.95569786 -5.75 6.375 C-32.64226131 26.53035302 -46.60317355 54.76161924 -54 87 C-63.70155459 81.72814829 -68.65887256 72.18570431 -72 62 C-76.21855893 47.31234718 -73.9110642 33.28062436 -66.78515625 19.88671875 C-58.48256994 6.46087349 -46.107393 -0.90875072 -31.0625 -4.75 C-20.3127204 -5.62753303 -9.69768299 -5.26053558 0 0 Z " fill="#FF7900" transform="translate(184,47)"/>
<path d="M0 0 C1.0725 0.763125 2.145 1.52625 3.25 2.3125 C12.72215521 11.56937895 18.98683804 24.15206413 19.29248047 37.44750977 C19.40743833 51.74574375 16.70538413 64.47400636 6.8359375 75.39453125 C4.9319542 77.31533419 3.00139111 79.18147712 1 81 C0.01 80.505 0.01 80.505 -1 80 C-1.66616961 77.47763963 -2.22868613 74.99018822 -2.75 72.4375 C-9.44156391 42.3365674 -26.56556595 16.62420977 -51.2265625 -1.8203125 C-54 -4 -54 -4 -55 -6 C-35.54232877 -13.44377102 -17.25013634 -12.87148163 0 0 Z " fill="#FF7900" transform="translate(382,53)"/>
<path d="M0 0 C0.99546844 -0.00241196 1.99093689 -0.00482391 3.01657104 -0.00730896 C5.10923265 -0.00633429 7.20192127 0.00696781 9.29443359 0.03198242 C12.49015008 0.06638432 15.68311182 0.05259687 18.87890625 0.03320312 C20.91928255 0.04009987 22.95965175 0.0497707 25 0.0625 C25.9501297 0.05754013 26.9002594 0.05258026 27.87918091 0.04747009 C33.5417844 0.14770134 36.89562689 0.81631707 41.3671875 4.62890625 C46.1401641 10.04687969 46.77479776 13.37328485 46.71484375 20.5078125 C46.07319829 26.26820268 43.40653582 29.96522736 38.9921875 33.56640625 C35.79811225 34.85924623 32.78608345 35.29372037 29.3671875 35.62890625 C29.2846875 36.66015625 29.2021875 37.69140625 29.1171875 38.75390625 C28.09759151 44.02181888 26.23260453 47.2764789 21.8671875 50.44140625 C16.84823258 52.82540984 11.70085781 53.77543959 6.27734375 51.91015625 C0.85068481 49.40398974 -2.2781634 46.47366936 -4.8828125 41.00390625 C-5.6328125 38.62890625 -5.6328125 38.62890625 -5.6328125 35.62890625 C-7.4271875 35.28859375 -7.4271875 35.28859375 -9.2578125 34.94140625 C-13.71739463 33.80480479 -16.41467176 31.99672795 -19.6328125 28.62890625 C-22.39414633 23.75054981 -23.55587308 19.18848952 -22.6328125 13.62890625 C-20.93657813 7.86811027 -18.08445507 4.67569608 -12.98345947 1.650177 C-8.74151119 -0.19279549 -4.56259153 -0.06393932 0 0 Z " fill="#FFAA5A" transform="translate(243.6328125,161.37109375)"/>
<path d="M0 0 C7.91931789 3.0778135 12.07573556 14.46294683 15.5859375 21.69921875 C20.97259455 34.27304528 24.16107841 47.29369147 24 61 C20.41616855 60.52451163 16.83303236 60.04396997 13.25 59.5625 C12.23421875 59.42779297 11.2184375 59.29308594 10.171875 59.15429688 C9.1921875 59.02216797 8.2125 58.89003906 7.203125 58.75390625 C5.85202637 58.57323608 5.85202637 58.57323608 4.47363281 58.38891602 C2.26749992 58.04205758 0.15423582 57.58252295 -2 57 C-2.15855469 55.80246094 -2.31710937 54.60492188 -2.48046875 53.37109375 C-4.55083888 38.60103057 -8.41955264 25.46891566 -15 12 C-14.00097656 11.21753906 -13.00195312 10.43507813 -11.97265625 9.62890625 C-10.66924354 8.60680564 -9.36585961 7.58466832 -8.0625 6.5625 C-7.40314453 6.04623047 -6.74378906 5.52996094 -6.06445312 4.99804688 C-5.43603516 4.50498047 -4.80761719 4.01191406 -4.16015625 3.50390625 C-3.57886963 3.04830322 -2.99758301 2.5927002 -2.39868164 2.12329102 C-1.02763998 1.06382373 -1.02763998 1.06382373 0 0 Z " fill="#FF7900" transform="translate(343,246)"/>
<path d="M0 0 C3.81811027 0.57271654 5.71819163 2.27419971 8.5 4.875 C11.24101739 7.41888943 13.96759853 9.80840076 17 12 C16.24049901 15.76971831 14.69608789 19.06467994 13.125 22.5625 C8.19563709 33.88948433 6.29927753 44.81736249 5 57 C1.81256234 57.47958192 -1.37496138 57.95858959 -4.5625 58.4375 C-5.45775391 58.57220703 -6.35300781 58.70691406 -7.27539062 58.84570312 C-12.18109267 59.58245691 -17.08806384 60.3059953 -22 61 C-19.9295657 38.74283132 -14.2023731 17.76438308 0 0 Z " fill="#FF7900" transform="translate(166,246)"/>
<path d="M0 0 C8.91 0 17.82 0 27 0 C27.06058594 2.87847656 27.12117188 5.75695312 27.18359375 8.72265625 C27.24549101 11.52598414 27.30883389 14.32927593 27.37231445 17.13256836 C27.41549192 19.07329054 27.45717831 21.01404652 27.49731445 22.95483398 C27.55543566 25.75254477 27.61900716 28.55008814 27.68359375 31.34765625 C27.70030624 32.2083522 27.71701874 33.06904816 27.73423767 33.95582581 C27.85009844 38.7210352 28.22023199 43.29641714 29 48 C19.00706928 49.63149889 8.99988706 49.42855529 -1 48 C-0.67 32.16 -0.34 16.32 0 0 Z " fill="#FF7900" transform="translate(242,400)"/>
</svg>
