<?xml version="1.0" encoding="UTF-8"?>
<svg version="1.1" xmlns="http://www.w3.org/2000/svg" width="512" height="512">
<path d="M0 0 C4.90624714 2.27790046 7.5167579 5.21745967 10 10 C11.50101756 16.20420593 10.85934784 20.31909306 8 26 C7.01 27.485 7.01 27.485 6 29 C6.67523648 31.7714054 7.43168347 34.32250561 8.375 37 C11 44.68359375 11 44.68359375 11 48 C11.42410156 47.566875 11.84820312 47.13375 12.28515625 46.6875 C15.47510103 43.65880518 17.2340376 42.11684172 21.6875 41.4375 C26.8125855 42.30779754 26.8125855 42.30779754 29 45 C30.66543098 51.66878085 30.66543098 51.66878085 29.09033203 54.81982422 C27.29395877 57.20566443 25.34987944 59.41609929 23.33984375 61.62304688 C20.60746249 64.92380288 20.60746249 64.92380288 20.1730957 69.03930664 C20.93591227 71.47567998 21.90343313 73.69398437 23 76 C23.40702148 76.90500244 23.81404297 77.81000488 24.23339844 78.74243164 C25.59315331 81.70418216 27.00693809 84.63434851 28.4375 87.5625 C28.91509766 88.55185547 29.39269531 89.54121094 29.88476562 90.56054688 C30.81816659 92.49008768 31.76034045 94.41541464 32.7121582 96.3359375 C33.5229947 98.01325462 34.29585542 99.70999594 35.01245117 101.4296875 C36.56276104 105.03260601 37.40818343 106.73545875 41.05859375 108.3671875 C42.17363281 108.53476563 43.28867188 108.70234375 44.4375 108.875 C48.56924358 109.55484657 52.1632351 110.29317748 56 112 C56.12670932 101.287451 56.12670932 101.287451 51.453125 92.16015625 C48.70743111 90.25026296 45.92252899 88.61841493 43 87 C41.57337781 84.14675563 41.68966132 82.16545451 42 79 C43.5 76.125 43.5 76.125 46 74 C48.69452144 73.71959559 51.28282667 73.90611393 54 74 C53.99476318 73.06317383 53.98952637 72.12634766 53.98413086 71.16113281 C53.96691138 67.62743493 53.95446456 64.09378275 53.94506836 60.56005859 C53.94009315 59.04149667 53.93331059 57.5229394 53.92456055 56.00439453 C53.91219144 53.79978382 53.90531078 51.59526784 53.90234375 49.390625 C53.9011705 48.67108643 53.89999725 47.95154785 53.89878845 47.21020508 C53.92164101 41.87768738 54.32639762 36.65156008 55.02148438 31.36035156 C54.98978854 27.87813162 53.37150306 26.41973253 51.1640625 23.91015625 C48.63125887 19.75397849 49.30841809 14.64717189 50 10 C52.26787438 5.1153475 55.1153475 2.26787438 60 0 C65.67692721 -0.76420174 70.37600222 -0.79775329 75.5625 1.75 C79.31781836 5.21644772 81.68011087 8.00038386 82.23828125 13.234375 C82.42135504 19.43961289 81.77166497 23.00509234 78 28 C77.15308594 28.37382812 76.30617187 28.74765625 75.43359375 29.1328125 C72.63136266 31.28283892 72.58190327 31.74998614 72.109375 35.08984375 C71.96614616 36.70382058 71.84717205 38.32009674 71.75 39.9375 C71.62184704 41.55094582 71.49170548 43.16423518 71.359375 44.77734375 C71.28928223 45.84843384 71.28928223 45.84843384 71.21777344 46.94116211 C70.99623388 49.03560501 70.55795114 50.97157949 70 53 C70.721875 52.525625 71.44375 52.05125 72.1875 51.5625 C75.02244907 49.9875283 76.77273315 49.15742765 80 49 C85.63855422 51.27710843 85.63855422 51.27710843 87 54 C87.84497445 58.98534923 87.84497445 58.98534923 87 62 C82.59884097 66.85005773 76.6437548 69.82236572 71 73 C71.45361595 90.1120978 72.99981999 107.00317401 75 124 C75.45020508 123.53239258 75.90041016 123.06478516 76.36425781 122.58300781 C84.61490875 114.14832749 94.18725082 108.18618484 106.328125 107.9296875 C107.20984375 107.95289062 108.0915625 107.97609375 109 108 C107.29055264 98.43309285 104.92587843 89.89881317 97.8671875 82.87890625 C95.57015855 80.5674608 95.08112102 79.24484088 95 76 C96.16015625 73.87695313 96.16015625 73.87695313 98 72 C100.4609375 71.48242188 100.4609375 71.48242188 103.375 71.46875 C104.44363281 71.46359375 105.51226562 71.4584375 106.61328125 71.453125 C107.73089844 71.46859375 108.84851563 71.4840625 110 71.5 C111.08667969 71.48453125 112.17335937 71.4690625 113.29296875 71.453125 C124.32864519 71.50586419 133.83511302 74.39820867 142 82 C144.77232193 84.91547108 147.42065073 87.91301284 150 91 C150.474375 90.34 150.94875 89.68 151.4375 89 C156.95684963 82.53832239 163.02190093 77.1171683 171 74 C172.39412109 73.44892578 172.39412109 73.44892578 173.81640625 72.88671875 C177.33826559 71.90578369 180.11102761 72.03519007 183.75 72.1875 C188.29426202 71.9162718 190.31269232 71.64115271 193.67578125 68.50390625 C195.8252427 65.73474905 197.71808452 62.78813271 199.65917969 59.87109375 C202.0389911 56.55010419 204.82889941 53.65888057 207.6875 50.75 C208.21029541 50.18958008 208.73309082 49.62916016 209.27172852 49.05175781 C212.95230327 45.3358764 215.60012638 44.24452258 221 44 C224.59088593 47.81137893 225.39979582 52.37764983 226.625 57.3125 C226.8415625 58.14201172 227.058125 58.97152344 227.28125 59.82617188 C229.63613812 69.03494732 230.24709458 77.95982563 230.5625 87.4375 C230.60568359 88.64599609 230.64886719 89.85449219 230.69335938 91.09960938 C230.79889404 94.06630606 230.90100714 97.03307902 231 100 C234.75427725 97.91980873 238.50791716 95.83847326 242.26098633 93.75610352 C243.53620491 93.04876202 244.81159314 92.34172625 246.0871582 91.63500977 C247.92704902 90.61556226 249.76631462 89.59499456 251.60546875 88.57421875 C252.71043701 87.96151123 253.81540527 87.34880371 254.95385742 86.7175293 C256.88764054 85.62718993 258.80247747 84.50195828 260.6887207 83.33129883 C263.87280457 81.49726383 266.3327859 81.12645566 270 81 C274.56833627 82.44663982 277.61106632 83.75300678 280 88 C280.99455909 90.98367726 281.19559632 93.2004192 281.31640625 96.32421875 C281.35830078 97.35224609 281.40019531 98.38027344 281.44335938 99.43945312 C281.48267578 100.51130859 281.52199219 101.58316406 281.5625 102.6875 C281.60568359 103.77095703 281.64886719 104.85441406 281.69335938 105.97070312 C281.79946838 108.64700791 281.90152361 111.32340526 282 114 C282.92039062 113.48050781 283.84078125 112.96101563 284.7890625 112.42578125 C307.48333595 99.83731549 307.48333595 99.83731549 316 101 C317.8125 102.12890625 317.8125 102.12890625 319 104 C321.31261092 128.53535652 307.25716576 155.43429168 294 175 C293.2348657 176.14659439 292.47049365 177.29369795 291.70703125 178.44140625 C291.14371094 179.28574219 290.58039063 180.13007813 290 181 C290.92570801 180.78778809 290.92570801 180.78778809 291.87011719 180.57128906 C300.02838613 178.87772648 307.9384454 178.7008192 316.25 178.75 C317.58594124 178.74285593 318.9218791 178.73504669 320.2578125 178.7265625 C321.53914063 178.72914063 322.82046875 178.73171875 324.140625 178.734375 C325.86587402 178.73775879 325.86587402 178.73775879 327.62597656 178.74121094 C331.35117446 179.02693523 334.49192212 179.71488378 338 181 C340 184 340 184 339.8359375 186.34375 C336.5674348 196.72964644 327.1448985 205.98584085 320 214 C319.37867188 214.70640625 318.75734375 215.4128125 318.1171875 216.140625 C308.48834485 226.41714765 295.68235538 235.87056638 283 242 C282.34 242 281.68 242 281 242 C281.0377504 242.62083466 281.07550079 243.24166931 281.11439514 243.88131714 C283.09487353 278.09926925 281.67594547 305.04573466 266.44628906 335.89697266 C262.5768597 343.82514897 259.38586261 352.03973763 256.11328125 360.22711182 C254.64389065 363.88697389 253.14481474 367.53431403 251.64508057 371.18182373 C248.12398316 379.74669152 244.658393 388.33260038 241.2265625 396.93359375 C240.44675707 398.88221848 239.66681119 400.83078702 238.88671875 402.77929688 C237.40876134 406.47103372 235.94171474 410.16685659 234.48046875 413.86523438 C233.81294897 415.53403382 233.14500362 417.20266313 232.4765625 418.87109375 C232.03553696 420.00072792 232.03553696 420.00072792 231.58560181 421.15318298 C229.594094 426.08654423 227.66775741 430.70587265 222.640625 433.14453125 C221.85171875 433.36496094 221.0628125 433.58539063 220.25 433.8125 C219.45078125 434.04582031 218.6515625 434.27914063 217.828125 434.51953125 C216.92320312 434.75736328 216.92320312 434.75736328 216 435 C216.58004029 455.32141139 218.07319531 475.353887 223.37402344 495.05102539 C224.73178634 500.19877654 225.40710103 504.66638645 225 510 C222.47360868 512.52639132 220.88956425 512.24760675 217.44262695 512.28216553 C216.66749756 512.27968811 215.89236816 512.27721069 215.09375 512.2746582 C214.27737061 512.27976913 213.46099121 512.28488007 212.61987305 512.29014587 C209.91317476 512.30408058 207.20672995 512.30308238 204.5 512.30078125 C202.62434799 512.30466573 200.74869685 512.30899989 198.87304688 512.31376648 C194.93877309 512.32123681 191.00458904 512.32093131 187.0703125 512.31567383 C182.01918556 512.30987472 176.96842476 512.32681689 171.9173584 512.3500185 C168.04327229 512.36472204 164.16927508 512.36563223 160.29516602 512.36250877 C158.43236566 512.36302358 156.56956053 512.368291 154.70678711 512.37832069 C152.10636311 512.39060412 149.5066617 512.38394291 146.90625 512.37231445 C146.13112061 512.37995819 145.35599121 512.38760193 144.55737305 512.39547729 C142.41601563 512.3742218 142.41601563 512.3742218 139 512 C136.37300575 508.05950863 137.15836706 505.41624026 138 501 C138.54120293 498.48904608 139.12077364 495.98992477 139.71386719 493.49072266 C144.3183581 473.96754514 146.18127375 454.01644524 147 434 C146.14728516 434.0309375 146.14728516 434.0309375 145.27734375 434.0625 C141.83048068 433.9704302 139.0555024 433.75164565 136.1953125 431.71484375 C131.15328215 426.22650928 127.457803 419.52380644 123.5859375 413.1875 C121.24948735 409.37530542 118.81091602 405.64500949 116.3125 401.9375 C112.09227512 395.65947255 107.94078556 389.33886464 103.8125 383 C103.17481689 382.02087646 102.53713379 381.04175293 101.88012695 380.03295898 C100.57174788 378.02339988 99.26356263 376.01371457 97.95556641 374.00390625 C94.80684867 369.16722423 91.65325494 364.3337247 88.5 359.5 C87.24736602 357.57944653 85.99476187 355.6588736 84.7421875 353.73828125 C83.8135791 352.31443115 83.8135791 352.31443115 82.86621094 350.86181641 C81.01730871 348.02654274 79.16876296 345.19103696 77.3203125 342.35546875 C67.89319491 327.89514441 58.44894667 313.4460677 49 299 C37.70881538 281.73741793 26.43022962 264.46671541 15.16601562 247.18652344 C13.93694696 245.30112426 12.70777968 243.41578937 11.47851562 241.53051758 C10.24766834 239.64258072 9.01719656 237.75439899 7.78710938 235.8659668 C4.73931515 231.18935794 1.68514376 226.51713188 -1.38473511 221.85499573 C-2.92509332 219.51537521 -4.46319851 217.17427693 -6.00128174 214.8331604 C-7.09150149 213.17592097 -8.1851023 211.52090733 -9.27880859 209.8659668 C-20.4493239 192.85905094 -20.4493239 192.85905094 -20.125 187.8125 C-18.77971033 183.2534628 -17.32898347 181.32898347 -14 178 C-11.14804778 176.57402389 -8.67538825 176.8679748 -5.5 176.875 C-4.3346875 176.87242187 -3.169375 176.86984375 -1.96875 176.8671875 C1 177 1 177 3 178 C-3.75948372 164.81483423 -10.91197922 151.82298133 -19.32421875 139.60546875 C-21 137 -21 137 -21 135 C-22.97033203 135.16048828 -22.97033203 135.16048828 -24.98046875 135.32421875 C-26.71608502 135.44618097 -28.45176587 135.56722667 -30.1875 135.6875 C-31.05181641 135.76033203 -31.91613281 135.83316406 -32.80664062 135.90820312 C-37.74132483 136.22961934 -41.02187877 136.35629066 -45 133 C-46.54586876 129.90826248 -46.29359521 127.40570448 -46 124 C-44.13291495 121.63502561 -42.67938569 120.33969285 -40 119 C-38.00039988 118.960008 -35.99952758 118.95653201 -34 119 C-35.60147896 116.89373968 -37.20604875 114.78996262 -38.8125 112.6875 C-39.26431641 112.09259766 -39.71613281 111.49769531 -40.18164062 110.88476562 C-41.43773116 109.24359624 -42.71807973 107.62107397 -44 106 C-44.48210937 105.38511719 -44.96421875 104.77023438 -45.4609375 104.13671875 C-47.77482028 102.42773426 -49.9805876 102.41709662 -52.8125 102.125 C-58.53545517 101.26793908 -61.23952073 100.43543709 -65 96 C-67.81153816 91.23079823 -68.55508598 86.63654152 -67.71484375 81.1796875 C-66.06038488 76.13494407 -62.30323165 72.8688211 -58 70 C-52.57535343 68.57696648 -47.86719445 68.74060023 -42.72265625 70.98046875 C-38.85587953 73.26896926 -36.71537718 76.96294854 -35 81 C-34.9083722 82.56036749 -34.86996603 84.12445265 -34.875 85.6875 C-34.38954073 91.17080227 -32.30047307 93.49168312 -28.51953125 97.3203125 C-25.35421174 100.68683837 -22.62791858 104.29386895 -19.875 108 C-19.3586499 108.69303223 -18.8422998 109.38606445 -18.31030273 110.10009766 C-14.7131555 114.962106 -11.23700944 119.88893246 -8 125 C-7.319375 124.484375 -6.63875 123.96875 -5.9375 123.4375 C-2.07364271 121.54667622 -0.09918272 121.80751048 4 123 C6.5 125.0625 6.5 125.0625 8 128 C8.17038865 131.83374469 7.37883972 135.11604065 5.875 138.625 C4.68800734 141.84683722 5.2074813 143.66064937 6 147 C7.13248352 149.39287599 8.28914093 151.64001976 9.59765625 153.9296875 C10.12823891 154.88248093 10.12823891 154.88248093 10.66954041 155.85452271 C11.79223805 157.86612399 12.92710635 159.87054258 14.0625 161.875 C14.82959285 163.24433442 15.59587752 164.6141219 16.36132812 165.984375 C18.23157616 169.32823085 20.11276461 172.66570444 22 176 C28.73725504 162.98744207 33.16597091 148.32600519 29.0859375 133.93359375 C27.00297824 128.30660668 24.17699329 123.09085326 19.828125 118.9140625 C18 117 18 117 17.6875 113.875 C18 111 18 111 19 109 C18.09951875 106.79946704 17.10496381 104.63693262 16.0625 102.5 C13 96.19362187 13 96.19362187 13 94 C11.67935547 93.76216797 11.67935547 93.76216797 10.33203125 93.51953125 C-0.34881881 91.37387769 -0.34881881 91.37387769 -3.3125 88.6875 C-5.39605835 85.3692404 -5.80082306 83.8439507 -5 80 C-2.44975635 76.89835231 -0.82300753 75.27433584 3 74 C2.75354736 73.36199463 2.50709473 72.72398926 2.25317383 72.06665039 C-11 37.62077013 -11 37.62077013 -11 31 C-11.721875 30.79375 -12.44375 30.5875 -13.1875 30.375 C-16.98456 28.51865956 -18.4981308 26.40532197 -21 23 C-22.59707749 18.20876752 -23.03584479 13.48860637 -21.05859375 8.73828125 C-15.95799557 0.08805048 -9.65983038 -1.16651954 0 0 Z " fill="#FA4A59" transform="translate(120,0)"/>
<path d="M0 0 C1.09328613 0.17821289 2.18657227 0.35642578 3.31298828 0.54003906 C5.73039169 0.93432233 8.14719878 1.33227471 10.56347656 1.73339844 C14.01166197 2.29540732 17.46193672 2.83275226 20.91601562 3.35664368 C37.63938865 5.89365746 54.23458016 8.76877036 70.75 12.4375 C71.47523865 12.5972229 72.20047729 12.7569458 72.94769287 12.92150879 C83.60981484 15.28559271 94.0583339 18.18215435 104.5 21.375 C105.65894775 21.72626953 106.81789551 22.07753906 108.01196289 22.43945312 C129.36607039 28.95627286 150.09645047 36.28406559 170.5 45.375 C171.30614746 45.72916992 172.11229492 46.08333984 172.94287109 46.44824219 C190.43722699 54.1646467 207.14580741 63.73839305 222.60058594 74.99853516 C223.91034612 75.94769042 225.22935798 76.88416463 226.55566406 77.81005859 C228.5775479 79.22309589 230.57185806 80.66838968 232.5625 82.125 C233.48470337 82.7603064 233.48470337 82.7603064 234.42553711 83.40844727 C236.09765625 84.671875 236.09765625 84.671875 238.5 87.375 C238.91715214 94.15372223 235.05034543 100.76703876 232.4375 106.875 C231.62699363 108.79672454 230.81959046 110.71973713 230.01210022 112.64273071 C229.43407917 114.01844327 228.85506457 115.39373872 228.27513123 116.76864624 C224.95227359 124.6506954 221.70989593 132.56551254 218.46878052 140.48144531 C217.43176159 143.01401414 216.39362682 145.54612306 215.35522461 148.078125 C211.13136722 158.37953222 206.92279167 168.68704346 202.72900391 179.00073242 C200.01488219 185.67080027 197.28711173 192.33511057 194.55078125 198.99609375 C194.20444138 199.83948303 193.8581015 200.68287231 193.50126648 201.55181885 C191.74165914 205.83611107 189.98017875 210.11961817 188.21557617 214.40185547 C185.37934055 221.29260337 182.54833744 228.18065161 179.875 235.13671875 C179.5143042 236.0707251 179.1536084 237.00473145 178.78198242 237.96704102 C178.16604573 239.57629389 177.56076581 241.18969771 176.9699707 242.80834961 C175.02277376 247.89452618 172.48523308 251.88238346 167.5 254.375 C164.64383251 254.56879066 161.80908933 254.70654369 158.94921875 254.796875 C157.67278252 254.83871918 157.67278252 254.83871918 156.37055969 254.88140869 C154.56751761 254.93784762 152.76438519 254.99146003 150.96118164 255.04248047 C148.20844585 255.12437684 145.45705312 255.22797844 142.70507812 255.33203125 C140.95316467 255.384163 139.2012117 255.4349867 137.44921875 255.484375 C136.21772346 255.53570587 136.21772346 255.53570587 134.96134949 255.58807373 C130.25767185 255.69150708 127.35247686 255.38808213 123.5 252.375 C118.39868397 247.17810897 114.74789721 240.6763898 110.96166992 234.50048828 C106.6884307 227.57281524 102.16007348 220.82001101 97.625 214.0625 C91.80775143 205.38893434 86.09079481 196.66668268 80.55297852 187.81103516 C77.23875019 182.51820617 73.82499932 177.30431985 70.34204102 172.12133789 C66.99289033 167.13221733 63.70675847 162.10429006 60.4375 157.0625 C55.39074892 149.28130828 50.32715971 141.51138867 45.25 133.75 C44.53529541 132.6573584 43.82059082 131.5647168 43.08422852 130.43896484 C41.6223147 128.20421085 40.16033688 125.96949892 38.69824219 123.73486328 C26.67189572 105.35390577 14.66108473 86.96290474 2.66601562 68.56152344 C1.43694696 66.67612426 0.20777968 64.79078937 -1.02148438 62.90551758 C-2.25233166 61.01758072 -3.48280344 59.12939899 -4.71289062 57.2409668 C-7.76068485 52.56435794 -10.81485624 47.89213188 -13.88473511 43.22999573 C-15.42509332 40.89037521 -16.96319851 38.54927693 -18.50128174 36.2081604 C-19.59150149 34.55092097 -20.6851023 32.89590733 -21.77880859 31.2409668 C-32.9493239 14.23405094 -32.9493239 14.23405094 -32.625 9.1875 C-31.27971033 4.6284628 -29.82898347 2.70398347 -26.5 -0.625 C-19.28338167 -4.23330916 -7.69011674 -1.30570338 0 0 Z " fill="#FDE6C8" transform="translate(132.5,178.625)"/>
<path d="M0 0 C1.64453125 1.1484375 1.64453125 1.1484375 3 3 C5.31261092 27.53535652 -8.74283424 54.43429168 -22 74 C-22.7651343 75.14659439 -23.52950635 76.29369795 -24.29296875 77.44140625 C-24.85628906 78.28574219 -25.41960937 79.13007813 -26 80 C-25.38286133 79.85852539 -24.76572266 79.71705078 -24.12988281 79.57128906 C-15.97161387 77.87772648 -8.0615546 77.7008192 0.25 77.75 C1.58594124 77.74285593 2.9218791 77.73504669 4.2578125 77.7265625 C6.17980469 77.73042969 6.17980469 77.73042969 8.140625 77.734375 C9.29079102 77.73663086 10.44095703 77.73888672 11.62597656 77.74121094 C15.35117446 78.02693523 18.49192212 78.71488378 22 80 C24 83 24 83 23.8359375 85.34375 C20.5674348 95.72964644 11.1448985 104.98584085 4 113 C3.37867188 113.70640625 2.75734375 114.4128125 2.1171875 115.140625 C-7.51165515 125.41714765 -20.31764462 134.87056638 -33 141 C-33.66 141 -34.32 141 -35 141 C-34.9433744 141.93125198 -34.9433744 141.93125198 -34.88560486 142.88131714 C-32.90512647 177.09926925 -34.32405453 204.04573466 -49.55371094 234.89697266 C-53.4231403 242.82514897 -56.61413739 251.03973763 -59.88671875 259.22711182 C-61.35610935 262.88697389 -62.85518526 266.53431403 -64.35491943 270.18182373 C-67.87601684 278.74669152 -71.341607 287.33260038 -74.7734375 295.93359375 C-75.55324293 297.88221848 -76.33318881 299.83078702 -77.11328125 301.77929688 C-78.59123866 305.47103372 -80.05828526 309.16685659 -81.51953125 312.86523438 C-82.18705103 314.53403382 -82.85499638 316.20266313 -83.5234375 317.87109375 C-83.81745453 318.6241832 -84.11147156 319.37727264 -84.41439819 320.15318298 C-86.405906 325.08654423 -88.33224259 329.70587265 -93.359375 332.14453125 C-94.14828125 332.36496094 -94.9371875 332.58539063 -95.75 332.8125 C-96.54921875 333.04582031 -97.3484375 333.27914063 -98.171875 333.51953125 C-99.07679688 333.75736328 -99.07679688 333.75736328 -100 334 C-99.41995971 354.32141139 -97.92680469 374.353887 -92.62597656 394.05102539 C-91.26821366 399.19877654 -90.59289897 403.66638645 -91 409 C-93.52639132 411.52639132 -95.11043575 411.24760675 -98.55737305 411.28216553 C-99.33250244 411.27968811 -100.10763184 411.27721069 -100.90625 411.2746582 C-101.72262939 411.27976913 -102.53900879 411.28488007 -103.38012695 411.29014587 C-106.08682524 411.30408058 -108.79327005 411.30308238 -111.5 411.30078125 C-113.37565201 411.30466573 -115.25130315 411.30899989 -117.12695312 411.31376648 C-121.06122691 411.32123681 -124.99541096 411.32093131 -128.9296875 411.31567383 C-133.98081444 411.30987472 -139.03157524 411.32681689 -144.0826416 411.3500185 C-147.95672771 411.36472204 -151.83072492 411.36563223 -155.70483398 411.36250877 C-157.56763434 411.36302358 -159.43043947 411.368291 -161.29321289 411.37832069 C-163.89363689 411.39060412 -166.4933383 411.38394291 -169.09375 411.37231445 C-169.86887939 411.37995819 -170.64400879 411.38760193 -171.44262695 411.39547729 C-173.58398437 411.3742218 -173.58398437 411.3742218 -177 411 C-179.62699425 407.05950863 -178.84163294 404.41624026 -178 400 C-177.45881333 397.48912151 -176.87926036 394.99008158 -176.28613281 392.4909668 C-171.59776139 372.61040214 -169.84304189 352.37276882 -169 332 C-168.0212793 331.98018066 -167.04255859 331.96036133 -166.03417969 331.93994141 C-162.39606403 331.86375376 -158.75834147 331.77505705 -155.12060547 331.68261719 C-153.54744235 331.64438171 -151.97419342 331.60951934 -150.40087891 331.578125 C-148.13673277 331.53235578 -145.87317453 331.47438239 -143.609375 331.4140625 C-142.55759064 331.39673569 -142.55759064 331.39673569 -141.48455811 331.37905884 C-137.87518904 331.27045962 -134.9851874 331.13905893 -132 329 C-128.3109032 322.66603421 -125.780959 315.74361171 -123.05755615 308.95126343 C-121.63641581 305.40743501 -120.20397563 301.86816767 -118.7734375 298.328125 C-118.47063873 297.57794601 -118.16783997 296.82776703 -117.85586548 296.05485535 C-114.23220497 287.0840572 -110.55259288 278.13628754 -106.875 269.1875 C-105.50747497 265.85821146 -104.14033089 262.52876667 -102.7734375 259.19921875 C-102.44520996 258.39971298 -102.11698242 257.60020721 -101.77880859 256.776474 C-98.58150454 248.98541591 -95.40539233 241.18581836 -92.2331543 233.38452148 C-89.49365841 226.65267716 -86.7410931 219.92632892 -83.98046875 213.203125 C-83.62699371 212.34219238 -83.27351868 211.48125977 -82.90933228 210.59423828 C-81.15936577 206.33257088 -79.4084461 202.07129804 -77.65625 197.81054688 C-76.06693388 193.94485246 -74.4845889 190.07635231 -72.90472412 186.20678711 C-72.00540739 184.01318961 -71.09629318 181.82384177 -70.18603516 179.63476562 C-69.63025196 178.28266792 -69.07473634 176.93046019 -68.51953125 175.578125 C-68.03202393 174.4015332 -67.5445166 173.22494141 -67.04223633 172.01269531 C-65.78204203 168.90128285 -65.78204203 168.90128285 -66 165 C-67.51375371 163.30154087 -67.51375371 163.30154087 -69.61328125 161.87109375 C-70.36673828 161.31099609 -71.12019531 160.75089844 -71.89648438 160.17382812 C-72.69376953 159.60083984 -73.49105469 159.02785156 -74.3125 158.4375 C-75.87243191 157.29218494 -77.43107558 156.14511274 -78.98828125 154.99609375 C-79.68477783 154.49263428 -80.38127441 153.9891748 -81.09887695 153.47045898 C-82.88609378 152.08810289 -84.44424207 150.63480758 -86 149 C-85.34773438 148.59910156 -84.69546875 148.19820312 -84.0234375 147.78515625 C-76.2395883 142.72221009 -70.88821563 136.9598867 -68 128 C-66.76516197 117.68418492 -67.92477534 108.98544883 -71.5 99.25 C-75.85004062 87.3427495 -77.17952456 77.78355451 -71.64453125 65.8203125 C-69.37847526 61.93410721 -66.63183332 58.64090017 -63.57421875 55.3515625 C-61.5968891 52.39783434 -61.70386285 50.48337602 -62 47 C-64.64 46.67 -67.28 46.34 -70 46 C-67.99038136 41.60013061 -65.08968947 38.74570462 -61.6875 35.375 C-61.06230469 34.75471924 -60.43710937 34.13443848 -59.79296875 33.49536133 C-53.91403902 27.76088614 -47.72021964 22.70914648 -41 18 C-40.44876465 17.60973633 -39.8975293 17.21947266 -39.32958984 16.81738281 C-29.37661016 9.85288073 -12.5384444 -1.69438438 0 0 Z " fill="#FDD295" transform="translate(436,101)"/>
<path d="M0 0 C4.90624714 2.27790046 7.5167579 5.21745967 10 10 C11.50101756 16.20420593 10.85934784 20.31909306 8 26 C7.01 27.485 7.01 27.485 6 29 C6.67523648 31.7714054 7.43168347 34.32250561 8.375 37 C11 44.68359375 11 44.68359375 11 48 C11.42410156 47.566875 11.84820312 47.13375 12.28515625 46.6875 C15.47510103 43.65880518 17.2340376 42.11684172 21.6875 41.4375 C26.8125855 42.30779754 26.8125855 42.30779754 29 45 C30.66543098 51.66878085 30.66543098 51.66878085 29.09033203 54.81982422 C27.29395877 57.20566443 25.34987944 59.41609929 23.33984375 61.62304688 C20.60746249 64.92380288 20.60746249 64.92380288 20.1730957 69.03930664 C20.93591227 71.47567998 21.90343313 73.69398437 23 76 C23.40702148 76.90500244 23.81404297 77.81000488 24.23339844 78.74243164 C25.59315331 81.70418216 27.00693809 84.63434851 28.4375 87.5625 C28.91509766 88.55185547 29.39269531 89.54121094 29.88476562 90.56054688 C30.81816659 92.49008768 31.76034045 94.41541464 32.7121582 96.3359375 C33.5229947 98.01325462 34.29585542 99.70999594 35.01245117 101.4296875 C36.56276104 105.03260601 37.40818343 106.73545875 41.05859375 108.3671875 C42.17363281 108.53476563 43.28867188 108.70234375 44.4375 108.875 C48.56924358 109.55484657 52.1632351 110.29317748 56 112 C56.12670932 101.287451 56.12670932 101.287451 51.453125 92.16015625 C48.70743111 90.25026296 45.92252899 88.61841493 43 87 C41.57337781 84.14675563 41.68966132 82.16545451 42 79 C43.5 76.125 43.5 76.125 46 74 C48.69452144 73.71959559 51.28282667 73.90611393 54 74 C53.99476318 73.06317383 53.98952637 72.12634766 53.98413086 71.16113281 C53.96691138 67.62743493 53.95446456 64.09378275 53.94506836 60.56005859 C53.94009315 59.04149667 53.93331059 57.5229394 53.92456055 56.00439453 C53.91219144 53.79978382 53.90531078 51.59526784 53.90234375 49.390625 C53.9011705 48.67108643 53.89999725 47.95154785 53.89878845 47.21020508 C53.92164101 41.87768738 54.32639762 36.65156008 55.02148438 31.36035156 C54.98978854 27.87813162 53.37150306 26.41973253 51.1640625 23.91015625 C48.63125887 19.75397849 49.30841809 14.64717189 50 10 C52.26787438 5.1153475 55.1153475 2.26787438 60 0 C65.67692721 -0.76420174 70.37600222 -0.79775329 75.5625 1.75 C79.31781836 5.21644772 81.68011087 8.00038386 82.23828125 13.234375 C82.42135504 19.43961289 81.77166497 23.00509234 78 28 C77.15308594 28.37382812 76.30617187 28.74765625 75.43359375 29.1328125 C72.63136266 31.28283892 72.58190327 31.74998614 72.109375 35.08984375 C71.96614616 36.70382058 71.84717205 38.32009674 71.75 39.9375 C71.62184704 41.55094582 71.49170548 43.16423518 71.359375 44.77734375 C71.28928223 45.84843384 71.28928223 45.84843384 71.21777344 46.94116211 C70.99623388 49.03560501 70.55795114 50.97157949 70 53 C70.721875 52.525625 71.44375 52.05125 72.1875 51.5625 C75.02244907 49.9875283 76.77273315 49.15742765 80 49 C85.63855422 51.27710843 85.63855422 51.27710843 87 54 C87.84497445 58.98534923 87.84497445 58.98534923 87 62 C82.59884097 66.85005773 76.6437548 69.82236572 71 73 C71.42099056 87.64756806 72.47301633 102.14123737 74.0715332 116.70141602 C74.20519287 117.96783936 74.33885254 119.2342627 74.4765625 120.5390625 C74.60111816 121.66521973 74.72567383 122.79137695 74.85400391 123.95166016 C75 127 75 127 74.45507812 129.63891602 C73.92754997 132.37589282 74.292344 133.64447784 75.2421875 136.23828125 C77.43727177 142.98710404 78.55774507 149.90370737 79.73486328 156.8840332 C80.12160047 159.16742832 80.52301594 161.4479001 80.92578125 163.72851562 C82.55525911 173.15358976 83.57631556 182.44072979 84 192 C83.0087915 191.81207886 83.0087915 191.81207886 81.99755859 191.62036133 C68.58068578 189.08529667 55.15357145 186.63537319 41.6875 184.375 C40.43976807 184.16544678 39.19203613 183.95589355 37.90649414 183.73999023 C32.05413276 182.77424518 26.20500381 181.87092201 20.3203125 181.125 C19.29977783 180.99561035 18.27924316 180.8662207 17.2277832 180.73291016 C15.33981465 180.50112371 13.45032737 180.2812673 11.55932617 180.07568359 C10.73150635 179.97594238 9.90368652 179.87620117 9.05078125 179.7734375 C8.33575439 179.69528809 7.62072754 179.61713867 6.8840332 179.53662109 C3.6918062 178.62739277 2.408948 176.67438613 0.73242188 173.90966797 C0.31541016 173.11189941 -0.10160156 172.31413086 -0.53125 171.4921875 C-1.00723633 170.59532227 -1.48322266 169.69845703 -1.97363281 168.77441406 C-2.47733398 167.81760742 -2.98103516 166.86080078 -3.5 165.875 C-7.87142133 157.68567271 -12.50498433 149.80055798 -17.69726562 142.10498047 C-21 137.18390625 -21 137.18390625 -21 135 C-22.97033203 135.16048828 -22.97033203 135.16048828 -24.98046875 135.32421875 C-26.71608502 135.44618097 -28.45176587 135.56722667 -30.1875 135.6875 C-31.05181641 135.76033203 -31.91613281 135.83316406 -32.80664062 135.90820312 C-37.74132483 136.22961934 -41.02187877 136.35629066 -45 133 C-46.54586876 129.90826248 -46.29359521 127.40570448 -46 124 C-44.13291495 121.63502561 -42.67938569 120.33969285 -40 119 C-38.00039988 118.960008 -35.99952758 118.95653201 -34 119 C-35.60147896 116.89373968 -37.20604875 114.78996262 -38.8125 112.6875 C-39.26431641 112.09259766 -39.71613281 111.49769531 -40.18164062 110.88476562 C-41.43773116 109.24359624 -42.71807973 107.62107397 -44 106 C-44.48210937 105.38511719 -44.96421875 104.77023438 -45.4609375 104.13671875 C-47.77482028 102.42773426 -49.9805876 102.41709662 -52.8125 102.125 C-58.53545517 101.26793908 -61.23952073 100.43543709 -65 96 C-67.81153816 91.23079823 -68.55508598 86.63654152 -67.71484375 81.1796875 C-66.06038488 76.13494407 -62.30323165 72.8688211 -58 70 C-52.57535343 68.57696648 -47.86719445 68.74060023 -42.72265625 70.98046875 C-38.85587953 73.26896926 -36.71537718 76.96294854 -35 81 C-34.9083722 82.56036749 -34.86996603 84.12445265 -34.875 85.6875 C-34.38954073 91.17080227 -32.30047307 93.49168312 -28.51953125 97.3203125 C-25.35421174 100.68683837 -22.62791858 104.29386895 -19.875 108 C-19.3586499 108.69303223 -18.8422998 109.38606445 -18.31030273 110.10009766 C-14.7131555 114.962106 -11.23700944 119.88893246 -8 125 C-7.319375 124.484375 -6.63875 123.96875 -5.9375 123.4375 C-2.07364271 121.54667622 -0.09918272 121.80751048 4 123 C6.5 125.0625 6.5 125.0625 8 128 C8.17038865 131.83374469 7.37883972 135.11604065 5.875 138.625 C4.68800734 141.84683722 5.2074813 143.66064937 6 147 C7.13248352 149.39287599 8.28914093 151.64001976 9.59765625 153.9296875 C10.12823891 154.88248093 10.12823891 154.88248093 10.66954041 155.85452271 C11.79223805 157.86612399 12.92710635 159.87054258 14.0625 161.875 C14.82959285 163.24433442 15.59587752 164.6141219 16.36132812 165.984375 C18.23157616 169.32823085 20.11276461 172.66570444 22 176 C28.73725504 162.98744207 33.16597091 148.32600519 29.0859375 133.93359375 C27.00297824 128.30660668 24.17699329 123.09085326 19.828125 118.9140625 C18 117 18 117 17.6875 113.875 C18 111 18 111 19 109 C18.09951875 106.79946704 17.10496381 104.63693262 16.0625 102.5 C13 96.19362187 13 96.19362187 13 94 C11.67935547 93.76216797 11.67935547 93.76216797 10.33203125 93.51953125 C-0.34881881 91.37387769 -0.34881881 91.37387769 -3.3125 88.6875 C-5.39605835 85.3692404 -5.80082306 83.8439507 -5 80 C-2.44975635 76.89835231 -0.82300753 75.27433584 3 74 C2.75354736 73.36199463 2.50709473 72.72398926 2.25317383 72.06665039 C-11 37.62077013 -11 37.62077013 -11 31 C-11.721875 30.79375 -12.44375 30.5875 -13.1875 30.375 C-16.98456 28.51865956 -18.4981308 26.40532197 -21 23 C-22.59707749 18.20876752 -23.03584479 13.48860637 -21.05859375 8.73828125 C-15.95799557 0.08805048 -9.65983038 -1.16651954 0 0 Z " fill="#FA4A59" transform="translate(120,0)"/>
<path d="M0 0 C3.6975108 3.55269967 4.43299721 8.51137764 5.625 13.3125 C5.8415625 14.14201172 6.058125 14.97152344 6.28125 15.82617188 C8.63613812 25.03494732 9.24709458 33.95982563 9.5625 43.4375 C9.60568359 44.64599609 9.64886719 45.85449219 9.69335938 47.09960938 C9.79889404 50.06630606 9.90100714 53.03307902 10 56 C13.75427725 53.91980873 17.50791716 51.83847326 21.26098633 49.75610352 C22.53620491 49.04876202 23.81159314 48.34172625 25.0871582 47.63500977 C26.92704902 46.61556226 28.76631462 45.59499456 30.60546875 44.57421875 C31.71043701 43.96151123 32.81540527 43.34880371 33.95385742 42.7175293 C35.88764054 41.62718993 37.80247747 40.50195828 39.6887207 39.33129883 C42.87280457 37.49726383 45.3327859 37.12645566 49 37 C53.56833627 38.44663982 56.61106632 39.75300678 59 44 C61.80858099 52.42574298 61.89892773 63.37284639 60 72 C57.27444627 76.56763642 52.56447535 78.57202205 47.95898438 80.88378906 C44.55816018 82.82154682 41.86316385 85.48097611 39.0625 88.1875 C38.52439697 88.69692139 37.98629395 89.20634277 37.43188477 89.73120117 C35.94542259 91.14455486 34.47229482 92.57189411 33 94 C31.84564453 95.11181641 31.84564453 95.11181641 30.66796875 96.24609375 C27.43219869 99.31368741 27.43219869 99.31368741 25 103 C25.928125 102.938125 26.85625 102.87625 27.8125 102.8125 C31 103 31 103 32.9375 104.1875 C34 106 34 106 33.76953125 108.359375 C32.90346526 111.33125626 31.7910553 112.75965717 29.75 115.0625 C23.28561022 123.13965506 20.03820463 131.57684276 20.359375 141.98046875 C20.95212254 146.96942723 22.78688657 151.55511559 24.5 156.25 C28.55606852 167.41426813 31.08048373 179.39194052 25.875 190.6875 C24.484375 192.95703125 24.484375 192.95703125 23 195 C22.53078125 195.66386719 22.0615625 196.32773438 21.578125 197.01171875 C18.2906623 201.22709431 14.88596594 203.82845958 10 206 C3.62130592 205.25388818 -2.35159934 201.20968384 -7 197 C-9.17638415 192.15599893 -9.66995322 187.30000831 -10.125 182.0625 C-10.29068024 180.66147424 -10.4623529 179.26114463 -10.63989258 177.86157227 C-10.98104062 175.12898179 -11.29546304 172.39570458 -11.58544922 169.65722656 C-12.09012756 165.20488175 -12.83548702 160.83401388 -13.6875 156.4375 C-14.58647284 151.50813227 -15.31802369 146.59683145 -15.9375 141.625 C-16.97676188 134.15262118 -18.7328359 126.82012978 -23.3125 120.6875 C-25 118 -25 118 -24.8125 114.8125 C-24.24922963 112.86271794 -23.64178841 110.92536523 -23 109 C-21.932613 99.40564636 -22.99381499 91.99761664 -26.5 83.0625 C-30.66116868 72.32097441 -32.34867505 61.76022876 -28.5 50.5625 C-26.31289722 45.91094445 -23.0707522 42.18643853 -19.609375 38.421875 C-17.61645303 35.42281767 -17.69390823 33.53025839 -18 30 C-20.43387753 28.78306124 -22.41838846 28.68040104 -25.125 28.4375 C-26.03507812 28.35371094 -26.94515625 28.26992187 -27.8828125 28.18359375 C-28.58148438 28.12300781 -29.28015625 28.06242187 -30 28 C-11.86256781 -1.44665461 -11.86256781 -1.44665461 0 0 Z " fill="#E12434" transform="translate(341,44)"/>
<path d="M0 0 C1.64453125 1.1484375 1.64453125 1.1484375 3 3 C5.31261092 27.53535652 -8.74283424 54.43429168 -22 74 C-22.7651343 75.14659439 -23.52950635 76.29369795 -24.29296875 77.44140625 C-24.85628906 78.28574219 -25.41960937 79.13007813 -26 80 C-25.38286133 79.85852539 -24.76572266 79.71705078 -24.12988281 79.57128906 C-15.97161387 77.87772648 -8.0615546 77.7008192 0.25 77.75 C1.58594124 77.74285593 2.9218791 77.73504669 4.2578125 77.7265625 C6.17980469 77.73042969 6.17980469 77.73042969 8.140625 77.734375 C9.29079102 77.73663086 10.44095703 77.73888672 11.62597656 77.74121094 C15.35117446 78.02693523 18.49192212 78.71488378 22 80 C24 83 24 83 23.8359375 85.34375 C20.5674348 95.72964644 11.1448985 104.98584085 4 113 C3.37867188 113.70640625 2.75734375 114.4128125 2.1171875 115.140625 C-10.16711463 128.25122548 -26.24499662 138.75237162 -43 145 C-44.86267171 145.75146413 -46.72523825 146.50320711 -48.58544922 147.26074219 C-51.71483713 148.52980985 -54.85700676 149.76500486 -58 151 C-58.83789062 151.33515625 -59.67578125 151.6703125 -60.5390625 152.015625 C-66.79734852 154.33688018 -74.99274239 156.82822696 -81.3203125 153.94140625 C-83.25 152.5625 -83.25 152.5625 -86 150 C-83.87677791 147.75149462 -81.67877348 146.04648238 -79.125 144.3125 C-73.50312706 140.15810125 -70.16453962 134.60606248 -68 128 C-66.76516197 117.68418492 -67.92477534 108.98544883 -71.5 99.25 C-75.85004062 87.3427495 -77.17952456 77.78355451 -71.64453125 65.8203125 C-69.37847526 61.93410721 -66.63183332 58.64090017 -63.57421875 55.3515625 C-61.5968891 52.39783434 -61.70386285 50.48337602 -62 47 C-64.64 46.67 -67.28 46.34 -70 46 C-67.99038136 41.60013061 -65.08968947 38.74570462 -61.6875 35.375 C-61.06230469 34.75471924 -60.43710937 34.13443848 -59.79296875 33.49536133 C-53.91403902 27.76088614 -47.72021964 22.70914648 -41 18 C-40.44876465 17.60973633 -39.8975293 17.21947266 -39.32958984 16.81738281 C-29.37661016 9.85288073 -12.5384444 -1.69438438 0 0 Z " fill="#20B59F" transform="translate(436,101)"/>
<path d="M0 0 C8.8488239 -0.02312589 17.69763747 -0.04091634 26.54648495 -0.05181217 C30.65494285 -0.05704046 34.76338014 -0.06413713 38.87182617 -0.07543945 C42.83346828 -0.08627025 46.79509052 -0.09227724 50.75674629 -0.09487724 C52.27148311 -0.09673114 53.78621879 -0.1003511 55.30094719 -0.10573006 C57.41541813 -0.11294307 59.52980594 -0.11399083 61.64428711 -0.11352539 C62.85007919 -0.115746 64.05587128 -0.11796661 65.29820251 -0.12025452 C68 0 68 0 69 1 C69.12167754 2.35182616 69.17973049 3.70947386 69.2109375 5.06640625 C69.23704102 5.93209229 69.26314453 6.79777832 69.29003906 7.68969727 C69.31807617 8.63772217 69.34611328 9.58574707 69.375 10.5625 C70.04348721 27.68335616 71.91396203 44.47805894 76.37402344 61.05102539 C77.73178634 66.19877654 78.40710103 70.66638645 78 76 C75.47360868 78.52639132 73.88956425 78.24760675 70.44262695 78.28216553 C69.66749756 78.27968811 68.89236816 78.27721069 68.09375 78.2746582 C67.27737061 78.27976913 66.46099121 78.28488007 65.61987305 78.29014587 C62.91317476 78.30408058 60.20672995 78.30308238 57.5 78.30078125 C55.62434799 78.30466573 53.74869685 78.30899989 51.87304688 78.31376648 C47.93877309 78.32123681 44.00458904 78.32093131 40.0703125 78.31567383 C35.01918556 78.30987472 29.96842476 78.32681689 24.9173584 78.3500185 C21.04327229 78.36472204 17.16927508 78.36563223 13.29516602 78.36250877 C11.43236566 78.36302358 9.56956053 78.368291 7.70678711 78.37832069 C5.10636311 78.39060412 2.5066617 78.38394291 -0.09375 78.37231445 C-0.86887939 78.37995819 -1.64400879 78.38760193 -2.44262695 78.39547729 C-4.58398438 78.3742218 -4.58398438 78.3742218 -8 78 C-10.62699425 74.05950863 -9.84163294 71.41624026 -9 67 C-8.45879707 64.48904608 -7.87922636 61.98992477 -7.28613281 59.49072266 C-4.98979098 49.75416546 -3.33570187 40.0702263 -2.25 30.125 C-2.07718506 28.54271606 -2.07718506 28.54271606 -1.90087891 26.9284668 C-0.98883922 17.96881525 -0.48249669 8.990881 0 0 Z " fill="#16988B" transform="translate(267,434)"/>
<path d="M0 0 C4.52077862 -0.05834421 9.04145953 -0.09371252 13.5625 -0.125 C14.83931641 -0.14175781 16.11613281 -0.15851563 17.43164062 -0.17578125 C29.82976686 -0.2401871 29.82976686 -0.2401871 35 2 C37 5 37 5 36.8359375 7.34375 C33.5674348 17.72964644 24.1448985 26.98584085 17 35 C16.37867188 35.70640625 15.75734375 36.4128125 15.1171875 37.140625 C2.83288537 50.25122548 -13.24499662 60.75237162 -30 67 C-31.86267171 67.75146413 -33.72523825 68.50320711 -35.58544922 69.26074219 C-38.71483713 70.52980985 -41.85700676 71.76500486 -45 73 C-46.25683594 73.50273437 -46.25683594 73.50273437 -47.5390625 74.015625 C-53.79734852 76.33688018 -61.99274239 78.82822696 -68.3203125 75.94140625 C-70.25 74.5625 -70.25 74.5625 -73 72 C-70.87677791 69.75149462 -68.67877348 68.04648238 -66.125 66.3125 C-60.49390045 62.15128305 -57.18385419 56.60804154 -55 50 C-54.71132208 47.37194158 -54.49595962 44.82089169 -54.375 42.1875 C-54.33632813 41.49462891 -54.29765625 40.80175781 -54.2578125 40.08789062 C-54.16426432 38.39232985 -54.08107636 36.69620288 -54 35 C-53.67 35 -53.34 35 -53 35 C-53 37.97 -53 40.94 -53 44 C-34.27671549 33.60037207 -10.01678973 20.03357947 0 0 Z " fill="#20B59E" transform="translate(423,179)"/>
<path d="M0 0 C0.93585938 0.03158203 1.87171875 0.06316406 2.8359375 0.09570312 C3.733125 0.14017578 4.6303125 0.18464844 5.5546875 0.23046875 C6.76487549 0.28883911 6.76487549 0.28883911 7.99951172 0.34838867 C10.58687394 0.91335256 11.5512377 1.70672585 13.125 3.8125 C12.9439534 7.84078682 11.49180188 9.92256484 8.875 12.875 C2.70773635 20.56818455 -0.86307546 28.93929202 -0.51171875 38.8984375 C0.80448859 46.98947896 3.63708543 54.72296654 6.36889648 62.43164062 C9.86854873 73.45153364 7.6481314 81.36083565 3.125 91.8125 C-8.08018602 89.77970077 -18.94157221 86.98106498 -29.875 83.8125 C-30.01075439 82.9373877 -30.14650879 82.06227539 -30.28637695 81.16064453 C-31.49053681 73.40571236 -32.70028197 65.65168807 -33.91931152 57.89907837 C-34.4018182 54.83030613 -34.88291402 51.76135097 -35.35791016 48.69140625 C-37.11367462 37.09308306 -37.11367462 37.09308306 -40.421875 25.85546875 C-41.26641788 22.04774523 -40.13025952 19.28217752 -38.3125 15.9375 C-28.29244222 3.09127207 -15.83796961 -0.88361554 0 0 Z " fill="#E12334" transform="translate(233.875,108.1875)"/>
<path d="M0 0 C3.6975108 3.55269967 4.43299721 8.51137764 5.625 13.3125 C5.8415625 14.14201172 6.058125 14.97152344 6.28125 15.82617188 C11.73423055 37.15001864 10.59903334 61.81036225 5 83 C4.79681152 83.78987305 4.59362305 84.57974609 4.38427734 85.39355469 C-1.07436591 106.26055641 -1.07436591 106.26055641 -10.671875 113.125 C-14.47585076 116.18860464 -17.20028966 120.02999273 -20 124 C-23.51561459 120.71734782 -24.79933851 118.91620639 -25 114 C-24.68417969 113.2575 -24.36835938 112.515 -24.04296875 111.75 C-20.38600732 102.10767473 -22.9136226 92.23820941 -26.5 83.0625 C-30.659816 72.31974426 -32.34908066 61.7614089 -28.5 50.5625 C-26.31289722 45.91094445 -23.0707522 42.18643853 -19.609375 38.421875 C-17.61645303 35.42281767 -17.69390823 33.53025839 -18 30 C-20.43387753 28.78306124 -22.41838846 28.68040104 -25.125 28.4375 C-26.03507812 28.35371094 -26.94515625 28.26992187 -27.8828125 28.18359375 C-28.58148438 28.12300781 -29.28015625 28.06242187 -30 28 C-11.86256781 -1.44665461 -11.86256781 -1.44665461 0 0 Z " fill="#148B80" transform="translate(341,44)"/>
<path d="M0 0 C1.61841797 -0.00483398 1.61841797 -0.00483398 3.26953125 -0.00976562 C11.22352472 0.04484981 11.22352472 0.04484981 14.625 2.3125 C15.16130429 5.90772504 15.04365661 7.68248277 13.015625 10.734375 C12.30921875 11.50265625 11.6028125 12.2709375 10.875 13.0625 C3.76672031 21.56974963 1.56871747 29.58273121 2.01953125 40.61328125 C2.57457851 46.74726512 4.89521487 52.21612823 7.11206055 57.91040039 C10.43129088 66.75394415 11.90013942 76.28010631 8.0859375 85.26171875 C7.36277344 86.77185547 7.36277344 86.77185547 6.625 88.3125 C3.70778732 86.96361184 1.36550974 85.39725275 -1.125 83.375 C-9.40870308 77.15086478 -18.38935979 76.41768153 -28.375 75.3125 C-30.74282964 64.12240156 -32.75632528 52.99096875 -34.21875 41.64575195 C-35.0415144 35.66658289 -36.4331059 30.27022924 -38.80078125 24.6875 C-39.56405837 21.53054429 -38.88564489 20.14723424 -37.375 17.3125 C-28.13122643 4.02297512 -15.58323395 -0.23783935 0 0 Z " fill="#E12334" transform="translate(309.375,71.6875)"/>
<path d="M0 0 C3.85185873 3.32660527 6.5335057 6.59281796 6.93359375 11.734375 C6.95550781 12.56453125 6.97742188 13.3946875 7 14.25 C7.38132787 19.66972374 9.50076276 21.91856517 13.23046875 25.6953125 C16.39578826 29.06183837 19.12208142 32.66886895 21.875 36.375 C22.64952515 37.41454834 22.64952515 37.41454834 23.43969727 38.47509766 C27.0368445 43.337106 30.51299056 48.26393246 33.75 53.375 C34.430625 52.859375 35.11125 52.34375 35.8125 51.8125 C39.67635729 49.92167622 41.65081728 50.18251048 45.75 51.375 C48.25 53.4375 48.25 53.4375 49.75 56.375 C49.92038865 60.20874469 49.12883972 63.49104065 47.625 67 C46.43900522 70.21912869 46.95809618 72.04000051 47.75 75.375 C48.87138991 77.71163679 50.01513257 79.89745951 51.3125 82.12890625 C51.6638501 82.7522435 52.0152002 83.37558075 52.37719727 84.01780701 C53.49301912 85.9959717 54.62028035 87.96724384 55.75 89.9375 C56.87895176 91.91171945 58.00504154 93.88732578 59.12280273 95.86790466 C59.81612418 97.09605223 60.51585274 98.32061184 61.22290039 99.54090881 C63.06523853 102.80020279 64.25544339 105.65494173 64.75 109.375 C61.81027779 109.12028401 58.87435936 108.84700125 55.9375 108.5625 C54.68743164 108.45711914 54.68743164 108.45711914 53.41210938 108.34960938 C52.20844727 108.22875977 52.20844727 108.22875977 50.98046875 108.10546875 C50.24207764 108.03739014 49.50368652 107.96931152 48.74291992 107.89916992 C45.45247132 107.03372913 44.20017385 105.11737066 42.48242188 102.28466797 C42.06541016 101.48689941 41.64839844 100.68913086 41.21875 99.8671875 C40.74276367 98.97032227 40.26677734 98.07345703 39.77636719 97.14941406 C39.27266602 96.19260742 38.76896484 95.23580078 38.25 94.25 C33.87857867 86.06067271 29.24501567 78.17555798 24.05273438 70.47998047 C20.75 65.55890625 20.75 65.55890625 20.75 63.375 C18.77966797 63.53548828 18.77966797 63.53548828 16.76953125 63.69921875 C15.03391498 63.82118097 13.29823413 63.94222667 11.5625 64.0625 C10.69818359 64.13533203 9.83386719 64.20816406 8.94335938 64.28320312 C4.00867517 64.60461934 0.72812123 64.73129066 -3.25 61.375 C-4.79586876 58.28326248 -4.54359521 55.78070448 -4.25 52.375 C-2.38291495 50.01002561 -0.92938569 48.71469285 1.75 47.375 C3.74960012 47.335008 5.75047242 47.33153201 7.75 47.375 C6.14852104 45.26873968 4.54395125 43.16496262 2.9375 41.0625 C2.25977539 40.17014648 2.25977539 40.17014648 1.56835938 39.25976562 C0.31226884 37.61859624 -0.96807973 35.99607397 -2.25 34.375 C-2.73210937 33.76011719 -3.21421875 33.14523438 -3.7109375 32.51171875 C-6.02482028 30.80273426 -8.2305876 30.79209662 -11.0625 30.5 C-16.78545517 29.64293908 -19.48952073 28.81043709 -23.25 24.375 C-26.06153816 19.60579823 -26.80508598 15.01154152 -25.96484375 9.5546875 C-24.31038488 4.50994407 -20.55323165 1.2438211 -16.25 -1.625 C-10.5431935 -3.41856776 -5.23250589 -2.61625295 0 0 Z " fill="#20B69F" transform="translate(78.25,71.625)"/>
<path d="M0 0 C4.03654111 1.9828623 6.6500056 4.16579861 9 8 C10.62141925 12.86425774 10.95779193 18.19429429 9.28125 23.10546875 C7.71975069 26.05846542 6.51768045 27.77149569 3.43359375 29.1328125 C0.63136266 31.28283892 0.58190327 31.74998614 0.109375 35.08984375 C-0.03385384 36.70382058 -0.15282795 38.32009674 -0.25 39.9375 C-0.37815296 41.55094582 -0.50829452 43.16423518 -0.640625 44.77734375 C-0.68735352 45.49140381 -0.73408203 46.20546387 -0.78222656 46.94116211 C-1.00376612 49.03560501 -1.44204886 50.97157949 -2 53 C-1.278125 52.525625 -0.55625 52.05125 0.1875 51.5625 C3.02244907 49.9875283 4.77273315 49.15742765 8 49 C13.63855422 51.27710843 13.63855422 51.27710843 15 54 C15.84497445 58.98534923 15.84497445 58.98534923 15 62 C10.59884097 66.85005773 4.6437548 69.82236572 -1 73 C-0.698986 83.47321126 -0.27864651 93.9033179 0.83984375 104.32421875 C0.91386917 105.02386246 0.98789459 105.72350616 1.06416321 106.4443512 C1.43566856 109.92507517 1.8280576 113.40190841 2.24731445 116.87719727 C2.45747192 118.78650024 2.45747192 118.78650024 2.671875 120.734375 C2.8069043 121.87100586 2.94193359 123.00763672 3.08105469 124.17871094 C3 127 3 127 1.52050781 128.89160156 C1.01874023 129.25737305 0.51697266 129.62314453 0 130 C-0.4125 129.43152344 -0.825 128.86304688 -1.25 128.27734375 C-4.91148063 123.38174799 -8.66085692 119.27887553 -13.3984375 115.41015625 C-15 114 -15 114 -16 112 C-16.04898438 110.80117187 -16.09796875 109.60234375 -16.1484375 108.3671875 C-16.34664471 99.56209582 -16.34664471 99.56209582 -20.54296875 92.16796875 C-23.28949582 90.25286126 -26.07438425 88.62012429 -29 87 C-30.42662219 84.14675563 -30.31033868 82.16545451 -30 79 C-28.5 76.125 -28.5 76.125 -26 74 C-23.30547856 73.71959559 -20.71717333 73.90611393 -18 74 C-18.00785522 72.59476074 -18.00785522 72.59476074 -18.01586914 71.16113281 C-18.03308862 67.62743493 -18.04553544 64.09378275 -18.05493164 60.56005859 C-18.05990685 59.04149667 -18.06668941 57.5229394 -18.07543945 56.00439453 C-18.08780856 53.79978382 -18.09468922 51.59526784 -18.09765625 49.390625 C-18.0988295 48.67108643 -18.10000275 47.95154785 -18.10121155 47.21020508 C-18.07835899 41.87768738 -17.67360238 36.65156008 -16.97851562 31.36035156 C-17.01021146 27.87813162 -18.62849694 26.41973253 -20.8359375 23.91015625 C-23.36874113 19.75397849 -22.69158191 14.64717189 -22 10 C-17.52985943 0.37200493 -9.8460955 -1.35063038 0 0 Z " fill="#20B59E" transform="translate(192,0)"/>
<path d="M0 0 C4.90624714 2.27790046 7.5167579 5.21745967 10 10 C11.50101756 16.20420593 10.85934784 20.31909306 8 26 C7.34 26.99 6.68 27.98 6 29 C6.67523648 31.7714054 7.43168347 34.32250561 8.375 37 C11 44.68359375 11 44.68359375 11 48 C11.42410156 47.566875 11.84820312 47.13375 12.28515625 46.6875 C15.47510103 43.65880518 17.2340376 42.11684172 21.6875 41.4375 C26.8125855 42.30779754 26.8125855 42.30779754 29 45 C30.66543098 51.66878085 30.66543098 51.66878085 29.09033203 54.81982422 C27.29395877 57.20566443 25.34987944 59.41609929 23.33984375 61.62304688 C20.60746249 64.92380288 20.60746249 64.92380288 20.1730957 69.03930664 C20.93591227 71.47567998 21.90343313 73.69398437 23 76 C23.61053223 77.35750366 23.61053223 77.35750366 24.23339844 78.74243164 C25.59315331 81.70418216 27.00693809 84.63434851 28.4375 87.5625 C28.91509766 88.55185547 29.39269531 89.54121094 29.88476562 90.56054688 C31.99677783 94.92653096 34.13633417 99.27333526 36.34765625 103.58984375 C38 107 38 107 38 109 C31.73 109 25.46 109 19 109 C13 96.25 13 96.25 13 94 C12.11957031 93.84144531 11.23914063 93.68289062 10.33203125 93.51953125 C-0.34881881 91.37387769 -0.34881881 91.37387769 -3.3125 88.6875 C-5.39605835 85.3692404 -5.80082306 83.8439507 -5 80 C-2.44975635 76.89835231 -0.82300753 75.27433584 3 74 C2.75354736 73.36199463 2.50709473 72.72398926 2.25317383 72.06665039 C-11 37.62077013 -11 37.62077013 -11 31 C-12.0828125 30.690625 -12.0828125 30.690625 -13.1875 30.375 C-16.98456 28.51865956 -18.4981308 26.40532197 -21 23 C-22.59707749 18.20876752 -23.03584479 13.48860637 -21.05859375 8.73828125 C-15.95799557 0.08805048 -9.65983038 -1.16651954 0 0 Z " fill="#20B59E" transform="translate(120,0)"/>
<path d="M0 0 C6.51620376 6.35329866 5.8387859 14.96705748 6.00463867 23.52807617 C5.7507634 33.04052956 5.7507634 33.04052956 2.3359375 36.453125 C-0.57870215 38.64058104 -3.79132947 40.25258029 -7.04101562 41.88378906 C-10.44183982 43.82154682 -13.13683615 46.48097611 -15.9375 49.1875 C-16.74465454 49.95163208 -16.74465454 49.95163208 -17.56811523 50.73120117 C-19.05457741 52.14455486 -20.52770518 53.57189411 -22 55 C-23.15435547 56.11181641 -23.15435547 56.11181641 -24.33203125 57.24609375 C-27.56780131 60.31368741 -27.56780131 60.31368741 -30 64 C-31.26714844 64.03738281 -32.53429687 64.07476562 -33.83984375 64.11328125 C-35.53908931 64.17899793 -37.2383068 64.24544323 -38.9375 64.3125 C-39.76830078 64.33505859 -40.59910156 64.35761719 -41.45507812 64.38085938 C-47.40730322 64.63562387 -52.45578827 65.83008856 -58 68 C-57.82114258 67.40799805 -57.64228516 66.81599609 -57.45800781 66.20605469 C-56.96247892 64.56053892 -56.47226973 62.91342042 -55.984375 61.265625 C-55.28834436 58.95657096 -54.56707724 56.65505329 -53.828125 54.359375 C-53.40427125 53.0110371 -52.98248331 51.66204849 -52.5625 50.3125 C-52.33763916 49.60609375 -52.11277832 48.8996875 -51.88110352 48.171875 C-50.57643607 43.81699809 -49.7958106 39.6723308 -49.38671875 35.140625 C-47.93624031 20.27112841 -47.93624031 20.27112841 -44.421875 16.14892578 C-40.46568269 12.96823708 -36.00352037 10.97610169 -31.34423828 9.03271484 C-27.447574 7.31610477 -23.8488989 5.10043434 -20.1875 2.9375 C-12.8224113 -1.32150487 -8.2096085 -3.09369438 0 0 Z " fill="#FBB34D" transform="translate(396,83)"/>
<path d="M0 0 C8.8488239 -0.02312589 17.69763747 -0.04091634 26.54648495 -0.05181217 C30.65494285 -0.05704046 34.76338014 -0.06413713 38.87182617 -0.07543945 C42.83346828 -0.08627025 46.79509052 -0.09227724 50.75674629 -0.09487724 C52.27148311 -0.09673114 53.78621879 -0.1003511 55.30094719 -0.10573006 C57.41541813 -0.11294307 59.52980594 -0.11399083 61.64428711 -0.11352539 C62.85007919 -0.115746 64.05587128 -0.11796661 65.29820251 -0.12025452 C68 0 68 0 69 1 C69.14550122 2.49195005 69.22722981 3.99022671 69.28125 5.48828125 C69.33732422 6.89110352 69.33732422 6.89110352 69.39453125 8.32226562 C69.44673828 9.80243164 69.44673828 9.80243164 69.5 11.3125 C69.79225083 19.24115665 70.34014608 27.08175291 71 35 C46.91 35 22.82 35 -2 35 C-0.85030864 14.30555556 -0.85030864 14.30555556 -0.4375 7.375 C-0.36023682 6.07256348 -0.28297363 4.77012695 -0.20336914 3.42822266 C-0.13625732 2.29690918 -0.06914551 1.1655957 0 0 Z " fill="#117D72" transform="translate(267,434)"/>
<path d="M0 0 C0 18.48 0 36.96 0 56 C-3.58524545 52.41475455 -7.08202384 48.80121062 -10.5 45.0625 C-10.96019531 44.56298828 -11.42039062 44.06347656 -11.89453125 43.54882812 C-14.20790453 41.02366716 -16.45716674 38.46864527 -18.62890625 35.8203125 C-24.27197761 29.10812548 -31.50338244 23.96470598 -38.42749023 18.64379883 C-39.96889031 17.45114131 -41.48688465 16.22834364 -43 15 C-43 14.67 -43 14.34 -43 14 C-42.27039063 13.85304687 -41.54078125 13.70609375 -40.7890625 13.5546875 C-28.06076712 10.82046108 -15.19627112 7.20210802 -3.75 0.8828125 C-2 0 -2 0 0 0 Z " fill="#FAB44E" transform="translate(401,242)"/>
<path d="M0 0 C-1.51773128 5.11747854 -4.66414975 8.3368164 -8.25 12.125 C-8.87261719 12.78516113 -9.49523437 13.44532227 -10.13671875 14.12548828 C-21.91236614 26.34834964 -36.12391181 35.92027774 -51 44 C-51.66 44 -52.32 44 -53 44 C-53.10957031 43.23816406 -53.21914063 42.47632813 -53.33203125 41.69140625 C-54.22589185 35.87041161 -55.30707986 30.44486057 -57.4140625 24.9375 C-58 23 -58 23 -58 19 C-48.59779897 14.30932321 -39.23582111 9.8173878 -29.25 6.5 C-28.52506348 6.25749512 -27.80012695 6.01499023 -27.05322266 5.76513672 C-23.66487978 4.6819069 -20.59629012 3.9457465 -17.046875 3.46875 C-15.53867187 3.23671875 -15.53867187 3.23671875 -14 3 C-13.67 2.34 -13.34 1.68 -13 1 C-10.56640625 0.5859375 -10.56640625 0.5859375 -7.5625 0.375 C-6.07943359 0.26285156 -6.07943359 0.26285156 -4.56640625 0.1484375 C-3.04600783 0.06049969 -1.5229394 0 0 0 Z " fill="#27D0B2" transform="translate(423,179)"/>
<path d="M0 0 C0.99 0.31710938 1.98 0.63421875 3 0.9609375 C9.85292331 2.67416833 16.97580832 2.47198834 24 2.625 C25.45705282 2.66324966 26.91408471 2.70230527 28.37109375 2.7421875 C31.91386926 2.83742506 35.4568043 2.92172897 39 3 C39.5096835 11.2651652 38.21479852 17.90472818 35.5 25.6875 C35.16613281 26.68716797 34.83226562 27.68683594 34.48828125 28.71679688 C33.67337325 31.14987933 32.84394334 33.57686936 32 36 C24.06632373 33.67873257 16.23876788 31.09791307 8.41601562 28.4296875 C7.52978516 28.130625 6.64355469 27.8315625 5.73046875 27.5234375 C4.94051514 27.25450684 4.15056152 26.98557617 3.33666992 26.70849609 C0.90886171 25.97236618 -1.50606431 25.45796272 -4 25 C-3.47976853 21.77456487 -2.59375327 18.91289185 -1.4375 15.875 C0.40026534 10.58473375 0.27957749 5.53977615 0 0 Z " fill="#19998C" transform="translate(241,176)"/>
<path d="M0 0 C1.83198909 5.32361717 -0.58033124 9.95061572 -2.3125 15.0625 C-2.67279297 16.13072998 -3.03308594 17.19895996 -3.40429688 18.29956055 C-8.45423054 32.74069325 -15.39408091 46.05345735 -25 58 C-26.13115234 59.45019531 -26.13115234 59.45019531 -27.28515625 60.9296875 C-31.18770529 65.84207811 -34.95725675 70.25026784 -40 74 C-40.62555591 61.94067221 -39.59384944 54.09586316 -31.75 44.75 C-30.69039063 43.59757812 -30.69039063 43.59757812 -29.609375 42.421875 C-27.61645303 39.42281767 -27.69390823 37.53025839 -28 34 C-31.96 33.505 -31.96 33.505 -36 33 C-33.99022236 28.59978249 -31.08919912 25.74655922 -27.6875 22.375 C-27.06738037 21.75761963 -26.44726074 21.14023926 -25.80834961 20.50415039 C-19.93114296 14.75660445 -13.66568971 9.80401888 -7 5 C-6.21882813 4.43152344 -5.43765625 3.86304687 -4.6328125 3.27734375 C-3.09834348 2.1711703 -1.55136609 1.08234843 0 0 Z " fill="#29CFB1" transform="translate(402,114)"/>
<path d="M0 0 C3.3441674 4.48822467 4.78489928 8.09103653 4.515625 13.7265625 C3.26323198 19.2484772 -0.71578836 22.85847854 -4.8125 26.5 C-9.59374296 28.74999669 -13.95917456 29.0613077 -18.9921875 27.3046875 C-23.37229823 25.06763524 -25.85901248 22.36432071 -28 18 C-29.2132972 13.41457336 -29.24510042 9.90380779 -28 5.3125 C-25.15837896 0.60606515 -21.75981158 -2.93853401 -16.5625 -4.9375 C-9.81376788 -5.10210322 -5.2218504 -4.50977989 0 0 Z " fill="#FA4A58" transform="translate(81,74)"/>
<path d="M0 0 C4.03654111 1.9828623 6.6500056 4.16579861 9 8 C10.62141925 12.86425774 10.95779193 18.19429429 9.28125 23.10546875 C6.83351201 27.73445713 3.93524093 29.92374499 -0.875 31.6875 C-7.63389143 32.68145462 -12.4043156 31.8599298 -18 28 C-21.74407512 24.25592488 -22.29712053 21.12270653 -22.5 16 C-22.25156236 9.3087462 -20.3143755 6.19865673 -15.5 1.625 C-10.34184625 -0.7698571 -5.59308489 -0.76722701 0 0 Z " fill="#FA4A59" transform="translate(192,0)"/>
<path d="M0 0 C4.90624714 2.27790046 7.5167579 5.21745967 10 10 C11.26548941 15.23068955 11.36640403 19.19029074 9.19921875 24.171875 C6.46754872 28.33611466 2.42626644 30.32996759 -2.27734375 31.62890625 C-7.59508564 32.49247117 -11.2847568 31.81101037 -16 29 C-20.05099326 25.14840796 -22.11698563 21.41935076 -22.375 15.8125 C-22.31560318 10.61103606 -20.49976787 6.81949975 -17 3 C-11.6353482 -0.95529413 -6.43264116 -0.7768047 0 0 Z " fill="#FA4A59" transform="translate(120,0)"/>
<path d="M0 0 C5.28 0 10.56 0 16 0 C16 14.19 16 28.38 16 43 C11.05 43 6.1 43 1 43 C0.67 28.81 0.34 14.62 0 0 Z " fill="#138A7F" transform="translate(293,469)"/>
<path d="M0 0 C0 16.5 0 33 0 50 C-4.95 50.99 -9.9 51.98 -15 53 C-16.98 53.66 -18.96 54.32 -21 55 C-20.84144531 54.47535156 -20.68289063 53.95070312 -20.51953125 53.41015625 C-20.00347263 51.69661353 -19.49244331 49.98155383 -18.984375 48.265625 C-18.28834436 45.95657096 -17.56707724 43.65505329 -16.828125 41.359375 C-16.40314652 40.01139118 -15.9814022 38.66238446 -15.5625 37.3125 C-15.34416504 36.60971924 -15.12583008 35.90693848 -14.90087891 35.18286133 C-13.61283178 30.79977731 -12.71654608 26.48919208 -12.0703125 21.96484375 C-11.92005615 20.93512451 -11.7697998 19.90540527 -11.61499023 18.84448242 C-11.33515794 16.81885457 -11.08601686 14.78869211 -10.87133789 12.75512695 C-9.92150357 5.870163 -9.92150357 5.870163 -7.11572266 3.22070312 C-2.05090726 0 -2.05090726 0 0 0 Z " fill="#FCD294" transform="translate(359,96)"/>
<path d="M0 0 C4.95 0 9.9 0 15 0 C15 11.55 15 23.1 15 35 C10.05 35 5.1 35 0 35 C0 23.45 0 11.9 0 0 Z " fill="#0C6E65" transform="translate(294,434)"/>
<path d="M0 0 C0.33 0 0.66 0 1 0 C1.49085574 18.66006958 0.91069881 36.42507561 -6 54 C-12.04828336 47.95171664 -13.52498724 37.47993424 -13.5625 29.25 C-13.2960439 16.69029187 -8.49861038 9.06748288 0 0 Z " fill="#22B39D" transform="translate(324,79)"/>
<path d="M0 0 C0.66 0.33 1.32 0.66 2 1 C3.72678334 6.56407966 4.25182442 12.20803845 4 18 C3.44828125 17.51917969 2.8965625 17.03835937 2.328125 16.54296875 C-0.36143493 14.76045839 -2.05821418 14.52248591 -5.25 14.3125 C-6.14203125 14.24675781 -7.0340625 14.18101563 -7.953125 14.11328125 C-8.62859375 14.07589844 -9.3040625 14.03851563 -10 14 C-6.84577733 9.17403931 -3.71080883 4.42442592 0 0 Z " fill="#20B39D" transform="translate(321,58)"/>
</svg>
