<?xml version="1.0" encoding="UTF-8"?>
<svg version="1.1" xmlns="http://www.w3.org/2000/svg" width="500" height="500">
<path d="M0 0 C1.579021 0.05583252 1.579021 0.05583252 3.18994141 0.11279297 C6.48890526 0.25853033 9.77091661 0.48714588 13.0625 0.75 C14.56852783 0.86746582 14.56852783 0.86746582 16.10498047 0.98730469 C60.43121452 4.81244838 106.05385957 20.41152449 142.0625 46.75 C144.59079612 45.53226774 146.78023465 44.26662769 149.125 42.6875 C152.7398903 40.30321065 155.26576539 39.62598763 159.4987793 39.57299805 C160.84113899 39.55374519 160.84113899 39.55374519 162.21061707 39.53410339 C163.17623062 39.52671646 164.14184418 39.51932953 165.13671875 39.51171875 C166.13451859 39.503647 167.13231842 39.49557526 168.16035461 39.48725891 C170.27444728 39.47342391 172.38856224 39.46269915 174.50268555 39.45483398 C177.7203263 39.4376584 180.93692951 39.39377077 184.15429688 39.34960938 C186.21092996 39.33947877 188.26757177 39.33096382 190.32421875 39.32421875 C191.27971115 39.30671066 192.23520355 39.28920258 193.21965027 39.27116394 C200.10020145 39.29326808 205.676418 40.53071799 210.78227234 45.38505554 C211.20474747 45.83548721 211.6272226 46.28591888 212.0625 46.75 C216.51022355 45.22266852 220.11198932 42.78935568 223.9375 40.125 C258.43064092 16.79906597 301.84752828 4.36021296 343.0625 0.75 C344.12984375 0.64123535 345.1971875 0.5324707 346.296875 0.42041016 C363.57676278 -1.20474675 363.57676278 -1.20474675 368.93017578 1.79736328 C372.19272467 4.61375164 374.16547859 8.05447493 376.08544922 11.86914062 C377.04486088 13.71604404 378.11225973 15.3917568 379.28515625 17.109375 C388.66592137 31.0981295 394.80851541 47.53340517 399.5 63.625 C399.72260498 64.38248535 399.94520996 65.1399707 400.17456055 65.92041016 C404.16553531 80.53503086 405.59552971 95.08655728 405.4375 110.1875 C405.43251495 110.99593353 405.42752991 111.80436707 405.4223938 112.63729858 C405.3364029 124.55740117 405.00028135 136.14074915 402.0625 147.75 C401.83675293 148.66426758 401.61100586 149.57853516 401.37841797 150.52050781 C396.40203704 170.15010067 388.84394344 188.65140525 378.16894531 205.88623047 C377.05523342 207.7622403 376.090397 209.67706409 375.1171875 211.62890625 C373.02004049 215.43602696 370.93913731 218.6094881 367.0625 220.75 C359.22829856 222.68586445 350.98855069 221.55017429 343.0625 220.75 C342.05751465 220.66588867 341.0525293 220.58177734 340.01708984 220.49511719 C318.62095014 218.67551443 298.18479594 213.32019481 277.875 206.5625 C277.22521179 206.34649139 276.57542358 206.13048279 275.90594482 205.90792847 C269.73318678 203.8422649 263.87051295 201.69997216 258.0625 198.75 C262.31957137 217.71768595 267.03730047 236.48789849 272.3147583 255.20181274 C274.08004138 261.46194529 275.82249931 267.72845802 277.56747055 273.99427605 C278.17255937 276.16651934 278.77829301 278.33858215 279.38406372 280.51063538 C283.49971064 295.27717945 287.54274482 310.06322685 291.54864502 324.8598938 C292.30483744 327.65264886 293.06365944 330.44466757 293.82489014 333.23605347 C294.88128894 337.11022993 295.92945506 340.98658307 296.9765625 344.86328125 C297.29127502 346.01432343 297.60598755 347.1653656 297.93023682 348.35128784 C298.35463043 349.93177414 298.35463043 349.93177414 298.78759766 351.54418945 C299.15916489 352.91556816 299.15916489 352.91556816 299.53823853 354.31465149 C300.0625 356.75 300.0625 356.75 300.0625 360.75 C294.01671935 359.08918253 288.81621383 356.02905319 283.375 353 C282.44494141 352.48695313 281.51488281 351.97390625 280.55664062 351.4453125 C278.68212689 350.4112772 276.80858545 349.3754773 274.93603516 348.33789062 C270.32249665 345.78848923 265.69264261 343.26908573 261.0625 340.75 C260.55203125 341.67296875 260.0415625 342.5959375 259.515625 343.546875 C255.00103402 351.66849542 250.38930148 359.73536959 245.6875 367.75 C245.17606445 368.64041992 244.66462891 369.53083984 244.13769531 370.44824219 C243.65139648 371.26969727 243.16509766 372.09115234 242.6640625 372.9375 C242.23432129 373.67355469 241.80458008 374.40960938 241.36181641 375.16796875 C240.93304199 375.69003906 240.50426758 376.21210938 240.0625 376.75 C239.0725 376.75 238.0825 376.75 237.0625 376.75 C234.94523425 368.96876803 232.83212379 361.18642298 230.72379875 353.40276432 C229.74387439 349.78548631 228.76271102 346.16855559 227.77832031 342.55249023 C220.37245727 315.34164604 220.37245727 315.34164604 217.19140625 301.6796875 C213.24710306 284.81187432 208.49025319 268.15323191 203.86016846 251.46392822 C201.91964722 244.46532439 199.98728496 237.46445899 198.05335617 230.46403122 C197.35502392 227.93681929 196.65611976 225.40976598 195.95718384 222.88272095 C192.2638813 209.52153573 188.63795574 196.14324915 185.0625 182.75 C180.4425 182.42 175.8225 182.09 171.0625 181.75 C170.82536789 182.71506973 170.58823578 183.68013947 170.34391785 184.67445374 C167.90881533 194.53093141 165.30970616 204.3332637 162.61328125 214.12109375 C162.19198779 215.65580259 161.77086486 217.19055825 161.34989929 218.72535706 C160.24857849 222.73905211 159.14515827 226.75216676 158.04119873 230.76513672 C156.94885809 234.73699336 155.85822664 238.70931907 154.76757812 242.68164062 C154.44610778 243.85237546 154.44610778 243.85237546 154.11814308 245.04676151 C152.18918257 252.07180381 150.26059537 259.09694853 148.33270264 266.12228394 C147.48159921 269.22361981 146.62984743 272.32477663 145.77764893 275.42581177 C144.74129776 279.1975635 143.7070172 282.96987775 142.67415428 286.74258614 C142.29207282 288.13697451 141.90932962 289.53118176 141.52584267 290.92518425 C139.29898401 299.02173458 137.19433841 307.12872844 135.3125 315.3125 C130.51104985 335.94189404 124.65824825 356.32527394 119.0625 376.75 C115.25454712 376.00430298 115.25454712 376.00430298 113.52612305 373.71557617 C113.04699463 372.83361572 112.56786621 371.95165527 112.07421875 371.04296875 C111.53563232 370.06851807 110.9970459 369.09406738 110.44213867 368.09008789 C109.60453003 366.52955688 109.60453003 366.52955688 108.75 364.9375 C107.59429254 362.8356391 106.43804711 360.73407389 105.28125 358.6328125 C104.45173828 357.11155762 104.45173828 357.11155762 103.60546875 355.55957031 C101.71008712 352.1082963 99.7456249 348.70669809 97.75 345.3125 C97.21761719 344.40628906 96.68523437 343.50007813 96.13671875 342.56640625 C95.78222656 341.96699219 95.42773438 341.36757813 95.0625 340.75 C89.3679447 343.82650763 83.7010196 346.94660216 78.07080078 350.13916016 C59.34397108 360.75 59.34397108 360.75 56.0625 360.75 C56.70918777 352.65628818 59.03167064 344.99093275 61.19140625 337.19921875 C61.61789047 335.64467838 62.04386297 334.08999754 62.46936035 332.53518677 C63.37668908 329.22356916 64.28736207 325.91289716 65.20071411 322.60293579 C66.63448251 317.40643506 68.06004416 312.20770599 69.48413086 307.00854492 C71.41275888 299.96954241 73.34393359 292.93124515 75.27734375 285.89355469 C78.90227164 272.69676764 82.5152245 259.49675694 86.1088562 246.29141235 C87.09780311 242.6623036 88.09185586 239.03462044 89.08618164 235.40698242 C92.40398276 223.2486737 95.49242263 211.08935406 98.0625 198.75 C97.24523437 199.12842041 96.42796875 199.50684082 95.5859375 199.89672852 C69.70323743 211.72619805 41.32106268 218.17977675 13.0625 220.75 C12.01223633 220.85876465 10.96197266 220.9675293 9.87988281 221.07958984 C-7.37619775 222.71178152 -7.37619775 222.71178152 -12.80957031 219.71875 C-16.08059019 216.93455069 -18.05274348 213.51301017 -19.95166016 209.70458984 C-20.9530869 207.7190964 -22.06309136 205.84908847 -23.23046875 203.95703125 C-38.18884899 179.31125964 -48.86072385 149.67621475 -49.17578125 120.6484375 C-49.19047203 119.52261009 -49.19047203 119.52261009 -49.20545959 118.3740387 C-49.37739395 101.78092902 -49.18097051 85.90531134 -44.9375 69.75 C-44.73382813 68.9343457 -44.53015625 68.11869141 -44.3203125 67.27832031 C-39.30894501 47.56539479 -31.37900465 28.19940146 -19.3425293 11.71289062 C-18.31743526 10.28078705 -17.35527909 8.80302898 -16.43286133 7.30273438 C-11.797832 0.30303465 -8.17085337 -0.52881922 0 0 Z " fill="#F13B59" transform="translate(71.9375,61.25)"/>
<path d="M0 0 C1.579021 0.05583252 1.579021 0.05583252 3.18994141 0.11279297 C6.48890526 0.25853033 9.77091661 0.48714588 13.0625 0.75 C14.56852783 0.86746582 14.56852783 0.86746582 16.10498047 0.98730469 C60.43121452 4.81244838 106.05385957 20.41152449 142.0625 46.75 C144.59079612 45.53226774 146.78023465 44.26662769 149.125 42.6875 C152.7398903 40.30321065 155.26576539 39.62598763 159.4987793 39.57299805 C160.84113899 39.55374519 160.84113899 39.55374519 162.21061707 39.53410339 C163.17623062 39.52671646 164.14184418 39.51932953 165.13671875 39.51171875 C166.13451859 39.503647 167.13231842 39.49557526 168.16035461 39.48725891 C170.27444728 39.47342391 172.38856224 39.46269915 174.50268555 39.45483398 C177.7203263 39.4376584 180.93692951 39.39377077 184.15429688 39.34960938 C186.21092996 39.33947877 188.26757177 39.33096382 190.32421875 39.32421875 C191.27971115 39.30671066 192.23520355 39.28920258 193.21965027 39.27116394 C200.10020145 39.29326808 205.676418 40.53071799 210.78227234 45.38505554 C211.20474747 45.83548721 211.6272226 46.28591888 212.0625 46.75 C216.51022355 45.22266852 220.11198932 42.78935568 223.9375 40.125 C258.43064092 16.79906597 301.84752828 4.36021296 343.0625 0.75 C344.12984375 0.64123535 345.1971875 0.5324707 346.296875 0.42041016 C363.85839855 -1.23123433 363.85839855 -1.23123433 369.04296875 1.97460938 C372.71757946 5.35370943 374.93486242 9.27872102 377.0625 13.75 C377.46726562 14.54921875 377.87203125 15.3484375 378.2890625 16.171875 C378.67191406 16.95304687 378.67191406 16.95304687 379.0625 17.75 C378.4025 18.08 377.7425 18.41 377.0625 18.75 C377.0625 18.09 377.0625 17.43 377.0625 16.75 C352.06269612 17.3622401 328.52187551 19.1948198 304.0625 24.75 C302.89146729 25.00934326 302.89146729 25.00934326 301.69677734 25.27392578 C292.72184869 27.27400623 284.22892721 30.03452005 275.6796875 33.37890625 C272.73080114 34.49668067 269.85173396 35.42950393 266.8125 36.25 C261.88085857 37.64012711 257.56783397 39.96130626 253.04296875 42.33203125 C249.42298378 44.05425215 245.81922387 45.09890206 241.92578125 46.01171875 C241.00345703 46.37716797 241.00345703 46.37716797 240.0625 46.75 C239.7325 47.74 239.4025 48.73 239.0625 49.75 C237.4125 50.08 235.7625 50.41 234.0625 50.75 C234.0625 51.41 234.0625 52.07 234.0625 52.75 C233.38703125 53.07613281 232.7115625 53.40226562 232.015625 53.73828125 C231.12359375 54.17527344 230.2315625 54.61226562 229.3125 55.0625 C228.43078125 55.49175781 227.5490625 55.92101562 226.640625 56.36328125 C224.04903572 57.66436812 224.04903572 57.66436812 221.921875 59.41796875 C220.0625 60.75 220.0625 60.75 217.0625 60.75 C216.7325 59.43 216.4025 58.11 216.0625 56.75 C209.81870815 56.60092875 203.57596724 56.49244195 197.33081055 56.42041016 C195.20953308 56.39036236 193.08837855 56.34951128 190.9675293 56.29736328 C187.90642872 56.22401767 184.84697966 56.19042316 181.78515625 56.1640625 C180.3783535 56.11761093 180.3783535 56.11761093 178.94313049 56.07022095 C171.87105251 56.06666088 167.40249835 58.12484245 162.0625 62.75 C156.41466799 69.70117786 155.76323107 76.35955404 155.74365234 84.97802734 C155.73360672 85.99327484 155.7235611 87.00852234 155.71321106 88.05453491 C155.68240846 91.39833021 155.66535185 94.74204553 155.6484375 98.0859375 C155.62972353 100.40907477 155.61014994 102.73220527 155.5897522 105.05532837 C155.53844938 111.16099041 155.4988136 117.26667447 155.46160889 123.37243652 C155.42155776 129.60641929 155.37047044 135.84031055 155.3203125 142.07421875 C155.22357504 154.29941487 155.13916315 166.52466267 155.0625 178.75 C150.84116806 178.13937159 148.40138028 177.78442527 145.375 174.6875 C144.81425781 174.13964844 144.25351563 173.59179688 143.67578125 173.02734375 C138.92405096 166.31969543 138.63634204 159.67735674 138.72192383 151.74414062 C138.72148575 150.67007965 138.72104767 149.59601868 138.72059631 148.4894104 C138.72267584 144.9615013 138.74596796 141.43407545 138.76953125 137.90625 C138.77513016 135.45145935 138.77939887 132.99666533 138.78239441 130.54187012 C138.79381984 124.09743917 138.82326747 117.65321274 138.85650635 111.2088623 C138.88725674 104.62624884 138.90091037 98.04360217 138.91601562 91.4609375 C138.94813916 78.55720207 138.99930785 65.65361808 139.0625 52.75 C136.4225 51.43 133.7825 50.11 131.0625 48.75 C131.0625 48.09 131.0625 47.43 131.0625 46.75 C130.2375 46.6675 129.4125 46.585 128.5625 46.5 C124.90118694 45.71543292 122.166477 44.4428634 118.89453125 42.6875 C116.91871068 41.61837089 116.91871068 41.61837089 114.0625 40.75 C114.0625 40.09 114.0625 39.43 114.0625 38.75 C111.7525 38.42 109.4425 38.09 107.0625 37.75 C107.0625 37.09 107.0625 36.43 107.0625 35.75 C106.27875 35.6675 105.495 35.585 104.6875 35.5 C101.53575122 34.84791405 99.06673366 33.98957021 96.125 32.75 C92.06384523 31.05633456 88.43678896 30.31703746 84.0625 29.75 C82.13394821 29.01237015 80.20557814 28.27425524 78.27880859 27.53198242 C74.65397388 26.25302829 70.94453907 25.47494193 67.1875 24.6875 C66.39230957 24.51686035 65.59711914 24.3462207 64.77783203 24.17041016 C63.2203289 23.83750143 61.6622448 23.50729593 60.10351562 23.18017578 C58.47822626 22.83762077 56.85576561 22.48165161 55.234375 22.12109375 C38.78241512 18.56769425 21.8053414 17.8928937 5.0625 16.75 C4.77044678 17.51892578 4.47839355 18.28785156 4.17749023 19.08007812 C2.87654886 22.19527296 1.15605762 24.55705209 -0.875 27.25 C-26.76360816 61.70362432 -36.68292031 107.25344459 -30.6875 149.625 C-29.64689758 156.33061156 -28.35987857 162.99044311 -26.9375 169.625 C-26.7837793 170.34413574 -26.63005859 171.06327148 -26.47167969 171.80419922 C-25.42121032 176.39864341 -23.90074434 180.46419074 -21.9375 184.75 C-20.44754472 188.14709805 -19.02787939 191.47354539 -17.875 195 C-17.01220233 197.91587399 -17.01220233 197.91587399 -14.9375 200.75 C-14.9375 202.07 -14.9375 203.39 -14.9375 204.75 C-14.2775 204.75 -13.6175 204.75 -12.9375 204.75 C-12.669375 205.45125 -12.40125 206.1525 -12.125 206.875 C-10.95257084 209.83261853 -10.95257084 209.83261853 -9.3125 212.875 C-7.9375 215.75 -7.9375 215.75 -7.9375 218.75 C-8.2675 219.41 -8.5975 220.07 -8.9375 220.75 C-13.44899361 219.22868239 -15.52800451 215.58602196 -18.0625 211.8125 C-18.78046753 210.74938599 -18.78046753 210.74938599 -19.51293945 209.66479492 C-39.1471918 179.97263421 -49.40243447 146.29092271 -49.3125 110.75 C-49.31195618 109.93773956 -49.31141235 109.12547913 -49.31085205 108.28860474 C-49.27029619 95.07566896 -48.30683003 82.57737219 -44.9375 69.75 C-44.73382813 68.9343457 -44.53015625 68.11869141 -44.3203125 67.27832031 C-39.30894501 47.56539479 -31.37900465 28.19940146 -19.3425293 11.71289062 C-18.31743526 10.28078705 -17.35527909 8.80302898 -16.43286133 7.30273438 C-11.797832 0.30303465 -8.17085337 -0.52881922 0 0 Z " fill="#FC5A73" transform="translate(71.9375,61.25)"/>
<path d="M0 0 C0.66 0 1.32 0 2 0 C2 0.66 2 1.32 2 2 C2.57234375 2.28617188 3.1446875 2.57234375 3.734375 2.8671875 C8.8671875 5.43359375 8.8671875 5.43359375 14 8 C14 8.66 14 9.32 14 10 C15.98 10.66 17.96 11.32 20 12 C20 12.66 20 13.32 20 14 C20.81984375 14.24621094 21.6396875 14.49242187 22.484375 14.74609375 C26.59438485 16.21199726 30.3714934 18.077074 34.25 20.0625 C34.96929687 20.42666016 35.68859375 20.79082031 36.4296875 21.16601562 C38.28811648 22.10741083 40.14422315 23.05338737 42 24 C42.66 24.33 43.32 24.66 44 25 C44.4140625 27.06640625 44.4140625 27.06640625 44.625 29.5625 C44.73714844 30.80193359 44.73714844 30.80193359 44.8515625 32.06640625 C44.90054688 32.70449219 44.94953125 33.34257812 45 34 C46.485 34.495 46.485 34.495 48 35 C47.67 37.31 47.34 39.62 47 42 C38.36711026 40.76673004 31.39097914 36.86320267 23.76171875 32.87695312 C22.24664125 32.12277375 20.6807368 31.47229472 19.109375 30.84375 C16.77023761 29.90809505 15.76024154 28.76024154 14 27 C12.3364521 26.32558869 10.66933058 25.6599679 9 25 C8.01 24.278125 7.02 23.55625 6 22.8125 C3.25023899 20.72694492 3.25023899 20.72694492 0.7109375 21.29296875 C-0.18367188 21.52628906 -1.07828125 21.75960937 -2 22 C-3.01835937 22.2371875 -4.03671875 22.474375 -5.0859375 22.71875 C-6.71402344 23.10546875 -6.71402344 23.10546875 -8.375 23.5 C-12.91374282 24.55612063 -17.37295132 25.46197108 -22 26 C-22.13277344 25.26394531 -22.26554687 24.52789062 -22.40234375 23.76953125 C-22.66724609 22.30580078 -22.66724609 22.30580078 -22.9375 20.8125 C-23.11152344 19.84957031 -23.28554688 18.88664062 -23.46484375 17.89453125 C-23.81712298 15.98913773 -24.20437637 14.08982698 -24.62890625 12.19921875 C-24.81259766 11.11060547 -24.81259766 11.11060547 -25 10 C-23.27193656 8.27193656 -20.79353231 8.79070542 -18.4375 8.6875 C-12.63570013 8.27259179 -9.00302785 6.87210858 -4 4 C-3.34 4 -2.68 4 -2 4 C-1.34 2.68 -0.68 1.36 0 0 Z " fill="#D72647" transform="translate(284,233)"/>
<path d="M0 0 C1.78491211 0.74926758 1.78491211 0.74926758 3.09741211 2.12426758 C9.21635708 8.01658496 17.81893597 7.42886077 25.78491211 7.74926758 C25.78491211 8.40926758 25.78491211 9.06926758 25.78491211 9.74926758 C25.12491211 9.74926758 24.46491211 9.74926758 23.78491211 9.74926758 C23.78491211 12.71926758 23.78491211 15.68926758 23.78491211 18.74926758 C23.12491211 19.07926758 22.46491211 19.40926758 21.78491211 19.74926758 C21.13277919 21.77390013 21.13277919 21.77390013 20.78491211 23.74926758 C13.84080399 24.29154066 8.71175927 23.32721973 2.32788086 20.52661133 C-1.33067451 19.40825108 -3.78972633 20.03801502 -7.16430664 21.72192383 C-7.73793945 22.08157227 -8.31157227 22.4412207 -8.90258789 22.81176758 C-12.21508789 24.74926758 -12.21508789 24.74926758 -14.21508789 24.74926758 C-14.21508789 25.40926758 -14.21508789 26.06926758 -14.21508789 26.74926758 C-15.67134239 27.42046307 -17.13016656 28.08608565 -18.59008789 28.74926758 C-19.40219727 29.12051758 -20.21430664 29.49176758 -21.05102539 29.87426758 C-23.21508789 30.74926758 -23.21508789 30.74926758 -25.21508789 30.74926758 C-25.54508789 31.73926758 -25.87508789 32.72926758 -26.21508789 33.74926758 C-29.81887769 35.27086772 -32.26729475 35.74926758 -36.21508789 35.74926758 C-36.21508789 36.40926758 -36.21508789 37.06926758 -36.21508789 37.74926758 C-37.83609819 38.44612256 -39.46204855 39.13149618 -41.09008789 39.81176758 C-41.99500977 40.19461914 -42.89993164 40.5774707 -43.83227539 40.97192383 C-46.21508789 41.74926758 -46.21508789 41.74926758 -48.21508789 40.74926758 C-47.55508789 39.75926758 -46.89508789 38.76926758 -46.21508789 37.74926758 C-45.82121001 35.42538811 -45.48022704 33.09133008 -45.21508789 30.74926758 C-44.55508789 30.74926758 -43.89508789 30.74926758 -43.21508789 30.74926758 C-43.54508789 28.43926758 -43.87508789 26.12926758 -44.21508789 23.74926758 C-43.11036133 23.18981445 -42.00563477 22.63036133 -40.86743164 22.05395508 C-30.1769169 16.5649235 -19.89091532 10.64236766 -9.78320312 4.13354492 C-8.85451416 3.54911621 -7.9258252 2.9646875 -6.96899414 2.36254883 C-6.14729736 1.83443604 -5.32560059 1.30632324 -4.47900391 0.76220703 C-2.21508789 -0.25073242 -2.21508789 -0.25073242 0 0 Z " fill="#D72547" transform="translate(216.215087890625,234.250732421875)"/>
<path d="M0 0 C4.05744608 0.81253092 8.01624873 1.88697406 12 3 C13.43647878 3.33770711 14.87385494 3.67164387 16.3125 4 C20 5 20 5 23.1875 6.5 C27.46595657 8.44475299 31.95442612 8.82933233 36.57421875 9.46875 C43.65363054 10.56658353 50.3531314 12.34125256 57 15 C57 20.28 57 25.56 57 31 C50.10132942 29.8002312 43.2335497 28.47165315 36.375 27.0625 C35.58826904 26.90491211 34.80153809 26.74732422 33.9909668 26.58496094 C29.27137832 25.60316848 24.79884445 24.30475811 20.24560547 22.72924805 C16.51365447 21.51731745 12.70843753 20.69692057 8.875 19.875 C8.11574219 19.70613281 7.35648438 19.53726563 6.57421875 19.36328125 C3.09670682 18.60313665 -0.30416036 17.96101302 -3.83984375 17.5078125 C-8.25549966 16.79825098 -10.1067948 15.38716706 -13 12 C-13.66388956 8.89822092 -13.74616452 6.08877405 -13 3 C-9.74210411 -1.53272472 -5.05306276 -0.51966545 0 0 Z " fill="#D82647" transform="translate(154,133)"/>
<path d="M0 0 C4.31407511 0.76272607 8.62610466 1.53488916 12.9375 2.3125 C14.75604492 2.63250977 14.75604492 2.63250977 16.61132812 2.95898438 C22.51909447 4.03166824 28.12699199 5.24447112 33.77612305 7.2746582 C39.1654002 9.0324299 44.83030554 9.92435437 50.38476562 11.01757812 C56.82288417 12.34648836 63.13635212 13.9405398 69 17 C70.72635342 20.45270684 70.48406441 24.22429757 70 28 C68.4375 30.0625 68.4375 30.0625 66 31 C59.74282212 31.45405071 54.23803713 30.04002454 48.203125 28.48046875 C47.17370789 28.22123123 46.14429077 27.96199371 45.0836792 27.69490051 C41.80377401 26.86682177 38.52693977 26.02722787 35.25 25.1875 C33.06268589 24.63403049 30.87518745 24.08128889 28.6875 23.52929688 C19.10065868 21.10295222 9.53545905 18.62191117 0 16 C0 10.72 0 5.44 0 0 Z " fill="#D82547" transform="translate(289,180)"/>
<path d="M0 0 C1.74372535 3.28230655 1.75899455 6.44091285 1.0625 10 C-1.5044637 14.12547738 -4.35178462 15.31861186 -8.875 16.5 C-10.52914308 16.86165116 -12.18380366 17.2212962 -13.84228516 17.5625 C-17.28743462 18.28187868 -20.71818468 19.06439755 -24.15063477 19.84179688 C-26.04702659 20.27046061 -27.94460766 20.69390726 -29.84350586 21.11132812 C-35.15237288 22.29392828 -40.33854114 23.68002488 -45.53564453 25.28173828 C-49.26112402 26.39582251 -53.02701801 27.30307375 -56.8125 28.1875 C-57.5446875 28.36474609 -58.276875 28.54199219 -59.03125 28.72460938 C-62.45721082 29.53126742 -65.39647897 30 -68.9375 30 C-68.9375 24.72 -68.9375 19.44 -68.9375 14 C-65.49687032 12.62374813 -63.26952029 11.76792223 -59.8125 11.1875 C-54.94963371 10.26769098 -50.21177984 9.03888544 -45.4375 7.75 C-37.38492026 5.59695647 -29.30089366 3.59854359 -21.1875 1.6875 C-20.08083984 1.42098633 -18.97417969 1.15447266 -17.83398438 0.87988281 C-4.36732232 -2.25410184 -4.36732232 -2.25410184 0 0 Z " fill="#D82547" transform="translate(357.9375,134)"/>
<path d="M0 0 C0 5.28 0 10.56 0 16 C-3.19010417 16.71614583 -6.38020833 17.43229167 -9.5703125 18.1484375 C-12.95199826 18.93295918 -12.95199826 18.93295918 -15.96875 20.03125 C-19.43127741 21.13783092 -22.77333342 21.64930819 -26.375 22.125 C-27.62023437 22.29257813 -28.86546875 22.46015625 -30.1484375 22.6328125 C-31.08945313 22.75398438 -32.03046875 22.87515625 -33 23 C-33 23.66 -33 24.32 -33 25 C-37.14001152 26.04547565 -41.28765884 27.05681576 -45.4375 28.0625 C-46.60216797 28.35705078 -47.76683594 28.65160156 -48.96679688 28.95507812 C-55.67578571 30.56145573 -61.23101625 31.67299598 -68 30 C-70.17318091 26.64025444 -70.48608691 23.96970978 -70 20 C-68.75 17.3125 -68.75 17.3125 -66 15 C-60.40964324 13.01383956 -54.58626628 12.08741002 -48.75 11.125 C-44.12608555 10.33555119 -39.75973778 9.02439292 -35.3125 7.5625 C-28.45103498 5.31339125 -21.62802965 3.84746927 -14.51953125 2.625 C-11.69505634 2.12342843 -8.95877157 1.54204864 -6.1875 0.8125 C-3 0 -3 0 0 0 Z " fill="#D72546" transform="translate(211,180)"/>
<path d="M0 0 C1.79384923 2.69077384 2.48899989 4.27386232 3.2890625 7.30859375 C3.50820313 8.13810547 3.72734375 8.96761719 3.953125 9.82226562 C4.17484375 10.68529297 4.3965625 11.54832031 4.625 12.4375 C4.85445313 13.29666016 5.08390625 14.15582031 5.3203125 15.04101562 C6.32494309 18.89508952 7 21.97386519 7 26 C1.39523177 24.42195846 -3.35050626 21.73583615 -8.375 18.875 C-9.20644531 18.40707031 -10.03789062 17.93914062 -10.89453125 17.45703125 C-12.93234954 16.30929451 -14.96735569 15.15686718 -17 14 C-13.58367707 13.02079916 -11.47071781 13.19906512 -8 14 C-7.01 14 -6.02 14 -5 14 C-5 12.02 -5 10.04 -5 8 C-3.68 7.34 -2.36 6.68 -1 6 C-1.020625 5.195625 -1.04125 4.39125 -1.0625 3.5625 C-1 1 -1 1 0 0 Z " fill="#EE3B58" transform="translate(365,396)"/>
<path d="M0 0 C4.9989214 1.44036718 9.04801268 3.61093354 13.4375 6.3125 C14.38206055 6.88000977 14.38206055 6.88000977 15.34570312 7.45898438 C19.71538062 10.11312559 23.86899776 12.98836611 28 16 C28.598125 15.67 29.19625 15.34 29.8125 15 C32 14 32 14 35 14 C32.53580664 16.68701936 30.10770353 19.07217035 27 21 C23.26688478 21.09105159 20.31821674 19.65910837 17 18 C17 17.34 17 16.68 17 16 C16.05125 15.9175 15.1025 15.835 14.125 15.75 C11 15 11 15 9.625 13.125 C9 11 9 11 9 8 C8.34 7.67 7.68 7.34 7 7 C7 6.01 7 5.02 7 4 C4.03 3.505 4.03 3.505 1 3 C0.67 2.01 0.34 1.02 0 0 Z " fill="#F7637A" transform="translate(186,92)"/>
<path d="M0 0 C0.33 0 0.66 0 1 0 C1.99 2.97 2.98 5.94 4 9 C4 8.01 4 7.02 4 6 C4.66 6 5.32 6 6 6 C6 5.34 6 4.68 6 4 C6.66 4 7.32 4 8 4 C7.67 5.65 7.34 7.3 7 9 C7.5775 8.175 8.155 7.35 8.75 6.5 C9.4925 5.675 10.235 4.85 11 4 C12.32 4 13.64 4 15 4 C13.51401073 7.98481701 11.66163296 11.61531744 9.5625 15.3125 C8.96566406 16.38113281 8.36882812 17.44976562 7.75390625 18.55078125 C6.88572266 19.76314453 6.88572266 19.76314453 6 21 C5.01 21 4.02 21 3 21 C2.2970379 18.62863429 1.61253255 16.25432265 0.9375 13.875 C0.63875977 12.87726563 0.63875977 12.87726563 0.33398438 11.859375 C-0.87241906 7.54172062 -1.0778919 4.35224278 0 0 Z " fill="#EC3C57" transform="translate(306,417)"/>
<path d="M0 0 C6.54731404 0.5658985 12.51749919 1.76553518 18.8125 3.625 C20.15380981 4.01389404 20.15380981 4.01389404 21.5222168 4.41064453 C31.13874848 7.24957864 40.5775984 10.57919255 50 14 C50 14.66 50 15.32 50 16 C48.68 16 47.36 16 46 16 C46 15.34 46 14.68 46 14 C42.37 13.34 38.74 12.68 35 12 C35 11.34 35 10.68 35 10 C33.98679687 9.92652344 33.98679687 9.92652344 32.953125 9.8515625 C32.06109375 9.77679688 31.1690625 9.70203125 30.25 9.625 C28.92742187 9.52058594 28.92742187 9.52058594 27.578125 9.4140625 C24.97587216 8.99612492 23.29895536 8.24153031 21 7 C15.34941282 5.37186471 9.85156265 4.51472079 4 4 C4 3.34 4 2.68 4 2 C2.68 2 1.36 2 0 2 C0 1.34 0 0.68 0 0 Z " fill="#F0798C" transform="translate(114,67)"/>
<path d="M0 0 C1.40173116 2.65394896 2.44378241 5.19006526 3.25268555 8.07836914 C3.47599045 8.86921402 3.69929535 9.6600589 3.92936707 10.47486877 C4.27950615 11.74221107 4.27950615 11.74221107 4.63671875 13.03515625 C4.88041702 13.91022324 5.1241153 14.78529022 5.37519836 15.68687439 C5.88751453 17.53290664 6.397571 19.3795673 6.90551758 21.22680664 C7.68629806 24.0581414 8.4805132 26.88548583 9.27539062 29.71289062 C9.77166057 31.50758396 10.26713082 33.30249865 10.76171875 35.09765625 C11.0012175 35.94457535 11.24071625 36.79149445 11.48747253 37.66407776 C11.70132095 38.45177048 11.91516937 39.2394632 12.13549805 40.05102539 C12.32710007 40.74289444 12.51870209 41.43476349 12.71611023 42.14759827 C13 44 13 44 12 47 C8.67600283 40.46495702 7.0293933 34.24638702 6 27 C5.34 27 4.68 27 4 27 C3.96261719 26.29875 3.92523438 25.5975 3.88671875 24.875 C3.50784559 19.40734029 2.77807929 14.95570289 0.6328125 9.92578125 C-0.46029473 6.59922654 -0.18590571 3.47023993 0 0 Z " fill="#DF5B74" transform="translate(343,315)"/>
<path d="M0 0 C1.74325447 2.6148817 2.41587957 4.0053433 3.125 6.9375 C3.29257812 7.60652344 3.46015625 8.27554687 3.6328125 8.96484375 C4 11 4 11 4 15 C-1.47932789 13.45454854 -6.11429181 10.84456788 -11 8 C-7.25 6.875 -7.25 6.875 -5 8 C-4.67 7.01 -4.34 6.02 -4 5 C-3.01 4.34 -2.02 3.68 -1 3 C-0.67 2.01 -0.34 1.02 0 0 Z " fill="#E75972" transform="translate(368,407)"/>
<path d="M0 0 C1.33439289 0.0895773 2.66753919 0.1977103 4 0.3125 C4.7425 0.37050781 5.485 0.42851562 6.25 0.48828125 C9.2648124 1.04927617 11.91839872 2.13706981 14.765625 3.24926758 C18.74734295 4.58709348 22.85213316 5.10450489 27 5.6875 C27.87011719 5.81705078 28.74023438 5.94660156 29.63671875 6.08007812 C31.75666186 6.39457518 33.87818209 6.69841096 36 7 C36 7.66 36 8.32 36 9 C39.96 9 43.92 9 48 9 C48 9.33 48 9.66 48 10 C39.99035284 11.42985631 33.49199791 10.3709207 25.6875 8.3125 C24.59187744 8.03647949 23.49625488 7.76045898 22.36743164 7.47607422 C14.83805038 5.55474914 7.36384167 3.48877353 0 1 C0 0.67 0 0.34 0 0 Z " fill="#E56B7F" transform="translate(353,268)"/>
<path d="M0 0 C0.99 0 1.98 0 3 0 C3.33 2.31 3.66 4.62 4 7 C3.34 7 2.68 7 2 7 C2.020625 8.093125 2.04125 9.18625 2.0625 10.3125 C2 14 2 14 1 17 C1.66 17.33 2.32 17.66 3 18 C2.401875 18.598125 1.80375 19.19625 1.1875 19.8125 C-1.4477286 23.65240453 -2.26623101 27.17141646 -3.2890625 31.671875 C-3.52367187 32.44015625 -3.75828125 33.2084375 -4 34 C-4.99 34.495 -4.99 34.495 -6 35 C-4.6817347 27.38035196 -3.11994589 19.84518792 -1.375 12.3125 C-1.14554688 11.31283203 -0.91609375 10.31316406 -0.6796875 9.28320312 C-0.12200267 6.85495042 0.43791641 4.42723754 1 2 C0.34 1.67 -0.32 1.34 -1 1 C-0.67 0.67 -0.34 0.34 0 0 Z " fill="#D94A6E" transform="translate(169,258)"/>
<path d="M0 0 C1.8871875 -0.02126953 1.8871875 -0.02126953 3.8125 -0.04296875 C7 0.1875 7 0.1875 9 2.1875 C9.39171753 3.84141846 9.72057545 5.51095271 10 7.1875 C10.185625 7.80625 10.37125 8.425 10.5625 9.0625 C11.19004326 12.11056727 11.05963353 15.08655651 11 18.1875 C8.40711693 13.45267004 7.36175091 8.38691257 6 3.1875 C-0.93 2.6925 -0.93 2.6925 -8 2.1875 C-8.66 5.1575 -9.32 8.1275 -10 11.1875 C-10.33 11.1875 -10.66 11.1875 -11 11.1875 C-11 8.5475 -11 5.9075 -11 3.1875 C-10.34 3.1875 -9.68 3.1875 -9 3.1875 C-9 2.5275 -9 1.8675 -9 1.1875 C-6.02958551 -0.29770725 -3.30235553 0.0169178 0 0 Z " fill="#D75F75" transform="translate(251,240.8125)"/>
<path d="M0 0 C1.32 0 2.64 0 4 0 C2.51401073 3.98481701 0.66163296 7.61531744 -1.4375 11.3125 C-2.03433594 12.38113281 -2.63117188 13.44976562 -3.24609375 14.55078125 C-3.82488281 15.35902344 -4.40367187 16.16726563 -5 17 C-5.99 17 -6.98 17 -8 17 C-7.67 15.35 -7.34 13.7 -7 12 C-6.01 12 -5.02 12 -4 12 C-4.0825 11.13375 -4.165 10.2675 -4.25 9.375 C-3.9379775 5.16269626 -2.72919661 3.18406272 0 0 Z " fill="#EB6D83" transform="translate(317,421)"/>
<path d="M0 0 C3.23254311 3.86619503 4.42944392 7.89262566 5.9375 12.63671875 C6.288125 13.41660156 6.63875 14.19648438 7 15 C7.99 15.33 8.98 15.66 10 16 C9 18 9 18 8 19 C7.95936168 20.66617115 7.957279 22.33388095 8 24 C8.66 24 9.32 24 10 24 C9.01 26.475 9.01 26.475 8 29 C5.53805112 24.38666614 4.29575171 19.5100192 2.875 14.5 C2.59785156 13.54996094 2.32070313 12.59992188 2.03515625 11.62109375 C1.64263672 10.24630859 1.64263672 10.24630859 1.2421875 8.84375 C1.0035498 8.01037109 0.76491211 7.17699219 0.51904297 6.31835938 C0 4 0 4 0 0 Z " fill="#E44F69" transform="translate(277,314)"/>
<path d="M0 0 C7.66503317 -0.23181842 15.03446642 0.47624638 22.625 1.5 C23.72457031 1.64308594 24.82414062 1.78617188 25.95703125 1.93359375 C28.63882045 2.28339234 31.31970553 2.63895723 34 3 C34 3.33 34 3.66 34 4 C26.44502597 4.13820074 18.92032782 3.91867948 11.375 3.5625 C10.48586914 3.52326416 9.59673828 3.48402832 8.68066406 3.44360352 C7.42721191 3.38064087 7.42721191 3.38064087 6.1484375 3.31640625 C5.02187744 3.26141968 5.02187744 3.26141968 3.87255859 3.20532227 C2 3 2 3 0 2 C0 1.34 0 0.68 0 0 Z " fill="#EF7E90" transform="translate(75,62)"/>
<path d="M0 0 C-0.33 0.66 -0.66 1.32 -1 2 C-2.73413086 2.39477539 -2.73413086 2.39477539 -4.96484375 2.59765625 C-5.76470703 2.67693359 -6.56457031 2.75621094 -7.38867188 2.83789062 C-8.22978516 2.91201172 -9.07089844 2.98613281 -9.9375 3.0625 C-11.59276496 3.21668557 -13.24773434 3.37408808 -14.90234375 3.53515625 C-16.00823853 3.63389038 -16.00823853 3.63389038 -17.13647461 3.73461914 C-19.08835486 3.91224186 -19.08835486 3.91224186 -21 5 C-25.16735187 5.15725856 -28.94441928 4.98317108 -33 4 C-33 3.67 -33 3.34 -33 3 C-29.18870032 2.49056215 -25.37580386 1.9941935 -21.5625 1.5 C-20.49322266 1.35691406 -19.42394531 1.21382812 -18.32226562 1.06640625 C-12.15456951 0.2742251 -6.2177959 -0.15691598 0 0 Z " fill="#EF7E8E" transform="translate(424,62)"/>
<path d="M0 0 C0.66 0 1.32 0 2 0 C-0.16677807 9.38203908 -2.35919936 18.7371917 -5 28 C-6.4606285 25.35261084 -7 24.10551666 -7 21 C-6.44123378 19.11097309 -5.82990277 17.23724624 -5.1875 15.375 C-4.82527344 14.31539063 -4.46304688 13.25578125 -4.08984375 12.1640625 C-3.73019531 11.11992187 -3.37054688 10.07578125 -3 9 C-2.41446218 7.25073637 -1.83083155 5.50083194 -1.25 3.75 C-0.8375 2.5125 -0.425 1.275 0 0 Z " fill="#DF5F76" transform="translate(224,304)"/>
<path d="M0 0 C0.33 0 0.66 0 1 0 C0.85975781 2.47960136 0.7130815 4.95852402 0.5625 7.4375 C0.52318359 8.14455078 0.48386719 8.85160156 0.44335938 9.58007812 C0.11328125 14.88671875 0.11328125 14.88671875 -1 16 C-1.144375 17.11375 -1.28875 18.2275 -1.4375 19.375 C-2 23 -2 23 -4 26 C-4.66 26 -5.32 26 -6 26 C-5.39502042 19.93629658 -4.1366972 14.34485758 -2.4375 8.5 C-2.20353516 7.67757813 -1.96957031 6.85515625 -1.72851562 6.0078125 C-1.15757928 4.00370942 -0.57953295 2.00163409 0 0 Z " fill="#E76F84" transform="translate(141,370)"/>
<path d="M0 0 C0.66 0 1.32 0 2 0 C2 1.32 2 2.64 2 4 C2.66 4 3.32 4 4 4 C4.12117188 4.65226562 4.24234375 5.30453125 4.3671875 5.9765625 C5.44139798 11.60021239 5.44139798 11.60021239 7.125 17.0625 C8.31898931 21.07089268 8.16603766 24.84905842 8 29 C5.53805112 24.38666614 4.29575171 19.5100192 2.875 14.5 C2.59785156 13.54996094 2.32070313 12.59992188 2.03515625 11.62109375 C1.64263672 10.24630859 1.64263672 10.24630859 1.2421875 8.84375 C1.0035498 8.01037109 0.76491211 7.17699219 0.51904297 6.31835938 C0 4 0 4 0 0 Z " fill="#E76E84" transform="translate(265,270)"/>
<path d="M0 0 C1.67542976 0.28604898 3.34385343 0.61781233 5 1 C3.59601721 5.10110762 1.62912962 7.98089159 -1.125 11.3125 C-1.84945313 12.19550781 -2.57390625 13.07851563 -3.3203125 13.98828125 C-3.87460937 14.65214844 -4.42890625 15.31601562 -5 16 C-5.66 15.67 -6.32 15.34 -7 15 C-6.67 13.35 -6.34 11.7 -6 10 C-5.01 9.67 -4.02 9.34 -3 9 C-2.67 7.02 -2.34 5.04 -2 3 C-1.67 3.66 -1.34 4.32 -1 5 C-0.34 5 0.32 5 1 5 C1 4.01 1 3.02 1 2 C0.34 1.67 -0.32 1.34 -1 1 C-0.67 0.67 -0.34 0.34 0 0 Z " fill="#EA6680" transform="translate(444,266)"/>
<path d="M0 0 C0 0.66 0 1.32 0 2 C-1.7325 2.1546875 -1.7325 2.1546875 -3.5 2.3125 C-6.57284372 2.67972913 -9.09527158 3.35012088 -11.9375 4.5625 C-16.30552394 6.35139251 -20.342321 6.29110494 -25 6 C-21.19226307 3.46150871 -17.43944336 2.52697203 -13.0625 1.3125 C-12.25103516 1.07466797 -11.43957031 0.83683594 -10.60351562 0.59179688 C-9.81783203 0.37201172 -9.03214844 0.15222656 -8.22265625 -0.07421875 C-7.50859619 -0.27619873 -6.79453613 -0.47817871 -6.05883789 -0.6862793 C-3.74877514 -1.03828103 -2.20769403 -0.70940527 0 0 Z " fill="#EC7588" transform="translate(381,69)"/>
<path d="M0 0 C0.33 0 0.66 0 1 0 C2.97533115 9.68075512 2.99849626 18.24442163 2 28 C1.67 28 1.34 28 1 28 C0.93941406 26.92878906 0.87882812 25.85757813 0.81640625 24.75390625 C0.73201463 23.35675609 0.64736594 21.95962143 0.5625 20.5625 C0.50352539 19.50192383 0.50352539 19.50192383 0.44335938 18.41992188 C0.52375562 14.91309581 0.52375562 14.91309581 -1 12 C-1.09854655 10.35659133 -1.12972411 8.7088539 -1.125 7.0625 C-1.12757813 6.16660156 -1.13015625 5.27070313 -1.1328125 4.34765625 C-1 2 -1 2 0 0 Z " fill="#E7536D" transform="translate(474,140)"/>
<path d="M0 0 C0.66666667 1.33333333 1.33333333 2.66666667 2 4 C2.37125 4.5775 2.7425 5.155 3.125 5.75 C4.46160487 9.18698395 4.12238184 12.32854467 4 16 C4.66 16 5.32 16 6 16 C5.67 17.98 5.34 19.96 5 22 C2.76310733 18.644661 1.83264459 15.40369426 0.8125 11.5625 C0.62236328 10.89412109 0.43222656 10.22574219 0.23632812 9.53710938 C-0.69706355 6.06186139 -1.37080403 3.41391321 0 0 Z " fill="#E98294" transform="translate(299,393)"/>
<path d="M0 0 C9.24779887 0.3362836 17.42966072 3.7824329 26 7 C26 7.66 26 8.32 26 9 C24.68 9 23.36 9 22 9 C22 8.34 22 7.68 22 7 C18.37 6.34 14.74 5.68 11 5 C11 4.34 11 3.68 11 3 C10.28972656 2.95101562 9.57945312 2.90203125 8.84765625 2.8515625 C7.92855469 2.77679688 7.00945312 2.70203125 6.0625 2.625 C5.14597656 2.55539063 4.22945312 2.48578125 3.28515625 2.4140625 C2.15400391 2.20910156 2.15400391 2.20910156 1 2 C0.67 1.34 0.34 0.68 0 0 Z " fill="#E77487" transform="translate(138,74)"/>
<path d="M0 0 C0.66 0 1.32 0 2 0 C0.51481201 4.04301175 -1.42877998 7.61146256 -3.625 11.3125 C-4.25664062 12.38113281 -4.88828125 13.44976562 -5.5390625 14.55078125 C-6.02117187 15.35902344 -6.50328125 16.16726563 -7 17 C-7.66 16.34 -8.32 15.68 -9 15 C-8.33333333 13 -7.66666667 11 -7 9 C-6.34 9 -5.68 9 -5 9 C-5 8.34 -5 7.68 -5 7 C-4.34 7 -3.68 7 -3 7 C-3 5.35 -3 3.7 -3 2 C-2.01 2 -1.02 2 0 2 C0 1.34 0 0.68 0 0 Z " fill="#E37889" transform="translate(332,399)"/>
<path d="M0 0 C1.0354051 3.1848935 0.94040666 5.13031874 0.00390625 8.328125 C-0.33930664 9.52695312 -0.33930664 9.52695312 -0.68945312 10.75 C-0.93630859 11.575 -1.18316406 12.4 -1.4375 13.25 C-1.68048828 14.09046875 -1.92347656 14.9309375 -2.17382812 15.796875 C-2.77373949 17.86715734 -3.38570819 19.93393897 -4 22 C-4.33 22 -4.66 22 -5 22 C-5.027193 20.41676312 -5.04648306 18.83338938 -5.0625 17.25 C-5.07410156 16.36828125 -5.08570313 15.4865625 -5.09765625 14.578125 C-5.00826198 12.2181162 -4.66912821 10.25501476 -4 8 C-3.34 8 -2.68 8 -2 8 C-1.855625 6.865625 -1.71125 5.73125 -1.5625 4.5625 C-1 1 -1 1 0 0 Z " fill="#E77084" transform="translate(235,266)"/>
<path d="M0 0 C0.66 0.33 1.32 0.66 2 1 C1.375 4.3125 1.375 4.3125 0 8 C-3 9.6875 -3 9.6875 -6 11 C-7.40466953 13.05093145 -7.40466953 13.05093145 -8 15 C-8.99 15 -9.98 15 -11 15 C-9.3553057 12.68668225 -7.70930345 10.37431549 -6.0625 8.0625 C-5.59392578 7.40314453 -5.12535156 6.74378906 -4.64257812 6.06445312 C-1.11328125 1.11328125 -1.11328125 1.11328125 0 0 Z " fill="#F28697" transform="translate(61,62)"/>
<path d="M0 0 C6.27 0 12.54 0 19 0 C19.33 0.99 19.66 1.98 20 3 C17.04081802 2.88641524 14.08323217 2.75966914 11.125 2.625 C10.28324219 2.5940625 9.44148438 2.563125 8.57421875 2.53125 C7.76855469 2.49257813 6.96289062 2.45390625 6.1328125 2.4140625 C5.38918457 2.3826416 4.64555664 2.3512207 3.87939453 2.31884766 C2 2 2 2 0 0 Z " fill="#E1657B" transform="translate(403,279)"/>
<path d="M0 0 C0.33 0 0.66 0 1 0 C1.56002039 8.1202957 -0.13456376 15.38672414 -3 23 C-3.66 23.33 -4.32 23.66 -5 24 C-4.41640925 15.68383188 -2.26200586 7.98540674 0 0 Z " fill="#E26679" transform="translate(148,344)"/>
<path d="M0 0 C0.99 0.33 1.98 0.66 3 1 C3.66 6.61 4.32 12.22 5 18 C5.66 18 6.32 18 7 18 C6.67 20.31 6.34 22.62 6 25 C3.6952522 21.09646319 2.87669922 16.87037658 1.875 12.5 C1.69324219 11.74074219 1.51148438 10.98148437 1.32421875 10.19921875 C0.49012744 6.61827036 0 3.72626421 0 0 Z " fill="#D74D63" transform="translate(288,354)"/>
<path d="M0 0 C2.25017753 3.37526629 3.13004999 6.63074995 4.125 10.5 C4.30675781 11.17675781 4.48851562 11.85351562 4.67578125 12.55078125 C5.43682178 15.45189063 6 17.9877454 6 21 C5.01 21 4.02 21 3 21 C2.49078672 18.81462633 1.99305563 16.62657569 1.5 14.4375 C1.2215625 13.21933594 0.943125 12.00117188 0.65625 10.74609375 C0.01362446 7.07777293 -0.11474823 3.71497397 0 0 Z " fill="#E67488" transform="translate(356,363)"/>
<path d="M0 0 C1.9375 0.0625 1.9375 0.0625 4 1 C5.88698167 5.05701058 6.21117043 8.56542098 6 13 C3.39954125 10.6975881 2.15260817 8.50103323 0.8125 5.3125 C0.46832031 4.50425781 0.12414063 3.69601563 -0.23046875 2.86328125 C-0.48441406 2.24839844 -0.73835938 1.63351563 -1 1 C-0.67 0.67 -0.34 0.34 0 0 Z " fill="#F46A82" transform="translate(42,249)"/>
<path d="M0 0 C2.29633824 3.44450737 2.54016485 5.93812283 3 10 C1.35 10.33 -0.3 10.66 -2 11 C-2 10.34 -2 9.68 -2 9 C-2.66 9 -3.32 9 -4 9 C-3.67 8.01 -3.34 7.02 -3 6 C-2.34 6 -1.68 6 -1 6 C-1.020625 5.195625 -1.04125 4.39125 -1.0625 3.5625 C-1 1 -1 1 0 0 Z " fill="#E95A74" transform="translate(365,396)"/>
<path d="M0 0 C0.99 0 1.98 0 3 0 C3.33 2.31 3.66 4.62 4 7 C3.34 7 2.68 7 2 7 C2 9.31 2 11.62 2 14 C1.01 14.33 0.02 14.66 -1 15 C-0.48041715 10.62065881 0.05675742 6.31196609 1 2 C0.34 1.67 -0.32 1.34 -1 1 C-0.67 0.67 -0.34 0.34 0 0 Z " fill="#D0556B" transform="translate(169,258)"/>
<path d="M0 0 C0.66 0 1.32 0 2 0 C0.68 5.61 -0.64 11.22 -2 17 C-4.24437461 12.51125078 -4.15810388 9.71647144 -3 5 C-1.5625 2 -1.5625 2 0 0 Z " fill="#E3778B" transform="translate(204,380)"/>
<path d="M0 0 C0.66 0 1.32 0 2 0 C1.38221953 2.60607392 0.75612789 5.20965697 0.125 7.8125 C-0.04902344 8.55048828 -0.22304688 9.28847656 -0.40234375 10.04882812 C-1.24492511 13.49717037 -2.01285575 16.01928362 -4 19 C-4.53699151 11.88486245 -2.69707634 6.55004254 0 0 Z " fill="#E1526D" transform="translate(471,211)"/>
<path d="M0 0 C0.66 0.33 1.32 0.66 2 1 C-1.04154103 5.46092685 -3.44955057 8.28041363 -8.875 9.4375 C-10.2459812 9.65242279 -11.62042933 9.84978008 -13 10 C-9.28249221 5.79759989 -4.68339021 3.00217321 0 0 Z " fill="#F27B8D" transform="translate(299,99)"/>
<path d="M0 0 C2.248136 3.37220401 3.16868014 6.63804748 4.1875 10.5 C4.37763672 11.17675781 4.56777344 11.85351562 4.76367188 12.55078125 C5.65867411 15.89960881 6.11900532 17.64298405 5 21 C1.56335557 13.66316375 -0.16079293 8.2004394 0 0 Z " fill="#E56A7D" transform="translate(350,341)"/>
<path d="M0 0 C-3.88033118 2.75378342 -7.41399566 3.66129335 -12.01171875 4.47265625 C-14.21322777 4.87842756 -14.21322777 4.87842756 -16 7 C-17.32 7 -18.64 7 -20 7 C-20 6.34 -20 5.68 -20 5 C-17.2328864 3.96794141 -14.46208746 2.94909171 -11.6875 1.9375 C-10.90181641 1.64294922 -10.11613281 1.34839844 -9.30664062 1.04492188 C-8.54931641 0.77099609 -7.79199219 0.49707031 -7.01171875 0.21484375 C-6.31522217 -0.04176025 -5.61872559 -0.29836426 -4.90112305 -0.56274414 C-3 -1 -3 -1 0 0 Z " fill="#EA697E" transform="translate(356,76)"/>
<path d="M0 0 C0.33 0 0.66 0 1 0 C0.88566637 2.25056722 0.75813564 4.50046674 0.625 6.75 C0.55539063 8.00296875 0.48578125 9.2559375 0.4140625 10.546875 C0.04676696 13.60998121 -0.39711286 15.41974266 -2 18 C-2.66 18 -3.32 18 -4 18 C-2.83445193 11.9490696 -1.54656904 5.96533774 0 0 Z " fill="#E26176" transform="translate(153,326)"/>
<path d="M0 0 C0.66666667 2.66666667 1.33333333 5.33333333 2 8 C1.030625 8.268125 0.06125 8.53625 -0.9375 8.8125 C-1.948125 9.204375 -2.95875 9.59625 -4 10 C-4.33 10.99 -4.66 11.98 -5 13 C-5 8.85323868 -4.5223055 7.68791935 -2.5 4.25 C-2.0359375 3.45078125 -1.571875 2.6515625 -1.09375 1.828125 C-0.7328125 1.22484375 -0.371875 0.6215625 0 0 Z " fill="#F08599" transform="translate(49,78)"/>
<path d="M0 0 C3.3 0 6.6 0 10 0 C9.67 1.32 9.34 2.64 9 4 C9.99 4.33 10.98 4.66 12 5 C12 5.66 12 6.32 12 7 C7.69235185 5.43358249 3.93828536 3.31663844 0 1 C0 0.67 0 0.34 0 0 Z " fill="#EC778E" transform="translate(336,402)"/>
<path d="M0 0 C2 3 2 3 1.64453125 6.1015625 C1.36996094 7.26429688 1.09539062 8.42703125 0.8125 9.625 C0.55082031 10.79289062 0.28914062 11.96078125 0.01953125 13.1640625 C-0.31691406 14.09992188 -0.65335938 15.03578125 -1 16 C-1.99 16.33 -2.98 16.66 -4 17 C-2.91103333 11.24237834 -1.70663707 5.60752181 0 0 Z " fill="#E78499" transform="translate(134,396)"/>
<path d="M0 0 C0.66 1.32 1.32 2.64 2 4 C1.01 5.485 1.01 5.485 0 7 C-0.22653559 8.97409583 -0.45108037 10.94855519 -0.6484375 12.92578125 C-1.15990592 15.94344495 -2.48666502 18.36811308 -4 21 C-5.00693162 17.87820592 -4.97289724 16.01030331 -4.00390625 12.890625 C-3.77509766 12.13652344 -3.54628906 11.38242187 -3.31054688 10.60546875 C-3.06369141 9.82816406 -2.81683594 9.05085938 -2.5625 8.25 C-2.31951172 7.45722656 -2.07652344 6.66445313 -1.82617188 5.84765625 C-1.22645805 3.89564654 -0.61441879 1.94743117 0 0 Z " fill="#DA6377" transform="translate(162,294)"/>
<path d="M0 0 C0.33 0 0.66 0 1 0 C1.55704424 2.26711017 2.09517831 4.53887387 2.625 6.8125 C2.92664063 8.07707031 3.22828125 9.34164063 3.5390625 10.64453125 C4 14 4 14 2 17 C-1.62870159 5.47835991 -1.62870159 5.47835991 0 0 Z " fill="#EA7287" transform="translate(306,417)"/>
<path d="M0 0 C0 0.66 0 1.32 0 2 C-1.65532623 3.01866229 -3.32260138 4.01810813 -5 5 C-5.33 5.66 -5.66 6.32 -6 7 C-8.31 7 -10.62 7 -13 7 C-4.79310345 0 -4.79310345 0 0 0 Z " fill="#F0899B" transform="translate(314,92)"/>
<path d="M0 0 C3.25516428 3.16474305 6.32008793 6.32752791 9 10 C9 10.66 9 11.32 9 12 C7.0625 11.6875 7.0625 11.6875 5 11 C4.67 10.01 4.34 9.02 4 8 C3.2575 7.319375 3.2575 7.319375 2.5 6.625 C0.56690264 4.53081119 0.37547204 2.77849308 0 0 Z " fill="#F18B9C" transform="translate(438,62)"/>
<path d="M0 0 C0.33 0.99 0.66 1.98 1 3 C1.66 3.33 2.32 3.66 3 4 C-1.95 6.475 -1.95 6.475 -7 9 C-7.33 8.34 -7.66 7.68 -8 7 C-6.75 5.5 -6.75 5.5 -5 4 C-3.68 4 -2.36 4 -1 4 C-0.67 2.68 -0.34 1.36 0 0 Z " fill="#E66E81" transform="translate(144,409)"/>
<path d="M0 0 C0.33 0 0.66 0 1 0 C1.19392201 5.52677733 0.7479503 9.75614911 -1 15 C-1.66 15 -2.32 15 -3 15 C-2.44854729 9.76119922 -1.57077907 5.02649303 0 0 Z " fill="#EC778B" transform="translate(29,124)"/>
<path d="M0 0 C0.33 0 0.66 0 1 0 C1.33820166 1.5823006 1.67035939 3.16589375 2 4.75 C2.185625 5.63171875 2.37125 6.5134375 2.5625 7.421875 C3 10 3 10 3 14 C2.34 14 1.68 14 1 14 C-0.75417412 9.50492881 -1.28362108 5.8215583 -1 1 C-0.67 0.67 -0.34 0.34 0 0 Z " fill="#D44B63" transform="translate(332,272)"/>
<path d="M0 0 C2.85793316 2.85793316 2.40799941 5.14665584 2.625 9.125 C2.69976562 10.40632813 2.77453125 11.68765625 2.8515625 13.0078125 C2.92503906 14.48894531 2.92503906 14.48894531 3 16 C1.34602165 12.999111 0.47881326 10.23161567 -0.1875 6.875 C-0.45626953 5.57175781 -0.45626953 5.57175781 -0.73046875 4.2421875 C-1 2 -1 2 0 0 Z " fill="#E58597" transform="translate(295,378)"/>
<path d="M0 0 C0.99 0 1.98 0 3 0 C2.71572583 1.58467728 2.42225182 3.1677057 2.125 4.75 C1.88136719 6.07257813 1.88136719 6.07257813 1.6328125 7.421875 C1.03203736 9.86947744 0.22002883 11.80599857 -1 14 C-1.08333357 9.1666528 -0.95261487 4.76307437 0 0 Z " fill="#E46B80" transform="translate(227,289)"/>
<path d="M0 0 C2.3125 -0.3125 2.3125 -0.3125 5 0 C6.875 2.375 6.875 2.375 8 5 C7.67 5.66 7.34 6.32 7 7 C3.17053157 5.54744301 1.87949705 3.57104439 0 0 Z " fill="#F08597" transform="translate(56,275)"/>
<path d="M0 0 C4.62 0 9.24 0 14 0 C9.55775026 2.22112487 6.88356183 2.60616437 2 3 C1.34 2.67 0.68 2.34 0 2 C0 1.34 0 0.68 0 0 Z " fill="#E96A80" transform="translate(109,275)"/>
<path d="M0 0 C0.99 0.33 1.98 0.66 3 1 C1.515 7.435 1.515 7.435 0 14 C-0.33 14 -0.66 14 -1 14 C-1.08333357 9.1666528 -0.95261487 4.76307437 0 0 Z " fill="#DB667C" transform="translate(237,252)"/>
<path d="M0 0 C0.66 0 1.32 0 2 0 C2 0.66 2 1.32 2 2 C2.99 2.33 3.98 2.66 5 3 C5.66 3.33 6.32 3.66 7 4 C7 5.32 7 6.64 7 8 C5.1875 7.8125 5.1875 7.8125 3 7 C0 2.82142857 0 2.82142857 0 0 Z " fill="#E68294" transform="translate(184,430)"/>
<path d="M0 0 C0.90105469 0.00902344 1.80210937 0.01804687 2.73046875 0.02734375 C3.41753906 0.03894531 4.10460937 0.05054687 4.8125 0.0625 C4.8125 0.3925 4.8125 0.7225 4.8125 1.0625 C-0.67425196 2.93033046 -5.40942976 3.2983396 -11.1875 3.0625 C-7.23784431 0.4293962 -4.63874115 -0.06024339 0 0 Z " fill="#EA687E" transform="translate(367.1875,71.9375)"/>
<path d="M0 0 C0.66 0.66 1.32 1.32 2 2 C1.75 3.6875 1.75 3.6875 1 6 C0.649375 7.2375 0.29875 8.475 -0.0625 9.75 C-0.5265625 11.35875 -0.5265625 11.35875 -1 13 C-1.66 12.67 -2.32 12.34 -3 12 C-2.68950274 10.56206608 -2.3765224 9.1246682 -2.0625 7.6875 C-1.88847656 6.88699219 -1.71445312 6.08648437 -1.53515625 5.26171875 C-1 3 -1 3 0 0 Z " fill="#EE7A8C" transform="translate(33,111)"/>
<path d="M0 0 C0.99 0.495 0.99 0.495 2 1 C3.1577506 4.47325181 3.06866652 7.36067448 3 11 C2.67 10.34 2.34 9.68 2 9 C1.34 9 0.68 9 0 9 C0 6.03 0 3.06 0 0 Z " fill="#E1526A" transform="translate(347,333)"/>
<path d="M0 0 C1.5994614 3.19892281 2.42595236 5.35462576 3.125 8.75 C3.29257812 9.54921875 3.46015625 10.3484375 3.6328125 11.171875 C3.81457031 12.07679688 3.81457031 12.07679688 4 13 C3.01 13.495 3.01 13.495 2 14 C2 12.35 2 10.7 2 9 C1.34 9 0.68 9 0 9 C0 6.03 0 3.06 0 0 Z " fill="#E25E74" transform="translate(469,120)"/>
<path d="M0 0 C3.37705625 0.53725895 6.696686 1.11064623 10 2 C9.67 2.99 9.34 3.98 9 5 C5.22454612 3.90931332 2.52956528 3.0916909 0 0 Z " fill="#EC7B8E" transform="translate(348,409)"/>
<path d="M0 0 C3.91531663 5.10693473 4.10265877 7.63515636 4 14 C1.01520806 9.52281208 0 5.36175907 0 0 Z " fill="#E46C82" transform="translate(277,314)"/>
<path d="M0 0 C1.32 0.66 2.64 1.32 4 2 C0.31265242 4.45823172 -2.69699971 5.01242616 -7 6 C-7 5.34 -7 4.68 -7 4 C-4.35261084 2.5393715 -3.10551666 2 0 2 C0 1.34 0 0.68 0 0 Z " fill="#E75F78" transform="translate(143,266)"/>
<path d="M0 0 C0.33 0.66 0.66 1.32 1 2 C1.66 2 2.32 2 3 2 C6 8.625 6 8.625 6 12 C5.34 12 4.68 12 4 12 C3.32645501 10.56570999 2.66140299 9.12742943 2 7.6875 C1.62875 6.88699219 1.2575 6.08648437 0.875 5.26171875 C0 3 0 3 0 0 Z " fill="#E97F96" transform="translate(35,235)"/>
<path d="M0 0 C-0.99 0.495 -0.99 0.495 -2 1 C-2 1.66 -2 2.32 -2 3 C-4 4.625 -4 4.625 -6 6 C-7.32 4.35 -8.64 2.7 -10 1 C-6.59437148 0.22157062 -3.49234244 -0.09978121 0 0 Z " fill="#F5788C" transform="translate(391,66)"/>
<path d="M0 0 C1.32 0 2.64 0 4 0 C3.34 1.65 2.68 3.3 2 5 C0.68 5 -0.64 5 -2 5 C-1.34 3.35 -0.68 1.7 0 0 Z " fill="#E95F77" transform="translate(317,421)"/>
<path d="M0 0 C1.76462683 3.08809695 2 4.23312136 2 8 C-0.02045442 7.39816251 -2.02111039 6.72693904 -4 6 C-4.33 5.34 -4.66 4.68 -5 4 C-3.68 4.33 -2.36 4.66 -1 5 C-0.67 3.35 -0.34 1.7 0 0 Z " fill="#D77F92" transform="translate(370,414)"/>
<path d="M0 0 C0.66666667 1.33333333 1.33333333 2.66666667 2 4 C2.391875 4.680625 2.78375 5.36125 3.1875 6.0625 C4 8 4 8 3 11 C2.67 10.01 2.34 9.02 2 8 C1.34 8 0.68 8 0 8 C-0.38063221 5.6739143 -0.71269945 3.33944736 -1 1 C-0.67 0.67 -0.34 0.34 0 0 Z " fill="#E35F78" transform="translate(299,393)"/>
<path d="M0 0 C0.33 0 0.66 0 1 0 C1.19622241 4.21878192 0.80230168 7.17010894 -1 11 C-1.99 11 -2.98 11 -4 11 C-2.7874262 7.27566618 -1.49140021 3.62197194 0 0 Z " fill="#EA8094" transform="translate(42,90)"/>
<path d="M0 0 C2 2 2 2 3 5 C3.99 5.33 4.98 5.66 6 6 C5.67 6.66 5.34 7.32 5 8 C3.35 8 1.7 8 0 8 C0 5.36 0 2.72 0 0 Z " fill="#E64662" transform="translate(281,324)"/>
<path d="M0 0 C0.33 0 0.66 0 1 0 C1 3.63 1 7.26 1 11 C0.01 11 -0.98 11 -2 11 C-1.34 7.37 -0.68 3.74 0 0 Z " fill="#E15C75" transform="translate(156,315)"/>
<path d="M0 0 C0.66 0.33 1.32 0.66 2 1 C-2.39453125 5.00390625 -2.39453125 5.00390625 -4 6 C-4.99 5.67 -5.98 5.34 -7 5 C-7 4.34 -7 3.68 -7 3 C-7.66 3 -8.32 3 -9 3 C-8.67 2.34 -8.34 1.68 -8 1 C-5.525 1.99 -5.525 1.99 -3 3 C-2.01 2.01 -1.02 1.02 0 0 Z " fill="#F294A4" transform="translate(219,105)"/>
<path d="M0 0 C4.05281712 1.22527029 7.44360764 2.69880494 11 5 C10.01 5.495 10.01 5.495 9 6 C6.8359375 5.22265625 6.8359375 5.22265625 4.375 4.0625 C3.55773437 3.68222656 2.74046875 3.30195312 1.8984375 2.91015625 C1.27195313 2.60980469 0.64546875 2.30945313 0 2 C0 1.34 0 0.68 0 0 Z " fill="#F099A6" transform="translate(186,92)"/>
<path d="M0 0 C4.875 0.875 4.875 0.875 6 2 C6.04063832 3.66617115 6.042721 5.33388095 6 7 C5.38125 6.34 4.7625 5.68 4.125 5 C2.24362573 2.7715451 2.24362573 2.7715451 0 3 C0 2.01 0 1.02 0 0 Z " fill="#E57181" transform="translate(164,399)"/>
<path d="M0 0 C-1.28524261 0.86380259 -2.57842419 1.71580369 -3.875 2.5625 C-4.59429687 3.03816406 -5.31359375 3.51382812 -6.0546875 4.00390625 C-6.69664062 4.33261719 -7.33859375 4.66132813 -8 5 C-8.66 4.67 -9.32 4.34 -10 4 C-9.01 3.67 -8.02 3.34 -7 3 C-7 2.01 -7 1.02 -7 0 C-2.25 -1.125 -2.25 -1.125 0 0 Z " fill="#F198A4" transform="translate(164,403)"/>
<path d="M0 0 C0.33 1.32 0.66 2.64 1 4 C1.66 4 2.32 4 3 4 C2.67 6.31 2.34 8.62 2 11 C0.11772118 7.73738338 -0.58481145 4.73669693 -1 1 C-0.67 0.67 -0.34 0.34 0 0 Z " fill="#E17F8F" transform="translate(292,368)"/>
<path d="M0 0 C0.33 0 0.66 0 1 0 C1.0270043 1.45823212 1.04639787 2.91660675 1.0625 4.375 C1.07410156 5.18710937 1.08570313 5.99921875 1.09765625 6.8359375 C1 9 1 9 0 11 C-0.66 11 -1.32 11 -2 11 C-1.34 7.37 -0.68 3.74 0 0 Z " fill="#EC6B7F" transform="translate(148,344)"/>
<path d="M0 0 C-3.44450737 2.29633824 -5.93812283 2.54016485 -10 3 C-10 2.34 -10 1.68 -10 1 C-3.71428571 -1.42857143 -3.71428571 -1.42857143 0 0 Z " fill="#E8657D" transform="translate(134,272)"/>
<path d="M0 0 C2.95183101 2.95183101 3.08663988 5.95511947 4 10 C3.34 10 2.68 10 2 10 C2 9.01 2 8.02 2 7 C1.34 7 0.68 7 0 7 C0 4.69 0 2.38 0 0 Z " fill="#E05B71" transform="translate(465,109)"/>
<path d="M0 0 C0 0.66 0 1.32 0 2 C-3.3 2.66 -6.6 3.32 -10 4 C-6.32379932 0.32379932 -5.15439554 0 0 0 Z " fill="#F1899F" transform="translate(231,101)"/>
<path d="M0 0 C1.32 1.65 2.64 3.3 4 5 C3.34 5.66 2.68 6.32 2 7 C-0.125 6.625 -0.125 6.625 -2 6 C-1.33333333 4 -0.66666667 2 0 0 Z " fill="#E55D77" transform="translate(451,80)"/>
<path d="M0 0 C0.99 0 1.98 0 3 0 C2.67 1.65 2.34 3.3 2 5 C1.01 5 0.02 5 -1 5 C-0.67 3.35 -0.34 1.7 0 0 Z " fill="#DF7B8C" transform="translate(310,433)"/>
<path d="M0 0 C1.5 1.25 1.5 1.25 3 3 C3 4.32 3 5.64 3 7 C3.66 7.33 4.32 7.66 5 8 C4.01 8 3.02 8 2 8 C0.25 5.6875 0.25 5.6875 -1 3 C-0.67 2.01 -0.34 1.02 0 0 Z " fill="#E6798F" transform="translate(174,410)"/>
<path d="M0 0 C0.66 0 1.32 0 2 0 C2.36923077 4.55384615 2.36923077 4.55384615 0.5 6.8125 C0.005 7.204375 -0.49 7.59625 -1 8 C-1.625 5.6875 -1.625 5.6875 -2 3 C-1.34 2.01 -0.68 1.02 0 0 Z " fill="#E5687F" transform="translate(325,408)"/>
<path d="M0 0 C0.66 0 1.32 0 2 0 C2.33 0.99 2.66 1.98 3 3 C3.66 3.33 4.32 3.66 5 4 C5 5.65 5 7.3 5 9 C1.9083091 6.47043472 1.09068668 3.77545388 0 0 Z " fill="#EA93A7" transform="translate(43,253)"/>
<path d="M0 0 C4.21912747 0.4794463 6.79663178 1.16625119 10 4 C7.36 3.67 4.72 3.34 2 3 C2 2.34 2 1.68 2 1 C1.34 0.67 0.68 0.34 0 0 Z " fill="#F39DAE" transform="translate(270,101)"/>
<path d="M0 0 C-5.5 4 -5.5 4 -10 4 C-10 3.34 -10 2.68 -10 2 C-8.71211992 1.46987262 -7.41953322 0.9511671 -6.125 0.4375 C-5.40570313 0.14746094 -4.68640625 -0.14257812 -3.9453125 -0.44140625 C-2 -1 -2 -1 0 0 Z " fill="#E2808E" transform="translate(346,79)"/>
<path d="M0 0 C0.66 0.66 1.32 1.32 2 2 C1.625 5.625 1.625 5.625 1 9 C-0.4606285 6.35261084 -1 5.10551666 -1 2 C-0.67 1.34 -0.34 0.68 0 0 Z " fill="#E74A73" transform="translate(218,323)"/>
<path d="M0 0 C2.29633824 3.44450737 2.54016485 5.93812283 3 10 C2.01 9.34 1.02 8.68 0 8 C-0.40843923 5.28796348 -0.13336867 2.7562858 0 0 Z " fill="#D9526C" transform="translate(339,301)"/>
</svg>
