<?xml version="1.0" encoding="UTF-8" standalone="no"?>
<svg
   version="1.1"
   width="427.84042"
   height="428.53488"
   id="svg26"
   xmlns="http://www.w3.org/2000/svg"
   xmlns:svg="http://www.w3.org/2000/svg">
  <defs
     id="defs30" />
  <path
     d="m 286.31332,26.118041 c 0.67676,0.534961 1.35351,1.069922 2.05078,1.621094 20.94039,17.133043 34.0984,44.76187 36.94922,71.378906 1.71609,31.630359 -4.96736,60.697409 -26,84.999999 -0.64067,0.79664 -1.28133,1.59328 -1.94141,2.41406 -17.50051,20.92091 -45.14264,34.03323 -72.05859,36.58594 -32.22534,2.06842 -61.38881,-6.95012 -86,-28 -23.22718,-20.7229 -35.34323,-49.29312 -37.18359,-80.07031 -0.68316,-29.49607 9.808,-56.855866 29.18359,-78.929689 1.07314,-1.223965 1.07314,-1.223965 2.16797,-2.472656 40.25158,-42.819223 108.38042,-43.505576 152.83203,-7.527344 z m -120.625,36.1875 c -4.53868,5.37475 -7.11948,10.422955 -6.76172,17.578125 1.09485,6.325772 4.50178,11.163594 9.38672,15.234375 5.3404,3.68742 10.72986,3.775963 17,3 6.70073,-1.827474 10.52886,-6.15072 14,-12 1.89367,-5.681015 2.24684,-12.074871 -0.12891,-17.648438 -3.60395,-5.664694 -7.43891,-9.207503 -13.87109,-11.351562 -8.00106,-0.653148 -13.3149,-0.07092 -19.625,5.1875 z m 65.75,2.75 c -3.64165,5.248256 -4.67326,9.702657 -4.125,16.0625 1.40742,7.051049 5.26996,10.89575 11,15 4.56342,2.76207 9.81567,2.625286 15,2 6.18668,-1.82218 10.53537,-5.626987 14,-11 2.55082,-5.988895 2.58847,-11.884779 0.24609,-17.953125 -2.89809,-5.577923 -7.43046,-9.662049 -13.24609,-12.046875 -9.76613,-1.325403 -16.27897,0.69142 -22.875,7.9375 z m -60.85156,51.132809 c -5.6858,8.03854 -8.36455,16.06425 -7.27344,25.92969 1.79984,9.88413 6.69966,16.3976 14.35547,22.65234 3.21494,2.63457 6.00696,5.61985 8.74218,8.74219 7.44163,8.48519 13.99745,13.44152 25.38282,14.92969 9.11357,0.42018 17.60719,-2.82354 24.69531,-8.48828 2.80867,-2.82671 4.80211,-6.13344 6.97656,-9.45703 2.45091,-3.15562 5.25793,-4.78125 8.63672,-6.82813 6.02012,-4.22259 10.89627,-11.27314 12.21094,-18.55078 0.90807,-10.12498 0.49001,-18.88209 -5.64844,-27.24609 -6.22471,-7.40713 -13.24826,-12.76763 -23.07523,-14.13208 -2.89223,-0.14573 -5.75946,-0.17672 -8.65524,-0.15308 -1.57817,-0.006 -1.57817,-0.006 -3.18822,-0.0116 -2.20932,-0.003 -4.41868,0.005 -6.62794,0.0214 -3.36214,0.0215 -6.72215,1.4e-4 -10.08423,-0.0254 -2.15821,0.003 -4.31641,0.008 -6.47461,0.0156 -0.99399,-0.008 -1.98798,-0.0162 -3.0121,-0.0245 -10.57298,0.14062 -20.10735,4.40845 -26.96055,12.6261 z"
     fill="#ff7900"
     id="path2" />
  <path
     d="m 163.49301,289.67273 c 10.9191,8.87973 18.09529,21.7286 20.82031,35.44531 0.18187,2.57076 0.27544,5.14894 0.29053,7.72608 0.007,0.72637 0.0134,1.45275 0.0204,2.20114 0.0188,2.3759 0.0229,4.75151 0.025,7.12747 0.006,1.66855 0.0132,3.3371 0.0202,5.00565 0.0119,3.48821 0.0157,6.97633 0.0145,10.46457 -2.1e-4,4.44718 0.0271,8.89373 0.0615,13.34077 0.0223,3.44377 0.0263,6.88739 0.0252,10.33123 0.002,1.6385 0.0111,3.277 0.0267,4.91543 0.11604,13.47195 -1.78807,23.87442 -11.48405,33.88766 -9.02151,7.52105 -19.77487,8.4575 -31.09375,8.39844 -1.22731,0.003 -2.45462,0.006 -3.71912,0.009 -2.58175,0.002 -5.16352,-0.003 -7.74524,-0.016 -3.9302,-0.0161 -7.85938,-1.2e-4 -11.78955,0.019 -2.51953,-0.002 -5.03907,-0.006 -7.55859,-0.0117 -1.16383,0.006 -2.32765,0.0121 -3.52674,0.0184 -11.913054,-0.10166 -21.476156,-2.83134 -30.320919,-11.04574 -6.860919,-7.41117 -9.348509,-16.02904 -9.407226,-25.95874 -0.0096,-1.31585 -0.01922,-2.63169 -0.02911,-3.98741 -0.0049,-1.43201 -0.0091,-2.86403 -0.01288,-4.29604 -0.0028,-0.72815 -0.0057,-1.45631 -0.0086,-2.20653 -0.01497,-3.86109 -0.02421,-7.72215 -0.02854,-11.58326 -0.0054,-3.95017 -0.02941,-7.89998 -0.05797,-11.85004 -0.01882,-3.06905 -0.02384,-6.13801 -0.02536,-9.20711 -0.003,-1.45377 -0.01089,-2.90754 -0.02419,-4.36125 -0.161095,-18.98241 3.683388,-35.78448 17.017707,-49.85705 21.197598,-21.13288 54.770298,-21.44173 78.509768,-4.50928 z"
     fill="#ff7900"
     id="path4" />
  <path
     d="m 334.31332,287.11804 c 0.73734,0.47953 1.47469,0.95906 2.23437,1.45313 11.48972,8.16166 19.36153,20.8891 22.33235,34.59922 0.96523,6.56666 0.76309,13.25667 0.76921,19.88125 0.006,1.6447 0.0132,3.28939 0.0202,4.93409 0.0119,3.43516 0.0157,6.87023 0.0145,10.30541 -2e-4,4.37878 0.0271,8.75691 0.0615,13.13554 0.0224,3.39316 0.0263,6.78616 0.0252,10.17939 0.002,1.61337 0.0111,3.22676 0.0267,4.84006 0.11016,12.58655 -1.38423,23.22678 -10.48405,32.67191 -9.61823,8.28445 -20.6975,9.46401 -32.97266,9.39844 -1.2037,0.003 -2.40739,0.006 -3.64757,0.009 -2.52869,0.002 -5.05741,-0.003 -7.58607,-0.016 -3.84891,-0.0161 -7.69678,-10e-5 -11.54566,0.019 -2.4694,-0.002 -4.9388,-0.006 -7.4082,-0.0117 -1.13881,0.006 -2.27762,0.0121 -3.45094,0.0184 -11.83327,-0.10314 -21.36335,-2.89199 -30.14281,-11.04575 -6.88206,-7.434 -9.33908,-16.06431 -9.42309,-26.0188 -0.007,-0.64802 -0.0131,-1.29605 -0.0199,-1.96371 -0.0196,-2.13604 -0.0314,-4.27201 -0.0414,-6.40811 -0.006,-1.10504 -0.006,-1.10504 -0.0123,-2.2324 -0.0208,-3.90877 -0.0351,-7.81752 -0.0445,-11.72634 -0.011,-3.99267 -0.0453,-7.98477 -0.0852,-11.97724 -0.0264,-3.10687 -0.0345,-6.21361 -0.0381,-9.32059 -0.005,-1.46888 -0.0162,-2.93776 -0.035,-4.40653 -0.22351,-18.62688 3.93444,-35.06183 16.93663,-49.03154 19.5641,-19.82148 51.43291,-22.50443 74.51685,-7.28613 z"
     fill="#ff7900"
     id="path6" />
  <path
     d="m 314.31332,191.11804 c 8.64922,1.44069 17.14105,3.38934 25.65234,5.48438 0.68102,0.16719 1.36204,0.33439 2.06369,0.50666 3.60049,0.8846 7.19984,1.77366 10.79837,2.66619 3.67583,0.91065 7.35549,1.80473 11.03626,2.69518 2.86891,0.69746 5.73454,1.40774 8.59949,2.12129 1.35373,0.33483 2.70863,0.66497 4.06477,0.98992 18.17579,4.36671 32.45822,12.26311 42.83977,28.11451 8.16322,14.3594 10.0272,30.06849 7.29687,46.26953 -4.83177,16.99378 -15.03327,28.63313 -29.82813,37.66406 -6.70522,3.63654 -14.81721,6.48828 -22.52343,6.48828 -0.29391,-1.36318 -0.29391,-1.36318 -0.59375,-2.75391 -4.05944,-17.06013 -11.95032,-32.59405 -26.84375,-42.55859 -4.11949,-3.28727 -5.79513,-5.23334 -6.59375,-10.46875 -0.3536,-3.7792 -0.49703,-7.55946 -0.64453,-11.35156 -0.89975,-22.24769 -10.47669,-44.70971 -24.08594,-62.1211 -1.23828,-1.74609 -1.23828,-1.74609 -1.23828,-3.74609 z"
     fill="#ff7900"
     id="path8" />
  <path
     d="m 114.31332,192.11804 c -0.9436,1.34578 -0.9436,1.34578 -1.90625,2.71875 -15.409943,22.30689 -23.606829,45.58779 -25.245363,72.79907 -0.418939,5.97004 -0.418939,5.97004 -2.633545,8.61109 -0.751524,0.47308 -1.503047,0.94617 -2.277344,1.43359 -16.270849,11.2684 -23.656283,27.87948 -28.9375,46.4375 -11.79844,-0.28713 -21.676645,-4.98494 -31,-12 -0.614883,-0.44988 -1.229766,-0.89977 -1.863281,-1.36328 C 8.6408775,301.4593 2.5387475,286.6176 0.31331753,272.11804 -1.2268925,256.96013 2.9257875,241.37941 12.453938,229.43445 c 2.209758,-2.52919 4.486994,-4.93983 6.85938,-7.31641 0.564609,-0.57621 1.129219,-1.15242 1.710938,-1.74609 7.733117,-7.26159 18.046808,-10.88569 28.164062,-13.37891 2.239647,-0.57527 4.479224,-1.15082 6.71875,-1.72656 0.620956,-0.15733 1.241911,-0.31465 1.881683,-0.47675 5.074237,-1.28715 10.132769,-2.6289 15.189087,-3.98465 4.183525,-1.12144 8.369275,-2.23445 12.555268,-3.34665 2.101115,-0.55963 4.201503,-1.122 6.301147,-1.68713 2.97764,-0.7999 5.958317,-1.58735 8.939997,-2.37201 1.35467,-0.36815 1.35467,-0.36815 2.7367,-0.74374 0.83761,-0.21799 1.67522,-0.43597 2.53821,-0.66056 0.72988,-0.19428 1.45976,-0.38857 2.21176,-0.58874 2.29654,-0.32249 3.85951,0.01 6.0524,0.71179 z"
     fill="#ff7900"
     id="path10" />
  <path
     d="m 155.31332,225.11804 c 3.45641,1.11336 6.86283,2.31481 10.25,3.62109 33.06817,12.69902 67.03078,12.79038 99.80859,-0.89843 1.98693,-0.89333 3.96548,-1.80526 5.94141,-2.72266 0.66,0 1.32,0 2,0 7.0116,12.47145 9.60411,24.86667 10,39 -0.92039,0.32871 -1.84078,0.65742 -2.78906,0.9961 -20.94131,7.75294 -36.13649,20.00958 -45.96094,40.5039 -4.11269,9.60077 -5.68871,18.87188 -6.60425,29.21484 -0.55337,6.19278 -0.55337,6.19278 -1.64575,7.28516 -1.75686,0.0995 -3.51768,0.1308 -5.27735,0.13281 -1.07056,10e-4 -2.14113,0.003 -3.24414,0.004 -1.12728,-0.004 -2.25457,-0.008 -3.41601,-0.0117 -1.12342,0.004 -2.24684,0.008 -3.4043,0.0117 -1.07185,-10e-4 -2.14371,-0.003 -3.24805,-0.004 -0.98863,-0.001 -1.97726,-0.002 -2.99585,-0.003 -2.4143,-0.12981 -2.4143,-0.12981 -4.4143,-1.12981 -0.0258,-1.05316 -0.0516,-2.10633 -0.0781,-3.19141 -0.74825,-21.50096 -7.34113,-40.56656 -22.92187,-55.80859 -9.44259,-8.31847 -20.16145,-13.90204 -32,-18 -0.77542,-14.47439 2.90925,-26.5669 10,-39 z"
     fill="#ffaa5a"
     id="path12" />
  <path
     d="m 142.31332,5.118041 c 0,0.66 0,1.32 0,2 -1.88632,1.5273123 -3.78479,2.955698 -5.75,4.375 -26.89226,20.155353 -40.853176,48.386619 -48.250002,80.625 -9.701555,-5.271852 -14.658873,-14.814296 -18,-25 C 66.094759,52.430388 68.402254,38.398665 75.528162,25.00476 83.830748,11.578915 96.205925,4.2092903 111.25082,0.36804102 c 10.74978,-0.877533 21.36481,-0.5105356 31.0625,4.74999998 z"
     fill="#ff7900"
     id="path14" />
  <path
     d="m 340.31332,11.118041 c 1.0725,0.763125 2.145,1.52625 3.25,2.3125 9.47215,9.256879 15.73684,21.839564 16.04248,35.13501 0.11496,14.298234 -2.5871,27.026496 -12.45654,37.947021 -1.90399,1.920803 -3.83455,3.786946 -5.83594,5.605469 -0.99,-0.495 -0.99,-0.495 -2,-1 -0.66617,-2.52236 -1.22869,-5.009812 -1.75,-7.5625 C 330.87175,53.454608 313.74775,27.742251 289.08676,9.2977285 286.31332,7.118041 286.31332,7.118041 285.31332,5.118041 c 19.45767,-7.443771 37.74986,-6.871482 55,6 z"
     fill="#ff7900"
     id="path16" />
  <path
     d="m 201.94613,119.48913 c 0.99547,-0.002 1.99093,-0.005 3.01657,-0.007 2.09266,9.8e-4 4.18535,0.0143 6.27786,0.0393 3.19572,0.0344 6.38868,0.0206 9.58447,0.001 2.04038,0.007 4.08075,0.0166 6.1211,0.0293 0.95013,-0.005 1.90026,-0.01 2.87918,-0.015 5.6626,0.10023 9.01644,0.76885 13.488,4.58144 4.77298,5.41797 5.40762,8.74438 5.34766,15.8789 -0.64164,5.76039 -3.30831,9.45742 -7.72266,13.0586 -3.19407,1.29284 -6.2061,1.72731 -9.625,2.0625 -0.0825,1.03125 -0.165,2.0625 -0.25,3.125 -1.01959,5.26791 -2.88458,8.52257 -7.25,11.6875 -5.01895,2.384 -10.16632,3.33403 -15.58984,1.46875 -5.42666,-2.50617 -8.55551,-5.43649 -11.16015,-10.90625 -0.75,-2.375 -0.75,-2.375 -0.75,-5.375 -1.79438,-0.34031 -1.79438,-0.34031 -3.625,-0.6875 -4.45959,-1.1366 -7.15686,-2.94468 -10.375,-6.3125 -2.76134,-4.87836 -3.92307,-9.44042 -3,-15 1.69623,-5.7608 4.54835,-8.95321 9.64935,-11.97873 4.24195,-1.84297 8.42087,-1.71412 12.98346,-1.65018 z"
     fill="#ffaa5a"
     id="path18" />
  <path
     d="m 301.31332,204.11804 c 7.91932,3.07781 12.07573,14.46295 15.58594,21.69922 5.38665,12.57383 8.57514,25.59447 8.41406,39.30078 -3.58383,-0.47549 -7.16697,-0.95603 -10.75,-1.4375 -1.01578,-0.13471 -2.03156,-0.26941 -3.07813,-0.4082 -0.97968,-0.13213 -1.95937,-0.26426 -2.96875,-0.40039 -1.3511,-0.18067 -1.3511,-0.18067 -2.72949,-0.36499 -2.20613,-0.34686 -4.3194,-0.8064 -6.47363,-1.38892 -0.15856,-1.19754 -0.31711,-2.39508 -0.48047,-3.6289 -2.07037,-14.77007 -5.93909,-27.90218 -12.51953,-41.3711 0.99902,-0.78246 1.99804,-1.56492 3.02734,-2.37109 1.30341,-1.0221 2.6068,-2.04424 3.91016,-3.06641 0.65935,-0.51627 1.31871,-1.03254 1.99804,-1.56445 0.62842,-0.49307 1.25684,-0.98613 1.9043,-1.49414 0.58129,-0.45561 1.16257,-0.91121 1.76148,-1.38062 1.37104,-1.05947 1.37104,-1.05947 2.39868,-2.12329 z"
     fill="#ff7900"
     id="path20" />
  <path
     d="m 124.31332,204.11804 c 3.81811,0.57272 5.71819,2.2742 8.5,4.875 2.74101,2.54389 5.4676,4.9334 8.5,7.125 -0.7595,3.76972 -2.30391,7.06468 -3.875,10.5625 -4.92937,11.32699 -6.82572,22.25486 -8.125,34.4375 -3.18744,0.47958 -6.37496,0.95859 -9.5625,1.4375 -0.89526,0.13471 -1.79051,0.26942 -2.71289,0.4082 -4.90571,0.73676 -9.81268,1.4603 -14.72461,2.1543 2.07043,-22.25717 7.79762,-43.23562 22,-61 z"
     fill="#ff7900"
     id="path22" />
  <path
     d="m 200.31332,358.11804 c 8.91,0 17.82,0 27,0 0.0606,2.87848 0.12117,5.75695 0.18359,8.72266 0.0619,2.80333 0.12524,5.60662 0.18872,8.40991 0.0432,1.94072 0.0849,3.88148 0.125,5.82227 0.0581,2.79771 0.12169,5.59525 0.18628,8.39282 0.0167,0.86069 0.0334,1.72139 0.0506,2.60817 0.11587,4.76521 0.486,9.34059 1.26577,14.04417 -9.99293,1.6315 -20.00012,1.42856 -30,0 0.33,-15.84 0.66,-31.68 1,-48 z"
     fill="#ff7900"
     id="path24" />
</svg>
