<?xml version="1.0" encoding="UTF-8" standalone="no"?>
<svg
   width="70"
   height="58"
   viewBox="0 0 70 58"
   version="1.1"
   id="svg14"
   xmlns="http://www.w3.org/2000/svg"
   xmlns:svg="http://www.w3.org/2000/svg">
  <defs
     id="defs18" />
  <!-- Soft shadow -->
  <ellipse
     cx="35"
     cy="48"
     rx="35"
     ry="8"
     fill="#000000"
     opacity="0.08"
     id="ellipse2" />
  <!-- White sticker border -->
  <path
     d="M 35,58 C 35,58 5,38 5,18 5,6 12,1 20,1 27,1 32,5 35,11 38,5 43,1 50,1 58,1 65,6 65,18 65,38 35,58 35,58 Z"
     fill="#ffffff"
     id="path4" />
  <!-- Cocoa outline -->
  <path
     d="M 35,53 C 35,53 8,35 8,18 8,7 14,3 21,3 27,3 32,7 35,12 38,7 43,3 49,3 56,3 62,7 62,18 62,35 35,53 35,53 Z"
     fill="none"
     stroke="#8b6f47"
     stroke-width="6"
     id="path6" />
  <!-- Pink fill -->
  <path
     d="M 35,50 C 35,50 11,33 11,18 11,8 16,5 22,5 27,5 32,8 35,13 38,8 43,5 48,5 54,5 59,8 59,18 59,33 35,50 35,50 Z"
     fill="#ffb6c1"
     id="path8" />
  <!-- Highlight -->
  <ellipse
     cx="25"
     cy="15"
     rx="12"
     ry="9"
     fill="#ffffff"
     opacity="0.5"
     id="ellipse10" />
  <!-- Tiny sparkle -->
  <circle
     cx="60"
     cy="13"
     r="3"
     fill="#ffffff"
     opacity="0.8"
     id="circle12" />
</svg>
