<?xml version="1.0" encoding="UTF-8" standalone="no"?>
<svg
   version="1.1"
   width="407.9415"
   height="512.85065"
   id="svg58"
   xmlns="http://www.w3.org/2000/svg"
   xmlns:svg="http://www.w3.org/2000/svg">
  <defs
     id="defs62" />
  <path
     d="m 68.040643,0.45516014 c 4.906247,2.27790046 7.516758,5.21745966 10,9.99999986 1.501018,6.204206 0.859348,10.319093 -2,16 -0.99,1.485 -0.99,1.485 -2,3 0.675236,2.771405 1.431683,5.322506 2.375,8 2.625,7.683594 2.625,7.683594 2.625,11 0.424102,-0.433125 0.848203,-0.86625 1.285156,-1.3125 3.189945,-3.028695 4.948882,-4.570658 9.402344,-5.25 5.125085,0.870298 5.125085,0.870298 7.3125,3.5625 1.665431,6.668781 1.665431,6.668781 0.09033,9.819824 -1.796373,2.38584 -3.740453,4.596275 -5.750488,6.803223 -2.732382,3.300756 -2.732382,3.300756 -3.166748,7.41626 0.762818,2.436373 1.730339,4.654677 2.826906,6.960693 0.407021,0.905002 0.814043,1.810005 1.233398,2.742432 1.359755,2.96175 2.77354,5.891917 4.204102,8.820068 0.477598,0.989355 0.955195,1.978711 1.447266,2.998047 0.933401,1.929541 1.875574,3.854868 2.827391,5.77539 0.81084,1.677318 1.5837,3.374063 2.30029,5.093753 1.55031,3.60292 2.39574,5.30577 6.04615,6.9375 1.11504,0.16758 2.23007,0.33515 3.3789,0.50781 4.13175,0.67985 7.72574,1.41818 11.5625,3.125 0.12671,-10.71255 0.12671,-10.71255 -4.54687,-19.839844 -2.7457,-1.909893 -5.5306,-3.541741 -8.45313,-5.160156 -1.42662,-2.853244 -1.31034,-4.834545 -1,-8 1.5,-2.875 1.5,-2.875 4,-5 2.69452,-0.280404 5.28283,-0.09389 8,0 -0.005,-0.936826 -0.0105,-1.873652 -0.0159,-2.838867 -0.0172,-3.533698 -0.0297,-7.06735 -0.0391,-10.601074 -0.005,-1.518562 -0.0118,-3.03712 -0.0205,-4.555664 -0.0124,-2.204611 -0.0192,-4.409127 -0.0222,-6.61377 -0.001,-0.719539 -0.002,-1.439077 -0.004,-2.18042 0.0229,-5.332518 0.42761,-10.558645 1.1227,-15.849853 -0.0317,-3.48222 -1.64998,-4.940619 -3.85742,-7.450196 -2.53276,-4.156178 -1.8556,-9.262984 -1.16402,-13.910156 2.26788,-4.8846524 5.11535,-7.7321255 10,-9.99999986 5.67693,-0.76420174 10.376,-0.79775329 15.5625,1.74999996 3.75532,3.4664477 6.11761,6.2503839 6.67578,11.4843749 0.18308,6.205238 -0.46661,9.770717 -4.23828,14.765625 -0.84691,0.373828 -1.69383,0.747656 -2.5664,1.132812 -2.80223,2.150027 -2.85169,2.617174 -3.32422,5.957032 -0.14323,1.613977 -0.26221,3.230253 -0.35938,4.847656 -0.12815,1.613446 -0.25829,3.226735 -0.39062,4.839844 -0.0701,1.07109 -0.0701,1.07109 -0.1416,2.163818 -0.22154,2.094443 -0.65983,4.030417 -1.21778,6.058838 0.72188,-0.474375 1.44375,-0.94875 2.1875,-1.4375 2.83495,-1.574972 4.58524,-2.405072 7.8125,-2.5625 5.63856,2.277108 5.63856,2.277108 7,5 0.84498,4.985349 0.84498,4.985349 0,8 -4.40116,4.850058 -10.35624,7.822366 -16,11 0.45362,17.112098 1.99982,34.00317 4,51 0.45021,-0.46761 0.90041,-0.93521 1.36426,-1.41699 8.25065,-8.43468 17.82299,-14.39683 29.96387,-14.65332 0.88171,0.0232 1.76343,0.0464 2.67187,0.0703 -1.70945,-9.566897 -4.07412,-18.101177 -11.13281,-25.121084 -2.29703,-2.311445 -2.78607,-3.634065 -2.86719,-6.878906 1.16016,-2.123047 1.16016,-2.123047 3,-4 2.46094,-0.517578 2.46094,-0.517578 5.375,-0.53125 1.06863,-0.0052 2.13727,-0.01031 3.23828,-0.01563 1.11762,0.01547 2.23524,0.03094 3.38672,0.04687 1.08668,-0.01547 2.17336,-0.03094 3.29297,-0.04687 11.03568,0.05274 20.54214,2.945089 28.70703,10.54688 2.77232,2.915471 5.42065,5.913013 8,9 0.47437,-0.66 0.94875,-1.32 1.4375,-2 5.51935,-6.461678 11.5844,-11.882832 19.5625,-15 1.39412,-0.551074 1.39412,-0.551074 2.81641,-1.113281 3.52186,-0.980935 6.29462,-0.851529 9.93359,-0.699219 4.54426,-0.271228 6.56269,-0.546347 9.92578,-3.683594 2.14946,-2.769157 4.0423,-5.715773 5.9834,-8.632812 2.37981,-3.32099 5.16972,-6.212213 8.02832,-9.121094 0.5228,-0.56042 1.04559,-1.12084 1.58423,-1.698242 3.68057,-3.715882 6.3284,-4.807235 11.72827,-5.051758 3.59089,3.811379 4.3998,8.37765 5.625,13.3125 0.21656,0.829512 0.43312,1.659023 0.65625,2.513672 2.35489,9.208775 2.96584,18.133654 3.28125,27.611328 0.0432,1.208496 0.0864,2.416992 0.13086,3.662109 0.10553,2.966697 0.20765,5.93347 0.30664,8.900391 3.75428,-2.080191 7.50792,-4.161527 11.26099,-6.243896 1.27521,-0.707342 2.5506,-1.414378 3.82617,-2.121094 1.83989,-1.019448 3.67915,-2.040015 5.51831,-3.060791 1.10497,-0.612708 2.20994,-1.225415 3.34839,-1.85669 1.93378,-1.090339 3.84862,-2.215571 5.73486,-3.38623 3.18408,-1.834035 5.64407,-2.204843 9.31128,-2.331299 4.56834,1.44664 7.61107,2.753007 10,7 0.99456,2.983677 1.1956,5.200419 1.31641,8.324219 0.0419,1.028027 0.0838,2.056054 0.12695,3.115234 0.0393,1.071857 0.0786,2.143707 0.11914,3.248047 0.0432,1.08346 0.0864,2.16691 0.13086,3.2832 0.10611,2.67631 0.20816,5.35271 0.30664,8.0293 0.92039,-0.51949 1.84078,-1.03898 2.78906,-1.57422 22.69428,-12.58846 22.69428,-12.58846 31.21094,-11.42578 1.8125,1.12891 1.8125,1.12891 3,3 2.31261,24.53536 -11.74283,51.43429 -25,71 -0.76513,1.14659 -1.52951,2.2937 -2.29297,3.44141 -0.56332,0.84433 -1.12664,1.68867 -1.70703,2.55859 0.92571,-0.21221 0.92571,-0.21221 1.87012,-0.42871 8.15827,-1.69356 16.06833,-1.87047 24.37988,-1.82129 1.33594,-0.007 2.67188,-0.0149 4.00781,-0.0234 1.28133,0.003 2.56266,0.005 3.88281,0.008 1.72525,0.003 1.72525,0.003 3.48536,0.007 3.72519,0.28573 6.86594,0.97367 10.37402,2.25879 2,3 2,3 1.83594,5.34375 -3.26851,10.38551 -12.69104,19.6417 -19.83594,27.65586 -0.62133,0.70641 -1.24266,1.41281 -1.88281,2.14062 -9.62885,10.27653 -22.43483,19.72995 -35.11719,25.85938 -0.66,0 -1.32,0 -2,0 0.0378,0.62083 0.0755,1.24167 0.1144,1.88132 1.98047,34.21795 0.56155,61.16441 -14.66811,92.01565 -3.86943,7.92818 -7.06043,16.14277 -10.33301,24.33014 -1.46939,3.65986 -2.96847,7.3072 -4.4682,10.95471 -3.5211,8.56487 -6.98669,17.15078 -10.41852,25.75177 -0.7798,1.94863 -1.55975,3.8972 -2.33984,5.84571 -1.47796,3.69173 -2.94501,7.38756 -4.40625,11.08593 -0.66752,1.6688 -1.33547,3.33743 -2.00391,5.00586 -0.44102,1.12964 -0.44102,1.12964 -0.89096,2.28209 -1.99151,4.93336 -3.91784,9.55269 -8.94498,11.99135 -0.7889,0.22043 -1.57781,0.44086 -2.39062,0.66797 -0.79922,0.23332 -1.59844,0.46664 -2.42188,0.70703 -0.90492,0.23783 -0.90492,0.23783 -1.82812,0.48047 0.58004,20.32141 2.0732,40.35389 7.37402,60.05103 1.35777,5.14775 2.03308,9.61536 1.62598,14.94897 -2.52639,2.52639 -4.11044,2.24761 -7.55737,2.28217 -0.77513,-0.002 -1.55026,-0.005 -2.34888,-0.008 -0.81638,0.005 -1.63276,0.0102 -2.47388,0.0155 -2.7067,0.0139 -5.41314,0.0129 -8.11987,0.0106 -1.87565,0.004 -3.7513,0.008 -5.62695,0.013 -3.93428,0.007 -7.86846,0.007 -11.80274,0.002 -5.05112,-0.006 -10.10189,0.0112 -15.15295,0.0344 -3.87409,0.0147 -7.74808,0.0156 -11.62219,0.0125 -1.8628,5.1e-4 -3.72561,0.006 -5.58838,0.0158 -2.60043,0.0123 -5.20013,0.006 -7.80054,-0.006 -0.77513,0.008 -1.55026,0.0153 -2.34888,0.0232 -2.14135,-0.0213 -2.14135,-0.0213 -5.55737,-0.39548 -2.62699,-3.94049 -1.84163,-6.58376 -1,-11 0.5412,-2.51095 1.12077,-5.01008 1.71387,-7.50928 4.60449,-19.52286 6.4674,-39.47396 7.28613,-59.49041 -0.85271,0.0309 -0.85271,0.0309 -1.72266,0.0625 -3.44686,-0.0921 -6.22184,-0.31085 -9.08203,-2.34766 -5.04203,-5.48833 -8.73751,-12.19103 -12.60937,-18.52734 -2.33645,-3.81219 -4.77502,-7.54249 -7.27344,-11.25 -4.22022,-6.27803 -8.37171,-12.59864 -12.5,-18.9375 -0.63768,-0.97912 -1.27537,-1.95825 -1.93237,-2.96704 -1.30838,-2.00956 -2.61656,-4.01925 -3.92456,-6.02905 -3.14872,-4.83669 -6.30231,-9.67019 -9.45557,-14.50391 -1.25263,-1.92055 -2.50524,-3.84113 -3.75781,-5.76172 -0.92861,-1.42385 -0.92861,-1.42385 -1.87598,-2.87646 -1.8489,-2.83528 -3.69744,-5.67078 -5.5459,-8.50635 -9.42711,-14.46033 -18.87136,-28.9094 -28.32031,-43.35547 -11.29118,-17.26258 -22.569767,-34.53328 -33.833981,-51.81348 -1.229069,-1.8854 -2.458236,-3.77073 -3.6875,-5.656 -1.230848,-1.88794 -2.461319,-3.77612 -3.691407,-5.66455 -3.047794,-4.67661 -6.101965,-9.34884 -9.171844,-14.01097 -1.540358,-2.33962 -3.078464,-4.68072 -4.616547,-7.02184 -1.09022,-1.65724 -2.18382,-3.31225 -3.277527,-4.96719 -11.170515,-17.00692 -11.170515,-17.00692 -10.846191,-22.05347 1.34529,-4.55904 2.796017,-6.48352 6.125,-9.8125 2.851952,-1.42598 5.324612,-1.13203 8.5,-1.125 1.165312,-0.003 2.330625,-0.005 3.53125,-0.008 2.96875,0.133 2.96875,0.133 4.96875,1.133 -6.759484,-13.18517 -13.911979,-26.17702 -22.324219,-38.39453 -1.675781,-2.60547 -1.675781,-2.60547 -1.675781,-4.60547 -1.970332,0.16049 -1.970332,0.16049 -3.980469,0.32422 -1.735616,0.12196 -3.471297,0.24301 -5.207031,0.36328 -0.864316,0.0728 -1.728633,0.14566 -2.619141,0.2207 -4.934684,0.32142 -8.215238,0.44809 -12.193359,-2.9082 -1.545869,-3.09174 -1.293595,-5.5943 -1,-9 1.867085,-2.36497 3.320614,-3.66031 6,-5 1.9996,-0.04 4.000472,-0.0435 6,0 -1.601479,-2.10626 -3.206049,-4.21004 -4.8125,-6.3125 -0.451816,-0.5949 -0.903633,-1.1898 -1.369141,-1.80273 -1.25609,-1.64117 -2.536439,-3.2637 -3.818359,-4.88477 -0.482109,-0.61488 -0.964219,-1.22977 -1.460937,-1.86328 -2.313883,-1.70899 -4.519651,-1.71962 -7.351563,-2.01172 C 9.505188,101.7231 6.801122,100.8906 3.040643,96.45516 0.22910497,91.685958 -0.51444303,87.091702 0.32579897,81.634847 1.980258,76.590104 5.737411,73.323981 10.040643,70.45516 c 5.424647,-1.423034 10.132806,-1.2594 15.277344,0.980469 3.866776,2.2885 6.007279,5.98248 7.722656,10.019531 0.09163,1.560367 0.130034,3.124453 0.125,4.6875 0.485459,5.483302 2.574527,7.804183 6.355469,11.632812 3.165319,3.366528 5.891612,6.973558 8.644531,10.679688 0.51635,0.69303 1.0327,1.38606 1.564697,2.1001 3.597148,4.86201 7.073294,9.78883 10.310303,14.8999 0.680625,-0.51562 1.36125,-1.03125 2.0625,-1.5625 3.863857,-1.89082 5.838317,-1.62999 9.9375,-0.4375 2.5,2.0625 2.5,2.0625 4,5 0.170389,3.83374 -0.62116,7.11604 -2.125,10.625 -1.186993,3.22184 -0.667519,5.03565 0.125,8.375 1.132483,2.39288 2.289141,4.64002 3.597656,6.92969 0.530583,0.95279 0.530583,0.95279 1.071884,1.92483 1.122698,2.0116 2.257566,4.01602 3.39296,6.02048 0.767093,1.36933 1.533378,2.73912 2.298828,4.10937 1.870248,3.34386 3.751437,6.68133 5.638672,10.01563 6.737255,-13.01256 11.165967,-27.67399 7.085937,-42.06641 -2.082959,-5.62698 -4.908944,-10.84274 -9.257812,-15.01953 -1.828125,-1.91406 -1.828125,-1.91406 -2.140625,-5.03906 0.3125,-2.875 0.3125,-2.875 1.3125,-4.875 -0.900481,-2.20053 -1.895036,-4.36307 -2.9375,-6.5 -3.0625,-6.306378 -3.0625,-6.306378 -3.0625,-8.5 -1.320645,-0.237832 -1.320645,-0.237832 -2.667969,-0.480469 -10.68085,-2.145653 -10.68085,-2.145653 -13.644531,-4.832031 -2.083558,-3.31826 -2.488323,-4.843549 -1.6875,-8.6875 2.550244,-3.101648 4.176992,-4.725664 8,-6 C 70.79419,73.817155 70.547738,73.179149 70.293817,72.52181 57.040643,38.07593 57.040643,38.07593 57.040643,31.45516 c -0.721875,-0.20625 -1.44375,-0.4125 -2.1875,-0.625 -3.79706,-1.85634 -5.310631,-3.969678 -7.8125,-7.375 -1.597077,-4.791232 -2.035845,-9.511394 -0.05859,-14.2617186 5.100598,-8.65023078 11.398764,-9.90480076 21.058594,-8.73828126 z"
     fill="#fa4a59"
     id="path2" />
  <path
     d="m 80.540643,179.08016 c 1.093286,0.17821 2.186572,0.35643 3.312988,0.54004 2.417404,0.39428 4.834211,0.79223 7.250489,1.19336 3.448185,0.56201 6.89846,1.09935 10.35254,1.62324 16.72337,2.53702 33.31856,5.41213 49.83398,9.08086 0.72524,0.15972 1.45048,0.31945 2.1977,0.48401 10.66212,2.36408 21.11064,5.26064 31.5523,8.45349 1.15895,0.35127 2.3179,0.70254 3.51196,1.06445 21.35411,6.51682 42.08449,13.84462 62.48804,22.93555 0.80615,0.35417 1.61229,0.70834 2.44287,1.07324 17.49436,7.71641 34.20294,17.29015 49.65772,28.5503 1.30976,0.94915 2.62877,1.88563 3.95507,2.81152 2.02189,1.41304 4.0162,2.85833 6.00684,4.31494 0.9222,0.63531 0.9222,0.63531 1.86304,1.28345 1.67212,1.26343 1.67212,1.26343 4.07446,3.96655 0.41715,6.77872 -3.44965,13.39204 -6.0625,19.5 -0.81051,1.92172 -1.61791,3.84474 -2.4254,5.76773 -0.57802,1.37571 -1.15704,2.75101 -1.73697,4.12592 -3.32286,7.88205 -6.56523,15.79686 -9.80635,23.7128 -1.03702,2.53256 -2.07515,5.06467 -3.11356,7.59667 -4.22385,10.30141 -8.43243,20.60892 -12.62622,30.92261 -2.71412,6.67007 -5.44189,13.33438 -8.17822,19.99536 -0.34634,0.84339 -0.69268,1.68678 -1.04951,2.55573 -1.75961,4.28429 -3.52109,8.5678 -5.28569,12.85004 -2.83624,6.89074 -5.66724,13.77879 -8.34058,20.73486 -0.3607,0.93401 -0.72139,1.86801 -1.09302,2.83032 -0.61593,1.60925 -1.22121,3.22266 -1.81201,4.84131 -1.9472,5.08618 -4.48474,9.07403 -9.46997,11.56665 -2.85617,0.19379 -5.69091,0.33154 -8.55078,0.42187 -1.27644,0.0418 -1.27644,0.0418 -2.57866,0.0845 -1.80304,0.0564 -3.60617,0.11005 -5.40938,0.16107 -2.75273,0.0819 -5.50413,0.1855 -8.2561,0.28955 -1.75192,0.0521 -3.50387,0.10296 -5.25586,0.15234 -1.2315,0.0513 -1.2315,0.0513 -2.48787,0.1037 -4.70368,0.10344 -7.60887,-0.19999 -11.46135,-3.21307 -5.10132,-5.19689 -8.7521,-11.69861 -12.53833,-17.87451 -4.27324,-6.92763 -8.8016,-13.68044 -13.33667,-20.43795 -5.81725,-8.67357 -11.5342,-17.39582 -17.07202,-26.25146 -3.31423,-5.29283 -6.72798,-10.50672 -10.21094,-15.6897 -3.34915,-4.98912 -6.63528,-10.01705 -9.90454,-15.05884 -5.04675,-7.78119 -10.11034,-15.55111 -15.1875,-23.3125 -0.7147,-1.09264 -1.42941,-2.18528 -2.16577,-3.31104 -1.46191,-2.23475 -2.92389,-4.46946 -4.38599,-6.7041 -12.02634,-18.38095 -24.037152,-36.77195 -36.032221,-55.17334 -1.229069,-1.8854 -2.458236,-3.77073 -3.6875,-5.656 -1.230848,-1.88794 -2.461319,-3.77612 -3.691407,-5.66455 -3.047794,-4.67661 -6.101965,-9.34884 -9.171844,-14.01097 -1.540358,-2.33962 -3.078464,-4.68072 -4.616547,-7.02184 -1.090219,-1.65724 -2.18382,-3.31225 -3.277527,-4.96719 -11.170515,-17.00692 -11.170515,-17.00692 -10.846191,-22.05347 1.34529,-4.55904 2.796017,-6.48352 6.125,-9.8125 7.216618,-3.60831 18.809883,-0.6807 26.5,0.625 z"
     fill="#fde6c8"
     id="path4" />
  <path
     d="m 384.04064,101.45516 c 1.64453,1.14844 1.64453,1.14844 3,3 2.31261,24.53536 -11.74283,51.43429 -25,71 -0.76513,1.14659 -1.5295,2.2937 -2.29297,3.44141 -0.56332,0.84433 -1.12664,1.68867 -1.70703,2.55859 0.61714,-0.14147 1.23428,-0.28295 1.87012,-0.42871 8.15827,-1.69356 16.06833,-1.87047 24.37988,-1.82129 1.33594,-0.007 2.67188,-0.0149 4.00782,-0.0234 1.92199,0.004 1.92199,0.004 3.88281,0.008 1.15016,0.002 2.30033,0.005 3.48535,0.007 3.7252,0.28578 6.86594,0.97372 10.37402,2.25884 2,3 2,3 1.83594,5.34375 -3.2685,10.3859 -12.69104,19.64209 -19.83594,27.65625 -0.62133,0.70641 -1.24265,1.41281 -1.88281,2.14063 -9.62884,10.27652 -22.43483,19.72994 -35.11719,25.85937 -0.66,0 -1.32,0 -2,0 0.0566,0.93125 0.0566,0.93125 0.1144,1.88132 1.98048,34.21795 0.56155,61.16441 -14.66811,92.01565 -3.86943,7.92818 -7.06042,16.14277 -10.33301,24.33014 -1.46939,3.65986 -2.96846,7.3072 -4.4682,10.95471 -3.52109,8.56487 -6.98668,17.15078 -10.41851,25.75177 -0.77981,1.94863 -1.55976,3.8972 -2.33985,5.84571 -1.47796,3.69173 -2.945,7.38756 -4.40625,11.08593 -0.66752,1.6688 -1.33546,3.33743 -2.0039,5.00586 -0.29402,0.75309 -0.58804,1.50618 -0.89097,2.28209 -1.9915,4.93336 -3.91784,9.55269 -8.94497,11.99135 -0.78891,0.22043 -1.57781,0.44086 -2.39063,0.66797 -0.79922,0.23332 -1.59844,0.46664 -2.42187,0.70703 -0.90492,0.23783 -0.90492,0.23783 -1.82813,0.48047 0.58004,20.32141 2.0732,40.35389 7.37403,60.05103 1.35776,5.14775 2.03307,9.61536 1.62597,14.94897 -2.52639,2.52639 -4.11043,2.24761 -7.55737,2.28217 -0.77513,-0.002 -1.55026,-0.005 -2.34888,-0.008 -0.81638,0.005 -1.63276,0.0102 -2.47388,0.0155 -2.7067,0.0139 -5.41314,0.0129 -8.11987,0.0106 -1.87565,0.004 -3.7513,0.008 -5.62695,0.013 -3.93428,0.007 -7.86846,0.007 -11.80274,0.002 -5.05112,-0.006 -10.10189,0.0111 -15.15295,0.0343 -3.87409,0.0147 -7.74808,0.0156 -11.62219,0.0125 -1.8628,5.1e-4 -3.72561,0.006 -5.58838,0.0158 -2.60043,0.0123 -5.20013,0.006 -7.80054,-0.006 -0.77513,0.008 -1.55026,0.0153 -2.34888,0.0232 -2.14135,-0.0213 -2.14135,-0.0213 -5.55737,-0.39548 -2.62699,-3.94049 -1.84163,-6.58376 -1,-11 0.54119,-2.51088 1.12074,-5.00992 1.71387,-7.50903 4.68837,-19.88057 6.44309,-40.1182 7.28613,-60.49097 0.97872,-0.0198 1.95744,-0.0396 2.96582,-0.0601 3.63812,-0.0762 7.27584,-0.16488 10.91357,-0.25732 1.57317,-0.0382 3.14642,-0.0731 4.71973,-0.1045 2.26415,-0.0458 4.52771,-0.10374 6.79151,-0.16406 1.05178,-0.0173 1.05178,-0.0173 2.12481,-0.035 3.60937,-0.1086 6.49937,-0.24 9.48456,-2.37906 3.6891,-6.33397 6.21904,-13.25639 8.94244,-20.04874 1.42114,-3.54382 2.85358,-7.08309 4.28412,-10.62314 0.3028,-0.75017 0.6056,-1.50035 0.91757,-2.27326 3.62367,-8.9708 7.30328,-17.91857 10.98087,-26.86736 1.36753,-3.32929 2.73467,-6.65873 4.10156,-9.98828 0.32823,-0.79951 0.65646,-1.59901 0.99463,-2.42275 3.19731,-7.79105 6.37342,-15.59065 9.54566,-23.39195 2.73949,-6.73184 5.49206,-13.45819 8.25268,-20.1814 0.35348,-0.86093 0.70695,-1.72186 1.07114,-2.60888 1.74997,-4.26167 3.50089,-8.52294 5.25308,-12.78369 1.58932,-3.8657 3.17166,-7.7342 4.75153,-11.60376 0.89932,-2.1936 1.80843,-4.38295 2.71869,-6.57202 0.55578,-1.3521 1.1113,-2.70431 1.6665,-4.05665 0.48751,-1.17659 0.97502,-2.35318 1.4773,-3.56542 1.26019,-3.11142 1.26019,-3.11142 1.04223,-7.0127 -1.51375,-1.69846 -1.51375,-1.69846 -3.61328,-3.12891 -0.75346,-0.56009 -1.50691,-1.12019 -2.2832,-1.69726 -0.79729,-0.57299 -1.59457,-1.14598 -2.41602,-1.73633 -1.55993,-1.14532 -3.11857,-2.29239 -4.67578,-3.44141 -0.6965,-0.50346 -1.39299,-1.00692 -2.11059,-1.52563 -1.78722,-1.38191 -3.34537,-2.8352 -4.90113,-4.47001 0.65227,-0.4009 1.30453,-0.8018 1.97657,-1.21484 7.78384,-5.06295 13.13522,-10.82527 16.02343,-19.78516 1.23484,-10.31582 0.0752,-19.01455 -3.5,-28.75 -4.35004,-11.90725 -5.67952,-21.46644 -0.14453,-33.42969 2.26606,-3.8862 5.0127,-7.17941 8.07031,-10.46875 1.97733,-2.95373 1.87036,-4.86818 1.57422,-8.35156 -2.64,-0.33 -5.28,-0.66 -8,-1 2.00962,-4.39987 4.91031,-7.25429 8.3125,-10.625 0.6252,-0.62028 1.25039,-1.24056 1.89453,-1.87964 5.87893,-5.73447 12.07275,-10.78621 18.79297,-15.49536 0.55124,-0.39026 1.10247,-0.78053 1.67041,-1.18262 9.95298,-6.9645 26.79115,-18.511764 39.32959,-16.81738 z"
     fill="#fdd295"
     id="path6" />
  <path
     d="m 68.040643,0.45516014 c 4.906247,2.27790046 7.516758,5.21745966 10,9.99999986 1.501018,6.204206 0.859348,10.319093 -2,16 -0.99,1.485 -0.99,1.485 -2,3 0.675236,2.771405 1.431683,5.322506 2.375,8 2.625,7.683594 2.625,7.683594 2.625,11 0.424102,-0.433125 0.848203,-0.86625 1.285156,-1.3125 3.189945,-3.028695 4.948882,-4.570658 9.402344,-5.25 5.125085,0.870298 5.125085,0.870298 7.3125,3.5625 1.665431,6.668781 1.665431,6.668781 0.09033,9.819824 -1.796373,2.38584 -3.740453,4.596275 -5.750488,6.803223 -2.732382,3.300756 -2.732382,3.300756 -3.166748,7.41626 0.762818,2.436373 1.730339,4.654677 2.826906,6.960693 0.407021,0.905002 0.814043,1.810005 1.233398,2.742432 1.359755,2.96175 2.77354,5.891917 4.204102,8.820068 0.477598,0.989355 0.955195,1.978711 1.447266,2.998047 0.933401,1.929541 1.875574,3.854868 2.827391,5.77539 0.81084,1.677318 1.5837,3.374063 2.30029,5.093753 1.55031,3.60292 2.39574,5.30577 6.04615,6.9375 1.11504,0.16758 2.23007,0.33515 3.3789,0.50781 4.13175,0.67985 7.72574,1.41818 11.5625,3.125 0.12671,-10.71255 0.12671,-10.71255 -4.54687,-19.839844 -2.7457,-1.909893 -5.5306,-3.541741 -8.45313,-5.160156 -1.42662,-2.853244 -1.31034,-4.834545 -1,-8 1.5,-2.875 1.5,-2.875 4,-5 2.69452,-0.280404 5.28283,-0.09389 8,0 -0.005,-0.936826 -0.0105,-1.873652 -0.0159,-2.838867 -0.0172,-3.533698 -0.0297,-7.06735 -0.0391,-10.601074 -0.005,-1.518562 -0.0118,-3.03712 -0.0205,-4.555664 -0.0124,-2.204611 -0.0192,-4.409127 -0.0222,-6.61377 -0.001,-0.719539 -0.002,-1.439077 -0.004,-2.18042 0.0229,-5.332518 0.42761,-10.558645 1.1227,-15.849853 -0.0317,-3.48222 -1.64998,-4.940619 -3.85742,-7.450196 -2.53276,-4.156178 -1.8556,-9.262984 -1.16402,-13.910156 2.26788,-4.8846524 5.11535,-7.7321255 10,-9.99999986 5.67693,-0.76420174 10.376,-0.79775329 15.5625,1.74999996 3.75532,3.4664477 6.11761,6.2503839 6.67578,11.4843749 0.18308,6.205238 -0.46661,9.770717 -4.23828,14.765625 -0.84691,0.373828 -1.69383,0.747656 -2.5664,1.132812 -2.80223,2.150027 -2.85169,2.617174 -3.32422,5.957032 -0.14323,1.613977 -0.26221,3.230253 -0.35938,4.847656 -0.12815,1.613446 -0.25829,3.226735 -0.39062,4.839844 -0.0701,1.07109 -0.0701,1.07109 -0.1416,2.163818 -0.22154,2.094443 -0.65983,4.030417 -1.21778,6.058838 0.72188,-0.474375 1.44375,-0.94875 2.1875,-1.4375 2.83495,-1.574972 4.58524,-2.405072 7.8125,-2.5625 5.63856,2.277108 5.63856,2.277108 7,5 0.84498,4.985349 0.84498,4.985349 0,8 -4.40116,4.850058 -10.35624,7.822366 -16,11 0.42099,14.647568 1.47302,29.14124 3.07154,43.70142 0.13366,1.26642 0.26732,2.53284 0.40502,3.83764 0.12456,1.12616 0.24912,2.25232 0.37745,3.4126 0.14599,3.04834 0.14599,3.04834 -0.39893,5.68726 -0.52753,2.73697 -0.16273,4.00556 0.78711,6.59936 2.19508,6.74882 3.31556,13.66543 4.49268,20.64575 0.38673,2.2834 0.78815,4.56387 1.19091,6.84449 1.62948,9.42507 2.65054,18.71221 3.07422,28.27148 -0.99121,-0.18792 -0.99121,-0.18792 -2.00244,-0.37964 -13.41687,-2.53506 -26.84399,-4.98499 -40.31006,-7.24536 -1.24773,-0.20955 -2.49546,-0.41911 -3.781,-0.63501 -5.85236,-0.96574 -11.701493,-1.86907 -17.586185,-2.61499 -1.020534,-0.12939 -2.041069,-0.25878 -3.092529,-0.39209 -1.887968,-0.23179 -3.777456,-0.45164 -5.668457,-0.65723 -0.82782,-0.0997 -1.65564,-0.19948 -2.508545,-0.30224 -0.715027,-0.0781 -1.430054,-0.1563 -2.166748,-0.23682 -3.192227,-0.90923 -4.475085,-2.86223 -6.151611,-5.62695 -0.417012,-0.79777 -0.834024,-1.59554 -1.263672,-2.41748 -0.475986,-0.89687 -0.951973,-1.79373 -1.442383,-2.71778 -0.503701,-0.9568 -1.007402,-1.91361 -1.526367,-2.89941 -4.371421,-8.18933 -9.004984,-16.07444 -14.197266,-23.77002 -3.302734,-4.92107 -3.302734,-4.92107 -3.302734,-7.10498 -1.970332,0.16049 -1.970332,0.16049 -3.980469,0.32422 -1.735616,0.12196 -3.471297,0.24301 -5.207031,0.36328 -0.864316,0.0728 -1.728633,0.14566 -2.619141,0.2207 -4.934684,0.32142 -8.215238,0.44809 -12.193359,-2.9082 -1.545869,-3.09174 -1.293595,-5.5943 -1,-9 1.867085,-2.36497 3.320614,-3.66031 6,-5 1.9996,-0.04 4.000472,-0.0435 6,0 -1.601479,-2.10626 -3.206049,-4.21004 -4.8125,-6.3125 -0.451816,-0.5949 -0.903633,-1.1898 -1.369141,-1.80273 -1.25609,-1.64117 -2.536439,-3.2637 -3.818359,-4.88477 -0.482109,-0.61488 -0.964219,-1.22977 -1.460937,-1.86328 -2.313883,-1.70899 -4.519651,-1.71962 -7.351563,-2.01172 C 9.505188,101.7231 6.801122,100.8906 3.040643,96.45516 0.22910497,91.685958 -0.51444303,87.091702 0.32579897,81.634847 1.980258,76.590104 5.737411,73.323981 10.040643,70.45516 c 5.424647,-1.423034 10.132806,-1.2594 15.277344,0.980469 3.866776,2.2885 6.007279,5.98248 7.722656,10.019531 0.09163,1.560367 0.130034,3.124453 0.125,4.6875 0.485459,5.483302 2.574527,7.804183 6.355469,11.632812 3.165319,3.366528 5.891612,6.973558 8.644531,10.679688 0.51635,0.69303 1.0327,1.38606 1.564697,2.1001 3.597148,4.86201 7.073294,9.78883 10.310303,14.8999 0.680625,-0.51562 1.36125,-1.03125 2.0625,-1.5625 3.863857,-1.89082 5.838317,-1.62999 9.9375,-0.4375 2.5,2.0625 2.5,2.0625 4,5 0.170389,3.83374 -0.62116,7.11604 -2.125,10.625 -1.186993,3.22184 -0.667519,5.03565 0.125,8.375 1.132483,2.39288 2.289141,4.64002 3.597656,6.92969 0.530583,0.95279 0.530583,0.95279 1.071884,1.92483 1.122698,2.0116 2.257566,4.01602 3.39296,6.02048 0.767093,1.36933 1.533378,2.73912 2.298828,4.10937 1.870248,3.34386 3.751437,6.68133 5.638672,10.01563 6.737255,-13.01256 11.165967,-27.67399 7.085937,-42.06641 -2.082959,-5.62698 -4.908944,-10.84274 -9.257812,-15.01953 -1.828125,-1.91406 -1.828125,-1.91406 -2.140625,-5.03906 0.3125,-2.875 0.3125,-2.875 1.3125,-4.875 -0.900481,-2.20053 -1.895036,-4.36307 -2.9375,-6.5 -3.0625,-6.306378 -3.0625,-6.306378 -3.0625,-8.5 -1.320645,-0.237832 -1.320645,-0.237832 -2.667969,-0.480469 -10.68085,-2.145653 -10.68085,-2.145653 -13.644531,-4.832031 -2.083558,-3.31826 -2.488323,-4.843549 -1.6875,-8.6875 2.550244,-3.101648 4.176992,-4.725664 8,-6 C 70.79419,73.817155 70.547738,73.179149 70.293817,72.52181 57.040643,38.07593 57.040643,38.07593 57.040643,31.45516 c -0.721875,-0.20625 -1.44375,-0.4125 -2.1875,-0.625 -3.79706,-1.85634 -5.310631,-3.969678 -7.8125,-7.375 -1.597077,-4.791232 -2.035845,-9.511394 -0.05859,-14.2617186 5.100598,-8.65023078 11.398764,-9.90480076 21.058594,-8.73828126 z"
     fill="#fa4a59"
     id="path8" />
  <path
     d="m 289.04064,44.45516 c 3.69751,3.5527 4.433,8.511378 5.625,13.3125 0.21657,0.829512 0.43313,1.659023 0.65625,2.513672 2.35489,9.208775 2.96585,18.133654 3.28125,27.611328 0.0432,1.208496 0.0864,2.416992 0.13086,3.662109 0.10554,2.966697 0.20765,5.93347 0.30664,8.900391 3.75428,-2.080191 7.50792,-4.161527 11.26099,-6.243896 1.27522,-0.707342 2.55061,-1.414378 3.82617,-2.121094 1.83989,-1.019448 3.67916,-2.040015 5.51831,-3.060791 1.10497,-0.612708 2.20994,-1.225415 3.34839,-1.85669 1.93378,-1.090339 3.84862,-2.215571 5.73486,-3.38623 3.18409,-1.834035 5.64407,-2.204843 9.31128,-2.331299 4.56834,1.44664 7.61107,2.753007 10,7 2.80858,8.425743 2.89893,19.37285 1,28 -2.72555,4.56764 -7.43552,6.57202 -12.04101,8.88379 -3.40083,1.93776 -6.09582,4.59719 -8.89649,7.30371 -0.5381,0.50942 -1.0762,1.01884 -1.63061,1.5437 -1.48646,1.41336 -2.95959,2.84069 -4.43189,4.2688 -1.15435,1.11182 -1.15435,1.11182 -2.33203,2.24609 -3.23577,3.0676 -3.23577,3.0676 -5.66797,6.75391 0.92813,-0.0619 1.85625,-0.12375 2.8125,-0.1875 3.1875,0.1875 3.1875,0.1875 5.125,1.375 1.0625,1.8125 1.0625,1.8125 0.83203,4.17188 -0.86606,2.97188 -1.97847,4.40028 -4.01953,6.70312 -6.46439,8.07716 -9.71179,16.51434 -9.39062,26.91797 0.59275,4.98896 2.42751,9.57465 4.14062,14.26953 4.05607,11.16427 6.58049,23.14194 1.375,34.4375 -1.39062,2.26953 -1.39062,2.26953 -2.875,4.3125 -0.46922,0.66387 -0.93844,1.32773 -1.42187,2.01172 -3.28747,4.21537 -6.69216,6.81674 -11.57813,8.98828 -6.37869,-0.74611 -12.3516,-4.79032 -17,-9 -2.17638,-4.844 -2.66995,-9.69999 -3.125,-14.9375 -0.16568,-1.40103 -0.33735,-2.80136 -0.51489,-4.20093 -0.34115,-2.73259 -0.65557,-5.46587 -0.94556,-8.20434 -0.50468,-4.45235 -1.25003,-8.82322 -2.10205,-13.21973 -0.89897,-4.92937 -1.63052,-9.84067 -2.25,-14.8125 -1.03926,-7.47238 -2.79533,-14.80487 -7.375,-20.9375 -1.6875,-2.6875 -1.6875,-2.6875 -1.5,-5.875 0.56327,-1.94978 1.17071,-3.88713 1.8125,-5.8125 1.06739,-9.59435 0.006,-17.00238 -3.5,-25.9375 -4.16117,-10.74153 -5.84867,-21.30227 -2,-32.5 2.18711,-4.651556 5.42925,-8.376061 8.89063,-12.140625 1.99292,-2.999057 1.91546,-4.891617 1.60937,-8.421875 -2.43388,-1.216939 -4.41839,-1.319599 -7.125,-1.5625 -0.91008,-0.08379 -1.82015,-0.167578 -2.75781,-0.253906 -0.69867,-0.06059 -1.39734,-0.121172 -2.11719,-0.183594 18.13743,-29.446654 18.13743,-29.446654 30,-28 z"
     fill="#e12434"
     id="path10" />
  <path
     d="m 384.04064,101.45516 c 1.64453,1.14844 1.64453,1.14844 3,3 2.31261,24.53536 -11.74283,51.43429 -25,71 -0.76513,1.14659 -1.5295,2.2937 -2.29297,3.44141 -0.56332,0.84433 -1.12664,1.68867 -1.70703,2.55859 0.61714,-0.14147 1.23428,-0.28295 1.87012,-0.42871 8.15827,-1.69356 16.06833,-1.87047 24.37988,-1.82129 1.33594,-0.007 2.67188,-0.0149 4.00782,-0.0234 1.92199,0.004 1.92199,0.004 3.88281,0.008 1.15016,0.002 2.30033,0.005 3.48535,0.007 3.7252,0.28578 6.86594,0.97372 10.37402,2.25884 2,3 2,3 1.83594,5.34375 -3.2685,10.3859 -12.69104,19.64209 -19.83594,27.65625 -0.62133,0.70641 -1.24265,1.41281 -1.88281,2.14063 -12.2843,13.1106 -28.36218,23.61174 -45.11719,29.85937 -1.86267,0.75146 -3.72524,1.50321 -5.58545,2.26074 -3.12938,1.26907 -6.27155,2.50426 -9.41455,3.73926 -0.83789,0.33516 -1.67578,0.67031 -2.53906,1.01562 -6.25829,2.32126 -14.45368,4.81261 -20.78125,1.92579 -1.92969,-1.37891 -1.92969,-1.37891 -4.67969,-3.94141 2.12322,-2.24851 4.32123,-3.95352 6.875,-5.6875 5.62188,-4.1544 8.96046,-9.70644 11.125,-16.3125 1.23484,-10.31582 0.0752,-19.01455 -3.5,-28.75 -4.35004,-11.90725 -5.67952,-21.46644 -0.14453,-33.42969 2.26606,-3.8862 5.0127,-7.17941 8.07031,-10.46875 1.97733,-2.95373 1.87036,-4.86818 1.57422,-8.35156 -2.64,-0.33 -5.28,-0.66 -8,-1 2.00962,-4.39987 4.91031,-7.25429 8.3125,-10.625 0.6252,-0.62028 1.25039,-1.24056 1.89453,-1.87964 5.87893,-5.73447 12.07275,-10.78621 18.79297,-15.49536 0.55124,-0.39026 1.10247,-0.78053 1.67041,-1.18262 9.95298,-6.9645 26.79115,-18.511764 39.32959,-16.81738 z"
     fill="#20b59f"
     id="path12" />
  <path
     d="m 215.04064,434.45516 c 8.84883,-0.0231 17.69764,-0.0409 26.54649,-0.0518 4.10846,-0.005 8.21689,-0.0123 12.32534,-0.0236 3.96164,-0.0108 7.92326,-0.0168 11.88492,-0.0194 1.51474,-0.002 3.02947,-0.005 4.5442,-0.0109 2.11447,-0.007 4.22886,-0.008 6.34334,-0.008 1.20579,-0.002 2.41158,-0.004 3.65392,-0.007 2.70179,0.12025 2.70179,0.12025 3.70179,1.12025 0.12168,1.35183 0.17973,2.70947 0.21094,4.06641 0.0261,0.86568 0.0522,1.73137 0.0791,2.62329 0.028,0.94802 0.0561,1.89605 0.085,2.8728 0.66849,17.12086 2.53896,33.91556 6.99902,50.48853 1.35777,5.14775 2.03308,9.61536 1.62598,14.94897 -2.52639,2.52639 -4.11043,2.24761 -7.55737,2.28217 -0.77513,-0.003 -1.55026,-0.005 -2.34888,-0.008 -0.81638,0.005 -1.63276,0.0102 -2.47387,0.0155 -2.7067,0.0139 -5.41315,0.0129 -8.11988,0.0106 -1.87565,0.004 -3.7513,0.008 -5.62695,0.013 -3.93427,0.007 -7.86846,0.007 -11.80274,0.002 -5.05112,-0.006 -10.10188,0.0111 -15.15295,0.0344 -3.87409,0.0147 -7.74808,0.0156 -11.62219,0.0125 -1.8628,5.1e-4 -3.72561,0.006 -5.58838,0.0158 -2.60042,0.0123 -5.20013,0.006 -7.80054,-0.006 -0.77513,0.008 -1.55026,0.0153 -2.34887,0.0232 -2.14136,-0.0213 -2.14136,-0.0213 -5.55738,-0.3955 -2.62699,-3.94049 -1.84163,-6.58376 -1,-11 0.54121,-2.51095 1.12078,-5.01007 1.71387,-7.50928 2.29634,-9.73655 3.95043,-19.42049 5.03613,-29.36572 0.17282,-1.58228 0.17282,-1.58228 0.34912,-3.19653 0.91204,-8.95965 1.41839,-17.93759 1.90088,-26.92847 z"
     fill="#16988b"
     id="path14" />
  <path
     d="m 371.04064,179.45516 c 4.52078,-0.0583 9.04146,-0.0937 13.5625,-0.125 1.27682,-0.0168 2.55364,-0.0335 3.86914,-0.0508 12.39813,-0.0644 12.39813,-0.0644 17.56836,2.17578 2,3 2,3 1.83594,5.34375 -3.2685,10.3859 -12.69104,19.64209 -19.83594,27.65625 -0.62133,0.70641 -1.24265,1.41281 -1.88281,2.14063 -12.2843,13.1106 -28.36218,23.61174 -45.11719,29.85937 -1.86267,0.75146 -3.72524,1.50321 -5.58545,2.26074 -3.12938,1.26907 -6.27155,2.50427 -9.41455,3.73926 -1.25683,0.50273 -1.25683,0.50273 -2.53906,1.01563 -6.25829,2.32125 -14.45368,4.8126 -20.78125,1.92578 -1.92969,-1.37891 -1.92969,-1.37891 -4.67969,-3.94141 2.12322,-2.2485 4.32123,-3.95352 6.875,-5.6875 5.6311,-4.16122 8.94115,-9.70446 11.125,-16.3125 0.28868,-2.62806 0.50404,-5.17911 0.625,-7.8125 0.0387,-0.69287 0.0773,-1.38574 0.11719,-2.09961 0.0935,-1.69556 0.17674,-3.39169 0.25781,-5.08789 0.33,0 0.66,0 1,0 0,2.97 0,5.94 0,9 18.72329,-10.39963 42.98321,-23.96642 53,-44 z"
     fill="#20b59e"
     id="path16" />
  <path
     d="m 181.91564,108.64266 c 0.93586,0.0316 1.87172,0.0632 2.83594,0.0957 0.89719,0.0445 1.79438,0.0889 2.71875,0.13477 1.21019,0.0584 1.21019,0.0584 2.44482,0.11792 2.58737,0.56496 3.55173,1.35834 5.12549,3.46411 -0.18104,4.02829 -1.6332,6.11006 -4.25,9.0625 -6.16726,7.69319 -9.73807,16.06429 -9.38672,26.02344 1.31621,8.09104 4.14881,15.82453 6.88062,23.5332 3.49965,11.01989 1.27923,18.9292 -3.2439,29.38086 -11.20518,-2.0328 -22.06657,-4.83143 -33,-8 -0.13575,-0.87511 -0.27151,-1.75022 -0.41137,-2.65185 -1.20416,-7.75494 -2.41391,-15.50896 -3.63294,-23.26157 -0.48251,-3.06877 -0.9636,-6.13773 -1.4386,-9.20767 -1.75576,-11.59833 -1.75576,-11.59833 -5.06396,-22.83594 -0.84455,-3.80772 0.29161,-6.57329 2.10937,-9.91797 10.02006,-12.84623 22.47453,-16.82112 38.3125,-15.9375 z"
     fill="#e12334"
     id="path18" />
  <path
     d="m 289.04064,44.45516 c 3.69751,3.5527 4.433,8.511378 5.625,13.3125 0.21657,0.829512 0.43313,1.659023 0.65625,2.513672 5.45298,21.323847 4.31779,45.984188 -1.28125,67.173828 -0.20319,0.78987 -0.40637,1.57975 -0.61572,2.39356 -5.45864,20.867 -5.45864,20.867 -15.05615,27.73144 -3.80398,3.0636 -6.52842,6.90499 -9.32813,10.875 -3.51561,-3.28265 -4.79934,-5.08379 -5,-10 0.31582,-0.7425 0.63164,-1.485 0.95703,-2.25 3.65697,-9.64233 1.12935,-19.51179 -2.45703,-28.6875 -4.15981,-10.74276 -5.84908,-21.30109 -2,-32.5 2.18711,-4.651556 5.42925,-8.376061 8.89063,-12.140625 1.99292,-2.999057 1.91546,-4.891617 1.60937,-8.421875 -2.43388,-1.216939 -4.41839,-1.319599 -7.125,-1.5625 -0.91008,-0.08379 -1.82015,-0.167578 -2.75781,-0.253906 -0.69867,-0.06059 -1.39734,-0.121172 -2.11719,-0.183594 18.13743,-29.446654 18.13743,-29.446654 30,-28 z"
     fill="#148b80"
     id="path20" />
  <path
     d="m 257.41564,72.14266 c 1.61842,-0.0048 1.61842,-0.0048 3.26953,-0.0098 7.954,0.05461 7.954,0.05461 11.35547,2.322265 0.53631,3.595225 0.41866,5.369983 -1.60937,8.421875 -0.70641,0.768281 -1.41281,1.536563 -2.14063,2.328125 -7.10828,8.50725 -9.30628,16.52023 -8.85547,27.55078 0.55505,6.13399 2.87569,11.60285 5.09253,17.29712 3.31923,8.84354 4.78808,18.36971 0.97388,27.35132 -0.72316,1.51014 -0.72316,1.51014 -1.46094,3.05078 -2.91721,-1.34889 -5.25949,-2.91525 -7.75,-4.9375 -8.2837,-6.22413 -17.26436,-6.95732 -27.25,-8.0625 -2.36783,-11.1901 -4.38132,-22.32153 -5.84375,-33.66675 -0.82276,-5.97917 -2.21435,-11.37552 -4.58203,-16.95825 -0.76328,-3.156956 -0.0849,-4.540266 1.42578,-7.375 9.24378,-13.289525 21.79177,-17.550339 37.375,-17.3125 z"
     fill="#e12334"
     id="path22" />
  <path
     d="m 26.290643,72.08016 c 3.851859,3.326605 6.533506,6.592818 6.933594,11.734375 0.02191,0.830156 0.04383,1.660313 0.06641,2.515625 0.381328,5.419724 2.500763,7.668565 6.230469,11.445312 3.165319,3.366528 5.891612,6.973558 8.644531,10.679688 0.774525,1.03955 0.774525,1.03955 1.564697,2.1001 3.597147,4.86201 7.073294,9.78883 10.310303,14.8999 0.680625,-0.51562 1.36125,-1.03125 2.0625,-1.5625 3.863857,-1.89082 5.838317,-1.62999 9.9375,-0.4375 2.5,2.0625 2.5,2.0625 4,5 0.170389,3.83375 -0.62116,7.11604 -2.125,10.625 -1.185995,3.21913 -0.666904,5.04 0.125,8.375 1.12139,2.33664 2.265133,4.52246 3.5625,6.75391 0.35135,0.62333 0.7027,1.24667 1.064697,1.8889 1.115822,1.97816 2.243083,3.94943 3.372803,5.91969 1.128952,1.97422 2.255042,3.94983 3.372803,5.93041 0.693321,1.22814 1.39305,2.4527 2.100097,3.673 1.842339,3.25929 3.032543,6.11403 3.5271,9.83409 -2.939722,-0.25472 -5.875641,-0.528 -8.8125,-0.8125 -1.250068,-0.10538 -1.250068,-0.10538 -2.525391,-0.21289 -1.203662,-0.12085 -1.203662,-0.12085 -2.43164,-0.24414 -0.738391,-0.0681 -1.476782,-0.13616 -2.237549,-0.2063 -3.290449,-0.86544 -4.542746,-2.7818 -6.260498,-5.6145 -0.417012,-0.79777 -0.834024,-1.59554 -1.263672,-2.41748 -0.475986,-0.89687 -0.951973,-1.79373 -1.442383,-2.71778 -0.503701,-0.9568 -1.007402,-1.91361 -1.526367,-2.89941 -4.371421,-8.18933 -9.004984,-16.07444 -14.197266,-23.77002 -3.302734,-4.92107 -3.302734,-4.92107 -3.302734,-7.10498 -1.970332,0.16049 -1.970332,0.16049 -3.980469,0.32422 -1.735616,0.12196 -3.471297,0.24301 -5.207031,0.36328 -0.864316,0.0728 -1.728633,0.14566 -2.619141,0.2207 -4.934684,0.32142 -8.215238,0.44809 -12.193359,-2.9082 -1.545869,-3.09174 -1.293595,-5.5943 -1,-9 1.867085,-2.36497 3.320614,-3.66031 6,-5 1.9996,-0.04 4.000472,-0.0435 6,0 -1.601479,-2.10626 -3.206049,-4.21004 -4.8125,-6.3125 -0.677725,-0.89235 -0.677725,-0.89235 -1.369141,-1.80273 -1.25609,-1.64117 -2.536439,-3.2637 -3.818359,-4.88477 -0.482109,-0.61488 -0.964219,-1.22977 -1.460938,-1.86328 -2.313882,-1.70899 -4.51965,-1.71962 -7.351562,-2.01172 C 9.505188,101.7231 6.801122,100.8906 3.040643,96.45516 0.22910497,91.685958 -0.51444303,87.091702 0.32579897,81.634848 1.980258,76.590104 5.737411,73.323981 10.040643,70.45516 c 5.706807,-1.793568 11.017494,-0.991253 16.25,1.625 z"
     fill="#20b69f"
     id="path24" />
  <path
     d="m 140.04064,0.45516014 c 4.03654,1.98286226 6.65001,4.16579856 9,7.99999996 1.62142,4.8642579 1.95779,10.1942939 0.28125,15.1054689 -1.5615,2.952996 -2.76357,4.666027 -5.84765,6.027343 -2.80223,2.150027 -2.85169,2.617174 -3.32422,5.957032 -0.14323,1.613977 -0.2622,3.230253 -0.35938,4.847656 -0.12815,1.613446 -0.25829,3.226735 -0.39062,4.839844 -0.0467,0.71406 -0.0935,1.42812 -0.1416,2.163818 -0.22154,2.094443 -0.65983,4.030417 -1.21778,6.058838 0.72188,-0.474375 1.44375,-0.94875 2.1875,-1.4375 2.83495,-1.574972 4.58524,-2.405072 7.8125,-2.5625 5.63856,2.277108 5.63856,2.277108 7,5 0.84498,4.985349 0.84498,4.985349 0,8 -4.40116,4.850058 -10.35624,7.822366 -16,11 0.30102,10.473211 0.72136,20.903318 1.83985,31.32422 0.074,0.69964 0.14805,1.39929 0.22432,2.12013 0.3715,3.48073 0.76389,6.95756 1.18315,10.43285 0.21015,1.9093 0.21015,1.9093 0.42456,3.85718 0.13503,1.13663 0.27006,2.27326 0.40918,3.44433 -0.0811,2.82129 -0.0811,2.82129 -1.56055,4.71289 -0.50177,0.36577 -1.00353,0.73154 -1.52051,1.1084 -0.4125,-0.56848 -0.825,-1.13695 -1.25,-1.72266 -3.66148,-4.89559 -7.41085,-8.99846 -12.14844,-12.86718 -1.60156,-1.41016 -1.60156,-1.41016 -2.60156,-3.41016 -0.049,-1.19883 -0.098,-2.39766 -0.14843,-3.63281 -0.19821,-8.80509 -0.19821,-8.80509 -4.39454,-16.199221 -2.74652,-1.915108 -5.53141,-3.547845 -8.45703,-5.167969 -1.42662,-2.853244 -1.31034,-4.834545 -1,-8 1.5,-2.875 1.5,-2.875 4,-5 2.69452,-0.280404 5.28283,-0.09389 8,0 -0.008,-1.405239 -0.008,-1.405239 -0.0159,-2.838867 -0.0172,-3.533698 -0.0297,-7.06735 -0.0391,-10.601074 -0.005,-1.518562 -0.0118,-3.03712 -0.0205,-4.555664 -0.0124,-2.204611 -0.0192,-4.409127 -0.0222,-6.61377 -0.001,-0.719539 -0.002,-1.439077 -0.004,-2.18042 0.0229,-5.332518 0.42761,-10.558645 1.1227,-15.849853 -0.0317,-3.48222 -1.64998,-4.940619 -3.85742,-7.450196 -2.53276,-4.156178 -1.8556,-9.262984 -1.16402,-13.910156 4.47014,-9.62799493 12.15391,-11.35063026 22,-9.99999986 z"
     fill="#20b59e"
     id="path26" />
  <path
     d="m 68.040643,0.45516014 c 4.906247,2.27790046 7.516758,5.21745966 10,9.99999986 1.501018,6.204206 0.859348,10.319093 -2,16 -0.66,0.99 -1.32,1.98 -2,3 0.675236,2.771405 1.431683,5.322506 2.375,8 2.625,7.683594 2.625,7.683594 2.625,11 0.424102,-0.433125 0.848203,-0.86625 1.285156,-1.3125 3.189945,-3.028695 4.948882,-4.570658 9.402344,-5.25 5.125085,0.870298 5.125085,0.870298 7.3125,3.5625 1.665431,6.668781 1.665431,6.668781 0.09033,9.819824 -1.796373,2.38584 -3.740453,4.596275 -5.750488,6.803223 -2.732382,3.300756 -2.732382,3.300756 -3.166748,7.41626 0.762818,2.436373 1.730339,4.654677 2.826906,6.960693 0.610532,1.357504 0.610532,1.357504 1.233398,2.742432 1.359755,2.96175 2.77354,5.891917 4.204102,8.820068 0.477598,0.989355 0.955195,1.978711 1.447266,2.998047 2.112011,4.365984 4.251571,8.712788 6.462891,13.029293 1.65234,3.41016 1.65234,3.41016 1.65234,5.41016 -6.269997,0 -12.539997,0 -18.999997,0 -6,-12.75 -6,-12.75 -6,-15 -0.88043,-0.158555 -1.760859,-0.317109 -2.667969,-0.480469 -10.68085,-2.145653 -10.68085,-2.145653 -13.644531,-4.832031 -2.083558,-3.31826 -2.488323,-4.843549 -1.6875,-8.6875 2.550244,-3.101648 4.176992,-4.725664 8,-6 C 70.79419,73.817155 70.547738,73.179149 70.293817,72.52181 57.040643,38.07593 57.040643,38.07593 57.040643,31.45516 c -1.082812,-0.309375 -1.082812,-0.309375 -2.1875,-0.625 -3.79706,-1.85634 -5.310631,-3.969678 -7.8125,-7.375 -1.597077,-4.791232 -2.035845,-9.511394 -0.05859,-14.2617186 5.100598,-8.65023078 11.398764,-9.90480076 21.058594,-8.73828126 z"
     fill="#20b59e"
     id="path28" />
  <path
     d="m 344.04064,83.45516 c 6.51621,6.353299 5.83879,14.967057 6.00464,23.52808 -0.25387,9.51245 -0.25387,9.51245 -3.6687,12.92505 -2.91464,2.18745 -6.12727,3.79945 -9.37695,5.43066 -3.40083,1.93776 -6.09582,4.59719 -8.89649,7.30371 -0.80715,0.76413 -0.80715,0.76413 -1.63061,1.5437 -1.48646,1.41336 -2.95959,2.84069 -4.43189,4.2688 -1.15435,1.11182 -1.15435,1.11182 -2.33203,2.24609 -3.23577,3.0676 -3.23577,3.0676 -5.66797,6.75391 -1.26715,0.0374 -2.53429,0.0748 -3.83984,0.11328 -1.69925,0.0657 -3.39846,0.13216 -5.09766,0.19922 -0.8308,0.0226 -1.6616,0.0451 -2.51758,0.0684 -5.95222,0.25476 -11.00071,1.44923 -16.54492,3.61914 0.17886,-0.592 0.35772,-1.184 0.54199,-1.79394 0.49553,-1.64552 0.98574,-3.29264 1.47364,-4.94043 0.69603,-2.30906 1.4173,-4.61058 2.15625,-6.90625 0.42385,-1.34834 0.84564,-2.69733 1.26562,-4.04688 0.22486,-0.70641 0.44972,-1.41281 0.6814,-2.14062 1.30467,-4.35488 2.08529,-8.49955 2.49438,-13.03125 1.45048,-14.8695 1.45048,-14.8695 4.96485,-18.991704 3.95619,-3.180689 8.41835,-5.172824 13.07763,-7.116211 3.89667,-1.71661 7.49534,-3.932281 11.15674,-6.095215 7.36509,-4.259005 11.97789,-6.031194 20.1875,-2.9375 z"
     fill="#fbb34d"
     id="path30" />
  <path
     d="m 215.04064,434.45516 c 8.84883,-0.0231 17.69764,-0.0409 26.54649,-0.0518 4.10846,-0.005 8.21689,-0.0123 12.32534,-0.0236 3.96164,-0.0108 7.92326,-0.0168 11.88492,-0.0194 1.51474,-0.002 3.02947,-0.005 4.5442,-0.0109 2.11447,-0.007 4.22886,-0.008 6.34334,-0.008 1.20579,-0.002 2.41158,-0.004 3.65392,-0.007 2.70179,0.12025 2.70179,0.12025 3.70179,1.12025 0.1455,1.49195 0.22723,2.99023 0.28125,4.48828 0.0561,1.40282 0.0561,1.40282 0.11328,2.83399 0.0522,1.48016 0.0522,1.48016 0.10547,2.99023 0.29225,7.92866 0.84015,15.76925 1.5,23.6875 -24.09,0 -48.18,0 -73,0 1.14969,-20.69444 1.14969,-20.69444 1.5625,-27.625 0.0773,-1.30244 0.15453,-2.60487 0.23413,-3.94678 0.0671,-1.13131 0.13423,-2.26262 0.20337,-3.42822 z"
     fill="#117d72"
     id="path32" />
  <path
     d="m 349.04064,242.45516 c 0,18.48 0,36.96 0,56 -3.58524,-3.58524 -7.08202,-7.19879 -10.5,-10.9375 -0.46019,-0.49951 -0.92039,-0.99902 -1.39453,-1.51367 -2.31337,-2.52516 -4.56263,-5.08018 -6.73437,-7.72852 -5.64308,-6.71218 -12.87448,-11.8556 -19.79859,-17.17651 -1.5414,-1.19266 -3.05939,-2.41546 -4.57251,-3.6438 0,-0.33 0,-0.66 0,-1 0.72961,-0.14695 1.45922,-0.29391 2.21094,-0.44531 12.7283,-2.73423 25.59279,-6.35258 37.03906,-12.67188 1.75,-0.88281 1.75,-0.88281 3.75,-0.88281 z"
     fill="#fab44e"
     id="path34" />
  <path
     d="m 371.04064,179.45516 c -1.51773,5.11748 -4.66415,8.33682 -8.25,12.125 -0.62261,0.66016 -1.24523,1.32032 -1.88672,2.00049 -11.77564,12.22286 -25.98719,21.79479 -40.86328,29.87451 -0.66,0 -1.32,0 -2,0 -0.10957,-0.76184 -0.21914,-1.52367 -0.33203,-2.30859 -0.89386,-5.821 -1.97505,-11.24655 -4.08203,-16.75391 -0.58594,-1.9375 -0.58594,-1.9375 -0.58594,-5.9375 9.4022,-4.69068 18.76418,-9.18261 28.75,-12.5 0.72494,-0.2425 1.44988,-0.48501 2.19678,-0.73486 3.38834,-1.08323 6.45693,-1.81939 10.00635,-2.29639 1.5082,-0.23203 1.5082,-0.23203 3.04687,-0.46875 0.33,-0.66 0.66,-1.32 1,-2 2.4336,-0.41406 2.4336,-0.41406 5.4375,-0.625 1.48307,-0.11215 1.48307,-0.11215 2.9961,-0.22656 1.5204,-0.0879 3.04346,-0.14844 4.5664,-0.14844 z"
     fill="#27d0b2"
     id="path36" />
  <path
     d="m 189.04064,176.45516 c 0.99,0.31711 1.98,0.63422 3,0.96094 6.85293,1.71323 13.97581,1.51105 21,1.66406 1.45706,0.0383 2.91409,0.0773 4.3711,0.11719 3.54277,0.0952 7.08571,0.17954 10.6289,0.25781 0.50969,8.26517 -0.7852,14.90473 -3.5,22.6875 -0.33386,0.99967 -0.66773,1.99934 -1.01172,3.0293 -0.8149,2.43308 -1.64433,4.86007 -2.48828,7.2832 -7.93367,-2.32127 -15.76123,-4.90209 -23.58398,-7.57031 -0.88623,-0.29906 -1.77246,-0.59813 -2.68555,-0.90625 -0.78995,-0.26893 -1.57991,-0.53786 -2.3938,-0.81494 -2.42781,-0.73613 -4.84273,-1.25054 -7.33667,-1.7085 0.52023,-3.22543 1.40625,-6.08711 2.5625,-9.125 1.83777,-5.29027 1.71708,-10.33522 1.4375,-15.875 z"
     fill="#19998c"
     id="path38" />
  <path
     d="m 350.04064,114.45516 c 1.83199,5.32362 -0.58033,9.95062 -2.3125,15.0625 -0.36029,1.06823 -0.72058,2.13646 -1.09179,3.23706 -5.04994,14.44113 -11.98979,27.7539 -21.59571,39.70044 -1.13115,1.4502 -1.13115,1.4502 -2.28515,2.92969 -3.90255,4.91239 -7.6721,9.32058 -12.71485,13.07031 -0.62555,-12.05933 0.40615,-19.90414 8.25,-29.25 1.05961,-1.15242 1.05961,-1.15242 2.14063,-2.32812 1.99292,-2.99906 1.91546,-4.89162 1.60937,-8.42188 -3.96,-0.495 -3.96,-0.495 -8,-1 2.00978,-4.40022 4.9108,-7.25344 8.3125,-10.625 0.62012,-0.61738 1.24024,-1.23476 1.87915,-1.87085 5.87721,-5.74755 12.14266,-10.70013 18.80835,-15.50415 0.78117,-0.56848 1.56235,-1.13695 2.36719,-1.72266 1.53447,-1.10617 3.08145,-2.19499 4.63281,-3.27734 z"
     fill="#29cfb1"
     id="path40" />
  <path
     d="m 29.040643,74.45516 c 3.344167,4.488225 4.784899,8.091037 4.515625,13.726563 -1.252393,5.521914 -5.231413,9.131916 -9.328125,12.773437 -4.781243,2.25 -9.146675,2.56131 -14.179687,0.80469 -4.380111,-2.237055 -6.866825,-4.940369 -9.007813,-9.30469 -1.21329703,-4.585427 -1.24510003,-8.096192 0,-12.6875 2.841621,-4.706435 6.240188,-8.251034 11.4375,-10.25 6.748732,-0.164603 11.34065,0.42772 16.5625,4.9375 z"
     fill="#fa4a58"
     id="path42" />
  <path
     d="m 140.04064,0.45516014 c 4.03654,1.98286226 6.65001,4.16579856 9,7.99999996 1.62142,4.8642579 1.95779,10.1942939 0.28125,15.1054689 -2.44774,4.628988 -5.34601,6.818276 -10.15625,8.582031 -6.75889,0.993955 -11.52931,0.17243 -17.125,-3.6875 -3.74407,-3.744075 -4.29712,-6.877293 -4.5,-12 0.24844,-6.6912537 2.18563,-9.8013432 7,-14.3749999 5.15816,-2.39485706 9.90692,-2.39222697 15.5,-1.62499996 z"
     fill="#fa4a59"
     id="path44" />
  <path
     d="m 68.040643,0.45516014 c 4.906247,2.27790046 7.516758,5.21745966 10,9.99999986 1.265489,5.23069 1.366404,9.190291 -0.800781,14.171875 -2.73167,4.16424 -6.772953,6.158093 -11.476563,7.457031 -5.317742,0.863565 -9.007413,0.182104 -13.722656,-2.628906 -4.050993,-3.851592 -6.116986,-7.580649 -6.375,-13.1875 0.0594,-5.201464 1.875232,-8.9930001 5.375,-12.8124999 5.364652,-3.95529409 10.567359,-3.77680466 17,-2.99999996 z"
     fill="#fa4a59"
     id="path46" />
  <path
     d="m 241.04064,469.45516 c 5.28,0 10.56,0 16,0 0,14.19 0,28.38 0,43 -4.95,0 -9.9,0 -15,0 -0.33,-14.19 -0.66,-28.38 -1,-43 z"
     fill="#138a7f"
     id="path48" />
  <path
     d="m 307.04064,96.45516 c 0,16.5 0,33 0,50 -4.95,0.99 -9.9,1.98 -15,3 -1.98,0.66 -3.96,1.32 -6,2 0.15856,-0.52465 0.31711,-1.0493 0.48047,-1.58984 0.51606,-1.71355 1.02709,-3.42861 1.53516,-5.14453 0.69603,-2.30906 1.4173,-4.61058 2.15625,-6.90625 0.42498,-1.34799 0.84672,-2.697 1.26562,-4.04688 0.21834,-0.70278 0.43667,-1.40556 0.66162,-2.12964 1.28805,-4.38308 2.18434,-8.69367 2.83057,-13.21802 0.15026,-1.02971 0.30051,-2.05943 0.45532,-3.12036 0.27983,-2.02562 0.52898,-4.05579 0.74365,-6.08935 0.94984,-6.88497 0.94984,-6.88497 3.75562,-9.534427 5.06482,-3.220703 5.06482,-3.220703 7.11572,-3.220703 z"
     fill="#fcd294"
     id="path50" />
  <path
     d="m 242.04064,434.45516 c 4.95,0 9.9,0 15,0 0,11.55 0,23.1 0,35 -4.95,0 -9.9,0 -15,0 0,-11.55 0,-23.1 0,-35 z"
     fill="#0c6e65"
     id="path52" />
  <path
     d="m 272.04064,79.45516 c 0.33,0 0.66,0 1,0 0.49086,18.66007 -0.0893,36.42508 -7,54 -6.04828,-6.04828 -7.52498,-16.52007 -7.5625,-24.75 0.26646,-12.559708 5.06389,-20.182517 13.5625,-29.25 z"
     fill="#22b39d"
     id="path54" />
  <path
     d="m 269.04064,58.45516 c 0.66,0.33 1.32,0.66 2,1 1.72679,5.56408 2.25183,11.208038 2,17 -0.55172,-0.48082 -1.10343,-0.961641 -1.67187,-1.457031 -2.68956,-1.782511 -4.38634,-2.020483 -7.57813,-2.230469 -0.89203,-0.06574 -1.78406,-0.131484 -2.70312,-0.199219 -0.67547,-0.03738 -1.35094,-0.07477 -2.04688,-0.113281 3.15423,-4.825961 6.28919,-9.575574 10,-14 z"
     fill="#20b39d"
     id="path56" />
</svg>
