<svg width="400" height="400" viewBox="0 0 400 400" xmlns="http://www.w3.org/2000/svg">
  <!-- Soft shadow -->
  <ellipse cx="200" cy="235" rx="70" ry="12" fill="#000000" opacity="0.08"/>
  
  <!-- White sticker border -->
  <circle cx="200" cy="200" r="72" fill="#FFFFFF"/>
  
  <!-- Plate - cocoa outline -->
  <circle cx="200" cy="205" r="60" fill="none" stroke="#8B6F47" stroke-width="8"/>
  
  <!-- Plate - cream fill -->
  <circle cx="200" cy="205" r="55" fill="#F5E6D3"/>
  
  <!-- Plate inner rim -->
  <circle cx="200" cy="205" r="45" fill="none" stroke="#8B6F47" stroke-width="2" opacity="0.3"/>
  
  <!-- Fork (left side) -->
  <!-- Fork handle -->
  <rect x="130" y="180" width="6" height="50" rx="3" fill="#8B6F47"/>
  <rect x="131.5" y="182" width="3" height="46" rx="1.5" fill="#D4A574"/>
  
  <!-- Fork prongs -->
  <rect x="127" y="175" width="3" height="12" rx="1.5" fill="#8B6F47"/>
  <rect x="132" y="175" width="3" height="12" rx="1.5" fill="#8B6F47"/>
  <rect x="137" y="175" width="3" height="12" rx="1.5" fill="#8B6F47"/>
  
  <!-- Heart on plate (center) -->
  <path d="M 200 220 C 200 220 188 212 188 206 C 188 202 190 200 193 200 C 196 200 198 202 200 205 C 202 202 204 200 207 200 C 210 200 212 202 212 206 C 212 212 200 220 200 220 Z" fill="#8B6F47"/>
  <path d="M 200 218 C 200 218 190 211 190 206 C 190 203 191.5 201.5 193.5 201.5 C 195.5 201.5 197.5 203 200 206 C 202.5 203 204.5 201.5 206.5 201.5 C 208.5 201.5 210 203 210 206 C 210 211 200 218 200 218 Z" fill="#FFB6C1"/>
  
  <!-- Gentle highlight on plate -->
  <ellipse cx="185" cy="190" rx="25" ry="15" fill="#FFFFFF" opacity="0.4"/>
  
  <!-- Subtle shading on plate -->
  <ellipse cx="200" cy="230" rx="48" ry="20" fill="#000000" opacity="0.04"/>
  
  <!-- Tiny sparkles -->
  <circle cx="250" cy="175" r="3" fill="#FFFFFF" opacity="0.8"/>
  <circle cx="257" cy="182" r="2" fill="#FFFFFF" opacity="0.6"/>
  
  <!-- Tiny heart accent -->
  <path d="M 145 155 C 145 153 146 152 147 152 C 148 152 148 153 148 153 C 148 153 149 152 149 152 C 150 152 151 153 151 155 C 151 157 148 159 148 159 C 148 159 145 157 145 155 Z" fill="#FFB6C1" opacity="0.5"/>
</svg>