<?xml version="1.0" encoding="UTF-8" standalone="no"?>
<svg
   width="145"
   height="144"
   viewBox="0 0 145 144"
   version="1.1"
   id="svg36"
   xmlns="http://www.w3.org/2000/svg"
   xmlns:svg="http://www.w3.org/2000/svg">
  <defs
     id="defs40" />
  <!-- Soft shadow -->
  <ellipse
     cx="73"
     cy="107"
     rx="70"
     ry="12"
     fill="#000000"
     opacity="0.08"
     id="ellipse2" />
  <!-- White sticker border -->
  <circle
     cx="73"
     cy="72"
     r="72"
     fill="#ffffff"
     id="circle4" />
  <!-- Plate - cocoa outline -->
  <circle
     cx="73"
     cy="77"
     r="60"
     fill="none"
     stroke="#8b6f47"
     stroke-width="8"
     id="circle6" />
  <!-- Plate - cream fill -->
  <circle
     cx="73"
     cy="77"
     r="55"
     fill="#f5e6d3"
     id="circle8" />
  <!-- Plate inner rim -->
  <circle
     cx="73"
     cy="77"
     r="45"
     fill="none"
     stroke="#8b6f47"
     stroke-width="2"
     opacity="0.3"
     id="circle10" />
  <!-- Fork (left side) -->
  <!-- Fork handle -->
  <rect
     x="3"
     y="52"
     width="6"
     height="50"
     rx="3"
     fill="#8b6f47"
     id="rect12" />
  <rect
     x="4.5"
     y="54"
     width="3"
     height="46"
     rx="1.5"
     fill="#d4a574"
     id="rect14" />
  <!-- Fork prongs -->
  <rect
     x="0"
     y="47"
     width="3"
     height="12"
     rx="1.5"
     fill="#8b6f47"
     id="rect16" />
  <rect
     x="5"
     y="47"
     width="3"
     height="12"
     rx="1.5"
     fill="#8b6f47"
     id="rect18" />
  <rect
     x="10"
     y="47"
     width="3"
     height="12"
     rx="1.5"
     fill="#8b6f47"
     id="rect20" />
  <!-- Heart on plate (center) -->
  <path
     d="m 73,92 c 0,0 -12,-8 -12,-14 0,-4 2,-6 5,-6 3,0 5,2 7,5 2,-3 4,-5 7,-5 3,0 5,2 5,6 0,6 -12,14 -12,14 z"
     fill="#8b6f47"
     id="path22" />
  <path
     d="m 73,90 c 0,0 -10,-7 -10,-12 0,-3 1.5,-4.5 3.5,-4.5 2,0 4,1.5 6.5,4.5 2.5,-3 4.5,-4.5 6.5,-4.5 2,0 3.5,1.5 3.5,4.5 0,5 -10,12 -10,12 z"
     fill="#ffb6c1"
     id="path24" />
  <!-- Gentle highlight on plate -->
  <ellipse
     cx="58"
     cy="62"
     rx="25"
     ry="15"
     fill="#ffffff"
     opacity="0.4"
     id="ellipse26" />
  <!-- Subtle shading on plate -->
  <ellipse
     cx="73"
     cy="102"
     rx="48"
     ry="20"
     fill="#000000"
     opacity="0.04"
     id="ellipse28" />
  <!-- Tiny sparkles -->
  <circle
     cx="123"
     cy="47"
     r="3"
     fill="#ffffff"
     opacity="0.8"
     id="circle30" />
  <circle
     cx="130"
     cy="54"
     r="2"
     fill="#ffffff"
     opacity="0.6"
     id="circle32" />
  <!-- Tiny heart accent -->
  <path
     d="m 18,27 c 0,-2 1,-3 2,-3 1,0 1,1 1,1 0,0 1,-1 1,-1 1,0 2,1 2,3 0,2 -3,4 -3,4 0,0 -3,-2 -3,-4 z"
     fill="#ffb6c1"
     opacity="0.5"
     id="path34" />
</svg>
