<?xml version="1.0" encoding="UTF-8" standalone="no"?>
<svg
   width="104"
   height="172"
   viewBox="0 0 104 172"
   version="1.1"
   id="svg42"
   xmlns="http://www.w3.org/2000/svg"
   xmlns:svg="http://www.w3.org/2000/svg">
  <defs
     id="defs46" />
  <!-- Soft shadow -->
  <ellipse
     cx="52"
     cy="162"
     rx="50"
     ry="10"
     fill="#000000"
     opacity="0.08"
     id="ellipse2" />
  <!-- White sticker border -->
  <g
     id="g8"
     transform="translate(-148,-108)">
    <!-- Pin top circle border -->
    <circle
       cx="200"
       cy="160"
       r="52"
       fill="#ffffff"
       id="circle4" />
    <!-- Pin bottom border -->
    <path
       d="m 200,212 -25,43 25,-15 25,15 z"
       fill="#ffffff"
       id="path6" />
  </g>
  <!-- Location pin - cocoa outline -->
  <circle
     cx="52"
     cy="52"
     r="48"
     fill="none"
     stroke="#8b6f47"
     stroke-width="8"
     id="circle10" />
  <!-- Location pin - baby pink fill -->
  <circle
     cx="52"
     cy="52"
     r="43"
     fill="#ffd4e5"
     id="circle12" />
  <!-- Pin bottom point - cocoa outline -->
  <path
     d="m 52,100 -22,40 22,-13 22,13 z"
     fill="#8b6f47"
     id="path14" />
  <!-- Pin bottom point - baby pink fill -->
  <path
     d="m 52,104 -18,33 18,-11 18,11 z"
     fill="#ffd4e5"
     id="path16" />
  <!-- Inner circle outline -->
  <circle
     cx="52"
     cy="52"
     r="32"
     fill="none"
     stroke="#8b6f47"
     stroke-width="4"
     id="circle18" />
  <!-- Heart inside pin -->
  <path
     d="m 52,67 c 0,0 -12,-8 -12,-14 0,-4 2,-6 5,-6 3,0 5,2 7,5 2,-3 4,-5 7,-5 3,0 5,2 5,6 0,6 -12,14 -12,14 z"
     fill="#8b6f47"
     id="path20" />
  <path
     d="m 52,65 c 0,0 -10,-7 -10,-12 0,-3 1.5,-4.5 3.5,-4.5 2,0 4,1.5 6.5,4.5 2.5,-3 4.5,-4.5 6.5,-4.5 2,0 3.5,1.5 3.5,4.5 0,5 -10,12 -10,12 z"
     fill="#ffffff"
     id="path22" />
  <!-- Floating hearts around pin -->
  <path
     d="m 7,67 c 0,-2 1,-3 2,-3 1,0 1,1 1,1 0,0 1,-1 1,-1 1,0 2,1 2,3 0,2 -3,4 -3,4 0,0 -3,-2 -3,-4 z"
     fill="#ffb6c1"
     opacity="0.6"
     id="path24" />
  <path
     d="m 97,67 c 0,-2 1,-3 2,-3 1,0 1,1 1,1 0,0 1,-1 1,-1 1,0 2,1 2,3 0,2 -3,4 -3,4 0,0 -3,-2 -3,-4 z"
     fill="#ffb6c1"
     opacity="0.6"
     id="path26" />
  <path
     d="m 72,22 c 0,-1.5 0.5,-2 1,-2 0.5,0 1,0.5 1,1 0,-0.5 0.5,-1 1,-1 0.5,0 1,0.5 1,2 0,1.5 -2,3 -2,3 0,0 -2,-1.5 -2,-3 z"
     fill="#ffb6c1"
     opacity="0.6"
     id="path28" />
  <!-- Sparkles -->
  <circle
     cx="87"
     cy="37"
     r="4"
     fill="#ffffff"
     opacity="0.9"
     id="circle30" />
  <circle
     cx="95"
     cy="44"
     r="3"
     fill="#fff4d4"
     opacity="0.8"
     id="circle32" />
  <circle
     cx="17"
     cy="37"
     r="3.5"
     fill="#ffffff"
     opacity="0.8"
     id="circle34" />
  <circle
     cx="9"
     cy="44"
     r="2.5"
     fill="#fff4d4"
     opacity="0.7"
     id="circle36" />
  <!-- Gentle highlight on pin -->
  <ellipse
     cx="37"
     cy="37"
     rx="20"
     ry="15"
     fill="#ffffff"
     opacity="0.4"
     id="ellipse38" />
  <!-- Subtle shading -->
  <ellipse
     cx="52"
     cy="72"
     rx="35"
     ry="15"
     fill="#000000"
     opacity="0.04"
     id="ellipse40" />
</svg>
