<svg width="400" height="400" viewBox="0 0 400 400" xmlns="http://www.w3.org/2000/svg">
  <!-- Soft shadow -->
  <ellipse cx="200" cy="255" rx="60" ry="12" fill="#000000" opacity="0.08"/>
  
  <!-- White sticker border -->
  <rect x="145" y="160" width="110" height="100" rx="8" fill="#FFFFFF"/>
  
  <!-- Box lid top - cocoa outline -->
  <rect x="150" y="165" width="100" height="35" rx="6" fill="none" stroke="#8B6F47" stroke-width="6"/>
  
  <!-- Box lid - soft pink fill -->
  <rect x="153" y="168" width="94" height="29" rx="5" fill="#FFD4E5"/>
  
  <!-- Box bottom - cocoa outline -->
  <rect x="150" y="200" width="100" height="55" rx="6" fill="none" stroke="#8B6F47" stroke-width="6"/>
  
  <!-- Box bottom - cream fill -->
  <rect x="153" y="203" width="94" height="49" rx="5" fill="#F5E6D3"/>
  
  <!-- Ribbon on lid (horizontal) -->
  <rect x="153" y="180" width="94" height="8" fill="#FFDAB9"/>
  
  <!-- Ribbon bow on top -->
  <ellipse cx="185" cy="175" rx="8" ry="6" fill="#8B6F47"/>
  <ellipse cx="185" cy="175" rx="6" ry="4" fill="#FFDAB9"/>
  
  <ellipse cx="215" cy="175" rx="8" ry="6" fill="#8B6F47"/>
  <ellipse cx="215" cy="175" rx="6" ry="4" fill="#FFDAB9"/>
  
  <!-- Bow center knot -->
  <circle cx="200" cy="175" r="5" fill="#8B6F47"/>
  <circle cx="200" cy="175" r="3" fill="#FFDAB9"/>
  
  <!-- Gentle highlight on lid -->
  <rect x="160" y="172" width="35" height="8" rx="4" fill="#FFFFFF" opacity="0.4"/>
  
  <!-- Subtle shading on box bottom -->
  <rect x="153" y="230" width="94" height="22" rx="5" fill="#000000" opacity="0.04"/>
  
  <!-- Tiny sparkles -->
  <circle cx="260" cy="175" r="3" fill="#FFFFFF" opacity="0.8"/>
  <circle cx="267" cy="182" r="2" fill="#FFFFFF" opacity="0.6"/>
  
  <!-- Tiny heart accent -->
  <path d="M 135 185 C 135 183 136 182 137 182 C 138 182 138 183 138 183 C 138 183 139 182 139 182 C 140 182 141 183 141 185 C 141 187 138 189 138 189 C 138 189 135 187 135 185 Z" fill="#FFB6C1" opacity="0.5"/>
</svg>