<?xml version="1.0" encoding="UTF-8" standalone="no"?>
<svg
   width="175"
   height="50"
   viewBox="0 0 175 50"
   version="1.1"
   id="svg20"
   xmlns="http://www.w3.org/2000/svg"
   xmlns:svg="http://www.w3.org/2000/svg">
  <defs
     id="defs24" />
  <!-- Shadow -->
  <ellipse
     cx="87.5"
     cy="37"
     rx="70"
     ry="10"
     fill="#000000"
     opacity="0.08"
     id="ellipse2" />
  <!-- White sticker border -->
  <rect
     x="7.5"
     y="0"
     width="160"
     height="50"
     rx="25"
     fill="#ffffff"
     id="rect4" />
  <!-- Button - cocoa outline -->
  <rect
     x="13.5"
     y="6"
     width="148"
     height="38"
     rx="19"
     fill="none"
     stroke="#8b6f47"
     stroke-width="6"
     id="rect6" />
  <!-- Button - baby pink fill -->
  <rect
     x="17.5"
     y="10"
     width="140"
     height="30"
     rx="15"
     fill="#ffd4e5"
     id="rect8" />
  <!-- Gentle highlight -->
  <rect
     x="22.5"
     y="13"
     width="50"
     height="15"
     rx="7"
     fill="#ffffff"
     opacity="0.4"
     id="rect10" />
  <!-- Subtle shading at bottom -->
  <rect
     x="17.5"
     y="30"
     width="140"
     height="10"
     rx="5"
     fill="#000000"
     opacity="0.04"
     id="rect12" />
  <!-- Tiny sparkles -->
  <circle
     cx="172.5"
     cy="15"
     r="2.5"
     fill="#ffffff"
     opacity="0.8"
     id="circle14" />
  <circle
     cx="2.5"
     cy="15"
     r="2.5"
     fill="#ffffff"
     opacity="0.8"
     id="circle16" />
  <!-- Tiny heart -->
  <path
     d="m 112.5,25 c 0,-1.5 0.5,-2 1,-2 0.5,0 1,0.5 1,1 0,-0.5 0.5,-1 1,-1 0.5,0 1,0.5 1,2 0,1.5 -2,3 -2,3 0,0 -2,-1.5 -2,-3 z"
     fill="#ffb6c1"
     opacity="0.6"
     id="path18" />
</svg>
