<?xml version="1.0" encoding="UTF-8" standalone="no"?>
<svg
   width="300.39114"
   height="245.31621"
   viewBox="0 0 300.39114 245.31621"
   version="1.1"
   id="svg80"
   xmlns="http://www.w3.org/2000/svg"
   xmlns:svg="http://www.w3.org/2000/svg">
  <defs
     id="defs84" />
  <!-- Center large heart (baby pink) -->
  <g
     id="g10"
     transform="translate(-49.868939,-82.633253)">
    <path
       d="m 200,220 c 0,0 -30,-20 -30,-40 0,-15 8,-22 16,-22 7,0 12,4 14,10 2,-6 7,-10 14,-10 8,0 16,7 16,22 0,20 -30,40 -30,40 z"
       fill="#ffffff"
       id="path2" />
    <path
       d="m 200,215 c 0,0 -27,-18 -27,-35 0,-13 6,-19 13,-19 6,0 11,4 14,9 3,-5 8,-9 14,-9 7,0 13,6 13,19 0,17 -27,35 -27,35 z"
       fill="none"
       stroke="#8b6f47"
       stroke-width="4"
       id="path4" />
    <path
       d="m 200,212 c 0,0 -24,-16 -24,-32 0,-11 5,-16 11,-16 5,0 10,3 13,7 3,-4 8,-7 13,-7 6,0 11,5 11,16 0,16 -24,32 -24,32 z"
       fill="#ffd4e5"
       id="path6" />
    <ellipse
       cx="192"
       cy="175"
       rx="8"
       ry="5"
       fill="#ffffff"
       opacity="0.5"
       id="ellipse8" />
  </g>
  <!-- Confetti hearts scattered around -->
  <!-- Top left hearts -->
  <g
     transform="rotate(-15,-238.76541,248.07947)"
     id="g16">
    <path
       d="m 100,110 c 0,0 -12,-8 -12,-16 0,-6 3,-9 7,-9 3,0 5,2 5,4 0,-2 2,-4 5,-4 4,0 7,3 7,9 0,8 -12,16 -12,16 z"
       fill="#ffdab9"
       id="path12" />
    <path
       d="m 100,110 c 0,0 -12,-8 -12,-16 0,-6 3,-9 7,-9 3,0 5,2 5,4 0,-2 2,-4 5,-4 4,0 7,3 7,9 0,8 -12,16 -12,16 z"
       fill="none"
       stroke="#8b6f47"
       stroke-width="2"
       id="path14" />
  </g>
  <g
     transform="rotate(20,289.38376,-32.727031)"
     id="g22">
    <path
       d="m 80,158 c 0,0 -8,-5 -8,-10 0,-4 2,-6 4,-6 2,0 3,1 4,3 1,-2 2,-3 4,-3 2,0 4,2 4,6 0,5 -8,10 -8,10 z"
       fill="#d4e5ff"
       id="path18" />
    <path
       d="m 80,158 c 0,0 -8,-5 -8,-10 0,-4 2,-6 4,-6 2,0 3,1 4,3 1,-2 2,-3 4,-3 2,0 4,2 4,6 0,5 -8,10 -8,10 z"
       fill="none"
       stroke="#8b6f47"
       stroke-width="2"
       id="path20" />
  </g>
  <!-- Top right hearts -->
  <g
     transform="rotate(25,461.43279,-53.788751)"
     id="g28">
    <path
       d="m 300,110 c 0,0 -12,-8 -12,-16 0,-6 3,-9 7,-9 3,0 5,2 5,4 0,-2 2,-4 5,-4 4,0 7,3 7,9 0,8 -12,16 -12,16 z"
       fill="#e6d4ff"
       id="path24" />
    <path
       d="m 300,110 c 0,0 -12,-8 -12,-16 0,-6 3,-9 7,-9 3,0 5,2 5,4 0,-2 2,-4 5,-4 4,0 7,3 7,9 0,8 -12,16 -12,16 z"
       fill="none"
       stroke="#8b6f47"
       stroke-width="2"
       id="path26" />
  </g>
  <g
     transform="rotate(-10,-177.18567,403.68567)"
     id="g34">
    <path
       d="m 320,168 c 0,0 -8,-5 -8,-10 0,-4 2,-6 4,-6 2,0 3,1 4,3 1,-2 2,-3 4,-3 2,0 4,2 4,6 0,5 -8,10 -8,10 z"
       fill="#ffd4e5"
       id="path30" />
    <path
       d="m 320,168 c 0,0 -8,-5 -8,-10 0,-4 2,-6 4,-6 2,0 3,1 4,3 1,-2 2,-3 4,-3 2,0 4,2 4,6 0,5 -8,10 -8,10 z"
       fill="none"
       stroke="#8b6f47"
       stroke-width="2"
       id="path32" />
  </g>
  <!-- Left side hearts -->
  <g
     transform="rotate(-30,-119.13022,251.74008)"
     id="g40">
    <path
       d="m 60,208 c 0,0 -8,-5 -8,-10 0,-4 2,-6 4,-6 2,0 3,1 4,3 1,-2 2,-3 4,-3 2,0 4,2 4,6 0,5 -8,10 -8,10 z"
       fill="#ffdab9"
       id="path36" />
    <path
       d="m 60,208 c 0,0 -8,-5 -8,-10 0,-4 2,-6 4,-6 2,0 3,1 4,3 1,-2 2,-3 4,-3 2,0 4,2 4,6 0,5 -8,10 -8,10 z"
       fill="none"
       stroke="#8b6f47"
       stroke-width="2"
       id="path38" />
  </g>
  <!-- Right side hearts -->
  <g
     transform="rotate(35,446.10513,99.601339)"
     id="g46">
    <path
       d="m 340,228 c 0,0 -8,-5 -8,-10 0,-4 2,-6 4,-6 2,0 3,1 4,3 1,-2 2,-3 4,-3 2,0 4,2 4,6 0,5 -8,10 -8,10 z"
       fill="#d4e5ff"
       id="path42" />
    <path
       d="m 340,228 c 0,0 -8,-5 -8,-10 0,-4 2,-6 4,-6 2,0 3,1 4,3 1,-2 2,-3 4,-3 2,0 4,2 4,6 0,5 -8,10 -8,10 z"
       fill="none"
       stroke="#8b6f47"
       stroke-width="2"
       id="path44" />
  </g>
  <!-- Bottom left hearts -->
  <g
     transform="rotate(15,388.89647,69.287272)"
     id="g52">
    <path
       d="m 100,310 c 0,0 -12,-8 -12,-16 0,-6 3,-9 7,-9 3,0 5,2 5,4 0,-2 2,-4 5,-4 4,0 7,3 7,9 0,8 -12,16 -12,16 z"
       fill="#e6d4ff"
       id="path48" />
    <path
       d="m 100,310 c 0,0 -12,-8 -12,-16 0,-6 3,-9 7,-9 3,0 5,2 5,4 0,-2 2,-4 5,-4 4,0 7,3 7,9 0,8 -12,16 -12,16 z"
       fill="none"
       stroke="#8b6f47"
       stroke-width="2"
       id="path50" />
  </g>
  <g
     transform="rotate(-25,-131.30173,351.1555)"
     id="g58">
    <path
       d="m 80,288 c 0,0 -8,-5 -8,-10 0,-4 2,-6 4,-6 2,0 3,1 4,3 1,-2 2,-3 4,-3 2,0 4,2 4,6 0,5 -8,10 -8,10 z"
       fill="#ffd4e5"
       id="path54" />
    <path
       d="m 80,288 c 0,0 -8,-5 -8,-10 0,-4 2,-6 4,-6 2,0 3,1 4,3 1,-2 2,-3 4,-3 2,0 4,2 4,6 0,5 -8,10 -8,10 z"
       fill="none"
       stroke="#8b6f47"
       stroke-width="2"
       id="path56" />
  </g>
  <!-- Bottom right hearts -->
  <g
     transform="rotate(-20,40.747297,400.09378)"
     id="g64">
    <path
       d="m 300,310 c 0,0 -12,-8 -12,-16 0,-6 3,-9 7,-9 3,0 5,2 5,4 0,-2 2,-4 5,-4 4,0 7,3 7,9 0,8 -12,16 -12,16 z"
       fill="#ffdab9"
       id="path60" />
    <path
       d="m 300,310 c 0,0 -12,-8 -12,-16 0,-6 3,-9 7,-9 3,0 5,2 5,4 0,-2 2,-4 5,-4 4,0 7,3 7,9 0,8 -12,16 -12,16 z"
       fill="none"
       stroke="#8b6f47"
       stroke-width="2"
       id="path62" />
  </g>
  <g
     transform="rotate(30,449.26128,185.62667)"
     id="g70">
    <path
       d="m 320,328 c 0,0 -8,-5 -8,-10 0,-4 2,-6 4,-6 2,0 3,1 4,3 1,-2 2,-3 4,-3 2,0 4,2 4,6 0,5 -8,10 -8,10 z"
       fill="#d4e5ff"
       id="path66" />
    <path
       d="m 320,328 c 0,0 -8,-5 -8,-10 0,-4 2,-6 4,-6 2,0 3,1 4,3 1,-2 2,-3 4,-3 2,0 4,2 4,6 0,5 -8,10 -8,10 z"
       fill="none"
       stroke="#8b6f47"
       stroke-width="2"
       id="path68" />
  </g>
  <!-- Tiny sparkles between hearts -->
  <circle
     cx="100.13106"
     cy="47.366745"
     r="2"
     fill="#ffffff"
     opacity="0.8"
     id="circle72" />
  <circle
     cx="200.13106"
     cy="57.366745"
     r="2"
     fill="#fff4d4"
     opacity="0.8"
     id="circle74" />
  <circle
     cx="80.131058"
     cy="167.36674"
     r="2"
     fill="#ffffff"
     opacity="0.8"
     id="circle76" />
  <circle
     cx="220.13106"
     cy="177.36674"
     r="2"
     fill="#fff4d4"
     opacity="0.8"
     id="circle78" />
</svg>
