<?xml version="1.0" encoding="UTF-8" standalone="no"?>
<svg
   width="161"
   height="128"
   viewBox="24.4 31.4 161 128"
   version="1.1"
   id="svg59"
   xmlns="http://www.w3.org/2000/svg"
   xmlns:svg="http://www.w3.org/2000/svg">
  <defs
     id="defs19">
    <linearGradient
       id="goldenGradient"
       x1="97.467943"
       y1="93.36403"
       x2="194.93589"
       y2="190.83197"
       gradientTransform="matrix(1.0259784,0,0,0.97467943,-45.6,-40.6)"
       gradientUnits="userSpaceOnUse">
      <stop
         offset="0%"
         style="stop-color:#FFD700;stop-opacity:1"
         id="stop2" />
      <stop
         offset="50%"
         style="stop-color:#FFD4A3;stop-opacity:1"
         id="stop4" />
      <stop
         offset="100%"
         style="stop-color:#DAA520;stop-opacity:1"
         id="stop6" />
    </linearGradient>
  </defs>
  <!-- Shadow -->
  <ellipse
     cx="104.4"
     cy="139.39999"
     rx="60"
     ry="12"
     fill="#000000"
     opacity="0.08"
     id="ellipse21" />
  <!-- White sticker border -->
  <path
     d="m 104.4,159.4 c 0,0 -60,-40 -60,-80 0,-25 13,-37 28,-37 12,0 22,7 32,19 10,-12 20,-19 32,-19 15,0 28,12 28,37 0,40 -60,80 -60,80 z"
     fill="#ffffff"
     id="path25" />
  <!-- Heart outline - cocoa brown -->
  <path
     d="m 104.4,151.4 c 0,0 -55,-37 -55,-72 0,-23 11,-33 24,-33 11,0 20,6 31,17 11,-11 20,-17 31,-17 13,0 24,10 24,33 0,35 -55,72 -55,72 z"
     fill="none"
     stroke="#8b6f47"
     stroke-width="6"
     stroke-linecap="round"
     stroke-linejoin="round"
     id="path27" />
  <!-- Heart fill - golden gradient -->
  <path
     d="m 104.4,145.4 c 0,0 -50,-34 -50,-66 0,-20 9,-29 20,-29 10,0 18,5 30,15 12,-10 20,-15 30,-15 11,0 20,9 20,29 0,32 -50,66 -50,66 z"
     fill="url(#goldenGradient)"
     id="path29"
     style="fill:url(#goldenGradient)" />
  <!-- Shimmer highlights -->
  <ellipse
     cx="55.57386"
     cy="94.081169"
     rx="20"
     ry="15"
     fill="#ffffff"
     opacity="0.7"
     transform="rotate(-20)"
     id="ellipse31" />
  <ellipse
     cx="74.168701"
     cy="107.25076"
     rx="12"
     ry="8"
     fill="#ffffff"
     opacity="0.5"
     transform="rotate(-15)"
     id="ellipse33" />
  <ellipse
     cx="134.58768"
     cy="40.961887"
     rx="15"
     ry="10"
     fill="#ffffff"
     opacity="0.6"
     transform="rotate(15)"
     id="ellipse35" />
  <!-- Golden shine streaks -->
  <path
     d="m 89.4,64.4 q 5,10 3,20"
     stroke="#ffffff"
     stroke-width="2"
     opacity="0.4"
     stroke-linecap="round"
     id="path37" />
  <path
     d="m 114.4,67.4 q 3,10 1,20"
     stroke="#ffffff"
     stroke-width="2"
     opacity="0.4"
     stroke-linecap="round"
     id="path39" />
  <!-- Subtle shading at bottom -->
  <ellipse
     cx="104.4"
     cy="129.39999"
     rx="40"
     ry="15"
     fill="#000000"
     opacity="0.08"
     id="ellipse41" />
  <!-- Sparkles around heart -->
  <circle
     cx="164.39999"
     cy="64.400002"
     r="4"
     fill="#ffd700"
     opacity="0.9"
     id="circle43" />
  <circle
     cx="172.39999"
     cy="71.400002"
     r="3"
     fill="#ffffff"
     opacity="0.8"
     id="circle45" />
  <circle
     cx="44.400002"
     cy="64.400002"
     r="4"
     fill="#ffd700"
     opacity="0.9"
     id="circle47" />
  <circle
     cx="36.400002"
     cy="71.400002"
     r="3"
     fill="#ffffff"
     opacity="0.8"
     id="circle49" />
  <circle
     cx="84.400002"
     cy="34.400002"
     r="3"
     fill="#ffd4a3"
     opacity="0.85"
     id="circle51" />
  <circle
     cx="124.4"
     cy="34.400002"
     r="3"
     fill="#ffd4a3"
     opacity="0.85"
     id="circle53" />
  <!-- Tiny accent hearts -->
  <path
     d="m 24.4,99.4 c 0,-2 1,-3 2,-3 1,0 1,1 1,1 0,0 1,-1 1,-1 1,0 2,1 2,3 0,2 -3,4 -3,4 0,0 -3,-2 -3,-4 z"
     fill="#ffd4a3"
     opacity="0.6"
     id="path55" />
  <path
     d="m 179.4,99.4 c 0,-2 1,-3 2,-3 1,0 1,1 1,1 0,0 1,-1 1,-1 1,0 2,1 2,3 0,2 -3,4 -3,4 0,0 -3,-2 -3,-4 z"
     fill="#ffd4a3"
     opacity="0.6"
     id="path57" />
</svg>
