<?xml version="1.0" encoding="UTF-8" standalone="no"?>
<svg
   width="112.19611"
   height="112.16877"
   viewBox="0 0 112.19611 112.16877"
   version="1.1"
   id="svg68"
   xmlns="http://www.w3.org/2000/svg"
   xmlns:svg="http://www.w3.org/2000/svg">
  <defs
     id="defs72" />
  <!-- Central sparkle (4-point star) -->
  <g
     id="g10"
     transform="translate(-18.901942,-24.929289)">
    <!-- White glow -->
    <circle
       cx="75"
       cy="75"
       r="20"
       fill="#ffffff"
       opacity="0.3"
       id="circle2" />
    <!-- Main star shape -->
    <path
       d="M 75,55 78,72 95,75 78,78 75,95 72,78 55,75 72,72 Z"
       fill="#ffffff"
       id="path4" />
    <path
       d="M 75,55 78,72 95,75 78,78 75,95 72,78 55,75 72,72 Z"
       fill="none"
       stroke="#ffd4a3"
       stroke-width="2"
       id="path6" />
    <!-- Inner star -->
    <path
       d="m 75,65 1.5,8 8.5,2 -8.5,2 -1.5,8 -1.5,-8 -8.5,-2 8.5,-2 z"
       fill="#fff4d4"
       id="path8" />
  </g>
  <!-- Small sparkles around (8 sparkles) -->
  <!-- Top -->
  <g
     id="g16"
     transform="translate(-18.901942,-24.929289)">
    <path
       d="m 75,25 1,7 7,1 -7,1 -1,7 -1,-7 -7,-1 7,-1 z"
       fill="#ffffff"
       opacity="0.9"
       id="path12" />
    <path
       d="m 75,25 1,7 7,1 -7,1 -1,7 -1,-7 -7,-1 7,-1 z"
       fill="none"
       stroke="#ffd4a3"
       stroke-width="1"
       id="path14" />
  </g>
  <!-- Top-right -->
  <g
     id="g22"
     transform="translate(-18.901942,-24.929289)">
    <path
       d="m 110,40 1,5 5,1 -5,1 -1,5 -1,-5 -5,-1 5,-1 z"
       fill="#ffffff"
       opacity="0.9"
       id="path18" />
    <path
       d="m 110,40 1,5 5,1 -5,1 -1,5 -1,-5 -5,-1 5,-1 z"
       fill="none"
       stroke="#ffd4e5"
       stroke-width="1"
       id="path20" />
  </g>
  <!-- Right -->
  <g
     id="g28"
     transform="translate(-18.901942,-24.929289)">
    <path
       d="m 125,75 1,5 5,1 -5,1 -1,5 -1,-5 -5,-1 5,-1 z"
       fill="#ffffff"
       opacity="0.9"
       id="path24" />
    <path
       d="m 125,75 1,5 5,1 -5,1 -1,5 -1,-5 -5,-1 5,-1 z"
       fill="none"
       stroke="#ffd4a3"
       stroke-width="1"
       id="path26" />
  </g>
  <!-- Bottom-right -->
  <g
     id="g34"
     transform="translate(-18.901942,-24.929289)">
    <path
       d="m 110,110 1,5 5,1 -5,1 -1,5 -1,-5 -5,-1 5,-1 z"
       fill="#ffffff"
       opacity="0.9"
       id="path30" />
    <path
       d="m 110,110 1,5 5,1 -5,1 -1,5 -1,-5 -5,-1 5,-1 z"
       fill="none"
       stroke="#ffd4e5"
       stroke-width="1"
       id="path32" />
  </g>
  <!-- Bottom -->
  <g
     id="g40"
     transform="translate(-18.901942,-24.929289)">
    <path
       d="m 75,125 1,5 5,1 -5,1 -1,5 -1,-5 -5,-1 5,-1 z"
       fill="#ffffff"
       opacity="0.9"
       id="path36" />
    <path
       d="m 75,125 1,5 5,1 -5,1 -1,5 -1,-5 -5,-1 5,-1 z"
       fill="none"
       stroke="#ffd4a3"
       stroke-width="1"
       id="path38" />
  </g>
  <!-- Bottom-left -->
  <g
     id="g46"
     transform="translate(-18.901942,-24.929289)">
    <path
       d="m 40,110 1,5 5,1 -5,1 -1,5 -1,-5 -5,-1 5,-1 z"
       fill="#ffffff"
       opacity="0.9"
       id="path42" />
    <path
       d="m 40,110 1,5 5,1 -5,1 -1,5 -1,-5 -5,-1 5,-1 z"
       fill="none"
       stroke="#ffd4e5"
       stroke-width="1"
       id="path44" />
  </g>
  <!-- Left -->
  <g
     id="g52"
     transform="translate(-18.901942,-24.929289)">
    <path
       d="m 25,75 1,5 5,1 -5,1 -1,5 -1,-5 -5,-1 5,-1 z"
       fill="#ffffff"
       opacity="0.9"
       id="path48" />
    <path
       d="m 25,75 1,5 5,1 -5,1 -1,5 -1,-5 -5,-1 5,-1 z"
       fill="none"
       stroke="#ffd4a3"
       stroke-width="1"
       id="path50" />
  </g>
  <!-- Top-left -->
  <g
     id="g58"
     transform="translate(-18.901942,-24.929289)">
    <path
       d="m 40,40 1,5 5,1 -5,1 -1,5 -1,-5 -5,-1 5,-1 z"
       fill="#ffffff"
       opacity="0.9"
       id="path54" />
    <path
       d="m 40,40 1,5 5,1 -5,1 -1,5 -1,-5 -5,-1 5,-1 z"
       fill="none"
       stroke="#ffd4e5"
       stroke-width="1"
       id="path56" />
  </g>
  <!-- Tiny accent sparkles (very small) -->
  <circle
     cx="71.098061"
     cy="35.070709"
     r="2"
     fill="#ffffff"
     opacity="0.8"
     id="circle60" />
  <circle
     cx="41.098057"
     cy="65.070709"
     r="2"
     fill="#fff4d4"
     opacity="0.8"
     id="circle62" />
  <circle
     cx="71.098061"
     cy="65.070709"
     r="2"
     fill="#ffffff"
     opacity="0.8"
     id="circle64" />
  <circle
     cx="41.098057"
     cy="35.070709"
     r="2"
     fill="#fff4d4"
     opacity="0.8"
     id="circle66" />
</svg>
