<svg width="150" height="150" viewBox="0 0 150 150" xmlns="http://www.w3.org/2000/svg">
  <!-- Central sparkle (4-point star) -->
  <g>
    <!-- White glow -->
    <circle cx="75" cy="75" r="20" fill="#FFFFFF" opacity="0.3"/>
    
    <!-- Main star shape -->
    <path d="M 75 55 L 78 72 L 95 75 L 78 78 L 75 95 L 72 78 L 55 75 L 72 72 Z" fill="#FFFFFF"/>
    <path d="M 75 55 L 78 72 L 95 75 L 78 78 L 75 95 L 72 78 L 55 75 L 72 72 Z" fill="none" stroke="#FFD4A3" stroke-width="2"/>
    
    <!-- Inner star -->
    <path d="M 75 65 L 76.5 73 L 85 75 L 76.5 77 L 75 85 L 73.5 77 L 65 75 L 73.5 73 Z" fill="#FFF4D4"/>
  </g>
  
  <!-- Small sparkles around (8 sparkles) -->
  <!-- Top -->
  <g>
    <path d="M 75 25 L 76 32 L 83 33 L 76 34 L 75 41 L 74 34 L 67 33 L 74 32 Z" fill="#FFFFFF" opacity="0.9"/>
    <path d="M 75 25 L 76 32 L 83 33 L 76 34 L 75 41 L 74 34 L 67 33 L 74 32 Z" fill="none" stroke="#FFD4A3" stroke-width="1"/>
  </g>
  
  <!-- Top-right -->
  <g>
    <path d="M 110 40 L 111 45 L 116 46 L 111 47 L 110 52 L 109 47 L 104 46 L 109 45 Z" fill="#FFFFFF" opacity="0.9"/>
    <path d="M 110 40 L 111 45 L 116 46 L 111 47 L 110 52 L 109 47 L 104 46 L 109 45 Z" fill="none" stroke="#FFD4E5" stroke-width="1"/>
  </g>
  
  <!-- Right -->
  <g>
    <path d="M 125 75 L 126 80 L 131 81 L 126 82 L 125 87 L 124 82 L 119 81 L 124 80 Z" fill="#FFFFFF" opacity="0.9"/>
    <path d="M 125 75 L 126 80 L 131 81 L 126 82 L 125 87 L 124 82 L 119 81 L 124 80 Z" fill="none" stroke="#FFD4A3" stroke-width="1"/>
  </g>
  
  <!-- Bottom-right -->
  <g>
    <path d="M 110 110 L 111 115 L 116 116 L 111 117 L 110 122 L 109 117 L 104 116 L 109 115 Z" fill="#FFFFFF" opacity="0.9"/>
    <path d="M 110 110 L 111 115 L 116 116 L 111 117 L 110 122 L 109 117 L 104 116 L 109 115 Z" fill="none" stroke="#FFD4E5" stroke-width="1"/>
  </g>
  
  <!-- Bottom -->
  <g>
    <path d="M 75 125 L 76 130 L 81 131 L 76 132 L 75 137 L 74 132 L 69 131 L 74 130 Z" fill="#FFFFFF" opacity="0.9"/>
    <path d="M 75 125 L 76 130 L 81 131 L 76 132 L 75 137 L 74 132 L 69 131 L 74 130 Z" fill="none" stroke="#FFD4A3" stroke-width="1"/>
  </g>
  
  <!-- Bottom-left -->
  <g>
    <path d="M 40 110 L 41 115 L 46 116 L 41 117 L 40 122 L 39 117 L 34 116 L 39 115 Z" fill="#FFFFFF" opacity="0.9"/>
    <path d="M 40 110 L 41 115 L 46 116 L 41 117 L 40 122 L 39 117 L 34 116 L 39 115 Z" fill="none" stroke="#FFD4E5" stroke-width="1"/>
  </g>
  
  <!-- Left -->
  <g>
    <path d="M 25 75 L 26 80 L 31 81 L 26 82 L 25 87 L 24 82 L 19 81 L 24 80 Z" fill="#FFFFFF" opacity="0.9"/>
    <path d="M 25 75 L 26 80 L 31 81 L 26 82 L 25 87 L 24 82 L 19 81 L 24 80 Z" fill="none" stroke="#FFD4A3" stroke-width="1"/>
  </g>
  
  <!-- Top-left -->
  <g>
    <path d="M 40 40 L 41 45 L 46 46 L 41 47 L 40 52 L 39 47 L 34 46 L 39 45 Z" fill="#FFFFFF" opacity="0.9"/>
    <path d="M 40 40 L 41 45 L 46 46 L 41 47 L 40 52 L 39 47 L 34 46 L 39 45 Z" fill="none" stroke="#FFD4E5" stroke-width="1"/>
  </g>
  
  <!-- Tiny accent sparkles (very small) -->
  <circle cx="90" cy="60" r="2" fill="#FFFFFF" opacity="0.8"/>
  <circle cx="60" cy="90" r="2" fill="#FFF4D4" opacity="0.8"/>
  <circle cx="90" cy="90" r="2" fill="#FFFFFF" opacity="0.8"/>
  <circle cx="60" cy="60" r="2" fill="#FFF4D4" opacity="0.8"/>
</svg>