<svg width="400" height="300" viewBox="0 0 400 300" xmlns="http://www.w3.org/2000/svg">
  <!-- Soft shadow -->
  <ellipse cx="200" cy="220" rx="100" ry="12" fill="#000000" opacity="0.08"/>
  
  <!-- White sticker border -->
  <rect x="80" y="70" width="240" height="140" rx="12" fill="#FFFFFF"/>
  
  <!-- Box - cocoa outline -->
  <rect x="88" y="78" width="224" height="124" rx="10" fill="none" stroke="#8B6F47" stroke-width="6"/>
  
  <!-- Box - cream fill -->
  <rect x="93" y="83" width="214" height="114" rx="8" fill="#F5E6D3"/>
  
  <!-- Gentle highlight -->
  <rect x="100" y="90" width="60" height="80" rx="6" fill="#FFFFFF" opacity="0.3"/>
  
  <!-- Subtle shading -->
  <rect x="93" y="165" width="214" height="32" rx="8" fill="#000000" opacity="0.04"/>
  
  <!-- Tiny sparkles -->
  <circle cx="325" cy="95" r="3" fill="#FFFFFF" opacity="0.8"/>
  <circle cx="75" cy="95" r="3" fill="#FFFFFF" opacity="0.8"/>
  
  <!-- Tiny heart -->
  <path d="M 60 140 C 60 138 61 137 62 137 C 63 137 63 138 63 138 C 63 138 64 137 64 137 C 65 137 66 138 66 140 C 66 142 63 144 63 144 C 63 144 60 142 60 140 Z" fill="#FFB6C1" opacity="0.5"/>
</svg>