<svg width="400" height="400" viewBox="0 0 400 400" xmlns="http://www.w3.org/2000/svg">
  <!-- Soft shadow -->
  <ellipse cx="200" cy="260" rx="70" ry="12" fill="#000000" opacity="0.08"/>
  
  <!-- White sticker border -->
  <g>
    <!-- Person 1 border -->
    <circle cx="175" cy="170" r="26" fill="#FFFFFF"/>
    <ellipse cx="170" cy="215" rx="32" ry="40" fill="#FFFFFF"/>
    <!-- Person 2 border -->
    <circle cx="225" cy="170" r="26" fill="#FFFFFF"/>
    <ellipse cx="230" cy="215" rx="32" ry="40" fill="#FFFFFF"/>
  </g>
  
  <!-- PERSON 1 (left) -->
  <!-- Head -->
  <circle cx="175" cy="170" r="22" fill="none" stroke="#8B6F47" stroke-width="6"/>
  <circle cx="175" cy="170" r="18" fill="#FFD4E5"/>
  
  <!-- Body -->
  <ellipse cx="170" cy="215" rx="28" ry="36" fill="none" stroke="#8B6F47" stroke-width="6"/>
  <ellipse cx="170" cy="215" rx="24" ry="32" fill="#FFDAB9"/>
  
  <!-- Simple facial features -->
  <circle cx="170" cy="168" r="2" fill="#8B6F47"/>
  <circle cx="180" cy="168" r="2" fill="#8B6F47"/>
  <path d="M 172 175 Q 175 177 178 175" fill="none" stroke="#8B6F47" stroke-width="2" stroke-linecap="round"/>
  
  <!-- PERSON 2 (right) -->
  <!-- Head -->
  <circle cx="225" cy="170" r="22" fill="none" stroke="#8B6F47" stroke-width="6"/>
  <circle cx="225" cy="170" r="18" fill="#D4E5FF"/>
  
  <!-- Body -->
  <ellipse cx="230" cy="215" rx="28" ry="36" fill="none" stroke="#8B6F47" stroke-width="6"/>
  <ellipse cx="230" cy="215" rx="24" ry="32" fill="#F5E6D3"/>
  
  <!-- Simple facial features -->
  <circle cx="220" cy="168" r="2" fill="#8B6F47"/>
  <circle cx="230" cy="168" r="2" fill="#8B6F47"/>
  <path d="M 222 175 Q 225 177 228 175" fill="none" stroke="#8B6F47" stroke-width="2" stroke-linecap="round"/>
  
  <!-- Hearts floating between them -->
  <path d="M 195 150 C 195 148 196 147 197 147 C 198 147 198 148 198 148 C 198 148 199 147 199 147 C 200 147 201 148 201 150 C 201 152 198 154 198 154 C 198 154 195 152 195 150 Z" fill="#FFB6C1"/>
  
  <path d="M 205 155 C 205 153.5 205.5 153 206 153 C 206.5 153 207 153.5 207 154 C 207 153.5 207.5 153 208 153 C 208.5 153 209 153.5 209 155 C 209 156.5 207 158 207 158 C 207 158 205 156.5 205 155 Z" fill="#FFB6C1"/>
  
  <!-- Hearts above -->
  <path d="M 185 140 C 185 138 186 137 187 137 C 188 137 188 138 188 138 C 188 138 189 137 189 137 C 190 137 191 138 191 140 C 191 142 188 144 188 144 C 188 144 185 142 185 140 Z" fill="#FFB6C1" opacity="0.6"/>
  
  <path d="M 215 138 C 215 136 216 135 217 135 C 218 135 218 136 218 136 C 218 136 219 135 219 135 C 220 135 221 136 221 138 C 221 140 218 142 218 142 C 218 142 215 140 215 138 Z" fill="#FFB6C1" opacity="0.6"/>
  
  <!-- Sparkles -->
  <circle cx="155" cy="185" r="2.5" fill="#FFFFFF" opacity="0.8"/>
  <circle cx="245" cy="185" r="2.5" fill="#FFFFFF" opacity="0.8"/>
</svg>