<svg width="400" height="400" viewBox="0 0 400 400" xmlns="http://www.w3.org/2000/svg">
  <!-- Soft shadow -->
  <ellipse cx="200" cy="245" rx="70" ry="12" fill="#000000" opacity="0.08"/>
  
  <!-- White sticker border -->
  <rect x="130" y="165" width="140" height="100" rx="8" fill="#FFFFFF"/>
  
  <!-- Main chocolate bar - cocoa brown outline (sharp rectangular edges) -->
  <rect x="138" y="173" width="124" height="84" fill="none" stroke="#8B6F47" stroke-width="8"/>
  
  <!-- Main chocolate bar - rich brown fill -->
  <rect x="142" y="177" width="116" height="76" fill="#6B4423"/>
  
  <!-- Chocolate squares divider lines (6 squares: 2 rows of 3) -->
  <!-- Vertical dividers -->
  <line x1="180.67" y1="177" x2="180.67" y2="253" stroke="#8B6F47" stroke-width="3"/>
  <line x1="219.33" y1="177" x2="219.33" y2="253" stroke="#8B6F47" stroke-width="3"/>
  
  <!-- Horizontal divider -->
  <line x1="142" y1="215" x2="258" y2="215" stroke="#8B6F47" stroke-width="3"/>
  
  <!-- Highlights on chocolate squares (top row) -->
  <rect x="145" y="180" width="32" height="8" fill="#FFFFFF" opacity="0.2"/>
  <rect x="183.67" y="180" width="32" height="8" fill="#FFFFFF" opacity="0.2"/>
  <rect x="222.33" y="180" width="32" height="8" fill="#FFFFFF" opacity="0.2"/>
  
  <!-- Subtle shading at bottom of chocolate -->
  <rect x="142" y="235" width="116" height="18" fill="#000000" opacity="0.08"/>
  
  <!-- Tiny sparkles -->
  <circle cx="275" cy="170" r="3" fill="#FFFFFF" opacity="0.8"/>
  <circle cx="282" cy="177" r="2" fill="#FFFFFF" opacity="0.6"/>
  
  <!-- Tiny heart accent -->
  <path d="M 120 180 C 120 178 121 177 122 177 C 123 177 123 178 123 178 C 123 178 124 177 124 177 C 125 177 126 178 126 180 C 126 182 123 184 123 184 C 123 184 120 182 120 180 Z" fill="#FFB6C1" opacity="0.5"/>
  
  <!-- Additional tiny heart on chocolate -->
  <path d="M 245 190 C 245 188.5 246 188 247 188 C 247.5 188 248 188.5 248 189 C 248 188.5 248.5 188 249 188 C 250 188.5 250.5 189 250.5 190 C 250.5 191.5 248 193 248 193 C 248 193 245 191.5 245 190 Z" fill="#FFDAB9" opacity="0.4"/>
</svg>