<svg width="400" height="400" viewBox="0 0 400 400" xmlns="http://www.w3.org/2000/svg">
  <!-- Soft shadow -->
  <ellipse cx="200" cy="250" rx="70" ry="12" fill="#000000" opacity="0.08"/>
  
  <!-- White sticker border (heart shape) -->
  <path d="M 200 260 C 200 260 130 200 130 160 C 130 135 150 120 175 120 C 190 120 198 127 200 138 C 202 127 210 120 225 120 C 250 135 270 135 270 160 C 270 200 200 260 200 260 Z" fill="#FFFFFF"/>
  
  <!-- Cocoa brown outline (heart shape) -->
  <path d="M 200 252 C 200 252 138 195 138 160 C 138 138 155 126 177 126 C 191 126 198 132 200 142 C 202 132 209 126 223 126 C 245 126 262 138 262 160 C 262 195 200 252 200 252 Z" fill="none" stroke="#8B6F47" stroke-width="10"/>
  
  <!-- Baby pink fill (heart shape) -->
  <path d="M 200 245 C 200 245 145 192 145 160 C 145 141 160 130 179 130 C 192 130 198 136 200 145 C 202 136 208 130 221 130 C 240 130 255 141 255 160 C 255 192 200 245 200 245 Z" fill="#FFD4E5"/>
  
  <!-- Soft golden highlight (top left area) -->
  <path d="M 170 145 Q 165 150 162 160 Q 160 170 165 180 L 185 155 Q 180 145 170 145 Z" fill="#FFD4A3" opacity="0.6"/>
  
  <!-- Additional soft golden glow -->
  <ellipse cx="175" cy="155" rx="25" ry="20" fill="#FFD4A3" opacity="0.4" transform="rotate(-20 175 155)"/>
  
  <!-- Subtle inner shading at bottom of heart -->
  <path d="M 200 245 C 200 245 145 192 145 160 C 145 160 155 220 200 245 C 245 220 255 160 255 160 C 255 192 200 245 200 245 Z" fill="#000000" opacity="0.04"/>
  
  <!-- Gentle white highlight shine on top -->
  <ellipse cx="185" cy="150" rx="22" ry="15" fill="#FFFFFF" opacity="0.5" transform="rotate(-15 185 150)"/>
  
  <!-- Additional shine accent -->
  <ellipse cx="215" cy="155" rx="15" ry="10" fill="#FFFFFF" opacity="0.3"/>
  
  <!-- Tiny sparkles around the heart -->
  <circle cx="145" cy="145" r="3" fill="#FFD4A3" opacity="0.8"/>
  <circle cx="255" cy="145" r="3" fill="#FFD4A3" opacity="0.8"/>
  <circle cx="135" cy="180" r="2.5" fill="#FFFFFF" opacity="0.8"/>
  <circle cx="265" cy="180" r="2.5" fill="#FFFFFF" opacity="0.8"/>
  
  <!-- Tiny heart accent -->
  <path d="M 120 155 C 120 153 121 152 122 152 C 123 152 123 153 123 153 C 123 153 124 152 124 152 C 125 152 126 153 126 155 C 126 157 123 159 123 159 C 123 159 120 157 120 155 Z" fill="#FFB6C1" opacity="0.5"/>
</svg>